<svg version="1.1" xmlns="http://www.w3.org/2000/svg" xmlns:xlink="http://www.w3.org/1999/xlink" stroke-linecap="round" stroke-linejoin="round" stroke-width="0" fill-rule="evenodd" width="125.00002mm" height="101.99999000000001mm" viewBox="0 0.01 125000.02 101999.99" id="NGJxaWYWdkGYf_Mz4vF7"><g transform="translate(0,102000.01000000001) scale(1,-1)" fill="currentColor" stroke="currentColor"><path d="M 2000 0.01 A 2000 2000 0 0 0 0 2000.01 L 0.01 100000 A 2000 2000 0 0 0 2000.01 102000 L 123000.02 102000 A 2000 2000 0 0 0 125000.02 100000 L 125000.02 2000.01 A 2000.01 2000.01 0 0 0 123000 0.01 L 113423.71 25.41 113423.7 2781.3 113080.8 3124.2 110667.8 3124.2 110299.5 3492.5 110299.5 6159.5 110642.4 6502.4 111506 6502.4 A 1625.6 1625.6 0 0 1 111506 9753.6 L 110642.4 9753.6 110299.5 10096.5 110299.5 12636.5 110007.4 12928.6 101574.6 12928.6 101282.5 12636.5 101282.5 10096.5 100939.6 9753.6 100076 9753.6 A 1625.6 1625.6 0 0 1 100076 6502.4 L 101066.6 6502.4 101282.5 6286.5 101282.5 3492.5 100914.2 3124.2 98374.2 3124.2 98158.3 2908.3 98158.3 25.4 98158.31 0.01 2000 0.01" fill="none" stroke-width="25.4"/></g></svg>