<svg version="1.1" xmlns="http://www.w3.org/2000/svg" xmlns:xlink="http://www.w3.org/1999/xlink" stroke-linecap="round" stroke-linejoin="round" stroke-width="0" fill-rule="evenodd" width="122.2032mm" height="97.83121000000001mm" viewBox="1398.4 1398.4 122203.2 97831.21" id="XPO_Q6lA-SoxiRuqhvfv"><defs><circle cx="0" cy="0" r="698.5" id="XPO_Q6lA-SoxiRuqhvfv_pad-76"/><g id="XPO_Q6lA-SoxiRuqhvfv_pad-119"><polygon points="487.5,1076.6 487.5,-1076.6 -487.5,-1076.6 -487.5,1076.6"/><polygon points="1076.6,487.5 1076.6,-487.5 -1076.6,-487.5 -1076.6,487.5"/><circle cx="-487.5" cy="-487.5" r="589.1"/><circle cx="-487.5" cy="487.5" r="589.1"/><circle cx="487.5" cy="487.5" r="589.1"/><circle cx="487.5" cy="-487.5" r="589.1"/></g><circle cx="0" cy="0" r="1076.6" id="XPO_Q6lA-SoxiRuqhvfv_pad-120"/><circle cx="0" cy="0" r="3601.6" id="XPO_Q6lA-SoxiRuqhvfv_pad-121"/><circle cx="0" cy="0" r="755.6" id="XPO_Q6lA-SoxiRuqhvfv_pad-122"/><circle cx="0" cy="0" r="1476.6" id="XPO_Q6lA-SoxiRuqhvfv_pad-123"/><rect x="-1151.6" y="-1001.6" width="2303.2" height="2003.2" rx="1001.6" ry="1001.6" id="XPO_Q6lA-SoxiRuqhvfv_pad-124"/><rect x="-751.6" y="-751.6" width="1503.2" height="1503.2" id="XPO_Q6lA-SoxiRuqhvfv_pad-125"/><circle cx="0" cy="0" r="751.6" id="XPO_Q6lA-SoxiRuqhvfv_pad-126"/><g id="XPO_Q6lA-SoxiRuqhvfv_pad-127"><polygon points="1076.6,-487.5 -1076.6,-487.5 -1076.6,487.5 1076.6,487.5"/><polygon points="487.5,-1076.6 -487.5,-1076.6 -487.5,1076.6 487.5,1076.6"/><circle cx="-487.5" cy="487.5" r="589.1"/><circle cx="487.5" cy="487.5" r="589.1"/><circle cx="487.5" cy="-487.5" r="589.1"/><circle cx="-487.5" cy="-487.5" r="589.1"/></g><circle cx="0" cy="0" r="1601.6" id="XPO_Q6lA-SoxiRuqhvfv_pad-128"/><circle cx="0" cy="0" r="705.6" id="XPO_Q6lA-SoxiRuqhvfv_pad-129"/><circle cx="0" cy="0" r="730.6" id="XPO_Q6lA-SoxiRuqhvfv_pad-130"/><circle cx="0" cy="0" r="901.6" id="XPO_Q6lA-SoxiRuqhvfv_pad-131"/><g id="XPO_Q6lA-SoxiRuqhvfv_pad-132"><polygon points="400,-901.6 400,901.6 -400,901.6 -400,-901.6"/><polygon points="901.6,-400 901.6,400 -901.6,400 -901.6,-400"/><circle cx="400" cy="400" r="501.6"/><circle cx="400" cy="-400" r="501.6"/><circle cx="-400" cy="-400" r="501.6"/><circle cx="-400" cy="400" r="501.6"/></g><circle cx="0" cy="0" r="1201.6" id="XPO_Q6lA-SoxiRuqhvfv_pad-133"/></defs><g transform="translate(0,100628.01000000001) scale(1,-1)" fill="currentColor" stroke="currentColor"><use xlink:href="#XPO_Q6lA-SoxiRuqhvfv_pad-76" x="101346" y="14478"/><use xlink:href="#XPO_Q6lA-SoxiRuqhvfv_pad-76" x="102616" y="17018"/><use xlink:href="#XPO_Q6lA-SoxiRuqhvfv_pad-76" x="103886" y="14478"/><use xlink:href="#XPO_Q6lA-SoxiRuqhvfv_pad-76" x="105156" y="17018"/><use xlink:href="#XPO_Q6lA-SoxiRuqhvfv_pad-76" x="106426" y="14478"/><use xlink:href="#XPO_Q6lA-SoxiRuqhvfv_pad-76" x="107696" y="17018"/><use xlink:href="#XPO_Q6lA-SoxiRuqhvfv_pad-76" x="108966" y="14478"/><use xlink:href="#XPO_Q6lA-SoxiRuqhvfv_pad-76" x="110236" y="17018"/><use xlink:href="#XPO_Q6lA-SoxiRuqhvfv_pad-119" x="5076" y="85939.03"/><use xlink:href="#XPO_Q6lA-SoxiRuqhvfv_pad-120" x="5076" y="80938.99"/><use xlink:href="#XPO_Q6lA-SoxiRuqhvfv_pad-120" x="82429.62" y="95203.22"/><use xlink:href="#XPO_Q6lA-SoxiRuqhvfv_pad-120" x="106897.79" y="95228.62"/><use xlink:href="#XPO_Q6lA-SoxiRuqhvfv_pad-121" x="120000" y="95000"/><use xlink:href="#XPO_Q6lA-SoxiRuqhvfv_pad-121" x="5000" y="5000"/><use xlink:href="#XPO_Q6lA-SoxiRuqhvfv_pad-121" x="5000" y="95000"/><use xlink:href="#XPO_Q6lA-SoxiRuqhvfv_pad-121" x="75000" y="95000"/><use xlink:href="#XPO_Q6lA-SoxiRuqhvfv_pad-121" x="75000" y="5000"/><use xlink:href="#XPO_Q6lA-SoxiRuqhvfv_pad-121" x="120000" y="5000"/><use xlink:href="#XPO_Q6lA-SoxiRuqhvfv_pad-122" x="30861.01" y="3327.41"/><use xlink:href="#XPO_Q6lA-SoxiRuqhvfv_pad-122" x="33401.01" y="3327.41"/><use xlink:href="#XPO_Q6lA-SoxiRuqhvfv_pad-122" x="48641.01" y="18567.41"/><use xlink:href="#XPO_Q6lA-SoxiRuqhvfv_pad-122" x="51181.01" y="18567.41"/><use xlink:href="#XPO_Q6lA-SoxiRuqhvfv_pad-122" x="10541.01" y="3327.41"/><use xlink:href="#XPO_Q6lA-SoxiRuqhvfv_pad-122" x="13081.01" y="3327.41"/><use xlink:href="#XPO_Q6lA-SoxiRuqhvfv_pad-122" x="56261.01" y="5867.41"/><use xlink:href="#XPO_Q6lA-SoxiRuqhvfv_pad-122" x="56261.01" y="8407.41"/><use xlink:href="#XPO_Q6lA-SoxiRuqhvfv_pad-122" x="56261.01" y="10947.41"/><use xlink:href="#XPO_Q6lA-SoxiRuqhvfv_pad-122" x="56261.01" y="16027.41"/><use xlink:href="#XPO_Q6lA-SoxiRuqhvfv_pad-122" x="13081.01" y="16027.41"/><use xlink:href="#XPO_Q6lA-SoxiRuqhvfv_pad-122" x="56261.01" y="13487.41"/><use xlink:href="#XPO_Q6lA-SoxiRuqhvfv_pad-122" x="46101.01" y="18567.41"/><use xlink:href="#XPO_Q6lA-SoxiRuqhvfv_pad-122" x="15621.01" y="3327.41"/><use xlink:href="#XPO_Q6lA-SoxiRuqhvfv_pad-122" x="18161.01" y="3327.41"/><use xlink:href="#XPO_Q6lA-SoxiRuqhvfv_pad-122" x="20701.01" y="3327.41"/><use xlink:href="#XPO_Q6lA-SoxiRuqhvfv_pad-122" x="23241.01" y="3327.41"/><use xlink:href="#XPO_Q6lA-SoxiRuqhvfv_pad-122" x="25781.01" y="3327.41"/><use xlink:href="#XPO_Q6lA-SoxiRuqhvfv_pad-122" x="28321.01" y="3327.41"/><use xlink:href="#XPO_Q6lA-SoxiRuqhvfv_pad-122" x="35941.01" y="3327.41"/><use xlink:href="#XPO_Q6lA-SoxiRuqhvfv_pad-122" x="38481.01" y="3327.41"/><use xlink:href="#XPO_Q6lA-SoxiRuqhvfv_pad-122" x="41021.01" y="3327.41"/><use xlink:href="#XPO_Q6lA-SoxiRuqhvfv_pad-122" x="43561.01" y="3327.41"/><use xlink:href="#XPO_Q6lA-SoxiRuqhvfv_pad-122" x="46101.01" y="3327.41"/><use xlink:href="#XPO_Q6lA-SoxiRuqhvfv_pad-122" x="43561.01" y="18567.41"/><use xlink:href="#XPO_Q6lA-SoxiRuqhvfv_pad-122" x="41021.01" y="18567.41"/><use xlink:href="#XPO_Q6lA-SoxiRuqhvfv_pad-122" x="38481.01" y="18567.41"/><use xlink:href="#XPO_Q6lA-SoxiRuqhvfv_pad-122" x="35941.01" y="18567.41"/><use xlink:href="#XPO_Q6lA-SoxiRuqhvfv_pad-122" x="33401.01" y="18567.41"/><use xlink:href="#XPO_Q6lA-SoxiRuqhvfv_pad-122" x="30861.01" y="18567.41"/><use xlink:href="#XPO_Q6lA-SoxiRuqhvfv_pad-122" x="28321.01" y="18567.41"/><use xlink:href="#XPO_Q6lA-SoxiRuqhvfv_pad-122" x="25781.01" y="18567.41"/><use xlink:href="#XPO_Q6lA-SoxiRuqhvfv_pad-122" x="23241.01" y="18567.41"/><use xlink:href="#XPO_Q6lA-SoxiRuqhvfv_pad-122" x="20701.01" y="18567.41"/><use xlink:href="#XPO_Q6lA-SoxiRuqhvfv_pad-122" x="18161.01" y="18567.41"/><use xlink:href="#XPO_Q6lA-SoxiRuqhvfv_pad-122" x="15621.01" y="18567.41"/><use xlink:href="#XPO_Q6lA-SoxiRuqhvfv_pad-122" x="13081.01" y="18567.41"/><use xlink:href="#XPO_Q6lA-SoxiRuqhvfv_pad-122" x="10541.01" y="18567.41"/><use xlink:href="#XPO_Q6lA-SoxiRuqhvfv_pad-122" x="48641.01" y="3327.41"/><use xlink:href="#XPO_Q6lA-SoxiRuqhvfv_pad-122" x="51181.01" y="3327.41"/><use xlink:href="#XPO_Q6lA-SoxiRuqhvfv_pad-122" x="53721.01" y="3327.41"/><use xlink:href="#XPO_Q6lA-SoxiRuqhvfv_pad-122" x="56261.01" y="3327.41"/><use xlink:href="#XPO_Q6lA-SoxiRuqhvfv_pad-122" x="58801.01" y="3327.41"/><use xlink:href="#XPO_Q6lA-SoxiRuqhvfv_pad-122" x="61341.01" y="3327.41"/><use xlink:href="#XPO_Q6lA-SoxiRuqhvfv_pad-122" x="63881.01" y="3327.41"/><use xlink:href="#XPO_Q6lA-SoxiRuqhvfv_pad-122" x="66421.01" y="3327.41"/><use xlink:href="#XPO_Q6lA-SoxiRuqhvfv_pad-122" x="68961.01" y="3327.41"/><use xlink:href="#XPO_Q6lA-SoxiRuqhvfv_pad-122" x="68961.01" y="18567.41"/><use xlink:href="#XPO_Q6lA-SoxiRuqhvfv_pad-122" x="66421.01" y="18567.41"/><use xlink:href="#XPO_Q6lA-SoxiRuqhvfv_pad-122" x="63881.01" y="18567.41"/><use xlink:href="#XPO_Q6lA-SoxiRuqhvfv_pad-122" x="61341.01" y="18567.41"/><use xlink:href="#XPO_Q6lA-SoxiRuqhvfv_pad-122" x="58801.01" y="18567.41"/><use xlink:href="#XPO_Q6lA-SoxiRuqhvfv_pad-122" x="56261.01" y="18567.41"/><use xlink:href="#XPO_Q6lA-SoxiRuqhvfv_pad-122" x="53721.01" y="18567.41"/><use xlink:href="#XPO_Q6lA-SoxiRuqhvfv_pad-123" x="26162" y="41275"/><use xlink:href="#XPO_Q6lA-SoxiRuqhvfv_pad-123" x="26162" y="67945"/><use xlink:href="#XPO_Q6lA-SoxiRuqhvfv_pad-124" x="3302" y="41910"/><use xlink:href="#XPO_Q6lA-SoxiRuqhvfv_pad-124" x="3302" y="44450"/><use xlink:href="#XPO_Q6lA-SoxiRuqhvfv_pad-124" x="3302" y="46990"/><use xlink:href="#XPO_Q6lA-SoxiRuqhvfv_pad-124" x="3302" y="49530"/><use xlink:href="#XPO_Q6lA-SoxiRuqhvfv_pad-124" x="3302" y="52070"/><use xlink:href="#XPO_Q6lA-SoxiRuqhvfv_pad-124" x="3302" y="54610"/><use xlink:href="#XPO_Q6lA-SoxiRuqhvfv_pad-124" x="3302" y="57150"/><use xlink:href="#XPO_Q6lA-SoxiRuqhvfv_pad-124" x="3302" y="59690"/><use xlink:href="#XPO_Q6lA-SoxiRuqhvfv_pad-124" x="3302" y="62230"/><use xlink:href="#XPO_Q6lA-SoxiRuqhvfv_pad-124" x="3302" y="64770"/><use xlink:href="#XPO_Q6lA-SoxiRuqhvfv_pad-124" x="3302" y="67310"/><use xlink:href="#XPO_Q6lA-SoxiRuqhvfv_pad-125" x="57049.99" y="55699.37"/><use xlink:href="#XPO_Q6lA-SoxiRuqhvfv_pad-125" x="121056.41" y="74868.39"/><use xlink:href="#XPO_Q6lA-SoxiRuqhvfv_pad-125" x="71628.01" y="46521.99"/><use xlink:href="#XPO_Q6lA-SoxiRuqhvfv_pad-125" x="99771.21" y="79454.05"/><use xlink:href="#XPO_Q6lA-SoxiRuqhvfv_pad-125" x="70516.71" y="79532.34"/><use xlink:href="#XPO_Q6lA-SoxiRuqhvfv_pad-125" x="92348.67" y="75689.57"/><use xlink:href="#XPO_Q6lA-SoxiRuqhvfv_pad-126" x="57049.99" y="58199.39"/><use xlink:href="#XPO_Q6lA-SoxiRuqhvfv_pad-126" x="57049.99" y="60699.41"/><use xlink:href="#XPO_Q6lA-SoxiRuqhvfv_pad-126" x="121056.41" y="77368.41"/><use xlink:href="#XPO_Q6lA-SoxiRuqhvfv_pad-126" x="121056.41" y="79868.38"/><use xlink:href="#XPO_Q6lA-SoxiRuqhvfv_pad-126" x="71628.01" y="51522.03"/><use xlink:href="#XPO_Q6lA-SoxiRuqhvfv_pad-126" x="71628.01" y="49022.01"/><use xlink:href="#XPO_Q6lA-SoxiRuqhvfv_pad-126" x="99771.21" y="74454.06"/><use xlink:href="#XPO_Q6lA-SoxiRuqhvfv_pad-126" x="99771.21" y="76954.03"/><use xlink:href="#XPO_Q6lA-SoxiRuqhvfv_pad-126" x="70516.71" y="77032.32"/><use xlink:href="#XPO_Q6lA-SoxiRuqhvfv_pad-126" x="70516.71" y="74532.35"/><use xlink:href="#XPO_Q6lA-SoxiRuqhvfv_pad-126" x="92348.67" y="78189.59"/><use xlink:href="#XPO_Q6lA-SoxiRuqhvfv_pad-126" x="92348.67" y="80689.56"/><use xlink:href="#XPO_Q6lA-SoxiRuqhvfv_pad-127" x="87429.61" y="95203.22"/><use xlink:href="#XPO_Q6lA-SoxiRuqhvfv_pad-127" x="111897.78" y="95228.62"/><use xlink:href="#XPO_Q6lA-SoxiRuqhvfv_pad-128" x="44704.01" y="90028.02"/><use xlink:href="#XPO_Q6lA-SoxiRuqhvfv_pad-128" x="44704.01" y="93828.02"/><use xlink:href="#XPO_Q6lA-SoxiRuqhvfv_pad-128" x="44704.01" y="97628.01"/><use xlink:href="#XPO_Q6lA-SoxiRuqhvfv_pad-128" x="36204" y="84328.01"/><use xlink:href="#XPO_Q6lA-SoxiRuqhvfv_pad-128" x="53204.02" y="84328.01"/><use xlink:href="#XPO_Q6lA-SoxiRuqhvfv_pad-128" x="40904.02" y="75928.03"/><use xlink:href="#XPO_Q6lA-SoxiRuqhvfv_pad-128" x="44704.01" y="75928.03"/><use xlink:href="#XPO_Q6lA-SoxiRuqhvfv_pad-128" x="48504.01" y="75928.03"/><use xlink:href="#XPO_Q6lA-SoxiRuqhvfv_pad-129" x="25511.01" y="16117.43"/><use xlink:href="#XPO_Q6lA-SoxiRuqhvfv_pad-129" x="23511.01" y="16117.43"/><use xlink:href="#XPO_Q6lA-SoxiRuqhvfv_pad-129" x="25511.01" y="14117.43"/><use xlink:href="#XPO_Q6lA-SoxiRuqhvfv_pad-129" x="25511.01" y="12117.44"/><use xlink:href="#XPO_Q6lA-SoxiRuqhvfv_pad-129" x="23511.01" y="14117.43"/><use xlink:href="#XPO_Q6lA-SoxiRuqhvfv_pad-129" x="23511.01" y="12117.44"/><use xlink:href="#XPO_Q6lA-SoxiRuqhvfv_pad-130" x="16891.01" y="6377.44"/><use xlink:href="#XPO_Q6lA-SoxiRuqhvfv_pad-130" x="19431.01" y="6377.44"/><use xlink:href="#XPO_Q6lA-SoxiRuqhvfv_pad-130" x="21971.01" y="6377.44"/><use xlink:href="#XPO_Q6lA-SoxiRuqhvfv_pad-130" x="24511.01" y="6377.44"/><use xlink:href="#XPO_Q6lA-SoxiRuqhvfv_pad-130" x="27051.01" y="6377.44"/><use xlink:href="#XPO_Q6lA-SoxiRuqhvfv_pad-131" x="122601.6" y="50309.64"/><use xlink:href="#XPO_Q6lA-SoxiRuqhvfv_pad-131" x="122601.6" y="47769.64"/><use xlink:href="#XPO_Q6lA-SoxiRuqhvfv_pad-132" x="122601.6" y="45229.64"/><use xlink:href="#XPO_Q6lA-SoxiRuqhvfv_pad-133" x="15748.01" y="82978.15"/><use xlink:href="#XPO_Q6lA-SoxiRuqhvfv_pad-133" x="15748.01" y="93138.15"/><use xlink:href="#XPO_Q6lA-SoxiRuqhvfv_pad-133" x="25908.01" y="93138.15"/><use xlink:href="#XPO_Q6lA-SoxiRuqhvfv_pad-133" x="25908.01" y="82978.15"/></g></svg>