<svg version="1.1" xmlns="http://www.w3.org/2000/svg" xmlns:xlink="http://www.w3.org/1999/xlink" stroke-linecap="round" stroke-linejoin="round" stroke-width="0" fill-rule="evenodd" width="122.02637mm" height="97.40858999999999mm" viewBox="2719.5 2755.91 122026.37 97408.59" id="R_Z9rz-bWEFhxjds2rzd"><g transform="translate(0,102920.41) scale(1,-1)" fill="currentColor" stroke="currentColor"><path d="M 4568 85431.03 4568 86447.03 5584 86447.03 5584 85431.03 4568 85431.03 M 4568 80430.99 4568 81446.99 5584 81446.99 5584 80430.99 4568 80430.99 M 119746 94746 119746 94492 120254 94492 120254 94746 120508 94746 120508 95254 120254 95254 120254 95508 119746 95508 119746 95254 119492 95254 119492 94746 119746 94746 M 4746 4746 4746 4492 5254 4492 5254 4746 5508 4746 5508 5254 5254 5254 5254 5508 4746 5508 4746 5254 4492 5254 4492 4746 4746 4746 M 4746 94746 4746 94492 5254 94492 5254 94746 5508 94746 5508 95254 5254 95254 5254 95508 4746 95508 4746 95254 4492 95254 4492 94746 4746 94746 M 74746 94746 74746 94492 75254 94492 75254 94746 75508 94746 75508 95254 75254 95254 75254 95508 74746 95508 74746 95254 74492 95254 74492 94746 74746 94746 M 74746 4746 74746 4492 75254 4492 75254 4746 75508 4746 75508 5254 75254 5254 75254 5508 74746 5508 74746 5254 74492 5254 74492 4746 74746 4746 M 119746 4746 119746 4492 120254 4492 120254 4746 120508 4746 120508 5254 120254 5254 120254 5508 119746 5508 119746 5254 119492 5254 119492 4746 119746 4746 M 100838 14478 101346 14986 101854 14478 101346 13970 100838 14478 M 102108 17018 102616 17526 103124 17018 102616 16510 102108 17018 M 103378 14478 103886 14986 104394 14478 103886 13970 103378 14478 M 104648 17018 105156 17526 105664 17018 105156 16510 104648 17018 M 105918 14478 106426 14986 106934 14478 106426 13970 105918 14478 M 107188 17018 107696 17526 108204 17018 107696 16510 107188 17018 M 108458 14478 108966 14986 109474 14478 108966 13970 108458 14478 M 109728 17018 110236 17526 110744 17018 110236 16510 109728 17018 M 97840.8 10668 98094.8 10668 98348.8 10922 98602.8 10668 98856.8 10668 98856.8 10922 98602.8 11176 98856.8 11430 98856.8 11684 98602.8 11684 98348.8 11430 98094.8 11684 97840.8 11684 97840.8 11430 98094.8 11176 97840.8 10922 97840.8 10668 M 112725.2 10668 112979.2 10668 113233.2 10922 113487.2 10668 113741.2 10668 113741.2 10922 113487.2 11176 113741.2 11430 113741.2 11684 113487.2 11684 113233.2 11430 112979.2 11684 112725.2 11684 112725.2 11430 112979.2 11176 112725.2 10922 112725.2 10668 M 30861.01 2819.41 30353.01 3835.41 31369.01 3835.41 30861.01 2819.41 M 33401.01 2819.41 32893.01 3835.41 33909.01 3835.41 33401.01 2819.41 M 3302 41402 2794 42418 3810 42418 3302 41402 M 3302 41605.2 2997.2 42214.8 3606.8 42214.8 3302 41605.2 M 3302 43942 2794 44958 3810 44958 3302 43942 M 3302 44145.2 2997.2 44754.8 3606.8 44754.8 3302 44145.2 M 3302 46482 2794 47498 3810 47498 3302 46482 M 3302 46685.2 2997.2 47294.8 3606.8 47294.8 3302 46685.2 M 3302 49022 2794 50038 3810 50038 3302 49022 M 3302 49225.2 2997.2 49834.8 3606.8 49834.8 3302 49225.2 M 3302 51562 2794 52578 3810 52578 3302 51562 M 3302 51765.2 2997.2 52374.8 3606.8 52374.8 3302 51765.2 M 3302 54102 2794 55118 3810 55118 3302 54102 M 3302 54305.2 2997.2 54914.8 3606.8 54914.8 3302 54305.2 M 3302 56642 2794 57658 3810 57658 3302 56642 M 3302 56845.2 2997.2 57454.8 3606.8 57454.8 3302 56845.2 M 3302 59182 2794 60198 3810 60198 3302 59182 M 3302 59385.2 2997.2 59994.8 3606.8 59994.8 3302 59385.2 M 3302 61722 2794 62738 3810 62738 3302 61722 M 3302 61925.2 2997.2 62534.8 3606.8 62534.8 3302 61925.2 M 3302 64262 2794 65278 3810 65278 3302 64262 M 3302 64465.2 2997.2 65074.8 3606.8 65074.8 3302 64465.2 M 3302 66802 2794 67818 3810 67818 3302 66802 M 3302 67005.2 2997.2 67614.8 3606.8 67614.8 3302 67005.2 M 57049.99 55191.37 56541.99 56207.37 57557.99 56207.37 57049.99 55191.37 M 57049.99 57691.39 56541.99 58707.39 57557.99 58707.39 57049.99 57691.39 M 57049.99 60191.41 56541.99 61207.41 57557.99 61207.41 57049.99 60191.41 M 121056.41 74360.39 120548.41 75376.39 121564.41 75376.39 121056.41 74360.39 M 121056.41 76860.41 120548.41 77876.41 121564.41 77876.41 121056.41 76860.41 M 121056.41 79360.38 120548.41 80376.38 121564.41 80376.38 121056.41 79360.38 M 48641.01 18059.41 48133.01 19075.41 49149.01 19075.41 48641.01 18059.41 M 51181.01 18059.41 50673.01 19075.41 51689.01 19075.41 51181.01 18059.41 M 86921.61 94695.22 86921.61 95711.22 87937.61 95711.22 87937.61 94695.22 86921.61 94695.22 M 81921.62 94695.22 81921.62 95711.22 82937.62 95711.22 82937.62 94695.22 81921.62 94695.22 M 71628.01 51014.03 71120.01 52030.03 72136.01 52030.03 71628.01 51014.03 M 71628.01 48514.01 71120.01 49530.01 72136.01 49530.01 71628.01 48514.01 M 71628.01 46013.99 71120.01 47029.99 72136.01 47029.99 71628.01 46013.99 M 44196.01 89520.02 44450.01 90028.02 44196.01 90536.02 44704.01 90282.02 45212.01 90536.02 44958.01 90028.02 45212.01 89520.02 44704.01 89774.02 44196.01 89520.02 M 44399.21 89723.22 44551.61 90028.02 44399.21 90332.82 44704.01 90180.42 45008.81 90332.82 44856.41 90028.02 45008.81 89723.22 44704.01 89875.62 44399.21 89723.22 M 44196.01 93320.02 44450.01 93828.02 44196.01 94336.02 44704.01 94082.02 45212.01 94336.02 44958.01 93828.02 45212.01 93320.02 44704.01 93574.02 44196.01 93320.02 M 44399.21 93523.22 44551.61 93828.02 44399.21 94132.82 44704.01 93980.42 45008.81 94132.82 44856.41 93828.02 45008.81 93523.22 44704.01 93675.62 44399.21 93523.22 M 44196.01 97120.01 44450.01 97628.01 44196.01 98136.01 44704.01 97882.01 45212.01 98136.01 44958.01 97628.01 45212.01 97120.01 44704.01 97374.01 44196.01 97120.01 M 44399.21 97323.21 44551.61 97628.01 44399.21 97932.81 44704.01 97780.41 45008.81 97932.81 44856.41 97628.01 45008.81 97323.21 44704.01 97475.61 44399.21 97323.21 M 35950 84074.01 35950 83820.01 36458 83820.01 36458 84074.01 36712 84074.01 36712 84582.01 36458 84582.01 36458 84836.01 35950 84836.01 35950 84582.01 35696 84582.01 35696 84074.01 35950 84074.01 M 36051.6 84175.61 36051.6 84023.21 36356.4 84023.21 36356.4 84175.61 36508.8 84175.61 36508.8 84480.41 36356.4 84480.41 36356.4 84632.81 36051.6 84632.81 36051.6 84480.41 35899.2 84480.41 35899.2 84175.61 36051.6 84175.61 M 52950.02 84074.01 52950.02 83820.01 53458.02 83820.01 53458.02 84074.01 53712.02 84074.01 53712.02 84582.01 53458.02 84582.01 53458.02 84836.01 52950.02 84836.01 52950.02 84582.01 52696.02 84582.01 52696.02 84074.01 52950.02 84074.01 M 53051.62 84175.61 53051.62 84023.21 53356.42 84023.21 53356.42 84175.61 53508.82 84175.61 53508.82 84480.41 53356.42 84480.41 53356.42 84632.81 53051.62 84632.81 53051.62 84480.41 52899.22 84480.41 52899.22 84175.61 53051.62 84175.61 M 40396.02 75420.03 40650.02 75928.03 40396.02 76436.03 40904.02 76182.03 41412.02 76436.03 41158.02 75928.03 41412.02 75420.03 40904.02 75674.03 40396.02 75420.03 M 40599.22 75623.23 40751.62 75928.03 40599.22 76232.83 40904.02 76080.43 41208.82 76232.83 41056.42 75928.03 41208.82 75623.23 40904.02 75775.63 40599.22 75623.23 M 44196.01 75420.03 44450.01 75928.03 44196.01 76436.03 44704.01 76182.03 45212.01 76436.03 44958.01 75928.03 45212.01 75420.03 44704.01 75674.03 44196.01 75420.03 M 44399.21 75623.23 44551.61 75928.03 44399.21 76232.83 44704.01 76080.43 45008.81 76232.83 44856.41 75928.03 45008.81 75623.23 44704.01 75775.63 44399.21 75623.23 M 47996.01 75420.03 48250.01 75928.03 47996.01 76436.03 48504.01 76182.03 49012.01 76436.03 48758.01 75928.03 49012.01 75420.03 48504.01 75674.03 47996.01 75420.03 M 48199.21 75623.23 48351.61 75928.03 48199.21 76232.83 48504.01 76080.43 48808.81 76232.83 48656.41 75928.03 48808.81 75623.23 48504.01 75775.63 48199.21 75623.23 M 10541.01 2819.41 10033.01 3835.41 11049.01 3835.41 10541.01 2819.41 M 13081.01 2819.41 12573.01 3835.41 13589.01 3835.41 13081.01 2819.41 M 56261.01 5359.41 55753.01 6375.41 56769.01 6375.41 56261.01 5359.41 M 56261.01 7899.41 55753.01 8915.41 56769.01 8915.41 56261.01 7899.41 M 56261.01 10439.41 55753.01 11455.41 56769.01 11455.41 56261.01 10439.41 M 56261.01 15519.41 55753.01 16535.41 56769.01 16535.41 56261.01 15519.41 M 13081.01 15519.41 12573.01 16535.41 13589.01 16535.41 13081.01 15519.41 M 56261.01 12979.41 55753.01 13995.41 56769.01 13995.41 56261.01 12979.41 M 46101.01 18059.41 45593.01 19075.41 46609.01 19075.41 46101.01 18059.41 M 25511.01 15609.43 25765.01 15863.43 26019.01 15863.43 25765.01 16117.43 26019.01 16371.43 25765.01 16371.43 25511.01 16625.43 25257.01 16371.43 25003.01 16371.43 25257.01 16117.43 25003.01 15863.43 25257.01 15863.43 25511.01 15609.43 M 23511.01 15609.43 23765.01 15863.43 24019.01 15863.43 23765.01 16117.43 24019.01 16371.43 23765.01 16371.43 23511.01 16625.43 23257.01 16371.43 23003.01 16371.43 23257.01 16117.43 23003.01 15863.43 23257.01 15863.43 23511.01 15609.43 M 25511.01 13609.43 25765.01 13863.43 26019.01 13863.43 25765.01 14117.43 26019.01 14371.43 25765.01 14371.43 25511.01 14625.43 25257.01 14371.43 25003.01 14371.43 25257.01 14117.43 25003.01 13863.43 25257.01 13863.43 25511.01 13609.43 M 25511.01 11609.44 25765.01 11863.44 26019.01 11863.44 25765.01 12117.44 26019.01 12371.44 25765.01 12371.44 25511.01 12625.44 25257.01 12371.44 25003.01 12371.44 25257.01 12117.44 25003.01 11863.44 25257.01 11863.44 25511.01 11609.44 M 23511.01 13609.43 23765.01 13863.43 24019.01 13863.43 23765.01 14117.43 24019.01 14371.43 23765.01 14371.43 23511.01 14625.43 23257.01 14371.43 23003.01 14371.43 23257.01 14117.43 23003.01 13863.43 23257.01 13863.43 23511.01 13609.43 M 23511.01 11609.44 23765.01 11863.44 24019.01 11863.44 23765.01 12117.44 24019.01 12371.44 23765.01 12371.44 23511.01 12625.44 23257.01 12371.44 23003.01 12371.44 23257.01 12117.44 23003.01 11863.44 23257.01 11863.44 23511.01 11609.44 M 16383.01 5869.44 16637.01 6377.44 16383.01 6885.44 16891.01 6631.44 17399.01 6885.44 17145.01 6377.44 17399.01 5869.44 16891.01 6123.44 16383.01 5869.44 M 18923.01 5869.44 19177.01 6377.44 18923.01 6885.44 19431.01 6631.44 19939.01 6885.44 19685.01 6377.44 19939.01 5869.44 19431.01 6123.44 18923.01 5869.44 M 21463.01 5869.44 21717.01 6377.44 21463.01 6885.44 21971.01 6631.44 22479.01 6885.44 22225.01 6377.44 22479.01 5869.44 21971.01 6123.44 21463.01 5869.44 M 24003.01 5869.44 24257.01 6377.44 24003.01 6885.44 24511.01 6631.44 25019.01 6885.44 24765.01 6377.44 25019.01 5869.44 24511.01 6123.44 24003.01 5869.44 M 26543.01 5869.44 26797.01 6377.44 26543.01 6885.44 27051.01 6631.44 27559.01 6885.44 27305.01 6377.44 27559.01 5869.44 27051.01 6123.44 26543.01 5869.44 M 15621.01 2819.41 15113.01 3835.41 16129.01 3835.41 15621.01 2819.41 M 18161.01 2819.41 17653.01 3835.41 18669.01 3835.41 18161.01 2819.41 M 20701.01 2819.41 20193.01 3835.41 21209.01 3835.41 20701.01 2819.41 M 23241.01 2819.41 22733.01 3835.41 23749.01 3835.41 23241.01 2819.41 M 25781.01 2819.41 25273.01 3835.41 26289.01 3835.41 25781.01 2819.41 M 28321.01 2819.41 27813.01 3835.41 28829.01 3835.41 28321.01 2819.41 M 35941.01 2819.41 35433.01 3835.41 36449.01 3835.41 35941.01 2819.41 M 38481.01 2819.41 37973.01 3835.41 38989.01 3835.41 38481.01 2819.41 M 41021.01 2819.41 40513.01 3835.41 41529.01 3835.41 41021.01 2819.41 M 43561.01 2819.41 43053.01 3835.41 44069.01 3835.41 43561.01 2819.41 M 46101.01 2819.41 45593.01 3835.41 46609.01 3835.41 46101.01 2819.41 M 43561.01 18059.41 43053.01 19075.41 44069.01 19075.41 43561.01 18059.41 M 41021.01 18059.41 40513.01 19075.41 41529.01 19075.41 41021.01 18059.41 M 38481.01 18059.41 37973.01 19075.41 38989.01 19075.41 38481.01 18059.41 M 35941.01 18059.41 35433.01 19075.41 36449.01 19075.41 35941.01 18059.41 M 33401.01 18059.41 32893.01 19075.41 33909.01 19075.41 33401.01 18059.41 M 30861.01 18059.41 30353.01 19075.41 31369.01 19075.41 30861.01 18059.41 M 28321.01 18059.41 27813.01 19075.41 28829.01 19075.41 28321.01 18059.41 M 25781.01 18059.41 25273.01 19075.41 26289.01 19075.41 25781.01 18059.41 M 23241.01 18059.41 22733.01 19075.41 23749.01 19075.41 23241.01 18059.41 M 20701.01 18059.41 20193.01 19075.41 21209.01 19075.41 20701.01 18059.41 M 18161.01 18059.41 17653.01 19075.41 18669.01 19075.41 18161.01 18059.41 M 15621.01 18059.41 15113.01 19075.41 16129.01 19075.41 15621.01 18059.41 M 13081.01 18059.41 12573.01 19075.41 13589.01 19075.41 13081.01 18059.41 M 10541.01 18059.41 10033.01 19075.41 11049.01 19075.41 10541.01 18059.41 M 48641.01 2819.41 48133.01 3835.41 49149.01 3835.41 48641.01 2819.41 M 51181.01 2819.41 50673.01 3835.41 51689.01 3835.41 51181.01 2819.41 M 53721.01 2819.41 53213.01 3835.41 54229.01 3835.41 53721.01 2819.41 M 56261.01 2819.41 55753.01 3835.41 56769.01 3835.41 56261.01 2819.41 M 58801.01 2819.41 58293.01 3835.41 59309.01 3835.41 58801.01 2819.41 M 61341.01 2819.41 60833.01 3835.41 61849.01 3835.41 61341.01 2819.41 M 63881.01 2819.41 63373.01 3835.41 64389.01 3835.41 63881.01 2819.41 M 66421.01 2819.41 65913.01 3835.41 66929.01 3835.41 66421.01 2819.41 M 68961.01 2819.41 68453.01 3835.41 69469.01 3835.41 68961.01 2819.41 M 68961.01 18059.41 68453.01 19075.41 69469.01 19075.41 68961.01 18059.41 M 66421.01 18059.41 65913.01 19075.41 66929.01 19075.41 66421.01 18059.41 M 63881.01 18059.41 63373.01 19075.41 64389.01 19075.41 63881.01 18059.41 M 61341.01 18059.41 60833.01 19075.41 61849.01 19075.41 61341.01 18059.41 M 58801.01 18059.41 58293.01 19075.41 59309.01 19075.41 58801.01 18059.41 M 56261.01 18059.41 55753.01 19075.41 56769.01 19075.41 56261.01 18059.41 M 53721.01 18059.41 53213.01 19075.41 54229.01 19075.41 53721.01 18059.41 M 122093.6 49801.64 122347.6 49801.64 122601.6 50055.64 122855.6 49801.64 123109.6 49801.64 123109.6 50055.64 122855.6 50309.64 123109.6 50563.64 123109.6 50817.64 122855.6 50817.64 122601.6 50563.64 122347.6 50817.64 122093.6 50817.64 122093.6 50563.64 122347.6 50309.64 122093.6 50055.64 122093.6 49801.64 M 122296.8 50004.84 122449.2 50004.84 122601.6 50157.24 122754 50004.84 122906.4 50004.84 122906.4 50157.24 122754 50309.64 122906.4 50462.04 122906.4 50614.44 122754 50614.44 122601.6 50462.04 122449.2 50614.44 122296.8 50614.44 122296.8 50462.04 122449.2 50309.64 122296.8 50157.24 122296.8 50004.84 M 122093.6 47261.64 122347.6 47261.64 122601.6 47515.64 122855.6 47261.64 123109.6 47261.64 123109.6 47515.64 122855.6 47769.64 123109.6 48023.64 123109.6 48277.64 122855.6 48277.64 122601.6 48023.64 122347.6 48277.64 122093.6 48277.64 122093.6 48023.64 122347.6 47769.64 122093.6 47515.64 122093.6 47261.64 M 122296.8 47464.84 122449.2 47464.84 122601.6 47617.24 122754 47464.84 122906.4 47464.84 122906.4 47617.24 122754 47769.64 122906.4 47922.04 122906.4 48074.44 122754 48074.44 122601.6 47922.04 122449.2 48074.44 122296.8 48074.44 122296.8 47922.04 122449.2 47769.64 122296.8 47617.24 122296.8 47464.84 M 122093.6 44721.64 122347.6 44721.64 122601.6 44975.64 122855.6 44721.64 123109.6 44721.64 123109.6 44975.64 122855.6 45229.64 123109.6 45483.64 123109.6 45737.64 122855.6 45737.64 122601.6 45483.64 122347.6 45737.64 122093.6 45737.64 122093.6 45483.64 122347.6 45229.64 122093.6 44975.64 122093.6 44721.64 M 122296.8 44924.84 122449.2 44924.84 122601.6 45077.24 122754 44924.84 122906.4 44924.84 122906.4 45077.24 122754 45229.64 122906.4 45382.04 122906.4 45534.44 122754 45534.44 122601.6 45382.04 122449.2 45534.44 122296.8 45534.44 122296.8 45382.04 122449.2 45229.64 122296.8 45077.24 122296.8 44924.84 M 99771.21 73946.06 99263.21 74962.06 100279.21 74962.06 99771.21 73946.06 M 99771.21 76446.03 99263.21 77462.03 100279.21 77462.03 99771.21 76446.03 M 99771.21 78946.05 99263.21 79962.05 100279.21 79962.05 99771.21 78946.05 M 106389.79 94720.62 106389.79 95736.62 107405.79 95736.62 107405.79 94720.62 106389.79 94720.62 M 111389.78 94720.62 111389.78 95736.62 112405.78 95736.62 112405.78 94720.62 111389.78 94720.62 M 70516.71 79024.34 70008.71 80040.34 71024.71 80040.34 70516.71 79024.34 M 70516.71 76524.32 70008.71 77540.32 71024.71 77540.32 70516.71 76524.32 M 70516.71 74024.35 70008.71 75040.35 71024.71 75040.35 70516.71 74024.35 M 92348.67 75181.57 91840.67 76197.57 92856.67 76197.57 92348.67 75181.57 M 92348.67 77681.59 91840.67 78697.59 92856.67 78697.59 92348.67 77681.59 M 92348.67 80181.56 91840.67 81197.56 92856.67 81197.56 92348.67 80181.56 M 15240.01 82470.15 15240.01 83486.15 16256.01 83486.15 16256.01 82470.15 15240.01 82470.15 M 15443.21 82673.35 15443.21 83282.95 16052.81 83282.95 16052.81 82673.35 15443.21 82673.35 M 15240.01 92630.15 15240.01 93646.15 16256.01 93646.15 16256.01 92630.15 15240.01 92630.15 M 15443.21 92833.35 15443.21 93442.95 16052.81 93442.95 16052.81 92833.35 15443.21 92833.35 M 25400.01 92630.15 25400.01 93646.15 26416.01 93646.15 26416.01 92630.15 25400.01 92630.15 M 25603.21 92833.35 25603.21 93442.95 26212.81 93442.95 26212.81 92833.35 25603.21 92833.35 M 25400.01 82470.15 25400.01 83486.15 26416.01 83486.15 26416.01 82470.15 25400.01 82470.15 M 25603.21 82673.35 25603.21 83282.95 26212.81 83282.95 26212.81 82673.35 25603.21 82673.35 M 30124 79065.02 30124 79911.41 30547.2 80334.61 30970.4 79911.41 30970.4 79065.02 30970.4 79699.81 30124 79699.81 M 29108 79065.02 29108 79911.41 29531.2 80334.61 29954.4 79911.41 29954.4 79065.02 29954.4 79699.81 29108 79699.81 M 28092 79065.02 28092 79911.41 28515.2 80334.61 28938.4 79911.41 28938.4 79065.02 28938.4 79699.81 28092 79699.81 M 12192 8255 12192 9101.39 12615.2 9524.59 13038.39 9101.39 13038.39 8255 13038.39 8889.79 12192 8889.79 M 62722.01 4810.01 62722.01 5656.4 63145.21 6079.6 63568.4 5656.4 63568.4 4810.01 63568.4 5444.8 62722.01 5444.8 M 108839 23749 108839 24595.39 109262.2 25018.59 109685.39 24595.39 109685.39 23749 109685.39 24383.79 108839 24383.79 M 97370.91 23350.94 97370.91 24197.34 97794.11 24620.53 98217.31 24197.34 98217.31 23350.94 98217.31 23985.74 97370.91 23985.74 M 79801.78 38361.17 79801.78 39207.56 80224.97 39630.75 80648.17 39207.56 80648.17 38361.17 80648.17 38995.96 79801.78 38995.96 M 118872 53975 118872 54821.39 119295.2 55244.59 119718.39 54821.39 119718.39 53975 119718.39 54609.79 118872 54609.79 M 117348 53975 117348 54821.39 117771.2 55244.59 118194.39 54821.39 118194.39 53975 118194.39 54609.79 117348 54609.79 M 101600 51308 101600 52154.39 102023.2 52577.59 102446.39 52154.39 102446.39 51308 102446.39 51942.79 101600 51942.79 M 100203 51308 100203 52154.39 100626.2 52577.59 101049.39 52154.39 101049.39 51308 101049.39 51942.79 100203 51942.79 M 86016.2 75174.75 86016.2 76021.15 86439.4 76444.34 86862.59 76021.15 86862.59 75174.75 86862.59 75809.55 86016.2 75809.55 M 115580.01 74957.3 115580.01 75803.69 116003.21 76226.89 116426.4 75803.69 116426.4 74957.3 116426.4 75592.09 115580.01 75592.09 M 4583 21133 4583 21979.39 5006.2 22402.59 5429.39 21979.39 5429.39 21133 5429.39 21767.79 4583 21767.79 M 4583 24968.3 4583 25814.69 5006.2 26237.89 5429.39 25814.69 5429.39 24968.3 5429.39 25603.09 4583 25603.09 M 4583 17297.5 4583 18143.89 5006.2 18567.09 5429.39 18143.89 5429.39 17297.5 5429.39 17932.29 4583 17932.29 M 2783 17297.5 2783 18143.89 3206.2 18567.09 3629.39 18143.89 3629.39 17297.5 3629.39 17932.29 2783 17932.29 M 4602 13461.9 4602 14308.29 5025.2 14731.49 5448.4 14308.29 5448.4 13461.9 5448.4 14096.7 4602 14096.7 M 2802 13461.9 2802 14308.29 3225.2 14731.49 3648.4 14308.29 3648.4 13461.9 3648.4 14096.7 2802 14096.7 M 2783 24968.3 2783 25814.69 3206.2 26237.89 3629.39 25814.69 3629.39 24968.3 3629.39 25603.09 2783 25603.09 M 2783 21133 2783 21979.39 3206.2 22402.59 3629.39 21979.39 3629.39 21133 3629.39 21767.79 2783 21767.79 M 4583 28803.6 4583 29649.99 5006.2 30073.19 5429.39 29649.99 5429.39 28803.6 5429.39 29438.39 4583 29438.39 M 2783 28803.6 2783 29649.99 3206.2 30073.19 3629.39 29649.99 3629.39 28803.6 3629.39 29438.39 2783 29438.39 M 2783 32639 2783 33485.39 3206.2 33908.59 3629.39 33485.39 3629.39 32639 3629.39 33273.79 2783 33273.79 M 4583 32639 4583 33485.39 5006.2 33908.59 5429.39 33485.39 5429.39 32639 5429.39 33273.79 4583 33273.79 M 22537.21 25070.13 22537.21 25916.52 22960.41 26339.72 23383.61 25916.52 23383.61 25070.13 23383.61 25704.92 22537.21 25704.92 M 21584.71 25070.13 21584.71 25916.52 22007.91 26339.72 22431.11 25916.52 22431.11 25070.13 22431.11 25704.92 21584.71 25704.92 M 19679.71 25070.13 19679.71 25916.52 20102.91 26339.72 20526.11 25916.52 20526.11 25070.13 20526.11 25704.92 19679.71 25704.92 M 19592.17 19837.41 19592.17 20683.8 20015.36 21107 20438.56 20683.8 20438.56 19837.41 20438.56 20472.2 19592.17 20472.2 M 21844 16129 21844 16975.39 22267.2 17398.59 22690.39 16975.39 22690.39 16129 22690.39 16763.79 21844 16763.79 M 18669 21082 18669 21928.39 19092.2 22351.59 19515.39 21928.39 19515.39 21082 19515.39 21716.79 18669 21716.79 M 16764 20955 16764 21801.39 17187.2 22224.59 17610.39 21801.39 17610.39 20955 17610.39 21589.79 16764 21589.79 M 122035.98 63379.78 122035.98 64226.17 122459.17 64649.37 122882.37 64226.17 122882.37 63379.78 122882.37 64014.57 122035.98 64014.57 M 123835.97 63379.78 123835.97 64226.17 124259.17 64649.37 124682.37 64226.17 124682.37 63379.78 124682.37 64014.57 123835.97 64014.57 M 122035.98 58351.01 122035.98 59197.41 122459.17 59620.6 122882.37 59197.41 122882.37 58351.01 122882.37 58985.81 122035.98 58985.81 M 123835.97 58351.01 123835.97 59197.41 124259.17 59620.6 124682.37 59197.41 124682.37 58351.01 124682.37 58985.81 123835.97 58985.81 M 72263 89027 72263 89873.39 72686.2 90296.59 73109.39 89873.39 73109.39 89027 73109.39 89661.79 72263 89661.79 M 101600 89154 101600 90000.39 102023.2 90423.59 102446.39 90000.39 102446.39 89154 102446.39 89788.79 101600 89788.79 M 115912.2 80997.61 115912.2 81844.01 116335.4 82267.2 116758.6 81844.01 116758.6 80997.61 116758.6 81632.41 115912.2 81632.41 M 118393.22 77724.38 118393.22 78570.77 118816.42 78993.96 119239.62 78570.77 119239.62 77724.38 119239.62 78359.17 118393.22 78359.17 M 117016.19 83159.61 117016.19 84006 117439.38 84429.2 117862.58 84006 117862.58 83159.61 117862.58 83794.4 117016.19 83794.4 M 82677 4191 82677 5037.39 83100.2 5460.59 83523.4 5037.39 83523.4 4191 83523.4 4825.79 82677 4825.79 M 121615.26 84309.01 121615.26 85155.4 122038.46 85578.6 122461.66 85155.4 122461.66 84309.01 122461.66 84943.81 121615.26 84943.81 M 106680.01 75438.01 106680.01 76284.4 107103.21 76707.6 107526.41 76284.4 107526.41 75438.01 107526.41 76072.8 106680.01 76072.8 M 80817.84 7556.5 80817.84 8402.89 81241.04 8826.09 81664.23 8402.89 81664.23 7556.5 81664.23 8191.29 80817.84 8191.29 M 123520.26 84309.01 123520.26 85155.4 123943.46 85578.6 124366.66 85155.4 124366.66 84309.01 124366.66 84943.81 123520.26 84943.81 M 106502.26 79535.13 106502.26 80381.53 106925.46 80804.72 107348.66 80381.53 107348.66 79535.13 107348.66 80169.93 106502.26 80169.93 M 80817.84 6604 80817.84 7450.39 81241.04 7873.59 81664.23 7450.39 81664.23 6604 81664.23 7238.79 80817.84 7238.79 M 62865 11938 62865 12784.39 63288.2 13207.59 63711.4 12784.39 63711.4 11938 63711.4 12572.79 62865 12572.79 M 80812.55 8514.29 80812.55 9360.68 81235.75 9783.88 81658.95 9360.68 81658.95 8514.29 81658.95 9149.08 80812.55 9149.08 M 80817.84 10414 80817.84 11260.39 81241.04 11683.59 81664.23 11260.39 81664.23 10414 81664.23 11048.79 80817.84 11048.79 M 80817.84 9461.5 80817.84 10307.89 81241.04 10731.09 81664.23 10307.89 81664.23 9461.5 81664.23 10096.29 80817.84 10096.29 M 119710.21 84267.91 119710.21 85114.31 120133.41 85537.5 120556.61 85114.31 120556.61 84267.91 120556.61 84902.71 119710.21 84902.71 M 117805.21 84309.01 117805.21 85155.4 118228.41 85578.6 118651.61 85155.4 118651.61 84309.01 118651.61 84943.81 117805.21 84943.81 M 118567.26 81144.98 118567.26 81991.38 118990.46 82414.57 119413.66 81991.38 119413.66 81144.98 119413.66 81779.78 118567.26 81779.78 M 118491 76835 118491 77681.39 118914.2 78104.59 119337.39 77681.39 119337.39 76835 119337.39 77469.79 118491 77469.79 M 115900.26 84350.11 115900.26 85196.5 116323.46 85619.7 116746.66 85196.5 116746.66 84350.11 116746.66 84984.9 115900.26 84984.9 M 85582.06 15743.34 85582.06 16589.73 86005.26 17012.93 86428.46 16589.73 86428.46 15743.34 86428.46 16378.13 85582.06 16378.13 M 85589.17 16734.75 85589.17 17581.14 86012.37 18004.34 86435.57 17581.14 86435.57 16734.75 86435.57 17369.54 85589.17 17369.54 M 109994.75 24244.71 109994.75 25091.1 110417.95 25514.29 110841.14 25091.1 110841.14 24244.71 110841.14 24879.5 109994.75 24879.5 M 119929.26 83159.61 119929.26 84006 120352.46 84429.2 120775.66 84006 120775.66 83159.61 120775.66 83794.4 119929.26 83794.4 M 23550.44 21336.01 23550.44 22182.4 23973.63 22605.6 24396.83 22182.4 24396.83 21336.01 24396.83 21970.8 23550.44 21970.8 M 25190.09 19837.41 25190.09 20683.8 25613.28 21107 26036.48 20683.8 26036.48 19837.41 26036.48 20472.2 25190.09 20472.2 M 32915.11 21336.01 32915.11 22182.4 33338.31 22605.6 33761.5 22182.4 33761.5 21336.01 33761.5 21970.8 32915.11 21970.8 M 77089 16764 77089 17610.39 77512.2 18033.59 77935.39 17610.39 77935.39 16764 77935.39 17398.79 77089 17398.79 M 23495 25064.84 23495 25911.23 23918.2 26334.43 24341.4 25911.23 24341.4 25064.84 24341.4 25699.63 23495 25699.63 M 20637.5 25064.84 20637.5 25911.23 21060.7 26334.43 21483.9 25911.23 21483.9 25064.84 21483.9 25699.63 20637.5 25699.63 M 94265.71 86187.39 94265.71 87033.79 94688.91 87456.98 95112.11 87033.79 95112.11 86187.39 95112.11 86822.19 94265.71 86822.19 M 77216 89154 77216 90000.39 77639.2 90423.59 78062.39 90000.39 78062.39 89154 78062.39 89788.79 77216 89788.79 M 92360.71 86187.39 92360.71 87033.79 92783.91 87456.98 93207.11 87033.79 93207.11 86187.39 93207.11 86822.19 92360.71 86822.19 M 77216 88201.5 77216 89047.89 77639.2 89471.09 78062.39 89047.89 78062.39 88201.5 78062.39 88836.29 77216 88836.29 M 90455.71 86187.34 90455.71 87033.73 90878.91 87456.93 91302.11 87033.73 91302.11 86187.34 91302.11 86822.14 90455.71 86822.14 M 77216 87249 77216 88095.39 77639.2 88518.59 78062.39 88095.39 78062.39 87249 78062.39 87883.79 77216 87883.79 M 76962.01 76962.01 76962.01 77808.4 77385.21 78231.6 77808.41 77808.4 77808.41 76962.01 77808.41 77596.8 76962.01 77596.8 M 88550.71 86187.39 88550.71 87033.79 88973.91 87456.98 89397.11 87033.79 89397.11 86187.39 89397.11 86822.19 88550.71 86822.19 M 77216 86296.5 77216 87142.89 77639.2 87566.09 78062.39 87142.89 78062.39 86296.5 78062.39 86931.29 77216 86931.29 M 86645.71 86187 86645.71 87033.39 87068.91 87456.59 87492.11 87033.39 87492.11 86187 87492.11 86821.79 86645.71 86821.79 M 77216 85344 77216 86190.39 77639.2 86613.59 78062.39 86190.39 78062.39 85344 78062.39 85978.79 77216 85978.79 M 32792.99 50885.46 32792.99 51731.85 33216.18 52155.04 33639.38 51731.85 33639.38 50885.46 33639.38 51520.25 32792.99 51520.25 M 34697.99 50885.46 34697.99 51731.85 35121.18 52155.04 35544.38 51731.85 35544.38 50885.46 35544.38 51520.25 34697.99 51520.25 M 34697.99 49085.46 34697.99 49931.85 35121.18 50355.05 35544.38 49931.85 35544.38 49085.46 35544.38 49720.25 34697.99 49720.25 M 32792.99 49085.46 32792.99 49931.85 33216.18 50355.05 33639.38 49931.85 33639.38 49085.46 33639.38 49720.25 32792.99 49720.25 M 36602.99 50885.46 36602.99 51731.85 37026.18 52155.04 37449.38 51731.85 37449.38 50885.46 37449.38 51520.25 36602.99 51520.25 M 80010.01 85598.01 80010.01 86444.4 80433.21 86867.6 80856.41 86444.4 80856.41 85598.01 80856.41 86232.8 80010.01 86232.8 M 82042.01 85598.01 82042.01 86444.4 82465.21 86867.6 82888.41 86444.4 82888.41 85598.01 82888.41 86232.8 82042.01 86232.8 M 103991.22 78539.05 103991.22 79385.44 104414.42 79808.63 104837.61 79385.44 104837.61 78539.05 104837.61 79173.84 103991.22 79173.84 M 100838.01 72898.01 100838.01 73744.4 101261.21 74167.6 101684.41 73744.4 101684.41 72898.01 101684.41 73532.8 100838.01 73532.8 M 70358.01 72898.01 70358.01 73744.4 70781.21 74167.6 71204.41 73744.4 71204.41 72898.01 71204.41 73532.8 70358.01 73532.8 M 75238.72 78279.1 75238.72 79125.5 75661.92 79548.69 76085.12 79125.5 76085.12 78279.1 76085.12 78913.9 75238.72 78913.9 M 25806.41 26387.97 25806.41 27234.36 26229.61 27657.56 26652.81 27234.36 26652.81 26387.97 26652.81 27022.76 25806.41 27022.76 M 116078.01 57912.01 116078.01 58758.4 116501.21 59181.6 116924.41 58758.4 116924.41 57912.01 116924.41 58546.8 116078.01 58546.8 M 111252.01 57658.01 111252.01 58504.4 111675.21 58927.6 112098.41 58504.4 112098.41 57658.01 112098.41 58292.8 111252.01 58292.8 M 99060.01 55379.99 99060.01 56226.38 99483.21 56649.57 99906.41 56226.38 99906.41 55379.99 99906.41 56014.78 99060.01 56014.78 M 92202.01 27432.01 92202.01 28278.4 92625.21 28701.6 93048.41 28278.4 93048.41 27432.01 93048.41 28066.8 92202.01 28066.8 M 78994.01 42672.01 78994.01 43518.4 79417.21 43941.6 79840.41 43518.4 79840.41 42672.01 79840.41 43306.8 78994.01 43306.8 M 29218.75 26387.97 29218.75 27234.36 29641.95 27657.56 30065.14 27234.36 30065.14 26387.97 30065.14 27022.76 29218.75 27022.76 M 89408.01 27432.01 89408.01 28278.4 89831.21 28701.6 90254.41 28278.4 90254.41 27432.01 90254.41 28066.8 89408.01 28066.8 M 85090.01 52070.01 85090.01 52916.4 85513.21 53339.6 85936.41 52916.4 85936.41 52070.01 85936.41 52704.8 85090.01 52704.8 M 77724.01 44704.01 77724.01 45550.4 78147.21 45973.6 78570.41 45550.4 78570.41 44704.01 78570.41 45338.8 77724.01 45338.8 M 65532.01 25908.01 65532.01 26754.4 65955.21 27177.6 66378.41 26754.4 66378.41 25908.01 66378.41 26542.8 65532.01 26542.8 M 65786.01 24892.01 65786.01 25738.4 66209.21 26161.6 66632.41 25738.4 66632.41 24892.01 66632.41 25526.8 65786.01 25526.8 M 87884.01 29718.01 87884.01 30564.4 88307.21 30987.6 88730.41 30564.4 88730.41 29718.01 88730.41 30352.8 87884.01 30352.8 M 87491.99 49276.01 87491.99 50122.4 87915.19 50545.6 88338.38 50122.4 88338.38 49276.01 88338.38 49910.8 87491.99 49910.8 M 89291.99 49276.01 89291.99 50122.4 89715.18 50545.6 90138.38 50122.4 90138.38 49276.01 90138.38 49910.8 89291.99 49910.8 M 102616.01 49530.01 102616.01 50376.4 103039.21 50799.6 103462.41 50376.4 103462.41 49530.01 103462.41 50164.8 102616.01 50164.8 M 42063.48 27331.48 42063.48 28177.87 42486.68 28601.07 42909.87 28177.87 42909.87 27331.48 42909.87 27966.27 42063.48 27966.27 M 43180.01 27432.01 43180.01 28278.4 43603.21 28701.6 44026.41 28278.4 44026.41 27432.01 44026.41 28066.8 43180.01 28066.8 M 38583.37 26387.97 38583.37 27234.36 39006.57 27657.56 39429.77 27234.36 39429.77 26387.97 39429.77 27022.76 38583.37 27022.76 M 38583.37 24587.97 38583.37 25434.37 39006.57 25857.56 39429.77 25434.37 39429.77 24587.97 39429.77 25222.77 38583.37 25222.77 M 35171.04 26388.02 35171.04 27234.41 35594.23 27657.61 36017.43 27234.41 36017.43 26388.02 36017.43 27022.81 35171.04 27022.81 M 35171.04 24588.02 35171.04 25434.42 35594.23 25857.61 36017.43 25434.42 36017.43 24588.02 36017.43 25222.82 35171.04 25222.82 M 29218.75 24587.97 29218.75 25434.37 29641.95 25857.56 30065.14 25434.37 30065.14 24587.97 30065.14 25222.77 29218.75 25222.77 M 25806.41 24587.97 25806.41 25434.37 26229.61 25857.56 26652.81 25434.37 26652.81 24587.97 26652.81 25222.77 25806.41 25222.77 M 94685.47 74460.06 94685.47 75306.45 95108.67 75729.65 95531.87 75306.45 95531.87 74460.06 95531.87 75094.85 94685.47 75094.85 M 85574.95 14751.92 85574.95 15598.32 85998.15 16021.51 86421.34 15598.32 86421.34 14751.92 86421.34 15386.72 85574.95 15386.72 M 84590.65 15750.45 84590.65 16596.84 85013.85 17020.04 85437.04 16596.84 85437.04 15750.45 85437.04 16385.24 84590.65 16385.24 M 108458.01 28702.01 108458.01 29548.4 108881.21 29971.6 109304.41 29548.4 109304.41 28702.01 109304.41 29336.8 108458.01 29336.8 M 107696.01 23368.01 107696.01 24214.4 108119.21 24637.6 108542.41 24214.4 108542.41 23368.01 108542.41 24002.8 107696.01 24002.8 M 63754.01 48260.01 63754.01 49106.4 64177.21 49529.6 64600.41 49106.4 64600.41 48260.01 64600.41 48894.8 63754.01 48894.8 M 60198.01 53848.01 60198.01 54694.4 60621.21 55117.6 61044.41 54694.4 61044.41 53848.01 61044.41 54482.8 60198.01 54482.8 M 59944.01 58166.01 59944.01 59012.4 60367.21 59435.6 60790.41 59012.4 60790.41 58166.01 60790.41 58800.8 59944.01 58800.8 M 50766.99 62738.01 50766.99 63584.4 51190.19 64007.6 51613.39 63584.4 51613.39 62738.01 51613.39 63372.8 50766.99 63372.8 M 38363.97 57912.01 38363.97 58758.4 38787.17 59181.6 39210.36 58758.4 39210.36 57912.01 39210.36 58546.8 38363.97 58546.8 M 52829.93 56614.37 52829.93 57460.77 53253.13 57883.96 53676.32 57460.77 53676.32 56614.37 53676.32 57249.17 52829.93 57249.17 M 86657.7 81227.64 86657.7 82074.03 87080.9 82497.22 87504.09 82074.03 87504.09 81227.64 87504.09 81862.43 86657.7 81862.43 M 40401 54154.49 40401 55000.88 40824.2 55424.08 41247.39 55000.88 41247.39 54154.49 41247.39 54789.28 40401 54789.28 M 94234 17438.01 94234 18284.41 94657.2 18707.6 95080.39 18284.41 95080.39 17438.01 95080.39 18072.81 94234 18072.81 M 94234 19188.02 94234 20034.42 94657.2 20457.61 95080.39 20034.42 95080.39 19188.02 95080.39 19822.82 94234 19822.82 M 89530.44 24769.58 89530.44 25615.98 89953.64 26039.17 90376.83 25615.98 90376.83 24769.58 90376.83 25404.38 89530.44 25404.38 M 88280.81 26123.81 88280.81 26970.2 88704.01 27393.4 89127.21 26970.2 89127.21 26123.81 89127.21 26758.6 88280.81 26758.6 M 93218.01 24892.01 93218.01 25738.4 93641.21 26161.6 94064.41 25738.4 94064.41 24892.01 94064.41 25526.8 93218.01 25526.8 M 80010.01 93726.01 80010.01 94572.4 80433.21 94995.6 80856.41 94572.4 80856.41 93726.01 80856.41 94360.8 80010.01 94360.8 M 80010.01 94742.01 80010.01 95588.4 80433.21 96011.6 80856.41 95588.4 80856.41 94742.01 80856.41 95376.8 80010.01 95376.8 M 80010.01 96774.01 80010.01 97620.4 80433.21 98043.6 80856.41 97620.4 80856.41 96774.01 80856.41 97408.8 80010.01 97408.8 M 80010.01 95758.01 80010.01 96604.4 80433.21 97027.6 80856.41 96604.4 80856.41 95758.01 80856.41 96392.8 80010.01 96392.8 M 84074.01 93726.01 84074.01 94572.4 84497.21 94995.6 84920.41 94572.4 84920.41 93726.01 84920.41 94360.8 84074.01 94360.8 M 84074.01 94742.01 84074.01 95588.4 84497.21 96011.6 84920.41 95588.4 84920.41 94742.01 84920.41 95376.8 84074.01 95376.8 M 84074.01 96774.01 84074.01 97620.4 84497.21 98043.6 84920.41 97620.4 84920.41 96774.01 84920.41 97408.8 84074.01 97408.8 M 84074.01 95758.01 84074.01 96604.4 84497.21 97027.6 84920.41 96604.4 84920.41 95758.01 84920.41 96392.8 84074.01 96392.8 M 80010.01 97790.01 80010.01 98636.4 80433.21 99059.6 80856.41 98636.4 80856.41 97790.01 80856.41 98424.8 80010.01 98424.8 M 84074.01 97790.01 84074.01 98636.4 84497.21 99059.6 84920.41 98636.4 84920.41 97790.01 84920.41 98424.8 84074.01 98424.8 M 84074.01 98806.01 84074.01 99652.4 84497.21 100075.6 84920.41 99652.4 84920.41 98806.01 84920.41 99440.8 84074.01 99440.8 M 82042.01 98806.01 82042.01 99652.4 82465.21 100075.6 82888.41 99652.4 82888.41 98806.01 82888.41 99440.8 82042.01 99440.8 M 80010.01 98806.01 80010.01 99652.4 80433.21 100075.6 80856.41 99652.4 80856.41 98806.01 80856.41 99440.8 80010.01 99440.8 M 82042.01 97790.01 82042.01 98636.4 82465.21 99059.6 82888.41 98636.4 82888.41 97790.01 82888.41 98424.8 82042.01 98424.8 M 82042.01 96774.01 82042.01 97620.4 82465.21 98043.6 82888.41 97620.4 82888.41 96774.01 82888.41 97408.8 82042.01 97408.8 M 82042.01 93726.01 82042.01 94572.4 82465.21 94995.6 82888.41 94572.4 82888.41 93726.01 82888.41 94360.8 82042.01 94360.8 M 111510.18 93751.41 111510.18 94597.8 111933.38 95021 112356.57 94597.8 112356.57 93751.41 112356.57 94386.2 111510.18 94386.2 M 111510.18 96799.41 111510.18 97645.8 111933.38 98069 112356.57 97645.8 112356.57 96799.41 112356.57 97434.2 111510.18 97434.2 M 111510.18 97815.41 111510.18 98661.8 111933.38 99085 112356.57 98661.8 112356.57 97815.41 112356.57 98450.2 111510.18 98450.2 M 109478.18 98831.41 109478.18 99677.8 109901.38 100101 110324.57 99677.8 110324.57 98831.41 110324.57 99466.2 109478.18 99466.2 M 111510.18 98831.41 111510.18 99677.8 111933.38 100101 112356.57 99677.8 112356.57 98831.41 112356.57 99466.2 111510.18 99466.2 M 113542.18 98831.41 113542.18 99677.8 113965.38 100101 114388.57 99677.8 114388.57 98831.41 114388.57 99466.2 113542.18 99466.2 M 113542.18 97815.41 113542.18 98661.8 113965.38 99085 114388.57 98661.8 114388.57 97815.41 114388.57 98450.2 113542.18 98450.2 M 109478.18 97815.41 109478.18 98661.8 109901.38 99085 110324.57 98661.8 110324.57 97815.41 110324.57 98450.2 109478.18 98450.2 M 113542.18 95783.41 113542.18 96629.8 113965.38 97053 114388.57 96629.8 114388.57 95783.41 114388.57 96418.2 113542.18 96418.2 M 113542.18 96799.41 113542.18 97645.8 113965.38 98069 114388.57 97645.8 114388.57 96799.41 114388.57 97434.2 113542.18 97434.2 M 113542.18 94767.41 113542.18 95613.8 113965.38 96037 114388.57 95613.8 114388.57 94767.41 114388.57 95402.2 113542.18 95402.2 M 113542.18 93751.41 113542.18 94597.8 113965.38 95021 114388.57 94597.8 114388.57 93751.41 114388.57 94386.2 113542.18 94386.2 M 109478.18 95783.41 109478.18 96629.8 109901.38 97053 110324.57 96629.8 110324.57 95783.41 110324.57 96418.2 109478.18 96418.2 M 109478.18 96799.41 109478.18 97645.8 109901.38 98069 110324.57 97645.8 110324.57 96799.41 110324.57 97434.2 109478.18 97434.2 M 109478.18 94767.41 109478.18 95613.8 109901.38 96037 110324.57 95613.8 110324.57 94767.41 110324.57 95402.2 109478.18 95402.2 M 109478.18 93751.41 109478.18 94597.8 109901.38 95021 110324.57 94597.8 110324.57 93751.41 110324.57 94386.2 109478.18 94386.2 M 116578.85 30931.77 116578.85 31778.17 117002.05 32201.36 117425.24 31778.17 117425.24 30931.77 117425.24 31566.57 116578.85 31566.57 M 115271 30929.59 115271 31775.98 115694.2 32199.18 116117.4 31775.98 116117.4 30929.59 116117.4 31564.38 115271 31564.38 M 72644.01 17018.01 72644.01 17864.4 73067.21 18287.6 73490.41 17864.4 73490.41 17018.01 73490.41 17652.8 72644.01 17652.8 M 103886.01 30988.01 103886.01 31834.4 104309.21 32257.6 104732.41 31834.4 104732.41 30988.01 104732.41 31622.8 103886.01 31622.8 M 102578.17 30985.83 102578.17 31832.22 103001.36 32255.41 103424.56 31832.22 103424.56 30985.83 103424.56 31620.62 102578.17 31620.62 M 65024.01 6096.01 65024.01 6942.4 65447.21 7365.6 65870.41 6942.4 65870.41 6096.01 65870.41 6730.8 65024.01 6730.8 M 118650.17 31907.9 118650.17 32754.29 119073.37 33177.49 119496.56 32754.29 119496.56 31907.9 119496.56 32542.69 118650.17 32542.69 M 49242.54 58429.36 49242.54 59275.75 49665.73 59698.95 50088.93 59275.75 50088.93 58429.36 50088.93 59064.15 49242.54 59064.15 M 50572.99 58199.39 50572.99 59045.78 50996.18 59468.97 51419.38 59045.78 51419.38 58199.39 51419.38 58834.18 50572.99 58834.18 M 36602.99 49044.41 36602.99 49890.81 37026.18 50314 37449.38 49890.81 37449.38 49044.41 37449.38 49679.21 36602.99 49679.21 M 55866.86 24892.01 55866.86 25738.4 56290.05 26161.6 56713.25 25738.4 56713.25 24892.01 56713.25 25526.8 55866.86 25526.8 M 55866.86 26750.99 55866.86 27597.38 56290.05 28020.57 56713.25 27597.38 56713.25 26750.99 56713.25 27385.78 55866.86 27385.78 M 55866.86 25821.5 55866.86 26667.89 56290.05 27091.09 56713.25 26667.89 56713.25 25821.5 56713.25 26456.29 55866.86 26456.29 M 40894.01 46736.01 40894.01 47582.4 41317.21 48005.6 41740.41 47582.4 41740.41 46736.01 41740.41 47370.8 40894.01 47370.8 M 38507.99 49044.36 38507.99 49890.76 38931.18 50313.95 39354.38 49890.76 39354.38 49044.36 39354.38 49679.16 38507.99 49679.16 M 40412.99 49044.36 40412.99 49890.76 40836.18 50313.95 41259.38 49890.76 41259.38 49044.36 41259.38 49679.16 40412.99 49679.16 M 109478.18 89687.41 109478.18 90533.8 109901.38 90957 110324.57 90533.8 110324.57 89687.41 110324.57 90322.2 109478.18 90322.2 M 109478.18 90703.41 109478.18 91549.8 109901.38 91973 110324.57 91549.8 110324.57 90703.41 110324.57 91338.2 109478.18 91338.2 M 111510.18 89687.41 111510.18 90533.8 111933.38 90957 112356.57 90533.8 112356.57 89687.41 112356.57 90322.2 111510.18 90322.2 M 111510.18 90703.41 111510.18 91549.8 111933.38 91973 112356.57 91549.8 112356.57 90703.41 112356.57 91338.2 111510.18 91338.2 M 111510.18 87655.41 111510.18 88501.8 111933.38 88925 112356.57 88501.8 112356.57 87655.41 112356.57 88290.2 111510.18 88290.2 M 111510.18 88671.41 111510.18 89517.8 111933.38 89941 112356.57 89517.8 112356.57 88671.41 112356.57 89306.2 111510.18 89306.2 M 111510.18 86639.41 111510.18 87485.8 111933.38 87909 112356.57 87485.8 112356.57 86639.41 112356.57 87274.2 111510.18 87274.2 M 109478.18 88671.41 109478.18 89517.8 109901.38 89941 110324.57 89517.8 110324.57 88671.41 110324.57 89306.2 109478.18 89306.2 M 109478.18 87655.41 109478.18 88501.8 109901.38 88925 110324.57 88501.8 110324.57 87655.41 110324.57 88290.2 109478.18 88290.2 M 109478.18 86639.41 109478.18 87485.8 109901.38 87909 110324.57 87485.8 110324.57 86639.41 110324.57 87274.2 109478.18 87274.2 M 109478.18 85623.41 109478.18 86469.8 109901.38 86893 110324.57 86469.8 110324.57 85623.41 110324.57 86258.2 109478.18 86258.2 M 111510.18 85623.41 111510.18 86469.8 111933.38 86893 112356.57 86469.8 112356.57 85623.41 112356.57 86258.2 111510.18 86258.2 M 111510.18 83591.41 111510.18 84437.8 111933.38 84861 112356.57 84437.8 112356.57 83591.41 112356.57 84226.2 111510.18 84226.2 M 111510.18 84607.41 111510.18 85453.8 111933.38 85877 112356.57 85453.8 112356.57 84607.41 112356.57 85242.2 111510.18 85242.2 M 111510.18 82575.41 111510.18 83421.8 111933.38 83845 112356.57 83421.8 112356.57 82575.41 112356.57 83210.2 111510.18 83210.2 M 109478.18 84607.41 109478.18 85453.8 109901.38 85877 110324.57 85453.8 110324.57 84607.41 110324.57 85242.2 109478.18 85242.2 M 109478.18 83591.41 109478.18 84437.8 109901.38 84861 110324.57 84437.8 110324.57 83591.41 110324.57 84226.2 109478.18 84226.2 M 109478.18 82575.41 109478.18 83421.8 109901.38 83845 110324.57 83421.8 110324.57 82575.41 110324.57 83210.2 109478.18 83210.2 M 113542.18 88671.41 113542.18 89517.8 113965.38 89941 114388.57 89517.8 114388.57 88671.41 114388.57 89306.2 113542.18 89306.2 M 113542.18 90703.41 113542.18 91549.8 113965.38 91973 114388.57 91549.8 114388.57 90703.41 114388.57 91338.2 113542.18 91338.2 M 113542.18 89687.41 113542.18 90533.8 113965.38 90957 114388.57 90533.8 114388.57 89687.41 114388.57 90322.2 113542.18 90322.2 M 113542.18 91719.41 113542.18 92565.8 113965.38 92989 114388.57 92565.8 114388.57 91719.41 114388.57 92354.2 113542.18 92354.2 M 113542.18 92735.41 113542.18 93581.8 113965.38 94005 114388.57 93581.8 114388.57 92735.41 114388.57 93370.2 113542.18 93370.2 M 111510.18 92735.41 111510.18 93581.8 111933.38 94005 112356.57 93581.8 112356.57 92735.41 112356.57 93370.2 111510.18 93370.2 M 111510.18 91719.41 111510.18 92565.8 111933.38 92989 112356.57 92565.8 112356.57 91719.41 112356.57 92354.2 111510.18 92354.2 M 109478.18 92735.41 109478.18 93581.8 109901.38 94005 110324.57 93581.8 110324.57 92735.41 110324.57 93370.2 109478.18 93370.2 M 109478.18 91719.41 109478.18 92565.8 109901.38 92989 110324.57 92565.8 110324.57 91719.41 110324.57 92354.2 109478.18 92354.2 M 80010.01 91694.01 80010.01 92540.4 80433.21 92963.6 80856.41 92540.4 80856.41 91694.01 80856.41 92328.8 80010.01 92328.8 M 80010.01 92710.01 80010.01 93556.4 80433.21 93979.6 80856.41 93556.4 80856.41 92710.01 80856.41 93344.8 80010.01 93344.8 M 82042.01 91694.01 82042.01 92540.4 82465.21 92963.6 82888.41 92540.4 82888.41 91694.01 82888.41 92328.8 82042.01 92328.8 M 82042.01 92710.01 82042.01 93556.4 82465.21 93979.6 82888.41 93556.4 82888.41 92710.01 82888.41 93344.8 82042.01 93344.8 M 84074.01 92710.01 84074.01 93556.4 84497.21 93979.6 84920.41 93556.4 84920.41 92710.01 84920.41 93344.8 84074.01 93344.8 M 84074.01 91694.01 84074.01 92540.4 84497.21 92963.6 84920.41 92540.4 84920.41 91694.01 84920.41 92328.8 84074.01 92328.8 M 84074.01 89662.01 84074.01 90508.4 84497.21 90931.6 84920.41 90508.4 84920.41 89662.01 84920.41 90296.8 84074.01 90296.8 M 84074.01 90678.01 84074.01 91524.4 84497.21 91947.6 84920.41 91524.4 84920.41 90678.01 84920.41 91312.8 84074.01 91312.8 M 80010.01 82550.01 80010.01 83396.4 80433.21 83819.6 80856.41 83396.4 80856.41 82550.01 80856.41 83184.8 80010.01 83184.8 M 80010.01 83566.01 80010.01 84412.4 80433.21 84835.6 80856.41 84412.4 80856.41 83566.01 80856.41 84200.8 80010.01 84200.8 M 80010.01 84582.01 80010.01 85428.4 80433.21 85851.6 80856.41 85428.4 80856.41 84582.01 80856.41 85216.8 80010.01 85216.8 M 82042.01 82550.01 82042.01 83396.4 82465.21 83819.6 82888.41 83396.4 82888.41 82550.01 82888.41 83184.8 82042.01 83184.8 M 82042.01 84582.01 82042.01 85428.4 82465.21 85851.6 82888.41 85428.4 82888.41 84582.01 82888.41 85216.8 82042.01 85216.8 M 82042.01 83566.01 82042.01 84412.4 82465.21 84835.6 82888.41 84412.4 82888.41 83566.01 82888.41 84200.8 82042.01 84200.8 M 82042.01 90678.01 82042.01 91524.4 82465.21 91947.6 82888.41 91524.4 82888.41 90678.01 82888.41 91312.8 82042.01 91312.8 M 82042.01 89662.01 82042.01 90508.4 82465.21 90931.6 82888.41 90508.4 82888.41 89662.01 82888.41 90296.8 82042.01 90296.8 M 80010.01 90678.01 80010.01 91524.4 80433.21 91947.6 80856.41 91524.4 80856.41 90678.01 80856.41 91312.8 80010.01 91312.8 M 80010.01 89662.01 80010.01 90508.4 80433.21 90931.6 80856.41 90508.4 80856.41 89662.01 80856.41 90296.8 80010.01 90296.8 M 102680.73 28589.64 102680.73 29436.03 103103.93 29859.23 103527.13 29436.03 103527.13 28589.64 103527.13 29224.43 102680.73 29224.43 M 102680.27 26086.62 102680.27 26933.02 103103.47 27356.21 103526.67 26933.02 103526.67 26086.62 103526.67 26721.42 102680.27 26721.42 M 115373.57 28533.4 115373.57 29379.8 115796.77 29802.99 116219.96 29379.8 116219.96 28533.4 116219.96 29168.2 115373.57 29168.2 M 115373.11 26030.39 115373.11 26876.78 115796.31 27299.98 116219.51 26876.78 116219.51 26030.39 116219.51 26665.18 115373.11 26665.18 M 89916.01 77216.01 89916.01 78062.4 90339.21 78485.6 90762.41 78062.4 90762.41 77216.01 90762.41 77850.8 89916.01 77850.8 M 88646.01 38608.01 88646.01 39454.4 89069.21 39877.6 89492.41 39454.4 89492.41 38608.01 89492.41 39242.8 88646.01 39242.8 M 78486.01 10160.01 78486.01 11006.4 78909.21 11429.6 79332.41 11006.4 79332.41 10160.01 79332.41 10794.8 78486.01 10794.8 M 78232.01 20066.01 78232.01 20912.4 78655.21 21335.6 79078.41 20912.4 79078.41 20066.01 79078.41 20700.8 78232.01 20700.8 M 78486.01 22860.01 78486.01 23706.4 78909.21 24129.6 79332.41 23706.4 79332.41 22860.01 79332.41 23494.8 78486.01 23494.8 M 58166.01 51816.01 58166.01 52662.4 58589.21 53085.6 59012.41 52662.4 59012.41 51816.01 59012.41 52450.8 58166.01 52450.8 M 83058.01 55626.01 83058.01 56472.4 83481.21 56895.6 83904.41 56472.4 83904.41 55626.01 83904.41 56260.8 83058.01 56260.8 M 83058.01 56896.01 83058.01 57742.4 83481.21 58165.6 83904.41 57742.4 83904.41 56896.01 83904.41 57530.8 83058.01 57530.8 M 96818.46 81963.63 96818.46 82810.02 97241.66 83233.21 97664.86 82810.02 97664.86 81963.63 97664.86 82598.42 96818.46 82598.42 M 100120.46 83233.63 100120.46 84080.02 100543.66 84503.21 100966.86 84080.02 100966.86 83233.63 100966.86 83868.42 100120.46 83868.42 M 70866.01 83312.01 70866.01 84158.4 71289.21 84581.6 71712.41 84158.4 71712.41 83312.01 71712.41 83946.8 70866.01 83946.8 M 67564.01 82042.01 67564.01 82888.4 67987.21 83311.6 68410.41 82888.4 68410.41 82042.01 68410.41 82676.8 67564.01 82676.8 M 81026.01 30734.01 81026.01 31580.4 81449.21 32003.6 81872.41 31580.4 81872.41 30734.01 81872.41 31368.8 81026.01 31368.8 M 81026.01 28702.01 81026.01 29548.4 81449.21 29971.6 81872.41 29548.4 81872.41 28702.01 81872.41 29336.8 81026.01 29336.8 M 81026.01 31750.01 81026.01 32596.4 81449.21 33019.6 81872.41 32596.4 81872.41 31750.01 81872.41 32384.8 81026.01 32384.8 M 81026.01 29718.01 81026.01 30564.4 81449.21 30987.6 81872.41 30564.4 81872.41 29718.01 81872.41 30352.8 81026.01 30352.8 M 75626.58 41217.76 75626.58 42064.15 76049.78 42487.35 76472.98 42064.15 76472.98 41217.76 76472.98 41852.55 75626.58 41852.55 M 81272.6 41114.33 81272.6 41960.72 81695.79 42383.92 82118.99 41960.72 82118.99 41114.33 82118.99 41749.12 81272.6 41749.12 M 108737.82 57429.41 108737.82 56159.82 109372.61 56159.82 109584.21 56371.41 109584.21 56583.01 109372.61 56794.61 108737.82 56794.61 109372.61 56794.61 109584.21 57006.21 109584.21 57217.81 109372.61 57429.41 108737.82 57429.41 M 112953.3 56618.44 112953.3 57464.83 113376.5 57888.03 113799.7 57464.83 113799.7 56618.44 113799.7 57253.23 112953.3 57253.23 M 118599.27 56515.01 118599.27 57361.4 119022.46 57784.6 119445.66 57361.4 119445.66 56515.01 119445.66 57149.8 118599.27 57149.8 M 105524.67 31256.89 105524.67 32103.29 105947.87 32526.48 106371.06 32103.29 106371.06 31256.89 106371.06 31891.69 105524.67 31891.69 M 95224.46 20668.4 95224.46 21514.79 95647.66 21937.99 96070.85 21514.79 96070.85 20668.4 96070.85 21303.19 95224.46 21303.19 M 100541.54 33803.14 100541.54 34649.54 100964.74 35072.73 101387.94 34649.54 101387.94 33803.14 101387.94 34437.94 100541.54 34437.94 M 109653.79 29598.93 109653.79 30445.33 110076.99 30868.52 110500.19 30445.33 110500.19 29598.93 110500.19 30233.73 109653.79 30233.73 M 117729.62 25578.41 117729.62 26424.81 118152.82 26848 118576.02 26424.81 118576.02 25578.41 118576.02 26213.21 117729.62 26213.21 M 102362.01 44957.6 102362.01 43688.01 102996.81 43688.01 103208.41 43899.61 103208.41 44111.21 102996.81 44322.8 102362.01 44322.8 102996.81 44322.8 103208.41 44534.4 103208.41 44746 102996.81 44957.6 102362.01 44957.6 M 102362.01 43179.6 102362.01 41910.01 102996.81 41910.01 103208.41 42121.61 103208.41 42333.21 102996.81 42544.8 102362.01 42544.8 102996.81 42544.8 103208.41 42756.4 103208.41 42968 102996.81 43179.6 102362.01 43179.6 M 101346.01 53848.01 101346.01 54694.4 101769.21 55117.6 102192.41 54694.4 102192.41 53848.01 102192.41 54482.8 101346.01 54482.8 M 95700 53951.44 95700 54797.83 96123.2 55221.03 96546.39 54797.83 96546.39 53951.44 96546.39 54586.23 95700 54586.23 M 74676.01 21336.01 74676.01 22182.4 75099.21 22605.6 75522.41 22182.4 75522.41 21336.01 75522.41 21970.8 74676.01 21970.8 M 31474.63 21336.01 31474.63 22182.4 31897.82 22605.6 32321.02 22182.4 32321.02 21336.01 32321.02 21970.8 31474.63 21970.8 M 40839.25 21336.01 40839.25 22182.4 41262.45 22605.6 41685.64 22182.4 41685.64 21336.01 41685.64 21970.8 40839.25 21970.8 M 42279.74 21336.01 42279.74 22182.4 42702.93 22605.6 43126.13 22182.4 43126.13 21336.01 43126.13 21970.8 42279.74 21970.8 M 50203.87 21336.01 50203.87 22182.4 50627.07 22605.6 51050.27 22182.4 51050.27 21336.01 51050.27 21970.8 50203.87 21970.8 M 67640.01 52215.96 67640.01 53062.35 68063.21 53485.55 68486.4 53062.35 68486.4 52215.96 68486.4 52850.75 67640.01 52850.75 M 67640.01 53994.01 67640.01 54840.4 68063.21 55263.6 68486.4 54840.4 68486.4 53994.01 68486.4 54628.8 67640.01 54628.8 M 57493.67 47004.39 57493.67 47850.78 57916.87 48273.98 58340.07 47850.78 58340.07 47004.39 58340.07 47639.18 57493.67 47639.18 M 44196.01 50363.94 44196.01 51210.34 44619.21 51633.53 45042.41 51210.34 45042.41 50363.94 45042.41 50998.74 44196.01 50998.74 M 45234.01 50363.94 45234.01 51210.34 45657.21 51633.53 46080.4 51210.34 46080.4 50363.94 46080.4 50998.74 45234.01 50998.74 M 44196.01 51401.99 44196.01 52248.38 44619.21 52671.58 45042.41 52248.38 45042.41 51401.99 45042.41 52036.78 44196.01 52036.78 M 36830.01 57912.01 36830.01 58758.4 37253.21 59181.6 37676.41 58758.4 37676.41 57912.01 37676.41 58546.8 36830.01 58546.8 M 46272.06 52439.99 46272.06 53286.38 46695.25 53709.58 47118.45 53286.38 47118.45 52439.99 47118.45 53074.78 46272.06 53074.78 M 47310.05 52439.99 47310.05 53286.38 47733.25 53709.58 48156.45 53286.38 48156.45 52439.99 48156.45 53074.78 47310.05 53074.78 M 47310.05 53478.03 47310.05 54324.43 47733.25 54747.62 48156.45 54324.43 48156.45 53478.03 48156.45 54112.83 47310.05 54112.83 M 47310.05 51401.99 47310.05 52248.38 47733.25 52671.58 48156.45 52248.38 48156.45 51401.99 48156.45 52036.78 47310.05 52036.78 M 41402.01 57658.01 41402.01 58504.4 41825.21 58927.6 42248.41 58504.4 42248.41 57658.01 42248.41 58292.8 41402.01 58292.8 M 45234.01 53478.03 45234.01 54324.43 45657.21 54747.62 46080.4 54324.43 46080.4 53478.03 46080.4 54112.83 45234.01 54112.83 M 44349.99 56286.41 44349.99 57132.8 44773.18 57556 45196.38 57132.8 45196.38 56286.41 45196.38 56921.2 44349.99 56921.2 M 46272.06 53478.03 46272.06 54324.43 46695.25 54747.62 47118.45 54324.43 47118.45 53478.03 47118.45 54112.83 46272.06 54112.83 M 45234.01 52439.99 45234.01 53286.38 45657.21 53709.58 46080.4 53286.38 46080.4 52439.99 46080.4 53074.78 45234.01 53074.78 M 45234.01 51401.99 45234.01 52248.38 45657.21 52671.58 46080.4 52248.38 46080.4 51401.99 46080.4 52036.78 45234.01 52036.78 M 46272.06 51401.99 46272.06 52248.38 46695.25 52671.58 47118.45 52248.38 47118.45 51401.99 47118.45 52036.78 46272.06 52036.78 M 44196.01 53478.03 44196.01 54324.43 44619.21 54747.62 45042.41 54324.43 45042.41 53478.03 45042.41 54112.83 44196.01 54112.83 M 44196.01 52439.99 44196.01 53286.38 44619.21 53709.58 45042.41 53286.38 45042.41 52439.99 45042.41 53074.78 44196.01 53074.78 M 44958.01 41148.01 44958.01 41994.4 45381.21 42417.6 45804.41 41994.4 45804.41 41148.01 45804.41 41782.8 44958.01 41782.8 M 45973.96 42671.96 45973.96 43518.35 46397.16 43941.55 46820.36 43518.35 46820.36 42671.96 46820.36 43306.75 45973.96 43306.75 M 44957.96 42163.96 44957.96 43010.35 45381.16 43433.55 45804.36 43010.35 45804.36 42163.96 45804.36 42798.75 44957.96 42798.75 M 85081.28 23870.37 85081.28 24716.77 85504.47 25139.96 85927.67 24716.77 85927.67 23870.37 85927.67 24505.17 85081.28 24505.17 M 93165.69 22790.21 93165.69 23636.6 93588.89 24059.8 94012.08 23636.6 94012.08 22790.21 94012.08 23425.01 93165.69 23425.01 M 94638.89 22743.02 94638.89 23589.41 95062.09 24012.61 95485.28 23589.41 95485.28 22743.02 95485.28 23377.81 94638.89 23377.81 M 61616.81 9652.01 61616.81 10498.4 62040 10921.6 62463.2 10498.4 62463.2 9652.01 62463.2 10286.8 61616.81 10286.8 M 81534.01 32512.01 81534.01 33358.4 81957.21 33781.6 82380.41 33358.4 82380.41 32512.01 82380.41 33146.8 81534.01 33146.8 M 81534.01 34544.01 81534.01 35390.4 81957.21 35813.6 82380.41 35390.4 82380.41 34544.01 82380.41 35178.8 81534.01 35178.8 M 55660.46 28336.35 55660.46 29182.75 56083.65 29605.94 56506.85 29182.75 56506.85 28336.35 56506.85 28971.15 55660.46 28971.15 M 55660.46 29352.35 55660.46 30198.75 56083.65 30621.94 56506.85 30198.75 56506.85 29352.35 56506.85 29987.15 55660.46 29987.15 M 55660.51 30368.35 55660.51 31214.75 56083.7 31637.94 56506.9 31214.75 56506.9 30368.35 56506.9 31003.15 55660.51 31003.15 M 55660.51 31384.35 55660.51 32230.75 56083.7 32653.94 56506.9 32230.75 56506.9 31384.35 56506.9 32019.15 55660.51 32019.15 M 60850.74 28285.65 60850.74 29132.05 61273.94 29555.24 61697.14 29132.05 61697.14 28285.65 61697.14 28920.45 60850.74 28920.45 M 60850.79 29301.65 60850.79 30148.05 61273.99 30571.24 61697.19 30148.05 61697.19 29301.65 61697.19 29936.45 60850.79 29936.45 M 60850.79 30317.65 60850.79 31164.05 61273.99 31587.24 61697.19 31164.05 61697.19 30317.65 61697.19 30952.45 60850.79 30952.45 M 60850.79 31333.65 60850.79 32180.05 61273.99 32603.24 61697.19 32180.05 61697.19 31333.65 61697.19 31968.45 60850.79 31968.45 M 45365.99 56286.41 45365.99 57132.8 45789.18 57556 46212.38 57132.8 46212.38 56286.41 46212.38 56921.2 45365.99 56921.2 M 46381.99 56286.41 46381.99 57132.8 46805.18 57556 47228.38 57132.8 47228.38 56286.41 47228.38 56921.2 46381.99 56921.2 M 44349.99 58318.41 44349.99 59164.8 44773.18 59588 45196.38 59164.8 45196.38 58318.41 45196.38 58953.2 44349.99 58953.2 M 45365.99 58318.41 45365.99 59164.8 45789.18 59588 46212.38 59164.8 46212.38 58318.41 46212.38 58953.2 45365.99 58953.2 M 46381.99 58318.41 46381.99 59164.8 46805.18 59588 47228.38 59164.8 47228.38 58318.41 47228.38 58953.2 46381.99 58953.2 M 81526.6 38114.49 81526.6 38960.88 81949.79 39384.08 82372.99 38960.88 82372.99 38114.49 82372.99 38749.28 81526.6 38749.28 M 84868.73 45175.13 84868.73 46021.52 85291.92 46444.72 85715.12 46021.52 85715.12 45175.13 85715.12 45809.92 84868.73 45809.92 M 86900.73 45175.13 86900.73 46021.52 87323.92 46444.72 87747.12 46021.52 87747.12 45175.13 87747.12 45809.92 86900.73 45809.92 M 108712.01 24892.01 108712.01 25738.4 109135.21 26161.6 109558.41 25738.4 109558.41 24892.01 109558.41 25526.8 108712.01 25526.8 M 108712.01 25908.01 108712.01 26754.4 109135.21 27177.6 109558.41 26754.4 109558.41 25908.01 109558.41 26542.8 108712.01 26542.8 M 28067.01 73753.28 28067.01 74599.67 28490.21 75022.87 28913.41 74599.67 28913.41 73753.28 28913.41 74388.07 28067.01 74388.07 M 29083.01 73753.28 29083.01 74599.67 29506.21 75022.87 29929.41 74599.67 29929.41 73753.28 29929.41 74388.07 29083.01 74388.07 M 30099.01 73753.28 30099.01 74599.67 30522.21 75022.87 30945.41 74599.67 30945.41 73753.28 30945.41 74388.07 30099.01 74388.07 M 106172.01 76708.01 106172.01 77554.4 106595.21 77977.6 107018.41 77554.4 107018.41 76708.01 107018.41 77342.8 106172.01 77342.8 M 109868.58 78929.65 109868.58 79776.04 110291.77 80199.24 110714.97 79776.04 110714.97 78929.65 110714.97 79564.44 109868.58 79564.44 M 110847.19 78967.04 110847.19 79813.43 111270.38 80236.62 111693.58 79813.43 111693.58 78967.04 111693.58 79601.83 110847.19 79601.83 M 111863.19 78967.04 111863.19 79813.43 112286.38 80236.62 112709.58 79813.43 112709.58 78967.04 112709.58 79601.83 111863.19 79601.83 M 109831.19 77951.04 109831.19 78797.43 110254.38 79220.62 110677.58 78797.43 110677.58 77951.04 110677.58 78585.83 109831.19 78585.83 M 110847.19 77951.04 110847.19 78797.43 111270.38 79220.62 111693.58 78797.43 111693.58 77951.04 111693.58 78585.83 110847.19 78585.83 M 111863.19 77951.04 111863.19 78797.43 112286.38 79220.62 112709.58 78797.43 112709.58 77951.04 112709.58 78585.83 111863.19 78585.83 M 109831.19 76935.04 109831.19 77781.43 110254.38 78204.62 110677.58 77781.43 110677.58 76935.04 110677.58 77569.83 109831.19 77569.83 M 110847.19 76935.04 110847.19 77781.43 111270.38 78204.62 111693.58 77781.43 111693.58 76935.04 111693.58 77569.83 110847.19 77569.83 M 111863.19 76935.04 111863.19 77781.43 112286.38 78204.62 112709.58 77781.43 112709.58 76935.04 112709.58 77569.83 111863.19 77569.83 M 115233.67 76985.53 115233.67 77831.92 115656.86 78255.12 116080.06 77831.92 116080.06 76985.53 116080.06 77620.32 115233.67 77620.32 M 80676.71 78945.39 80676.71 79791.79 81099.91 80214.98 81523.11 79791.79 81523.11 78945.39 81523.11 79580.19 80676.71 79580.19 M 81692.71 78945.39 81692.71 79791.79 82115.91 80214.98 82539.11 79791.79 82539.11 78945.39 82539.11 79580.19 81692.71 79580.19 M 82708.71 78945.39 82708.71 79791.79 83131.91 80214.98 83555.11 79791.79 83555.11 78945.39 83555.11 79580.19 82708.71 79580.19 M 80676.71 77929.39 80676.71 78775.79 81099.91 79198.98 81523.11 78775.79 81523.11 77929.39 81523.11 78564.19 80676.71 78564.19 M 81692.71 77929.39 81692.71 78775.79 82115.91 79198.98 82539.11 78775.79 82539.11 77929.39 82539.11 78564.19 81692.71 78564.19 M 82708.71 77929.39 82708.71 78775.79 83131.91 79198.98 83555.11 78775.79 83555.11 77929.39 83555.11 78564.19 82708.71 78564.19 M 80676.71 76913.39 80676.71 77759.79 81099.91 78182.98 81523.11 77759.79 81523.11 76913.39 81523.11 77548.19 80676.71 77548.19 M 81692.71 76913.39 81692.71 77759.79 82115.91 78182.98 82539.11 77759.79 82539.11 76913.39 82539.11 77548.19 81692.71 77548.19 M 82708.71 76913.39 82708.71 77759.79 83131.91 78182.98 83555.11 77759.79 83555.11 76913.39 83555.11 77548.19 82708.71 77548.19 M 86016.2 77100.95 86016.2 77947.34 86439.4 78370.54 86862.59 77947.34 86862.59 77100.95 86862.59 77735.74 86016.2 77735.74 M 41465.51 33434.39 41465.51 34280.78 41888.71 34703.97 42311.91 34280.78 42311.91 33434.39 42311.91 34069.18 41465.51 34069.18 M 40322.51 33434.39 40322.51 34280.78 40745.71 34703.97 41168.91 34280.78 41168.91 33434.39 41168.91 34069.18 40322.51 34069.18 M 36893.51 38006.39 36893.51 38852.78 37316.71 39275.97 37739.91 38852.78 37739.91 38006.39 37739.91 38641.18 36893.51 38641.18 M 35750.51 38006.39 35750.51 38852.78 36173.71 39275.97 36596.91 38852.78 36596.91 38006.39 36596.91 38641.18 35750.51 38641.18 M 45974.01 39624.01 45974.01 40470.4 46397.21 40893.6 46820.41 40470.4 46820.41 39624.01 46820.41 40258.8 45974.01 40258.8 M 45974.01 40640.01 45974.01 41486.4 46397.21 41909.6 46820.41 41486.4 46820.41 40640.01 46820.41 41274.8 45974.01 41274.8 M 45973.96 41655.96 45973.96 42502.35 46397.16 42925.55 46820.36 42502.35 46820.36 41655.96 46820.36 42290.75 45973.96 42290.75 M 44958.01 40132.01 44958.01 40978.4 45381.21 41401.6 45804.41 40978.4 45804.41 40132.01 45804.41 40766.8 44958.01 40766.8 M 44957.96 43179.96 44957.96 44026.35 45381.16 44449.55 45804.36 44026.35 45804.36 43179.96 45804.36 43814.75 44957.96 43814.75 M 45974.01 35560.01 45974.01 36406.4 46397.21 36829.6 46820.41 36406.4 46820.41 35560.01 46820.41 36194.8 45974.01 36194.8 M 45974.01 36576.01 45974.01 37422.4 46397.21 37845.6 46820.41 37422.4 46820.41 36576.01 46820.41 37210.8 45974.01 37210.8 M 45973.96 37591.96 45973.96 38438.35 46397.16 38861.55 46820.36 38438.35 46820.36 37591.96 46820.36 38226.75 45973.96 38226.75 M 45973.96 38607.96 45973.96 39454.35 46397.16 39877.55 46820.36 39454.35 46820.36 38607.96 46820.36 39242.75 45973.96 39242.75 M 44958.01 35052.01 44958.01 35898.4 45381.21 36321.6 45804.41 35898.4 45804.41 35052.01 45804.41 35686.8 44958.01 35686.8 M 44958.01 36068.01 44958.01 36914.4 45381.21 37337.6 45804.41 36914.4 45804.41 36068.01 45804.41 36702.8 44958.01 36702.8 M 44957.96 37083.96 44957.96 37930.35 45381.16 38353.55 45804.36 37930.35 45804.36 37083.96 45804.36 37718.75 44957.96 37718.75 M 44957.96 38099.96 44957.96 38946.35 45381.16 39369.55 45804.36 38946.35 45804.36 38099.96 45804.36 38734.75 44957.96 38734.75 M 42926.01 34036.01 42926.01 34882.4 43349.21 35305.6 43772.41 34882.4 43772.41 34036.01 43772.41 34670.8 42926.01 34670.8 M 43942.01 34036.01 43942.01 34882.4 44365.21 35305.6 44788.41 34882.4 44788.41 34036.01 44788.41 34670.8 43942.01 34670.8 M 44957.96 34036.01 44957.96 34882.4 45381.16 35305.6 45804.36 34882.4 45804.36 34036.01 45804.36 34670.8 44957.96 34670.8 M 45973.96 34036.01 45973.96 34882.4 46397.16 35305.6 46820.36 34882.4 46820.36 34036.01 46820.36 34670.8 45973.96 34670.8 M 42672.01 32766.01 42672.01 33612.4 43095.21 34035.6 43518.41 33612.4 43518.41 32766.01 43518.41 33400.8 42672.01 33400.8 M 43688.01 32766.01 43688.01 33612.4 44111.21 34035.6 44534.41 33612.4 44534.41 32766.01 44534.41 33400.8 43688.01 33400.8 M 44703.96 32766.01 44703.96 33612.4 45127.16 34035.6 45550.36 33612.4 45550.36 32766.01 45550.36 33400.8 44703.96 33400.8 M 45719.96 32766.01 45719.96 33612.4 46143.16 34035.6 46566.36 33612.4 46566.36 32766.01 46566.36 33400.8 45719.96 33400.8 M 52253.81 32811.02 52253.81 33657.41 52677 34080.61 53100.2 33657.41 53100.2 32811.02 53100.2 33445.81 52253.81 33445.81 M 51237.81 32811.02 51237.81 33657.41 51661 34080.61 52084.2 33657.41 52084.2 32811.02 52084.2 33445.81 51237.81 33445.81 M 50221.86 32811.02 50221.86 33657.41 50645.05 34080.61 51068.25 33657.41 51068.25 32811.02 51068.25 33445.81 50221.86 33445.81 M 49205.86 32811.02 49205.86 33657.41 49629.05 34080.61 50052.25 33657.41 50052.25 32811.02 50052.25 33445.81 49205.86 33445.81 M 48189.86 32810.97 48189.86 33657.36 48613.05 34080.56 49036.25 33657.36 49036.25 32810.97 49036.25 33445.76 48189.86 33445.76 M 52253.81 36277 52253.81 37123.4 52677 37546.59 53100.2 37123.4 53100.2 36277 53100.2 36911.8 52253.81 36911.8 M 51237.81 36277 51237.81 37123.4 51661 37546.59 52084.2 37123.4 52084.2 36277 52084.2 36911.8 51237.81 36911.8 M 50221.86 36277 50221.86 37123.4 50645.05 37546.59 51068.25 37123.4 51068.25 36277 51068.25 36911.8 50221.86 36911.8 M 49205.86 36277 49205.86 37123.4 49629.05 37546.59 50052.25 37123.4 50052.25 36277 50052.25 36911.8 49205.86 36911.8 M 48189.86 36277.05 48189.86 37123.45 48613.05 37546.64 49036.25 37123.45 49036.25 36277.05 49036.25 36911.85 48189.86 36911.85 M 64026.05 36277 64026.05 37123.4 64449.24 37546.59 64872.44 37123.4 64872.44 36277 64872.44 36911.8 64026.05 36911.8 M 65042.05 36277 65042.05 37123.4 65465.24 37546.59 65888.44 37123.4 65888.44 36277 65888.44 36911.8 65042.05 36911.8 M 66058.05 36277 66058.05 37123.4 66481.24 37546.59 66904.44 37123.4 66904.44 36277 66904.44 36911.8 66058.05 36911.8 M 67074.05 36277 67074.05 37123.4 67497.24 37546.59 67920.44 37123.4 67920.44 36277 67920.44 36911.8 67074.05 36911.8 M 68090.05 36277 68090.05 37123.4 68513.24 37546.59 68936.44 37123.4 68936.44 36277 68936.44 36911.8 68090.05 36911.8 M 64026.05 32810.97 64026.05 33657.36 64449.24 34080.56 64872.44 33657.36 64872.44 32810.97 64872.44 33445.76 64026.05 33445.76 M 65042.05 32810.97 65042.05 33657.36 65465.24 34080.56 65888.44 33657.36 65888.44 32810.97 65888.44 33445.76 65042.05 33445.76 M 66058.05 32811.02 66058.05 33657.41 66481.24 34080.61 66904.44 33657.41 66904.44 32811.02 66904.44 33445.81 66058.05 33445.81 M 67074.05 32811.02 67074.05 33657.41 67497.24 34080.61 67920.44 33657.41 67920.44 32811.02 67920.44 33445.81 67074.05 33445.81 M 68090.05 32811.02 68090.05 33657.41 68513.24 34080.61 68936.44 33657.41 68936.44 32811.02 68936.44 33445.81 68090.05 33445.81 M 61176.62 39574.38 61176.62 40420.77 61599.82 40843.97 62023.02 40420.77 62023.02 39574.38 62023.02 40209.17 61176.62 40209.17 M 62192.62 39574.38 62192.62 40420.77 62615.82 40843.97 63039.02 40420.77 63039.02 39574.38 63039.02 40209.17 62192.62 40209.17 M 63208.62 39574.38 63208.62 40420.77 63631.82 40843.97 64055.02 40420.77 64055.02 39574.38 64055.02 40209.17 63208.62 40209.17 M 64224.62 39574.43 64224.62 40420.82 64647.82 40844.02 65071.02 40420.82 65071.02 39574.43 65071.02 40209.22 64224.62 40209.22 M 65240.62 39574.43 65240.62 40420.82 65663.82 40844.02 66087.02 40420.82 66087.02 39574.43 66087.02 40209.22 65240.62 40209.22 M 66256.57 39574.43 66256.57 40420.82 66679.77 40844.02 67102.97 40420.82 67102.97 39574.43 67102.97 40209.22 66256.57 40209.22 M 50229.33 39574.43 50229.33 40420.82 50652.52 40844.02 51075.72 40420.82 51075.72 39574.43 51075.72 40209.22 50229.33 40209.22 M 51245.27 39574.43 51245.27 40420.82 51668.47 40844.02 52091.67 40420.82 52091.67 39574.43 52091.67 40209.22 51245.27 40209.22 M 52261.27 39574.43 52261.27 40420.82 52684.47 40844.02 53107.67 40420.82 53107.67 39574.43 53107.67 40209.22 52261.27 40209.22 M 53277.27 39574.43 53277.27 40420.82 53700.47 40844.02 54123.67 40420.82 54123.67 39574.43 54123.67 40209.22 53277.27 40209.22 M 54293.27 39574.43 54293.27 40420.82 54716.47 40844.02 55139.67 40420.82 55139.67 39574.43 55139.67 40209.22 54293.27 40209.22 M 55309.27 39574.38 55309.27 40420.77 55732.47 40843.97 56155.67 40420.77 56155.67 39574.38 56155.67 40209.17 55309.27 40209.17 M 41402.01 72644.01 41402.01 73490.4 41825.21 73913.6 42248.41 73490.4 42248.41 72644.01 42248.41 73278.8 41402.01 73278.8 M 41402.01 73660.01 41402.01 74506.4 41825.21 74929.6 42248.41 74506.4 42248.41 73660.01 42248.41 74294.8 41402.01 74294.8 M 43434.01 72644.01 43434.01 73490.4 43857.21 73913.6 44280.41 73490.4 44280.41 72644.01 44280.41 73278.8 43434.01 73278.8 M 45466.01 72644.01 45466.01 73490.4 45889.21 73913.6 46312.41 73490.4 46312.41 72644.01 46312.41 73278.8 45466.01 73278.8 M 43434.01 73660.01 43434.01 74506.4 43857.21 74929.6 44280.41 74506.4 44280.41 73660.01 44280.41 74294.8 43434.01 74294.8 M 45466.01 73660.01 45466.01 74506.4 45889.21 74929.6 46312.41 74506.4 46312.41 73660.01 46312.41 74294.8 45466.01 74294.8 M 47498.01 72644.01 47498.01 73490.4 47921.21 73913.6 48344.41 73490.4 48344.41 72644.01 48344.41 73278.8 47498.01 73278.8 M 49530.01 72644.01 49530.01 73490.4 49953.21 73913.6 50376.41 73490.4 50376.41 72644.01 50376.41 73278.8 49530.01 73278.8 M 47498.01 73660.01 47498.01 74506.4 47921.21 74929.6 48344.41 74506.4 48344.41 73660.01 48344.41 74294.8 47498.01 74294.8 M 49530.01 73660.01 49530.01 74506.4 49953.21 74929.6 50376.41 74506.4 50376.41 73660.01 50376.41 74294.8 49530.01 74294.8 M 57658.01 75692.01 57658.01 76538.4 58081.21 76961.6 58504.41 76538.4 58504.41 75692.01 58504.41 76326.8 57658.01 76326.8 M 55626.01 75692.01 55626.01 76538.4 56049.21 76961.6 56472.41 76538.4 56472.41 75692.01 56472.41 76326.8 55626.01 76326.8 M 55626.01 74676.01 55626.01 75522.4 56049.21 75945.6 56472.41 75522.4 56472.41 74676.01 56472.41 75310.8 55626.01 75310.8 M 57658.01 74676.01 57658.01 75522.4 58081.21 75945.6 58504.41 75522.4 58504.41 74676.01 58504.41 75310.8 57658.01 75310.8 M 55626.01 73660.01 55626.01 74506.4 56049.21 74929.6 56472.41 74506.4 56472.41 73660.01 56472.41 74294.8 55626.01 74294.8 M 57658.01 72644.01 57658.01 73490.4 58081.21 73913.6 58504.41 73490.4 58504.41 72644.01 58504.41 73278.8 57658.01 73278.8 M 55626.01 72644.01 55626.01 73490.4 56049.21 73913.6 56472.41 73490.4 56472.41 72644.01 56472.41 73278.8 55626.01 73278.8 M 57658.01 73660.01 57658.01 74506.4 58081.21 74929.6 58504.41 74506.4 58504.41 73660.01 58504.41 74294.8 57658.01 74294.8 M 53594.01 73660.01 53594.01 74506.4 54017.21 74929.6 54440.41 74506.4 54440.41 73660.01 54440.41 74294.8 53594.01 74294.8 M 51562.01 72644.01 51562.01 73490.4 51985.21 73913.6 52408.41 73490.4 52408.41 72644.01 52408.41 73278.8 51562.01 73278.8 M 53594.01 72644.01 53594.01 73490.4 54017.21 73913.6 54440.41 73490.4 54440.41 72644.01 54440.41 73278.8 53594.01 73278.8 M 51562.01 73660.01 51562.01 74506.4 51985.21 74929.6 52408.41 74506.4 52408.41 73660.01 52408.41 74294.8 51562.01 74294.8 M 53594.01 74676.01 53594.01 75522.4 54017.21 75945.6 54440.41 75522.4 54440.41 74676.01 54440.41 75310.8 53594.01 75310.8 M 51562.01 74676.01 51562.01 75522.4 51985.21 75945.6 52408.41 75522.4 52408.41 74676.01 52408.41 75310.8 51562.01 75310.8 M 51562.01 75692.01 51562.01 76538.4 51985.21 76961.6 52408.41 76538.4 52408.41 75692.01 52408.41 76326.8 51562.01 76326.8 M 53594.01 75692.01 53594.01 76538.4 54017.21 76961.6 54440.41 76538.4 54440.41 75692.01 54440.41 76326.8 53594.01 76326.8 M 55626.01 69596.01 55626.01 70442.4 56049.21 70865.6 56472.41 70442.4 56472.41 69596.01 56472.41 70230.8 55626.01 70230.8 M 57658.01 71628.01 57658.01 72474.4 58081.21 72897.6 58504.41 72474.4 58504.41 71628.01 58504.41 72262.8 57658.01 72262.8 M 55626.01 71628.01 55626.01 72474.4 56049.21 72897.6 56472.41 72474.4 56472.41 71628.01 56472.41 72262.8 55626.01 72262.8 M 57658.01 70612.01 57658.01 71458.4 58081.21 71881.6 58504.41 71458.4 58504.41 70612.01 58504.41 71246.8 57658.01 71246.8 M 55626.01 70612.01 55626.01 71458.4 56049.21 71881.6 56472.41 71458.4 56472.41 70612.01 56472.41 71246.8 55626.01 71246.8 M 57658.01 69596.01 57658.01 70442.4 58081.21 70865.6 58504.41 70442.4 58504.41 69596.01 58504.41 70230.8 57658.01 70230.8 M 55626.01 68580.01 55626.01 69426.4 56049.21 69849.6 56472.41 69426.4 56472.41 68580.01 56472.41 69214.8 55626.01 69214.8 M 57658.01 68580.01 57658.01 69426.4 58081.21 69849.6 58504.41 69426.4 58504.41 68580.01 58504.41 69214.8 57658.01 69214.8 M 57658.01 67564.01 57658.01 68410.4 58081.21 68833.6 58504.41 68410.4 58504.41 67564.01 58504.41 68198.8 57658.01 68198.8 M 55626.01 67564.01 55626.01 68410.4 56049.21 68833.6 56472.41 68410.4 56472.41 67564.01 56472.41 68198.8 55626.01 68198.8 M 51562.01 69596.01 51562.01 70442.4 51985.21 70865.6 52408.41 70442.4 52408.41 69596.01 52408.41 70230.8 51562.01 70230.8 M 53594.01 71628.01 53594.01 72474.4 54017.21 72897.6 54440.41 72474.4 54440.41 71628.01 54440.41 72262.8 53594.01 72262.8 M 51562.01 71628.01 51562.01 72474.4 51985.21 72897.6 52408.41 72474.4 52408.41 71628.01 52408.41 72262.8 51562.01 72262.8 M 53594.01 70612.01 53594.01 71458.4 54017.21 71881.6 54440.41 71458.4 54440.41 70612.01 54440.41 71246.8 53594.01 71246.8 M 51562.01 70612.01 51562.01 71458.4 51985.21 71881.6 52408.41 71458.4 52408.41 70612.01 52408.41 71246.8 51562.01 71246.8 M 53594.01 69596.01 53594.01 70442.4 54017.21 70865.6 54440.41 70442.4 54440.41 69596.01 54440.41 70230.8 53594.01 70230.8 M 51562.01 68580.01 51562.01 69426.4 51985.21 69849.6 52408.41 69426.4 52408.41 68580.01 52408.41 69214.8 51562.01 69214.8 M 53594.01 68580.01 53594.01 69426.4 54017.21 69849.6 54440.41 69426.4 54440.41 68580.01 54440.41 69214.8 53594.01 69214.8 M 53594.01 67564.01 53594.01 68410.4 54017.21 68833.6 54440.41 68410.4 54440.41 67564.01 54440.41 68198.8 53594.01 68198.8 M 51562.01 67564.01 51562.01 68410.4 51985.21 68833.6 52408.41 68410.4 52408.41 67564.01 52408.41 68198.8 51562.01 68198.8 M 47498.01 69596.01 47498.01 70442.4 47921.21 70865.6 48344.41 70442.4 48344.41 69596.01 48344.41 70230.8 47498.01 70230.8 M 49530.01 71628.01 49530.01 72474.4 49953.21 72897.6 50376.41 72474.4 50376.41 71628.01 50376.41 72262.8 49530.01 72262.8 M 47498.01 71628.01 47498.01 72474.4 47921.21 72897.6 48344.41 72474.4 48344.41 71628.01 48344.41 72262.8 47498.01 72262.8 M 49530.01 70612.01 49530.01 71458.4 49953.21 71881.6 50376.41 71458.4 50376.41 70612.01 50376.41 71246.8 49530.01 71246.8 M 47498.01 70612.01 47498.01 71458.4 47921.21 71881.6 48344.41 71458.4 48344.41 70612.01 48344.41 71246.8 47498.01 71246.8 M 49530.01 69596.01 49530.01 70442.4 49953.21 70865.6 50376.41 70442.4 50376.41 69596.01 50376.41 70230.8 49530.01 70230.8 M 47498.01 68580.01 47498.01 69426.4 47921.21 69849.6 48344.41 69426.4 48344.41 68580.01 48344.41 69214.8 47498.01 69214.8 M 49530.01 68580.01 49530.01 69426.4 49953.21 69849.6 50376.41 69426.4 50376.41 68580.01 50376.41 69214.8 49530.01 69214.8 M 49530.01 67564.01 49530.01 68410.4 49953.21 68833.6 50376.41 68410.4 50376.41 67564.01 50376.41 68198.8 49530.01 68198.8 M 47498.01 67564.01 47498.01 68410.4 47921.21 68833.6 48344.41 68410.4 48344.41 67564.01 48344.41 68198.8 47498.01 68198.8 M 43434.01 67564.01 43434.01 68410.4 43857.21 68833.6 44280.41 68410.4 44280.41 67564.01 44280.41 68198.8 43434.01 68198.8 M 45466.01 67564.01 45466.01 68410.4 45889.21 68833.6 46312.41 68410.4 46312.41 67564.01 46312.41 68198.8 45466.01 68198.8 M 45466.01 68580.01 45466.01 69426.4 45889.21 69849.6 46312.41 69426.4 46312.41 68580.01 46312.41 69214.8 45466.01 69214.8 M 43434.01 68580.01 43434.01 69426.4 43857.21 69849.6 44280.41 69426.4 44280.41 68580.01 44280.41 69214.8 43434.01 69214.8 M 45466.01 69596.01 45466.01 70442.4 45889.21 70865.6 46312.41 70442.4 46312.41 69596.01 46312.41 70230.8 45466.01 70230.8 M 43434.01 70612.01 43434.01 71458.4 43857.21 71881.6 44280.41 71458.4 44280.41 70612.01 44280.41 71246.8 43434.01 71246.8 M 45466.01 70612.01 45466.01 71458.4 45889.21 71881.6 46312.41 71458.4 46312.41 70612.01 46312.41 71246.8 45466.01 71246.8 M 43434.01 71628.01 43434.01 72474.4 43857.21 72897.6 44280.41 72474.4 44280.41 71628.01 44280.41 72262.8 43434.01 72262.8 M 45466.01 71628.01 45466.01 72474.4 45889.21 72897.6 46312.41 72474.4 46312.41 71628.01 46312.41 72262.8 45466.01 72262.8 M 43434.01 69596.01 43434.01 70442.4 43857.21 70865.6 44280.41 70442.4 44280.41 69596.01 44280.41 70230.8 43434.01 70230.8 M 41402.01 71628.01 41402.01 72474.4 41825.21 72897.6 42248.41 72474.4 42248.41 71628.01 42248.41 72262.8 41402.01 72262.8 M 41402.01 70612.01 41402.01 71458.4 41825.21 71881.6 42248.41 71458.4 42248.41 70612.01 42248.41 71246.8 41402.01 71246.8 M 80264.01 71882.01 80264.01 72728.4 80687.21 73151.6 81110.41 72728.4 81110.41 71882.01 81110.41 72516.8 80264.01 72516.8 M 62522.01 80806 62522.01 81652.39 62945.21 82075.58 63368.41 81652.39 63368.41 80806 63368.41 81440.79 62522.01 81440.79 M 62522.01 84306.01 62522.01 85152.41 62945.21 85575.6 63368.41 85152.41 63368.41 84306.01 63368.41 84940.81 62522.01 84940.81 M 60922.01 84306.01 60922.01 85152.41 61345.21 85575.6 61768.41 85152.41 61768.41 84306.01 61768.41 84940.81 60922.01 84940.81 M 60922.01 80806 60922.01 81652.39 61345.21 82075.58 61768.41 81652.39 61768.41 80806 61768.41 81440.79 60922.01 81440.79 M 60922.01 78706.02 60922.01 79552.42 61345.21 79975.61 61768.41 79552.42 61768.41 78706.02 61768.41 79340.82 60922.01 79340.82 M 60922.01 75206.01 60922.01 76052.4 61345.21 76475.6 61768.41 76052.4 61768.41 75206.01 61768.41 75840.8 60922.01 75840.8 M 62522.01 78706.02 62522.01 79552.42 62945.21 79975.61 63368.41 79552.42 63368.41 78706.02 63368.41 79340.82 62522.01 79340.82 M 62522.01 75206.01 62522.01 76052.4 62945.21 76475.6 63368.41 76052.4 63368.41 75206.01 63368.41 75840.8 62522.01 75840.8 M 30988.01 67564.01 30988.01 68410.4 31411.21 68833.6 31834.41 68410.4 31834.41 67564.01 31834.41 68198.8 30988.01 68198.8 M 30988.01 68580.01 30988.01 69426.4 31411.21 69849.6 31834.41 69426.4 31834.41 68580.01 31834.41 69214.8 30988.01 69214.8 M 30988.01 69596.01 30988.01 70442.4 31411.21 70865.6 31834.41 70442.4 31834.41 69596.01 31834.41 70230.8 30988.01 70230.8 M 30988.01 71628.01 30988.01 72474.4 31411.21 72897.6 31834.41 72474.4 31834.41 71628.01 31834.41 72262.8 30988.01 72262.8 M 30988.01 70612.01 30988.01 71458.4 31411.21 71881.6 31834.41 71458.4 31834.41 70612.01 31834.41 71246.8 30988.01 71246.8 M 41402.01 68580.01 41402.01 69426.4 41825.21 69849.6 42248.41 69426.4 42248.41 68580.01 42248.41 69214.8 41402.01 69214.8 M 41402.01 67564.01 41402.01 68410.4 41825.21 68833.6 42248.41 68410.4 42248.41 67564.01 42248.41 68198.8 41402.01 68198.8 M 41402.01 69596.01 41402.01 70442.4 41825.21 70865.6 42248.41 70442.4 42248.41 69596.01 42248.41 70230.8 41402.01 70230.8 M 46381.99 57302.41 46381.99 58148.8 46805.18 58572 47228.38 58148.8 47228.38 57302.41 47228.38 57937.2 46381.99 57937.2 M 45365.99 57302.41 45365.99 58148.8 45789.18 58572 46212.38 58148.8 46212.38 57302.41 46212.38 57937.2 45365.99 57937.2 M 44349.99 57302.41 44349.99 58148.8 44773.18 58572 45196.38 58148.8 45196.38 57302.41 45196.38 57937.2 44349.99 57937.2 M 110534.46 73835.63 110534.46 74682.02 110957.66 75105.21 111380.86 74682.02 111380.86 73835.63 111380.86 74470.42 110534.46 74470.42 M 111550.46 73835.63 111550.46 74682.02 111973.66 75105.21 112396.86 74682.02 112396.86 73835.63 112396.86 74470.42 111550.46 74470.42 M 112566.46 73835.63 112566.46 74682.02 112989.66 75105.21 113412.86 74682.02 113412.86 73835.63 113412.86 74470.42 112566.46 74470.42 M 112566.46 72819.63 112566.46 73666.02 112989.66 74089.21 113412.86 73666.02 113412.86 72819.63 113412.86 73454.42 112566.46 73454.42 M 111550.46 72819.63 111550.46 73666.02 111973.66 74089.21 112396.86 73666.02 112396.86 72819.63 112396.86 73454.42 111550.46 73454.42 M 110534.46 72819.63 110534.46 73666.02 110957.66 74089.21 111380.86 73666.02 111380.86 72819.63 111380.86 73454.42 110534.46 73454.42 M 109518.46 72819.63 109518.46 73666.02 109941.66 74089.21 110364.86 73666.02 110364.86 72819.63 110364.86 73454.42 109518.46 73454.42 M 109518.46 71803.63 109518.46 72650.02 109941.66 73073.21 110364.86 72650.02 110364.86 71803.63 110364.86 72438.42 109518.46 72438.42 M 110534.46 71803.63 110534.46 72650.02 110957.66 73073.21 111380.86 72650.02 111380.86 71803.63 111380.86 72438.42 110534.46 72438.42 M 111550.46 71803.63 111550.46 72650.02 111973.66 73073.21 112396.86 72650.02 112396.86 71803.63 112396.86 72438.42 111550.46 72438.42 M 112566.46 71803.63 112566.46 72650.02 112989.66 73073.21 113412.86 72650.02 113412.86 71803.63 113412.86 72438.42 112566.46 72438.42 M 109518.46 70787.63 109518.46 71634.02 109941.66 72057.21 110364.86 71634.02 110364.86 70787.63 110364.86 71422.42 109518.46 71422.42 M 110534.46 70787.63 110534.46 71634.02 110957.66 72057.21 111380.86 71634.02 111380.86 70787.63 111380.86 71422.42 110534.46 71422.42 M 111550.46 70787.63 111550.46 71634.02 111973.66 72057.21 112396.86 71634.02 112396.86 70787.63 112396.86 71422.42 111550.46 71422.42 M 112566.46 70787.63 112566.46 71634.02 112989.66 72057.21 113412.86 71634.02 113412.86 70787.63 113412.86 71422.42 112566.46 71422.42 M 109518.46 69771.63 109518.46 70618.02 109941.66 71041.21 110364.86 70618.02 110364.86 69771.63 110364.86 70406.42 109518.46 70406.42 M 110534.46 69771.63 110534.46 70618.02 110957.66 71041.21 111380.86 70618.02 111380.86 69771.63 111380.86 70406.42 110534.46 70406.42 M 111550.46 69771.63 111550.46 70618.02 111973.66 71041.21 112396.86 70618.02 112396.86 69771.63 112396.86 70406.42 111550.46 70406.42 M 112566.46 69771.63 112566.46 70618.02 112989.66 71041.21 113412.86 70618.02 113412.86 69771.63 113412.86 70406.42 112566.46 70406.42 M 108502.46 70787.63 108502.46 71634.02 108925.66 72057.21 109348.86 71634.02 109348.86 70787.63 109348.86 71422.42 108502.46 71422.42 M 108502.46 69771.63 108502.46 70618.02 108925.66 71041.21 109348.86 70618.02 109348.86 69771.63 109348.86 70406.42 108502.46 70406.42 M 107486.46 69771.63 107486.46 70618.02 107909.66 71041.21 108332.86 70618.02 108332.86 69771.63 108332.86 70406.42 107486.46 70406.42 M 78232.01 69850.01 78232.01 70696.4 78655.21 71119.6 79078.41 70696.4 79078.41 69850.01 79078.41 70484.8 78232.01 70484.8 M 78232.01 70866.01 78232.01 71712.4 78655.21 72135.6 79078.41 71712.4 79078.41 70866.01 79078.41 71500.8 78232.01 71500.8 M 79248.01 69850.01 79248.01 70696.4 79671.21 71119.6 80094.41 70696.4 80094.41 69850.01 80094.41 70484.8 79248.01 70484.8 M 79248.01 70866.01 79248.01 71712.4 79671.21 72135.6 80094.41 71712.4 80094.41 70866.01 80094.41 71500.8 79248.01 71500.8 M 83312.01 69850.01 83312.01 70696.4 83735.21 71119.6 84158.41 70696.4 84158.41 69850.01 84158.41 70484.8 83312.01 70484.8 M 82296.01 69850.01 82296.01 70696.4 82719.21 71119.6 83142.41 70696.4 83142.41 69850.01 83142.41 70484.8 82296.01 70484.8 M 81280.01 69850.01 81280.01 70696.4 81703.21 71119.6 82126.41 70696.4 82126.41 69850.01 82126.41 70484.8 81280.01 70484.8 M 80264.01 69850.01 80264.01 70696.4 80687.21 71119.6 81110.41 70696.4 81110.41 69850.01 81110.41 70484.8 80264.01 70484.8 M 83312.01 70866.01 83312.01 71712.4 83735.21 72135.6 84158.41 71712.4 84158.41 70866.01 84158.41 71500.8 83312.01 71500.8 M 82296.01 70866.01 82296.01 71712.4 82719.21 72135.6 83142.41 71712.4 83142.41 70866.01 83142.41 71500.8 82296.01 71500.8 M 81280.01 70866.01 81280.01 71712.4 81703.21 72135.6 82126.41 71712.4 82126.41 70866.01 82126.41 71500.8 81280.01 71500.8 M 80264.01 70866.01 80264.01 71712.4 80687.21 72135.6 81110.41 71712.4 81110.41 70866.01 81110.41 71500.8 80264.01 71500.8 M 83312.01 71882.01 83312.01 72728.4 83735.21 73151.6 84158.41 72728.4 84158.41 71882.01 84158.41 72516.8 83312.01 72516.8 M 82296.01 71882.01 82296.01 72728.4 82719.21 73151.6 83142.41 72728.4 83142.41 71882.01 83142.41 72516.8 82296.01 72516.8 M 81280.01 71882.01 81280.01 72728.4 81703.21 73151.6 82126.41 72728.4 82126.41 71882.01 82126.41 72516.8 81280.01 72516.8 M 80264.01 72898.01 80264.01 73744.4 80687.21 74167.6 81110.41 73744.4 81110.41 72898.01 81110.41 73532.8 80264.01 73532.8 M 81280.01 72898.01 81280.01 73744.4 81703.21 74167.6 82126.41 73744.4 82126.41 72898.01 82126.41 73532.8 81280.01 73532.8 M 82296.01 72898.01 82296.01 73744.4 82719.21 74167.6 83142.41 73744.4 83142.41 72898.01 83142.41 73532.8 82296.01 73532.8 M 83312.01 72898.01 83312.01 73744.4 83735.21 74167.6 84158.41 73744.4 84158.41 72898.01 84158.41 73532.8 83312.01 73532.8 M 83312.01 73914.01 83312.01 74760.4 83735.21 75183.6 84158.41 74760.4 84158.41 73914.01 84158.41 74548.8 83312.01 74548.8 M 82296.01 73914.01 82296.01 74760.4 82719.21 75183.6 83142.41 74760.4 83142.41 73914.01 83142.41 74548.8 82296.01 74548.8 M 81280.01 73914.01 81280.01 74760.4 81703.21 75183.6 82126.41 74760.4 82126.41 73914.01 82126.41 74548.8 81280.01 74548.8 M 46272.06 50363.94 46272.06 51210.34 46695.25 51633.53 47118.45 51210.34 47118.45 50363.94 47118.45 50998.74 46272.06 50998.74 M 47310.05 50363.94 47310.05 51210.34 47733.25 51633.53 48156.45 51210.34 48156.45 50363.94 48156.45 50998.74 47310.05 50998.74 M 66219.39 42926.01 66219.39 43772.4 66642.58 44195.6 67065.78 43772.4 67065.78 42926.01 67065.78 43560.8 66219.39 43560.8 M 65203.44 42926.01 65203.44 43772.4 65626.64 44195.6 66049.83 43772.4 66049.83 42926.01 66049.83 43560.8 65203.44 43560.8 M 64187.44 42925.96 64187.44 43772.35 64610.64 44195.55 65033.83 43772.35 65033.83 42925.96 65033.83 43560.75 64187.44 43560.75 M 63171.44 42925.96 63171.44 43772.35 63594.64 44195.55 64017.83 43772.35 64017.83 42925.96 64017.83 43560.75 63171.44 43560.75 M 62155.44 42925.96 62155.44 43772.35 62578.64 44195.55 63001.83 43772.35 63001.83 42925.96 63001.83 43560.75 62155.44 43560.75 M 61139.44 42925.96 61139.44 43772.35 61562.64 44195.55 61985.83 43772.35 61985.83 42925.96 61985.83 43560.75 61139.44 43560.75 M 55371.96 42925.96 55371.96 43772.35 55795.16 44195.55 56218.36 43772.35 56218.36 42925.96 56218.36 43560.75 55371.96 43560.75 M 54355.96 42925.96 54355.96 43772.35 54779.16 44195.55 55202.36 43772.35 55202.36 42925.96 55202.36 43560.75 54355.96 43560.75 M 53339.96 42925.96 53339.96 43772.35 53763.16 44195.55 54186.36 43772.35 54186.36 42925.96 54186.36 43560.75 53339.96 43560.75 M 52323.96 42925.96 52323.96 43772.35 52747.16 44195.55 53170.36 43772.35 53170.36 42925.96 53170.36 43560.75 52323.96 43560.75 M 51308.01 42926.01 51308.01 43772.4 51731.21 44195.6 52154.41 43772.4 52154.41 42926.01 52154.41 43560.8 51308.01 43560.8 M 50292.01 42926.01 50292.01 43772.4 50715.21 44195.6 51138.41 43772.4 51138.41 42926.01 51138.41 43560.8 50292.01 43560.8 M 58255.62 38760 58255.62 39606.4 58678.82 40029.59 59102.02 39606.4 59102.02 38760 59102.02 39394.8 58255.62 39394.8 M 53048.62 44226.39 53048.62 45072.78 53471.82 45495.98 53895.02 45072.78 53895.02 44226.39 53895.02 44861.18 53048.62 44861.18 M 37827.01 52942.04 37827.01 53788.44 38250.21 54211.63 38673.41 53788.44 38673.41 52942.04 38673.41 53576.84 37827.01 53576.84 M 36985.21 53086.01 36985.21 53932.4 37408.4 54355.6 37831.6 53932.4 37831.6 53086.01 37831.6 53720.8 36985.21 53720.8 M 39269.99 53119.39 39269.99 53965.78 39693.18 54388.97 40116.38 53965.78 40116.38 53119.39 40116.38 53754.18 39269.99 53754.18 M 35052.01 54356.01 35052.01 55202.4 35475.21 55625.6 35898.41 55202.4 35898.41 54356.01 35898.41 54990.8 35052.01 54990.8 M 50318.99 55659.39 50318.99 56505.78 50742.18 56928.97 51165.38 56505.78 51165.38 55659.39 51165.38 56294.18 50318.99 56294.18 M 71874.6 39336.28 71874.6 40182.67 72297.79 40605.87 72720.99 40182.67 72720.99 39336.28 72720.99 39971.07 71874.6 39971.07 M 77081.6 40225.28 77081.6 41071.67 77504.79 41494.87 77927.99 41071.67 77927.99 40225.28 77927.99 40860.07 77081.6 40860.07 M 55565.92 52911.36 55565.92 53757.75 55989.11 54180.95 56412.31 53757.75 56412.31 52911.36 56412.31 53546.15 55565.92 53546.15 M 55573.89 60023.36 55573.89 60869.75 55997.09 61292.95 56420.29 60869.75 56420.29 60023.36 56420.29 60658.15 55573.89 60658.15 M 114408.32 55626.01 114408.32 56472.4 114831.52 56895.6 115254.71 56472.4 115254.71 55626.01 115254.71 56260.8 114408.32 56260.8 M 98439.19 21477.44 98439.19 22323.83 98862.38 22747.03 99285.58 22323.83 99285.58 21477.44 99285.58 22112.23 98439.19 22112.23 M 113474.67 23755.41 113474.67 24601.8 113897.86 25025 114321.06 24601.8 114321.06 23755.41 114321.06 24390.21 113474.67 24390.21 M 100773.4 23811.65 100773.4 24658.04 101196.59 25081.24 101619.79 24658.04 101619.79 23811.65 101619.79 24446.44 100773.4 24446.44 M 90555.69 83237.99 90555.69 84084.39 90978.88 84507.58 91402.08 84084.39 91402.08 83237.99 91402.08 83872.79 90555.69 83872.79 M 89312.71 81223.37 89312.71 82069.76 89735.91 82492.96 90159.11 82069.76 90159.11 81223.37 90159.11 81858.16 89312.71 81858.16 M 117805.21 86109.01 117805.21 86955.4 118228.41 87378.6 118651.61 86955.4 118651.61 86109.01 118651.61 86743.8 117805.21 86743.8 M 119710.21 86109.01 119710.21 86955.4 120133.41 87378.6 120556.61 86955.4 120556.61 86109.01 120556.61 86743.8 119710.21 86743.8 M 121615.26 86109.01 121615.26 86955.4 122038.46 87378.6 122461.66 86955.4 122461.66 86109.01 122461.66 86743.8 121615.26 86743.8 M 123520.26 86109.01 123520.26 86955.4 123943.46 87378.6 124366.66 86955.4 124366.66 86109.01 124366.66 86743.8 123520.26 86743.8 M 98628.21 82923.03 98628.21 83769.43 99051.41 84192.62 99474.61 83769.43 99474.61 82923.03 99474.61 83557.83 98628.21 83557.83 M 115900.26 86150.1 115900.26 86996.5 116323.46 87419.69 116746.66 86996.5 116746.66 86150.1 116746.66 86784.9 115900.26 86784.9 M 101422.21 77633.69 101422.21 78480.08 101845.41 78903.28 102268.61 78480.08 102268.61 77633.69 102268.61 78268.48 101422.21 78268.48 M 98628.21 78224.03 98628.21 79070.43 99051.41 79493.62 99474.61 79070.43 99474.61 78224.03 99474.61 78858.83 98628.21 78858.83 M 87761.69 83237.99 87761.69 84084.39 88184.88 84507.58 88608.08 84084.39 88608.08 83237.99 88608.08 83872.79 87761.69 83872.79 M 77247.71 79613.47 77247.71 80459.86 77670.91 80883.05 78094.11 80459.86 78094.11 79613.47 78094.11 80248.26 77247.71 80248.26 M 94265.71 84387.4 94265.71 85233.79 94688.91 85656.98 95112.11 85233.79 95112.11 84387.4 95112.11 85022.19 94265.71 85022.19 M 77432.27 75162.42 77432.27 76008.81 77855.47 76432.01 78278.66 76008.81 78278.66 75162.42 78278.66 75797.21 77432.27 75797.21 M 88550.71 84387.4 88550.71 85233.79 88973.91 85656.98 89397.11 85233.79 89397.11 84387.4 89397.11 85022.19 88550.71 85022.19 M 86645.71 84428.44 86645.71 85274.84 87068.91 85698.03 87492.11 85274.84 87492.11 84428.44 87492.11 85063.24 86645.71 85063.24 M 92360.71 84387.4 92360.71 85233.79 92783.91 85656.98 93207.11 85233.79 93207.11 84387.4 93207.11 85022.19 92360.71 85022.19 M 90455.71 84346.3 90455.71 85192.69 90878.91 85615.89 91302.11 85192.69 91302.11 84346.3 91302.11 84981.09 90455.71 84981.09 M 38507.99 50844.36 38507.99 51690.75 38931.18 52113.95 39354.38 51690.75 39354.38 50844.36 39354.38 51479.15 38507.99 51479.15 M 72167.71 77712.02 72167.71 78558.42 72590.91 78981.61 73014.11 78558.42 73014.11 77712.02 73014.11 78346.82 72167.71 78346.82 M 97155.01 52959.01 97155.01 53805.4 97578.21 54228.6 98001.41 53805.4 98001.41 52959.01 98001.41 53593.8 97155.01 53593.8 M 91948.01 52070.01 91948.01 52916.4 92371.21 53339.6 92794.41 52916.4 92794.41 52070.01 92794.41 52704.8 91948.01 52704.8 M 109201.32 54737.01 109201.32 55583.4 109624.52 56006.6 110047.71 55583.4 110047.71 54737.01 110047.71 55371.8 109201.32 55371.8 M 69373.71 83001.37 69373.71 83847.76 69796.91 84270.96 70220.11 83847.76 70220.11 83001.37 70220.11 83636.16 69373.71 83636.16 M 69373.71 78302.37 69373.71 79148.76 69796.91 79571.96 70220.11 79148.76 70220.11 78302.37 70220.11 78937.16 69373.71 78937.16 M 40412.99 50844.41 40412.99 51690.8 40836.18 52114 41259.38 51690.8 41259.38 50844.41 41259.38 51479.2 40412.99 51479.2" fill="none" stroke-width="127"/><path d="M 26670 41275 A 508 508 0 0 1 25654 41275 508 508 0 0 1 26670 41275 M 26670 67945 A 508 508 0 0 1 25654 67945 508 508 0 0 1 26670 67945 M 112853.89 24201.23 A 508 508 0 0 1 111837.89 24201.23 508 508 0 0 1 112853.89 24201.23 M 112853.89 33162.86 A 508 508 0 0 1 111837.89 33162.86 508 508 0 0 1 112853.89 33162.86 M 112403.9 29682.04 A 508 508 0 0 1 111387.9 29682.04 508 508 0 0 1 112403.9 29682.04 M 112792.93 26913.29 A 508 508 0 0 1 111776.93 26913.29 508 508 0 0 1 112792.93 26913.29 M 100161.05 24257.47 A 508 508 0 0 1 99145.05 24257.47 508 508 0 0 1 100161.05 24257.47 M 100161.05 33219.04 A 508 508 0 0 1 99145.05 33219.04 508 508 0 0 1 100161.05 33219.04 M 99711.07 29738.28 A 508 508 0 0 1 98695.07 29738.28 508 508 0 0 1 99711.07 29738.28 M 100100.09 26969.53 A 508 508 0 0 1 99084.09 26969.53 508 508 0 0 1 100100.09 26969.53" fill="none" stroke-width="169.33"/><path d="M 26466.8 41275 A 304.8 304.8 0 0 1 25857.2 41275 304.8 304.8 0 0 1 26466.8 41275 M 26466.8 67945 A 304.8 304.8 0 0 1 25857.2 67945 304.8 304.8 0 0 1 26466.8 67945" fill="none" stroke-width="101.6"/></g></svg>