<svg version="1.1" xmlns="http://www.w3.org/2000/svg" xmlns:xlink="http://www.w3.org/1999/xlink" stroke-linecap="round" stroke-linejoin="round" stroke-width="0" fill-rule="evenodd" clip-rule="evenodd" id="NqS70fCRCXVoYB6T1mVO_bottom" viewBox="0 -429.1340499 1413.5940499 858.2680998" width="1.4135940499000001in" height="0.8582680998in" class="w-100 h-100"><defs><style>.NqS70fCRCXVoYB6T1mVO_fr4 {color: #666666;}
.NqS70fCRCXVoYB6T1mVO_cu {color: #cccccc;}
.NqS70fCRCXVoYB6T1mVO_cf {color: #cc9933;}
.NqS70fCRCXVoYB6T1mVO_sm {color: #004200; opacity: 0.75;}
.NqS70fCRCXVoYB6T1mVO_ss {color: #ffffff;}
.NqS70fCRCXVoYB6T1mVO_sp {color: #999999;}
.NqS70fCRCXVoYB6T1mVO_out {color: #000000;}</style><rect x="-10" y="-23.555" width="20" height="47.11" id="Ve8rjZyYBqYDdTTmBBh5_pad-31"/><circle cx="0" cy="0" r="24.6535" id="Ve8rjZyYBqYDdTTmBBh5_pad-45"/><circle cx="0" cy="0" r="23.6695" id="Ve8rjZyYBqYDdTTmBBh5_pad-46"/><rect x="-23.6695" y="-23.6695" width="47.339" height="47.339" id="Ve8rjZyYBqYDdTTmBBh5_pad-47"/><mask id="x8WogQJ9ChWTKV3S2EsK_clear-1" fill="#000" stroke="#000"><g><rect x="12.042" y="-417.101" width="1389.51" height="834.202" fill="#fff"/><path d="M 699.772 281.811 691.095 281.811 683.078 278.49 676.943 272.355 673.622 264.339 673.622 255.661 676.943 247.645 683.078 241.51 691.095 238.189 699.772 238.189 707.788 241.51 713.924 247.645 717.244 255.661 717.244 264.339 713.924 272.355 707.788 278.49 699.772 281.811"/><path d="M 628.905 281.811 620.228 281.811 612.212 278.49 606.076 272.355 602.756 264.339 602.756 255.661 606.076 247.645 612.212 241.51 620.228 238.189 628.905 238.189 636.922 241.51 643.057 247.645 646.378 255.661 646.378 264.339 643.057 272.355 636.922 278.49 628.905 281.811"/><path d="M 1072.481 134.11 1057.481 134.11 1057.481 105.555 1072.481 105.555 1072.481 134.11"/><path d="M 1047.481 134.11 1032.481 134.11 1032.481 105.555 1047.481 105.555 1047.481 134.11"/><path d="M 1193.748 122.244 1185.072 122.244 1177.055 118.924 1170.919 112.788 1167.599 104.772 1167.599 96.095 1170.919 88.078 1177.055 81.943 1185.072 78.622 1193.748 78.622 1201.765 81.943 1207.9 88.078 1211.221 96.095 1211.221 104.772 1207.9 112.788 1201.765 118.924 1193.748 122.244"/><path d="M 1072.481 95.555 1057.481 95.555 1057.481 67 1072.481 67 1072.481 95.555"/><path d="M 1047.481 95.555 1032.481 95.555 1032.481 67 1047.481 67 1047.481 95.555"/><path d="M 65.598 61.181 56.921 61.181 48.905 57.861 42.769 51.725 39.449 43.709 39.449 35.032 42.769 27.015 48.905 20.88 56.921 17.559 65.598 17.559 73.615 20.88 79.75 27.015 83.071 35.032 83.071 43.709 79.75 51.725 73.615 57.861 65.598 61.181"/><path d="M 874.182 276.811 865.505 276.811 857.488 273.491 851.353 267.355 848.032 259.339 848.032 250.662 851.353 242.645 857.488 236.51 865.505 233.189 870.218 233.189 872.29 228.189 872.2 228.099 869.99 224.792 869.213 220.89 869.213 165.671 840.499 136.956 836.548 131.044 835.161 124.07 835.161 124.069 835.161 19.68 835.161 19.68 836.548 12.706 840.499 6.793 842.545 4.747 842.545 -76.947 840.074 -82.912 840.074 -91.588 843.394 -99.605 843.661 -99.871 843.661 -112.379 843.394 -112.645 840.074 -120.662 840.074 -129.339 843.394 -137.355 849.53 -143.49 857.547 -146.811 866.223 -146.811 874.24 -143.49 880.375 -137.355 880.376 -137.354 880.855 -136.415 882.481 -134.11 922.481 -134.11 922.481 -68.365 923.49 -67.355 926.811 -59.339 926.811 -50.661 923.49 -42.645 917.355 -36.51 909.338 -33.189 900.662 -33.189 892.645 -36.51 886.51 -42.645 883.993 -48.72 878.993 -47.726 878.993 12.295 878.993 12.296 877.606 19.27 873.655 25.182 873.655 25.183 871.609 27.228 871.609 72.2 876.609 74.271 881.279 69.602 882.481 68.798 882.481 67 886.553 67 888.488 66.615 892.31 66.615 892.66 66.47 896.562 65.694 914.409 65.694 918.311 66.47 919.104 67 922.481 67 922.481 69.542 928.02 75.082 932.481 72.471 932.481 67 940.406 67 944.247 66.236 971.432 66.236 975.334 67.012 977.481 68.447 982.481 67 982.481 67 987.187 66.29 987.187 62.519 988.351 56.667 991.666 51.705 1024.619 18.753 1029.58 15.437 1035.433 14.273 1173.859 14.273 1177.055 11.076 1185.072 7.756 1193.748 7.756 1201.765 11.076 1207.9 17.212 1211.221 25.229 1211.221 33.906 1207.9 41.922 1201.765 48.057 1193.748 51.378 1185.072 51.378 1177.055 48.057 1173.859 44.861 1041.768 44.861 1024.111 62.518 1022.481 67 1022.481 67 1022.481 67 1022.481 134.11 988.764 134.11 988.764 161.432 987.988 165.334 985.778 168.642 985.777 168.642 976.216 178.203 972.909 180.413 969.007 181.189 945.993 181.189 942.091 180.413 939.605 178.752 936.42 179.716 934.605 180.877 934.606 220.89 933.83 224.792 931.619 228.099 921.619 238.1 918.312 240.31 914.41 241.086 893.1 241.086 889.759 246.086 891.654 250.662 891.654 259.339 888.334 267.355 882.198 273.491 874.182 276.811"/><path d="M 65.598 -17.559 56.921 -17.559 48.905 -20.88 42.769 -27.015 39.449 -35.032 39.449 -43.709 42.769 -51.725 48.905 -57.861 56.921 -61.181 65.598 -61.181 73.615 -57.861 79.75 -51.725 83.071 -43.709 83.071 -35.032 79.75 -27.015 73.615 -20.88 65.598 -17.559"/><path d="M 218.734 -60.866 210.4 -60.866 202.349 -63.023 195.131 -67.191 189.238 -73.084 185.071 -80.302 182.913 -88.352 182.913 -96.687 185.071 -104.737 189.238 -111.955 195.131 -117.849 202.349 -122.016 210.4 -124.173 218.734 -124.173 226.785 -122.016 234.003 -117.849 239.896 -111.955 244.063 -104.737 246.22 -96.687 246.22 -88.352 244.063 -80.302 239.896 -73.084 234.003 -67.191 226.785 -63.023 218.734 -60.866"/><path d="M 724.338 146.811 715.662 146.811 707.645 143.49 701.51 137.355 698.189 129.339 698.189 120.662 701.51 112.645 703.783 110.372 703.783 -94.957 702.566 -94.957 696.36 -96.192 691.099 -99.707 657.023 -133.783 636.547 -133.783 634.274 -131.51 626.257 -128.189 617.58 -128.189 609.564 -131.51 603.428 -137.645 600.108 -145.661 600.108 -154.339 603.428 -162.355 609.564 -168.49 617.58 -171.811 626.257 -171.811 634.274 -168.49 636.547 -166.217 663.74 -166.217 669.946 -164.983 675.207 -161.467 699.163 -137.511 703.783 -139.424 703.783 -240 705.017 -246.206 708.533 -251.467 723.189 -266.123 723.189 -269.339 726.51 -277.355 732.645 -283.49 740.662 -286.811 749.338 -286.811 757.355 -283.49 763.49 -277.355 766.811 -269.339 766.811 -260.661 763.49 -252.645 757.355 -246.51 749.338 -243.189 746.123 -243.189 736.217 -233.283 736.217 -125.101 738.49 -122.827 741.811 -114.811 741.811 -106.134 738.49 -98.118 736.217 -95.844 736.217 110.372 738.49 112.645 741.811 120.662 741.811 129.339 738.49 137.355 732.355 143.49 724.338 146.811"/><path d="M 804.338 -137.756 795.662 -137.756 787.645 -141.076 781.51 -147.212 778.189 -155.228 778.189 -163.905 781.51 -171.922 787.645 -178.057 795.662 -181.378 804.338 -181.378 812.355 -178.057 818.49 -171.922 821.811 -163.905 821.811 -155.228 818.49 -147.212 812.355 -141.076 804.338 -137.756"/><path d="M 1072.481 -67 1032.481 -67 1032.481 -134.11 1037.187 -134.11 1037.187 -148.795 1038.351 -154.647 1041.666 -159.609 1043.189 -161.132 1043.189 -165.652 1046.509 -173.669 1052.645 -179.804 1060.661 -183.125 1069.339 -183.125 1077.355 -179.804 1083.491 -173.669 1086.811 -165.652 1086.811 -156.975 1083.491 -148.959 1077.355 -142.823 1069.339 -139.503 1067.775 -139.503 1067.775 -134.11 1072.481 -134.11 1072.481 -67"/><path d="M 318.071 -122.874 256.732 -122.874 256.732 -184.213 318.071 -184.213 318.071 -122.874"/><path d="M 914.338 47.401 905.662 47.401 897.645 44.081 891.51 37.945 888.189 29.929 888.189 21.252 891.51 13.236 897.645 7.1 905.662 3.78 910.182 3.78 937.187 -23.225 937.187 -67 932.481 -67 932.481 -134.11 937.187 -134.11 937.187 -221.929 933.99 -225.126 930.67 -233.142 930.67 -241.819 933.99 -249.836 940.126 -255.971 948.142 -259.292 956.819 -259.292 964.836 -255.971 970.971 -249.836 974.292 -241.819 974.292 -233.142 970.971 -225.126 967.775 -221.929 967.775 -134.11 972.481 -134.11 972.481 -67 967.775 -67 967.775 -49.21 972.775 -45.869 976.475 -47.401 980.996 -47.401 984.706 -51.112 984.706 -67 982.481 -67 982.481 -134.11 985.946 -134.11 985.946 -153.208 981.51 -157.645 978.189 -165.661 978.189 -174.339 981.51 -182.355 987.645 -188.49 995.662 -191.811 1004.338 -191.811 1012.355 -188.49 1018.49 -182.355 1021.811 -174.339 1021.811 -165.661 1018.49 -157.645 1016.534 -155.689 1016.534 -134.11 1022.481 -134.11 1022.481 -67 1015.294 -67 1015.294 -44.777 1014.13 -38.924 1010.814 -33.962 1002.625 -25.773 1002.625 -21.252 999.304 -13.236 993.168 -7.1 985.152 -3.779 976.475 -3.779 968.459 -7.1 963.664 -6.628 963.295 -6.076 931.811 25.408 931.811 29.929 928.49 37.945 922.355 44.081 914.338 47.401"/><path d="M 145.77 -181.929 137.695 -181.929 129.894 -184.019 122.901 -188.057 117.191 -193.767 113.153 -200.761 111.063 -208.561 111.063 -216.636 113.153 -224.436 117.191 -231.43 122.901 -237.14 129.894 -241.178 137.695 -243.268 145.77 -243.268 153.57 -241.178 160.564 -237.14 166.274 -231.43 170.311 -224.436 172.402 -216.636 172.402 -208.561 170.311 -200.761 166.274 -193.767 160.564 -188.057 153.57 -184.019 145.77 -181.929"/><path d="M 804.338 -208.622 795.662 -208.622 787.645 -211.942 781.51 -218.078 778.189 -226.095 778.189 -234.772 781.51 -242.788 787.645 -248.923 795.662 -252.244 804.338 -252.244 812.355 -248.923 818.49 -242.788 821.811 -234.772 821.811 -226.095 818.49 -218.078 812.355 -211.942 804.338 -208.622"/><path d="M 864.338 -270.315 855.662 -270.315 847.645 -273.635 841.51 -279.771 838.189 -287.788 838.189 -296.464 841.51 -304.481 847.645 -310.616 855.662 -313.937 864.338 -313.937 872.355 -310.616 878.49 -304.481 881.811 -296.464 881.811 -287.788 878.49 -279.771 872.355 -273.635 864.338 -270.315"/><path d="M 145.77 -300.039 137.695 -300.039 129.894 -302.13 122.901 -306.167 117.191 -311.877 113.153 -318.871 111.063 -326.671 111.063 -334.746 113.153 -342.547 117.191 -349.54 122.901 -355.25 129.894 -359.288 137.695 -361.378 145.77 -361.378 153.57 -359.288 160.564 -355.25 166.274 -349.54 170.311 -342.547 172.402 -334.746 172.402 -326.671 170.311 -318.871 166.274 -311.877 160.564 -306.167 153.57 -302.13 145.77 -300.039"/><path d="M 864.338 -341.181 855.662 -341.181 847.645 -344.502 841.51 -350.637 838.189 -358.654 838.189 -367.331 841.51 -375.347 847.645 -381.483 855.662 -384.803 864.338 -384.803 872.355 -381.483 878.49 -375.347 881.811 -367.331 881.811 -358.654 878.49 -350.637 872.355 -344.502 864.338 -341.181"/></g></mask><circle cx="0" cy="0" r="21.6535" id="x8WogQJ9ChWTKV3S2EsK_pad-27"/><circle cx="0" cy="0" r="20.6695" id="x8WogQJ9ChWTKV3S2EsK_pad-28"/><rect x="-20.6695" y="-20.6695" width="41.339" height="41.339" id="x8WogQJ9ChWTKV3S2EsK_pad-29"/><circle cx="0" cy="0" r="11.811" id="x8WogQJ9ChWTKV3S2EsK_pad-30"/><rect x="-10" y="-23.555" width="20" height="47.11" id="x8WogQJ9ChWTKV3S2EsK_pad-31"/><rect x="-10" y="-23.555" width="20" height="47.11" id="zEp3HTNdTNQwybd6MR-P_pad-31"/><circle cx="0" cy="0" r="13.7795" id="k-MBOnzLvQvDgqqEID0W_pad-50"/><circle cx="0" cy="0" r="7.874" id="k-MBOnzLvQvDgqqEID0W_pad-51"/><circle cx="0" cy="0" r="21.6535" id="wlo-xT_MA4Y6Q-2mbY_i_pad-49"/><g id="NqS70fCRCXVoYB6T1mVO_bottom_silkscreen"><path d="M 820.432 19.678 820.924 18.956 821.481 18.268 822.039 17.677 822.531 17.12 822.761 16.923 822.925 16.726 823.089 16.562 823.22 16.464 823.285 16.398 823.318 16.365 824.204 15.611 825.155 14.955 826.073 14.332 826.926 13.807 827.287 13.61 827.648 13.413 827.976 13.216 828.238 13.085 828.468 12.987 828.632 12.889 828.73 12.856 828.763 12.823 828.763 9.248 828.107 9.51 827.418 9.805 826.762 10.133 826.172 10.428 825.647 10.724 825.417 10.822 825.221 10.953 825.057 11.019 824.958 11.085 824.893 11.15 824.86 11.15 824.073 11.642 823.384 12.101 822.761 12.528 822.269 12.921 821.842 13.249 821.547 13.479 821.383 13.643 821.317 13.709 821.317 -9.94 817.611 -9.94 817.611 20.433 820.005 20.433 820.432 19.678"/><path d="M 860.579 2.852 860.579 1.966 860.513 1.146 860.481 0.359 860.382 -0.363 860.317 -1.052 860.218 -1.675 860.12 -2.232 859.989 -2.757 859.89 -3.216 859.792 -3.61 859.693 -3.971 859.595 -4.233 859.529 -4.463 859.464 -4.627 859.431 -4.725 859.431 -4.758 859.201 -5.25 858.939 -5.742 858.349 -6.595 857.725 -7.316 857.069 -7.907 856.774 -8.169 856.512 -8.366 856.249 -8.563 856.02 -8.727 855.856 -8.825 855.725 -8.924 855.626 -8.956 855.593 -8.989 855.069 -9.252 854.511 -9.448 853.363 -9.809 852.182 -10.072 851.067 -10.236 850.575 -10.301 850.083 -10.367 849.689 -10.399 849.329 -10.399 849.033 -10.432 848.607 -10.432 847.82 -10.399 847.065 -10.367 846.344 -10.268 845.655 -10.17 845.032 -10.039 844.441 -9.908 843.917 -9.743 843.457 -9.579 842.998 -9.448 842.637 -9.284 842.309 -9.153 842.047 -9.022 841.817 -8.924 841.686 -8.825 841.588 -8.792 841.555 -8.759 841.063 -8.431 840.604 -8.104 840.21 -7.743 839.817 -7.382 839.489 -7.021 839.161 -6.628 838.898 -6.3 838.669 -5.939 838.275 -5.348 838.144 -5.086 838.013 -4.856 837.914 -4.66 837.849 -4.528 837.816 -4.43 837.816 -4.397 837.619 -3.872 837.455 -3.315 837.193 -2.134 837.029 -0.92 836.897 0.228 836.865 0.785 836.832 1.277 836.799 1.704 836.766 2.097 836.766 2.425 836.766 2.655 836.766 2.786 836.766 2.852 836.766 20.334 840.768 20.334 840.768 2.852 840.801 1.835 840.833 0.884 840.932 0.031 841.063 -0.756 841.194 -1.445 841.358 -2.068 841.555 -2.626 841.719 -3.118 841.883 -3.544 842.08 -3.905 842.244 -4.2 842.375 -4.43 842.506 -4.594 842.572 -4.725 842.637 -4.791 842.67 -4.824 843.064 -5.184 843.49 -5.479 843.949 -5.742 844.441 -5.971 844.966 -6.168 845.491 -6.332 846.508 -6.562 847 -6.66 847.459 -6.726 847.885 -6.759 848.246 -6.792 848.541 -6.824 848.968 -6.824 849.886 -6.792 850.739 -6.66 851.493 -6.496 852.149 -6.332 852.412 -6.234 852.641 -6.136 852.871 -6.07 853.035 -6.004 853.166 -5.939 853.265 -5.873 853.33 -5.84 853.363 -5.84 853.986 -5.414 854.511 -4.955 854.937 -4.495 855.265 -4.003 855.528 -3.61 855.725 -3.249 855.79 -3.118 855.823 -3.019 855.856 -2.987 855.856 -2.954 855.987 -2.593 856.085 -2.167 856.282 -1.248 856.413 -0.297 856.479 0.654 856.512 1.081 856.545 1.507 856.545 1.868 856.577 2.196 856.577 2.491 856.577 2.688 856.577 2.819 856.577 2.852 856.577 20.334 860.579 20.334 860.579 2.852"/><path d="M 864.095 105 A 5 5 0 0 1 854.095 105 5 5 0 0 1 864.095 105" fill="none" stroke-width="10"/><path d="M 875.981 -82 875.981 82 M 1078.981 -82 1078.981 82" fill="none" stroke-width="6"/></g><g id="NqS70fCRCXVoYB6T1mVO_bottom_soldermask"><use xlink:href="#Ve8rjZyYBqYDdTTmBBh5_pad-31" x="1002.481" y="-100.555"/><use xlink:href="#Ve8rjZyYBqYDdTTmBBh5_pad-31" x="952.481" y="-100.555"/><use xlink:href="#Ve8rjZyYBqYDdTTmBBh5_pad-31" x="902.481" y="-100.555"/><use xlink:href="#Ve8rjZyYBqYDdTTmBBh5_pad-31" x="1052.481" y="-100.555"/><use xlink:href="#Ve8rjZyYBqYDdTTmBBh5_pad-31" x="1052.481" y="100.555"/><use xlink:href="#Ve8rjZyYBqYDdTTmBBh5_pad-31" x="1002.481" y="100.555"/><use xlink:href="#Ve8rjZyYBqYDdTTmBBh5_pad-31" x="952.481" y="100.555"/><use xlink:href="#Ve8rjZyYBqYDdTTmBBh5_pad-31" x="902.481" y="100.555"/><use xlink:href="#Ve8rjZyYBqYDdTTmBBh5_pad-45" x="214.567" y="92.52"/><use xlink:href="#Ve8rjZyYBqYDdTTmBBh5_pad-45" x="214.567" y="391.732"/><use xlink:href="#Ve8rjZyYBqYDdTTmBBh5_pad-45" x="214.567" y="-391.732"/><use xlink:href="#Ve8rjZyYBqYDdTTmBBh5_pad-45" x="214.567" y="-92.52"/><use xlink:href="#Ve8rjZyYBqYDdTTmBBh5_pad-46" x="141.732" y="153.543"/><use xlink:href="#Ve8rjZyYBqYDdTTmBBh5_pad-46" x="287.402" y="212.599"/><use xlink:href="#Ve8rjZyYBqYDdTTmBBh5_pad-46" x="141.732" y="271.654"/><use xlink:href="#Ve8rjZyYBqYDdTTmBBh5_pad-46" x="141.732" y="-330.709"/><use xlink:href="#Ve8rjZyYBqYDdTTmBBh5_pad-46" x="287.402" y="-271.654"/><use xlink:href="#Ve8rjZyYBqYDdTTmBBh5_pad-46" x="141.732" y="-212.598"/><use xlink:href="#Ve8rjZyYBqYDdTTmBBh5_pad-47" x="287.402" y="330.709"/><use xlink:href="#Ve8rjZyYBqYDdTTmBBh5_pad-47" x="287.402" y="-153.543"/></g><g id="NqS70fCRCXVoYB6T1mVO_bottom_copper"><g mask="url(#x8WogQJ9ChWTKV3S2EsK_clear-1)"><path d="M 1038.771 413.942 1074.651 407.631 1109.846 398.216 1144.086 385.768 1177.111 370.382 1208.668 352.176 1238.518 331.288 1266.433 307.877 1292.201 282.122 1315.626 254.217 1336.528 224.378 1354.749 192.829 1370.15 159.813 1382.615 125.579 1392.047 90.388 1398.376 54.51 1401.552 18.217 1401.552 -18.216 1398.376 -54.51 1392.047 -90.389 1382.615 -125.579 1370.151 -159.812 1354.749 -192.83 1336.528 -224.379 1315.625 -254.218 1292.2 -282.123 1266.433 -307.877 1238.518 -331.288 1208.668 -352.176 1177.111 -370.382 1144.086 -385.768 1109.846 -398.216 1074.652 -407.631 1038.77 -413.942 1002.474 -417.101 984.258 -417.092 984.255 -417.093 984.252 -417.092 509.462 -417.092 507.855 -412.357 511.114 -409.857 522.062 -398.909 531.487 -386.625 539.229 -373.217 545.153 -358.913 549.161 -343.958 551.182 -328.608 551.182 -313.125 549.161 -297.775 545.153 -282.819 539.229 -268.515 531.487 -255.107 522.062 -242.824 511.114 -231.876 498.831 -222.45 485.422 -214.709 471.118 -208.784 456.163 -204.777 440.813 -202.756 425.33 -202.756 409.98 -204.777 395.025 -208.784 380.721 -214.709 367.312 -222.45 355.029 -231.876 344.081 -242.824 334.656 -255.107 326.914 -268.515 320.989 -282.819 316.982 -297.775 314.961 -313.125 314.961 -328.608 316.982 -343.958 320.989 -358.913 326.914 -373.217 334.656 -386.625 344.081 -398.909 355.029 -409.857 358.288 -412.357 356.68 -417.092 241.043 -417.092 238.972 -412.092 239.896 -411.167 244.063 -403.95 246.22 -395.899 246.22 -387.564 244.063 -379.514 239.896 -372.296 234.003 -366.403 226.785 -362.235 218.734 -360.078 210.4 -360.078 202.349 -362.235 195.131 -366.403 189.238 -372.296 185.071 -379.514 182.913 -387.564 182.913 -395.899 185.071 -403.95 189.238 -411.167 190.162 -412.092 188.091 -417.092 12.042 -417.092 12.042 417.092 188.091 417.092 190.162 412.092 189.238 411.168 185.071 403.95 182.913 395.9 182.913 387.565 185.071 379.514 189.238 372.297 195.131 366.403 202.349 362.236 210.4 360.079 218.734 360.079 226.785 362.236 234.003 366.403 239.896 372.297 244.063 379.514 246.22 387.565 246.22 395.9 244.063 403.95 239.896 411.168 238.972 412.092 241.043 417.092 356.681 417.092 358.288 412.357 355.029 409.857 344.081 398.909 334.656 386.625 326.914 373.217 322.656 362.937 318.071 361.378 318.071 361.378 318.071 361.378 256.732 361.378 256.732 300.039 272.108 300.039 272.108 280.601 240.918 249.411 237.603 244.45 236.438 238.597 236.438 159.218 236.924 156.776 232.316 154.313 222.271 164.358 217.31 167.673 211.457 168.837 168.316 168.837 166.274 172.375 160.564 178.085 153.57 182.123 145.77 184.213 137.695 184.213 129.894 182.123 122.901 178.085 117.191 172.375 113.153 165.381 111.063 157.581 111.063 149.506 113.153 141.705 117.191 134.712 122.901 129.002 129.894 124.964 137.695 122.874 145.77 122.874 153.57 124.964 160.564 129.002 166.274 134.712 168.316 138.249 205.122 138.249 214.197 129.174 212.126 124.174 210.4 124.174 202.349 122.017 195.131 117.849 189.238 111.956 185.071 104.738 182.913 96.688 182.913 88.353 185.071 80.302 189.238 73.085 195.131 67.191 202.349 63.024 210.4 60.867 218.734 60.867 226.785 63.024 234.003 67.191 239.896 73.085 244.063 80.302 244.706 82.701 249.706 82.043 249.706 64.489 250.87 58.636 254.186 53.674 332.874 -25.014 332.874 -29.929 336.195 -37.946 342.33 -44.081 350.346 -47.402 359.024 -47.402 363.783 -45.43 368.783 -48.771 368.783 -75.372 366.51 -77.645 363.189 -85.662 363.189 -94.338 366.51 -102.355 372.645 -108.49 380.661 -111.811 389.339 -111.811 397.355 -108.49 403.49 -102.355 406.811 -94.338 406.811 -85.662 403.49 -77.645 401.217 -75.372 401.217 -2.619 436.467 32.631 439.983 37.892 441.217 44.098 441.217 120.372 443.49 122.645 446.811 130.661 446.811 139.339 443.49 147.355 437.355 153.49 429.339 156.811 420.661 156.811 412.645 153.49 406.51 147.355 403.189 139.339 403.189 130.661 406.51 122.645 408.783 120.372 408.783 50.815 381.496 23.529 376.496 25.599 376.496 29.929 373.175 37.945 367.04 44.081 359.024 47.401 354.503 47.401 345.079 56.825 345.079 72.339 345.169 72.791 345.169 81.075 344.005 86.928 340.689 91.89 267.026 165.553 267.026 183.175 272.026 186.062 275.564 184.019 283.364 181.929 291.439 181.929 299.24 184.019 306.233 188.057 311.943 193.767 315.981 200.761 318.071 208.561 318.071 216.636 315.981 224.436 311.943 231.43 306.233 237.14 299.24 241.178 291.439 243.268 285.103 243.268 282.797 248.033 298.216 263.452 301.531 268.413 302.695 274.266 302.695 300.039 316.684 300.039 316.982 297.775 320.989 282.819 326.914 268.515 334.656 255.107 344.081 242.824 355.029 231.876 367.312 222.45 380.721 214.709 395.025 208.784 409.98 204.777 425.33 202.756 440.813 202.756 456.163 204.777 471.118 208.784 485.422 214.709 498.831 222.45 511.114 231.876 522.062 242.824 531.487 255.107 539.229 268.515 545.153 282.819 549.161 297.775 551.182 313.125 551.182 328.608 549.161 343.958 545.153 358.913 539.229 373.217 531.487 386.625 522.062 398.909 511.114 409.857 507.855 412.357 509.462 417.092 984.253 417.092 984.255 417.093 984.258 417.092 1002.474 417.101 1038.771 413.942"/></g><path d="M 978.568 161.432 978.568 83.568 971.432 76.432 944.247 76.432 936.954 83.725 936.954 161.954 945.993 170.993 969.007 170.993 978.568 161.432"/><path d="M 924.41 220.89 924.409 85.89 914.409 75.89 896.562 75.89 894.338 76.811 888.488 76.811 879.409 85.89 879.409 220.89 889.409 230.89 914.41 230.89 924.41 220.89"/><path d="M 1052.481 -148.795 1052.481 -100.555 M 1052.481 -148.795 1065 -161.314 M 265 64.489 354.685 -25.196 M 265 64.489 265 100 M 211.457 153.543 265 100 M 329.785 50.49 329.785 72.701 M 251.732 159.218 329.875 81.075 M 329.875 72.791 329.875 81.075 M 329.785 72.701 329.875 72.791 M 329.785 50.49 354.685 25.59 M 354.685 -25.591 354.685 -25.196 M 141.732 153.543 211.457 153.543 M 251.732 159.218 251.732 238.597 M 354.685 25.59 354.685 25.59 M 251.732 238.597 287.402 274.266 287.402 330.709 M 902.481 -100.555 903.74 -99.296 M 903.74 -56.26 905 -55 M 903.74 -99.296 903.74 -56.26 M 1000 -98.074 1002.481 -100.555 M 1000 -98.074 1000 -44.777 M 980.814 -25.59 1000 -44.777 M 952.481 -237.481 952.481 -100.555 952.481 -16.89 M 910 25.59 952.481 -16.89 M 1002.481 62.519 1035.433 29.567 1189.41 29.567 M 1000 -170 1001.24 -168.76 M 1001.24 -101.796 1002.481 -100.555 M 1001.24 -168.76 1001.24 -101.796 M 1002.481 62.519 1002.481 100.555" fill="none" stroke-width="10"/><path d="M 720 -110.472 720 125 M 702.566 -111.174 719.298 -111.174 M 621.919 -150 663.74 -150 M 719.298 -111.174 720 -110.472 M 663.74 -150 702.566 -111.174 M 720 -240 720 -110.472 M 720 -240 745 -265 M 425 44.098 425 135 M 385 4.098 425 44.098 M 385 -90 385 4.098 M 385 -90 385.354 -90.354" fill="none" stroke-width="11.811"/><use xlink:href="#x8WogQJ9ChWTKV3S2EsK_pad-27" x="214.567" y="92.52"/><use xlink:href="#x8WogQJ9ChWTKV3S2EsK_pad-27" x="214.567" y="391.732"/><use xlink:href="#x8WogQJ9ChWTKV3S2EsK_pad-27" x="214.567" y="-391.732"/><use xlink:href="#x8WogQJ9ChWTKV3S2EsK_pad-27" x="214.567" y="-92.52"/><use xlink:href="#x8WogQJ9ChWTKV3S2EsK_pad-28" x="141.732" y="153.543"/><use xlink:href="#x8WogQJ9ChWTKV3S2EsK_pad-28" x="287.402" y="212.599"/><use xlink:href="#x8WogQJ9ChWTKV3S2EsK_pad-28" x="141.732" y="271.654"/><use xlink:href="#x8WogQJ9ChWTKV3S2EsK_pad-28" x="141.732" y="-330.709"/><use xlink:href="#x8WogQJ9ChWTKV3S2EsK_pad-28" x="287.402" y="-271.654"/><use xlink:href="#x8WogQJ9ChWTKV3S2EsK_pad-28" x="141.732" y="-212.598"/><use xlink:href="#x8WogQJ9ChWTKV3S2EsK_pad-29" x="287.402" y="330.709"/><use xlink:href="#x8WogQJ9ChWTKV3S2EsK_pad-29" x="287.402" y="-153.543"/><use xlink:href="#x8WogQJ9ChWTKV3S2EsK_pad-30" x="968.307" y="195"/><use xlink:href="#x8WogQJ9ChWTKV3S2EsK_pad-30" x="465" y="-110"/><use xlink:href="#x8WogQJ9ChWTKV3S2EsK_pad-30" x="560" y="-140"/><use xlink:href="#x8WogQJ9ChWTKV3S2EsK_pad-30" x="831.084" y="0"/><use xlink:href="#x8WogQJ9ChWTKV3S2EsK_pad-30" x="798.916" y="0"/><use xlink:href="#x8WogQJ9ChWTKV3S2EsK_pad-30" x="1065" y="-161.314"/><use xlink:href="#x8WogQJ9ChWTKV3S2EsK_pad-30" x="300" y="70"/><use xlink:href="#x8WogQJ9ChWTKV3S2EsK_pad-30" x="195" y="185"/><use xlink:href="#x8WogQJ9ChWTKV3S2EsK_pad-30" x="240" y="330"/><use xlink:href="#x8WogQJ9ChWTKV3S2EsK_pad-30" x="610" y="130"/><use xlink:href="#x8WogQJ9ChWTKV3S2EsK_pad-30" x="890" y="55"/><use xlink:href="#x8WogQJ9ChWTKV3S2EsK_pad-30" x="861.885" y="-87.25"/><use xlink:href="#x8WogQJ9ChWTKV3S2EsK_pad-30" x="861.885" y="-125"/><use xlink:href="#x8WogQJ9ChWTKV3S2EsK_pad-30" x="905" y="-55"/><use xlink:href="#x8WogQJ9ChWTKV3S2EsK_pad-30" x="720" y="125"/><use xlink:href="#x8WogQJ9ChWTKV3S2EsK_pad-30" x="745" y="-265"/><use xlink:href="#x8WogQJ9ChWTKV3S2EsK_pad-30" x="720" y="-110.472"/><use xlink:href="#x8WogQJ9ChWTKV3S2EsK_pad-30" x="621.919" y="-150"/><use xlink:href="#x8WogQJ9ChWTKV3S2EsK_pad-30" x="425" y="135"/><use xlink:href="#x8WogQJ9ChWTKV3S2EsK_pad-30" x="385" y="-90"/><use xlink:href="#x8WogQJ9ChWTKV3S2EsK_pad-30" x="464.528" y="-47.244"/><use xlink:href="#x8WogQJ9ChWTKV3S2EsK_pad-30" x="425" y="0"/><use xlink:href="#x8WogQJ9ChWTKV3S2EsK_pad-30" x="185" y="-330"/><use xlink:href="#x8WogQJ9ChWTKV3S2EsK_pad-30" x="987.481" y="-252.481"/><use xlink:href="#x8WogQJ9ChWTKV3S2EsK_pad-30" x="1035" y="-185"/><use xlink:href="#x8WogQJ9ChWTKV3S2EsK_pad-30" x="505" y="-165"/><use xlink:href="#x8WogQJ9ChWTKV3S2EsK_pad-30" x="450" y="-165"/><use xlink:href="#x8WogQJ9ChWTKV3S2EsK_pad-30" x="395" y="-165"/><use xlink:href="#x8WogQJ9ChWTKV3S2EsK_pad-30" x="340" y="-165"/><use xlink:href="#x8WogQJ9ChWTKV3S2EsK_pad-30" x="768.115" y="61"/><use xlink:href="#x8WogQJ9ChWTKV3S2EsK_pad-30" x="768.115" y="113.5"/><use xlink:href="#x8WogQJ9ChWTKV3S2EsK_pad-30" x="500.54" y="-48.729"/><use xlink:href="#x8WogQJ9ChWTKV3S2EsK_pad-30" x="755" y="-230.433"/><use xlink:href="#x8WogQJ9ChWTKV3S2EsK_pad-30" x="755" y="-159.567"/><use xlink:href="#x8WogQJ9ChWTKV3S2EsK_pad-30" x="905" y="-362.992"/><use xlink:href="#x8WogQJ9ChWTKV3S2EsK_pad-30" x="905" y="-292.126"/><use xlink:href="#x8WogQJ9ChWTKV3S2EsK_pad-30" x="860" y="-362.992"/><use xlink:href="#x8WogQJ9ChWTKV3S2EsK_pad-30" x="860" y="-292.126"/><use xlink:href="#x8WogQJ9ChWTKV3S2EsK_pad-30" x="555.236" y="0"/><use xlink:href="#x8WogQJ9ChWTKV3S2EsK_pad-30" x="594.606" y="0"/><use xlink:href="#x8WogQJ9ChWTKV3S2EsK_pad-30" x="980.814" y="-25.59"/><use xlink:href="#x8WogQJ9ChWTKV3S2EsK_pad-30" x="1010.223" y="-5.59"/><use xlink:href="#x8WogQJ9ChWTKV3S2EsK_pad-30" x="910" y="25.59"/><use xlink:href="#x8WogQJ9ChWTKV3S2EsK_pad-30" x="356.614" y="-61.614"/><use xlink:href="#x8WogQJ9ChWTKV3S2EsK_pad-30" x="356.596" y="61.596"/><use xlink:href="#x8WogQJ9ChWTKV3S2EsK_pad-30" x="237.677" y="27.559"/><use xlink:href="#x8WogQJ9ChWTKV3S2EsK_pad-30" x="237.677" y="-27.559"/><use xlink:href="#x8WogQJ9ChWTKV3S2EsK_pad-30" x="902.481" y="208.165"/><use xlink:href="#x8WogQJ9ChWTKV3S2EsK_pad-30" x="354.685" y="25.59"/><use xlink:href="#x8WogQJ9ChWTKV3S2EsK_pad-30" x="354.685" y="-25.591"/><use xlink:href="#x8WogQJ9ChWTKV3S2EsK_pad-30" x="869.843" y="255"/><use xlink:href="#x8WogQJ9ChWTKV3S2EsK_pad-30" x="665.118" y="-235"/><use xlink:href="#x8WogQJ9ChWTKV3S2EsK_pad-30" x="336.394" y="112.472"/><use xlink:href="#x8WogQJ9ChWTKV3S2EsK_pad-30" x="383.606" y="112.472"/><use xlink:href="#x8WogQJ9ChWTKV3S2EsK_pad-30" x="800" y="-159.567"/><use xlink:href="#x8WogQJ9ChWTKV3S2EsK_pad-30" x="273.976" y="0"/><use xlink:href="#x8WogQJ9ChWTKV3S2EsK_pad-30" x="800" y="-230.433"/><use xlink:href="#x8WogQJ9ChWTKV3S2EsK_pad-30" x="61.26" y="-39.37"/><use xlink:href="#x8WogQJ9ChWTKV3S2EsK_pad-30" x="61.26" y="39.37"/><use xlink:href="#x8WogQJ9ChWTKV3S2EsK_pad-30" x="902.481" y="173.165"/><use xlink:href="#x8WogQJ9ChWTKV3S2EsK_pad-30" x="1000" y="-170"/><use xlink:href="#x8WogQJ9ChWTKV3S2EsK_pad-30" x="952.481" y="-237.481"/><use xlink:href="#x8WogQJ9ChWTKV3S2EsK_pad-30" x="624.567" y="260"/><use xlink:href="#x8WogQJ9ChWTKV3S2EsK_pad-30" x="695.433" y="260"/><use xlink:href="#x8WogQJ9ChWTKV3S2EsK_pad-30" x="1189.41" y="100.433"/><use xlink:href="#x8WogQJ9ChWTKV3S2EsK_pad-30" x="1189.41" y="29.567"/><use xlink:href="#x8WogQJ9ChWTKV3S2EsK_pad-30" x="1034.567" y="-260"/><use xlink:href="#x8WogQJ9ChWTKV3S2EsK_pad-30" x="1105.433" y="-260"/><use xlink:href="#x8WogQJ9ChWTKV3S2EsK_pad-30" x="496.245" y="-260.369"/><use xlink:href="#x8WogQJ9ChWTKV3S2EsK_pad-30" x="435" y="-235"/><use xlink:href="#x8WogQJ9ChWTKV3S2EsK_pad-30" x="348.386" y="-321.614"/><use xlink:href="#x8WogQJ9ChWTKV3S2EsK_pad-30" x="435" y="-405.512"/><use xlink:href="#x8WogQJ9ChWTKV3S2EsK_pad-30" x="521.614" y="-321.614"/><use xlink:href="#x8WogQJ9ChWTKV3S2EsK_pad-30" x="373.755" y="-260.369"/><use xlink:href="#x8WogQJ9ChWTKV3S2EsK_pad-30" x="373.755" y="-382.86"/><use xlink:href="#x8WogQJ9ChWTKV3S2EsK_pad-30" x="496.245" y="-382.86"/><use xlink:href="#x8WogQJ9ChWTKV3S2EsK_pad-30" x="496.245" y="257.14"/><use xlink:href="#x8WogQJ9ChWTKV3S2EsK_pad-30" x="373.755" y="257.14"/><use xlink:href="#x8WogQJ9ChWTKV3S2EsK_pad-30" x="373.755" y="379.631"/><use xlink:href="#x8WogQJ9ChWTKV3S2EsK_pad-30" x="521.614" y="318.386"/><use xlink:href="#x8WogQJ9ChWTKV3S2EsK_pad-30" x="435" y="231.772"/><use xlink:href="#x8WogQJ9ChWTKV3S2EsK_pad-30" x="348.386" y="318.386"/><use xlink:href="#x8WogQJ9ChWTKV3S2EsK_pad-30" x="435" y="405"/><use xlink:href="#x8WogQJ9ChWTKV3S2EsK_pad-30" x="496.245" y="379.631"/><use xlink:href="#x8WogQJ9ChWTKV3S2EsK_pad-30" x="965" y="150"/><use xlink:href="#x8WogQJ9ChWTKV3S2EsK_pad-31" x="1002.481" y="-100.555"/><use xlink:href="#x8WogQJ9ChWTKV3S2EsK_pad-31" x="952.481" y="-100.555"/><use xlink:href="#x8WogQJ9ChWTKV3S2EsK_pad-31" x="902.481" y="-100.555"/><use xlink:href="#x8WogQJ9ChWTKV3S2EsK_pad-31" x="1052.481" y="-100.555"/><use xlink:href="#x8WogQJ9ChWTKV3S2EsK_pad-31" x="1052.481" y="100.555"/><use xlink:href="#x8WogQJ9ChWTKV3S2EsK_pad-31" x="1002.481" y="100.555"/><use xlink:href="#x8WogQJ9ChWTKV3S2EsK_pad-31" x="952.481" y="100.555"/><use xlink:href="#x8WogQJ9ChWTKV3S2EsK_pad-31" x="902.481" y="100.555"/><path d="M 860.769 -84.003 861.885 -85.119 M 860.769 -84.003 860.769 12.296 M 861.885 -125 861.885 -85.119 M 853.385 19.68 860.769 12.296 M 853.385 124.07 902.481 173.165 M 853.385 19.68 853.385 124.07" fill="none" stroke-width="15.748"/></g><g id="NqS70fCRCXVoYB6T1mVO_bottom_solderpaste"><use xlink:href="#zEp3HTNdTNQwybd6MR-P_pad-31" x="1002.481" y="-100.555"/><use xlink:href="#zEp3HTNdTNQwybd6MR-P_pad-31" x="952.481" y="-100.555"/><use xlink:href="#zEp3HTNdTNQwybd6MR-P_pad-31" x="902.481" y="-100.555"/><use xlink:href="#zEp3HTNdTNQwybd6MR-P_pad-31" x="1052.481" y="-100.555"/><use xlink:href="#zEp3HTNdTNQwybd6MR-P_pad-31" x="1052.481" y="100.555"/><use xlink:href="#zEp3HTNdTNQwybd6MR-P_pad-31" x="1002.481" y="100.555"/><use xlink:href="#zEp3HTNdTNQwybd6MR-P_pad-31" x="952.481" y="100.555"/><use xlink:href="#zEp3HTNdTNQwybd6MR-P_pad-31" x="902.481" y="100.555"/></g><g id="NqS70fCRCXVoYB6T1mVO_bottom_drill1"><use xlink:href="#k-MBOnzLvQvDgqqEID0W_pad-50" x="141.732" y="153.543"/><use xlink:href="#k-MBOnzLvQvDgqqEID0W_pad-50" x="287.402" y="212.599"/><use xlink:href="#k-MBOnzLvQvDgqqEID0W_pad-50" x="141.732" y="271.654"/><use xlink:href="#k-MBOnzLvQvDgqqEID0W_pad-50" x="287.402" y="330.709"/><use xlink:href="#k-MBOnzLvQvDgqqEID0W_pad-50" x="141.732" y="-330.709"/><use xlink:href="#k-MBOnzLvQvDgqqEID0W_pad-50" x="287.402" y="-271.654"/><use xlink:href="#k-MBOnzLvQvDgqqEID0W_pad-50" x="141.732" y="-212.598"/><use xlink:href="#k-MBOnzLvQvDgqqEID0W_pad-50" x="287.402" y="-153.543"/><use xlink:href="#k-MBOnzLvQvDgqqEID0W_pad-51" x="968.307" y="195"/><use xlink:href="#k-MBOnzLvQvDgqqEID0W_pad-51" x="465" y="-110"/><use xlink:href="#k-MBOnzLvQvDgqqEID0W_pad-51" x="560" y="-140"/><use xlink:href="#k-MBOnzLvQvDgqqEID0W_pad-51" x="831.084" y="0"/><use xlink:href="#k-MBOnzLvQvDgqqEID0W_pad-51" x="798.916" y="0"/><use xlink:href="#k-MBOnzLvQvDgqqEID0W_pad-51" x="1065" y="-161.314"/><use xlink:href="#k-MBOnzLvQvDgqqEID0W_pad-51" x="300" y="70"/><use xlink:href="#k-MBOnzLvQvDgqqEID0W_pad-51" x="195" y="185"/><use xlink:href="#k-MBOnzLvQvDgqqEID0W_pad-51" x="240" y="330"/><use xlink:href="#k-MBOnzLvQvDgqqEID0W_pad-51" x="610" y="130"/><use xlink:href="#k-MBOnzLvQvDgqqEID0W_pad-51" x="890" y="55"/><use xlink:href="#k-MBOnzLvQvDgqqEID0W_pad-51" x="861.885" y="-87.25"/><use xlink:href="#k-MBOnzLvQvDgqqEID0W_pad-51" x="861.885" y="-125"/><use xlink:href="#k-MBOnzLvQvDgqqEID0W_pad-51" x="905" y="-55"/><use xlink:href="#k-MBOnzLvQvDgqqEID0W_pad-51" x="720" y="125"/><use xlink:href="#k-MBOnzLvQvDgqqEID0W_pad-51" x="745" y="-265"/><use xlink:href="#k-MBOnzLvQvDgqqEID0W_pad-51" x="720" y="-110.472"/><use xlink:href="#k-MBOnzLvQvDgqqEID0W_pad-51" x="621.919" y="-150"/><use xlink:href="#k-MBOnzLvQvDgqqEID0W_pad-51" x="425" y="135"/><use xlink:href="#k-MBOnzLvQvDgqqEID0W_pad-51" x="385" y="-90"/><use xlink:href="#k-MBOnzLvQvDgqqEID0W_pad-51" x="464.528" y="-47.244"/><use xlink:href="#k-MBOnzLvQvDgqqEID0W_pad-51" x="425" y="0"/><use xlink:href="#k-MBOnzLvQvDgqqEID0W_pad-51" x="185" y="-330"/><use xlink:href="#k-MBOnzLvQvDgqqEID0W_pad-51" x="987.481" y="-252.481"/><use xlink:href="#k-MBOnzLvQvDgqqEID0W_pad-51" x="1035" y="-185"/><use xlink:href="#k-MBOnzLvQvDgqqEID0W_pad-51" x="505" y="-165"/><use xlink:href="#k-MBOnzLvQvDgqqEID0W_pad-51" x="450" y="-165"/><use xlink:href="#k-MBOnzLvQvDgqqEID0W_pad-51" x="395" y="-165"/><use xlink:href="#k-MBOnzLvQvDgqqEID0W_pad-51" x="340" y="-165"/><use xlink:href="#k-MBOnzLvQvDgqqEID0W_pad-51" x="768.115" y="61"/><use xlink:href="#k-MBOnzLvQvDgqqEID0W_pad-51" x="768.115" y="113.5"/><use xlink:href="#k-MBOnzLvQvDgqqEID0W_pad-51" x="500.54" y="-48.729"/><use xlink:href="#k-MBOnzLvQvDgqqEID0W_pad-51" x="755" y="-230.433"/><use xlink:href="#k-MBOnzLvQvDgqqEID0W_pad-51" x="755" y="-159.567"/><use xlink:href="#k-MBOnzLvQvDgqqEID0W_pad-51" x="905" y="-362.992"/><use xlink:href="#k-MBOnzLvQvDgqqEID0W_pad-51" x="905" y="-292.126"/><use xlink:href="#k-MBOnzLvQvDgqqEID0W_pad-51" x="860" y="-362.992"/><use xlink:href="#k-MBOnzLvQvDgqqEID0W_pad-51" x="860" y="-292.126"/><use xlink:href="#k-MBOnzLvQvDgqqEID0W_pad-51" x="555.236" y="0"/><use xlink:href="#k-MBOnzLvQvDgqqEID0W_pad-51" x="594.606" y="0"/><use xlink:href="#k-MBOnzLvQvDgqqEID0W_pad-51" x="980.814" y="-25.59"/><use xlink:href="#k-MBOnzLvQvDgqqEID0W_pad-51" x="1010.223" y="-5.59"/><use xlink:href="#k-MBOnzLvQvDgqqEID0W_pad-51" x="910" y="25.59"/><use xlink:href="#k-MBOnzLvQvDgqqEID0W_pad-51" x="356.614" y="-61.614"/><use xlink:href="#k-MBOnzLvQvDgqqEID0W_pad-51" x="356.596" y="61.596"/><use xlink:href="#k-MBOnzLvQvDgqqEID0W_pad-51" x="237.677" y="27.559"/><use xlink:href="#k-MBOnzLvQvDgqqEID0W_pad-51" x="237.677" y="-27.559"/><use xlink:href="#k-MBOnzLvQvDgqqEID0W_pad-51" x="902.481" y="208.165"/><use xlink:href="#k-MBOnzLvQvDgqqEID0W_pad-51" x="354.685" y="25.59"/><use xlink:href="#k-MBOnzLvQvDgqqEID0W_pad-51" x="354.685" y="-25.591"/><use xlink:href="#k-MBOnzLvQvDgqqEID0W_pad-51" x="869.843" y="255"/><use xlink:href="#k-MBOnzLvQvDgqqEID0W_pad-51" x="665.118" y="-235"/><use xlink:href="#k-MBOnzLvQvDgqqEID0W_pad-51" x="336.394" y="112.472"/><use xlink:href="#k-MBOnzLvQvDgqqEID0W_pad-51" x="383.606" y="112.472"/><use xlink:href="#k-MBOnzLvQvDgqqEID0W_pad-51" x="800" y="-159.567"/><use xlink:href="#k-MBOnzLvQvDgqqEID0W_pad-51" x="273.976" y="0"/><use xlink:href="#k-MBOnzLvQvDgqqEID0W_pad-51" x="800" y="-230.433"/><use xlink:href="#k-MBOnzLvQvDgqqEID0W_pad-51" x="61.26" y="-39.37"/><use xlink:href="#k-MBOnzLvQvDgqqEID0W_pad-51" x="61.26" y="39.37"/><use xlink:href="#k-MBOnzLvQvDgqqEID0W_pad-51" x="902.481" y="173.165"/><use xlink:href="#k-MBOnzLvQvDgqqEID0W_pad-51" x="1000" y="-170"/><use xlink:href="#k-MBOnzLvQvDgqqEID0W_pad-51" x="952.481" y="-237.481"/><use xlink:href="#k-MBOnzLvQvDgqqEID0W_pad-51" x="624.567" y="260"/><use xlink:href="#k-MBOnzLvQvDgqqEID0W_pad-51" x="695.433" y="260"/><use xlink:href="#k-MBOnzLvQvDgqqEID0W_pad-51" x="1189.41" y="100.433"/><use xlink:href="#k-MBOnzLvQvDgqqEID0W_pad-51" x="1189.41" y="29.567"/><use xlink:href="#k-MBOnzLvQvDgqqEID0W_pad-51" x="1034.567" y="-260"/><use xlink:href="#k-MBOnzLvQvDgqqEID0W_pad-51" x="1105.433" y="-260"/><use xlink:href="#k-MBOnzLvQvDgqqEID0W_pad-51" x="496.245" y="-260.369"/><use xlink:href="#k-MBOnzLvQvDgqqEID0W_pad-51" x="435" y="-235"/><use xlink:href="#k-MBOnzLvQvDgqqEID0W_pad-51" x="348.386" y="-321.614"/><use xlink:href="#k-MBOnzLvQvDgqqEID0W_pad-51" x="435" y="-405.512"/><use xlink:href="#k-MBOnzLvQvDgqqEID0W_pad-51" x="521.614" y="-321.614"/><use xlink:href="#k-MBOnzLvQvDgqqEID0W_pad-51" x="373.755" y="-260.369"/><use xlink:href="#k-MBOnzLvQvDgqqEID0W_pad-51" x="373.755" y="-382.86"/><use xlink:href="#k-MBOnzLvQvDgqqEID0W_pad-51" x="496.245" y="-382.86"/><use xlink:href="#k-MBOnzLvQvDgqqEID0W_pad-51" x="496.245" y="257.14"/><use xlink:href="#k-MBOnzLvQvDgqqEID0W_pad-51" x="373.755" y="257.14"/><use xlink:href="#k-MBOnzLvQvDgqqEID0W_pad-51" x="373.755" y="379.631"/><use xlink:href="#k-MBOnzLvQvDgqqEID0W_pad-51" x="521.614" y="318.386"/><use xlink:href="#k-MBOnzLvQvDgqqEID0W_pad-51" x="435" y="231.772"/><use xlink:href="#k-MBOnzLvQvDgqqEID0W_pad-51" x="348.386" y="318.386"/><use xlink:href="#k-MBOnzLvQvDgqqEID0W_pad-51" x="435" y="405"/><use xlink:href="#k-MBOnzLvQvDgqqEID0W_pad-51" x="496.245" y="379.631"/><use xlink:href="#k-MBOnzLvQvDgqqEID0W_pad-51" x="965" y="150"/></g><g id="NqS70fCRCXVoYB6T1mVO_bottom_drill2"><path d="M 434.689 -364.139 430.346 -364.22 421.795 -362.685 413.708 -359.511 406.395 -354.82 400.138 -348.793 395.177 -341.661 391.703 -333.698 389.849 -325.211 389.768 -320.867 389.768 -320.867 389.768 -316.603 391.432 -308.238 394.696 -300.358 399.434 -293.267 405.465 -287.236 412.557 -282.497 420.436 -279.234 428.801 -277.57 433.066 -277.57 433.072 -277.561 437.338 -277.561 445.704 -279.225 453.585 -282.49 460.678 -287.229 466.71 -293.261 471.449 -300.354 474.714 -308.235 476.378 -316.601 476.377 -320.867 476.378 -320.866 476.456 -325.05 474.977 -333.288 471.919 -341.079 467.4 -348.124 461.593 -354.151 454.722 -358.93 447.05 -362.276 438.873 -364.061 434.689 -364.139 434.689 -364.139"/><path d="M 434.689 277.594 430.346 277.512 421.795 279.047 413.708 282.221 406.395 286.912 400.138 292.939 395.177 300.071 391.703 308.034 389.849 316.522 389.768 320.865 389.768 320.865 389.768 325.13 391.432 333.495 394.696 341.374 399.434 348.466 405.465 354.497 412.557 359.235 420.436 362.499 428.801 364.162 433.066 364.162 433.072 364.171 437.338 364.171 445.704 362.507 453.585 359.243 460.678 354.504 466.71 348.472 471.449 341.379 474.714 333.498 476.378 325.131 476.377 320.866 476.378 320.866 476.456 316.682 474.977 308.444 471.919 300.653 467.4 293.609 461.593 287.581 454.722 282.803 447.05 279.456 438.873 277.671 434.689 277.594 434.689 277.594"/><use xlink:href="#wlo-xT_MA4Y6Q-2mbY_i_pad-49" x="214.567" y="92.52"/><use xlink:href="#wlo-xT_MA4Y6Q-2mbY_i_pad-49" x="214.567" y="391.732"/><use xlink:href="#wlo-xT_MA4Y6Q-2mbY_i_pad-49" x="214.567" y="-391.732"/><use xlink:href="#wlo-xT_MA4Y6Q-2mbY_i_pad-49" x="214.567" y="-92.52"/></g><clipPath id="NqS70fCRCXVoYB6T1mVO_bottom_outline"><path d="M 434.689 -364.139 430.346 -364.22 421.795 -362.685 413.708 -359.511 406.395 -354.82 400.138 -348.793 395.177 -341.661 391.703 -333.698 389.849 -325.211 389.768 -320.867 389.768 -320.867 389.768 -316.603 391.432 -308.238 394.696 -300.358 399.434 -293.267 405.465 -287.236 412.557 -282.497 420.436 -279.234 428.801 -277.57 433.066 -277.57 433.072 -277.561 437.338 -277.561 445.704 -279.225 453.585 -282.49 460.678 -287.229 466.71 -293.261 471.449 -300.354 474.714 -308.235 476.378 -316.601 476.377 -320.867 476.378 -320.866 476.456 -325.05 474.977 -333.288 471.919 -341.079 467.4 -348.124 461.593 -354.151 454.722 -358.93 447.05 -362.276 438.873 -364.061 434.689 -364.139 434.689 -364.139"/><path d="M 434.689 277.594 430.346 277.512 421.795 279.047 413.708 282.221 406.395 286.912 400.138 292.939 395.177 300.071 391.703 308.034 389.849 316.522 389.768 320.865 389.768 320.865 389.768 325.13 391.432 333.495 394.696 341.374 399.434 348.466 405.465 354.497 412.557 359.235 420.436 362.499 428.801 364.162 433.066 364.162 433.072 364.171 437.338 364.171 445.704 362.507 453.585 359.243 460.678 354.504 466.71 348.472 471.449 341.379 474.714 333.498 476.378 325.131 476.377 320.866 476.378 320.866 476.456 316.682 474.977 308.444 471.919 300.653 467.4 293.609 461.593 287.581 454.722 282.803 447.05 279.456 438.873 277.671 434.689 277.594 434.689 277.594"/><path d="M 984.253 429.134 0 429.134 0 -429.134 984.253 -429.134 A 429.1340499 429.1340499 0 1 1 984.253 429.134" fill="none" stroke-width="1"/></clipPath><mask id="NqS70fCRCXVoYB6T1mVO_bottom_mech-mask"><g fill="#000" stroke="#000"><rect x="0" y="-429.1340499" width="1413.5940499" height="858.2680998" fill="#fff"/><use xlink:href="#NqS70fCRCXVoYB6T1mVO_bottom_drill1"/><use xlink:href="#NqS70fCRCXVoYB6T1mVO_bottom_drill2"/></g></mask><mask id="NqS70fCRCXVoYB6T1mVO_bottom_cf-mask"><g fill="#fff" stroke="#fff"><use xlink:href="#NqS70fCRCXVoYB6T1mVO_bottom_soldermask"/></g></mask><mask id="NqS70fCRCXVoYB6T1mVO_bottom_sm-mask"><g fill="#000" stroke="#000"><rect x="0" y="-429.1340499" width="1413.5940499" height="858.2680998" fill="#fff"/><use xlink:href="#NqS70fCRCXVoYB6T1mVO_bottom_soldermask"/></g></mask></defs><g transform="translate(0,0) scale(1,-1)"><g mask="url(#NqS70fCRCXVoYB6T1mVO_bottom_mech-mask)" clip-path="url(#NqS70fCRCXVoYB6T1mVO_bottom_outline)" transform="translate(1413.5940499,0) scale(-1,1)"><rect x="0" y="-429.1340499" width="1413.5940499" height="858.2680998" fill="currentColor" class="NqS70fCRCXVoYB6T1mVO_fr4"/><use xlink:href="#NqS70fCRCXVoYB6T1mVO_bottom_copper" fill="currentColor" stroke="currentColor" class="NqS70fCRCXVoYB6T1mVO_cu"/><use xlink:href="#NqS70fCRCXVoYB6T1mVO_bottom_copper" fill="currentColor" stroke="currentColor" class="NqS70fCRCXVoYB6T1mVO_cf" mask="url(#NqS70fCRCXVoYB6T1mVO_bottom_cf-mask)"/><g mask="url(#NqS70fCRCXVoYB6T1mVO_bottom_sm-mask)"><rect x="0" y="-429.1340499" width="1413.5940499" height="858.2680998" fill="currentColor" class="NqS70fCRCXVoYB6T1mVO_sm"/><use xlink:href="#NqS70fCRCXVoYB6T1mVO_bottom_silkscreen" fill="currentColor" stroke="currentColor" class="NqS70fCRCXVoYB6T1mVO_ss"/></g><use xlink:href="#NqS70fCRCXVoYB6T1mVO_bottom_solderpaste" fill="currentColor" stroke="currentColor" class="NqS70fCRCXVoYB6T1mVO_sp"/></g></g></svg>