<svg version="1.1" xmlns="http://www.w3.org/2000/svg" xmlns:xlink="http://www.w3.org/1999/xlink" stroke-linecap="round" stroke-linejoin="round" stroke-width="0" fill-rule="evenodd" width="0.26437in" height="0.2in" viewBox="817.611 -85 264.37 200" id="GQqgDlFnGxBC0Uw-0ONd"><g transform="translate(0,30) scale(1,-1)" fill="currentColor" stroke="currentColor"><path d="M 820.432 19.678 820.924 18.956 821.481 18.268 822.039 17.677 822.531 17.12 822.761 16.923 822.925 16.726 823.089 16.562 823.22 16.464 823.285 16.398 823.318 16.365 824.204 15.611 825.155 14.955 826.073 14.332 826.926 13.807 827.287 13.61 827.648 13.413 827.976 13.216 828.238 13.085 828.468 12.987 828.632 12.889 828.73 12.856 828.763 12.823 828.763 9.248 828.107 9.51 827.418 9.805 826.762 10.133 826.172 10.428 825.647 10.724 825.417 10.822 825.221 10.953 825.057 11.019 824.958 11.085 824.893 11.15 824.86 11.15 824.073 11.642 823.384 12.101 822.761 12.528 822.269 12.921 821.842 13.249 821.547 13.479 821.383 13.643 821.317 13.709 821.317 -9.94 817.611 -9.94 817.611 20.433 820.005 20.433 820.432 19.678"/><path d="M 860.579 2.852 860.579 1.966 860.513 1.146 860.481 0.359 860.382 -0.363 860.317 -1.052 860.218 -1.675 860.12 -2.232 859.989 -2.757 859.89 -3.216 859.792 -3.61 859.693 -3.971 859.595 -4.233 859.529 -4.463 859.464 -4.627 859.431 -4.725 859.431 -4.758 859.201 -5.25 858.939 -5.742 858.349 -6.595 857.725 -7.316 857.069 -7.907 856.774 -8.169 856.512 -8.366 856.249 -8.563 856.02 -8.727 855.856 -8.825 855.725 -8.924 855.626 -8.956 855.593 -8.989 855.069 -9.252 854.511 -9.448 853.363 -9.809 852.182 -10.072 851.067 -10.236 850.575 -10.301 850.083 -10.367 849.689 -10.399 849.329 -10.399 849.033 -10.432 848.607 -10.432 847.82 -10.399 847.065 -10.367 846.344 -10.268 845.655 -10.17 845.032 -10.039 844.441 -9.908 843.917 -9.743 843.457 -9.579 842.998 -9.448 842.637 -9.284 842.309 -9.153 842.047 -9.022 841.817 -8.924 841.686 -8.825 841.588 -8.792 841.555 -8.759 841.063 -8.431 840.604 -8.104 840.21 -7.743 839.817 -7.382 839.489 -7.021 839.161 -6.628 838.898 -6.3 838.669 -5.939 838.275 -5.348 838.144 -5.086 838.013 -4.856 837.914 -4.66 837.849 -4.528 837.816 -4.43 837.816 -4.397 837.619 -3.872 837.455 -3.315 837.193 -2.134 837.029 -0.92 836.897 0.228 836.865 0.785 836.832 1.277 836.799 1.704 836.766 2.097 836.766 2.425 836.766 2.655 836.766 2.786 836.766 2.852 836.766 20.334 840.768 20.334 840.768 2.852 840.801 1.835 840.833 0.884 840.932 0.031 841.063 -0.756 841.194 -1.445 841.358 -2.068 841.555 -2.626 841.719 -3.118 841.883 -3.544 842.08 -3.905 842.244 -4.2 842.375 -4.43 842.506 -4.594 842.572 -4.725 842.637 -4.791 842.67 -4.824 843.064 -5.184 843.49 -5.479 843.949 -5.742 844.441 -5.971 844.966 -6.168 845.491 -6.332 846.508 -6.562 847 -6.66 847.459 -6.726 847.885 -6.759 848.246 -6.792 848.541 -6.824 848.968 -6.824 849.886 -6.792 850.739 -6.66 851.493 -6.496 852.149 -6.332 852.412 -6.234 852.641 -6.136 852.871 -6.07 853.035 -6.004 853.166 -5.939 853.265 -5.873 853.33 -5.84 853.363 -5.84 853.986 -5.414 854.511 -4.955 854.937 -4.495 855.265 -4.003 855.528 -3.61 855.725 -3.249 855.79 -3.118 855.823 -3.019 855.856 -2.987 855.856 -2.954 855.987 -2.593 856.085 -2.167 856.282 -1.248 856.413 -0.297 856.479 0.654 856.512 1.081 856.545 1.507 856.545 1.868 856.577 2.196 856.577 2.491 856.577 2.688 856.577 2.819 856.577 2.852 856.577 20.334 860.579 20.334 860.579 2.852"/><path d="M 864.095 105 A 5 5 0 0 1 854.095 105 5 5 0 0 1 864.095 105" fill="none" stroke-width="10"/><path d="M 875.981 -82 875.981 82 M 1078.981 -82 1078.981 82" fill="none" stroke-width="6"/></g></svg>