<svg version="1.1" xmlns="http://www.w3.org/2000/svg" xmlns:xlink="http://www.w3.org/1999/xlink" stroke-linecap="round" stroke-linejoin="round" stroke-width="0" fill-rule="evenodd" width="1.1731500000000001in" height="0.8555119999999999in" viewBox="38.76 -428.012 1173.15 855.512" id="iVbnmq1HRNxL7ZYK27cX"><g transform="translate(0,-0.5120000000000573) scale(1,-1)" fill="currentColor" stroke="currentColor"><path d="M 194.567 72.52 194.567 112.52 234.567 112.52 234.567 72.52 194.567 72.52 M 194.567 371.732 194.567 411.732 234.567 411.732 234.567 371.732 194.567 371.732 M 194.567 -411.732 194.567 -371.732 234.567 -371.732 234.567 -411.732 194.567 -411.732 M 194.567 -112.52 194.567 -72.52 234.567 -72.52 234.567 -112.52 194.567 -112.52 M 968.307 175 948.307 215 988.307 215 968.307 175 M 465 -130 445 -90 485 -90 465 -130 M 560 -160 540 -120 580 -120 560 -160 M 831.084 -20 811.084 20 851.084 20 831.084 -20 M 798.916 -20 778.916 20 818.916 20 798.916 -20 M 1065 -181.314 1045 -141.314 1085 -141.314 1065 -181.314 M 300 50 280 90 320 90 300 50 M 195 165 175 205 215 205 195 165 M 240 310 220 350 260 350 240 310 M 610 110 590 150 630 150 610 110 M 890 35 870 75 910 75 890 35 M 861.885 -107.25 841.885 -67.25 881.885 -67.25 861.885 -107.25 M 861.885 -145 841.885 -105 881.885 -105 861.885 -145 M 905 -75 885 -35 925 -35 905 -75 M 720 105 700 145 740 145 720 105 M 745 -285 725 -245 765 -245 745 -285 M 720 -130.472 700 -90.472 740 -90.472 720 -130.472 M 621.919 -170 601.919 -130 641.919 -130 621.919 -170 M 425 115 405 155 445 155 425 115 M 385 -110 365 -70 405 -70 385 -110 M 464.528 -67.244 444.528 -27.244 484.528 -27.244 464.528 -67.244 M 425 -20 405 20 445 20 425 -20 M 185 -350 165 -310 205 -310 185 -350 M 987.481 -272.481 967.481 -232.481 1007.481 -232.481 987.481 -272.481 M 1035 -205 1015 -165 1055 -165 1035 -205 M 505 -185 485 -145 525 -145 505 -185 M 450 -185 430 -145 470 -145 450 -185 M 395 -185 375 -145 415 -145 395 -185 M 340 -185 320 -145 360 -145 340 -185 M 768.115 41 748.115 81 788.115 81 768.115 41 M 768.115 93.5 748.115 133.5 788.115 133.5 768.115 93.5 M 500.54 -68.729 480.54 -28.729 520.54 -28.729 500.54 -68.729 M 755 -250.433 735 -210.433 775 -210.433 755 -250.433 M 755 -179.567 735 -139.567 775 -139.567 755 -179.567 M 905 -382.992 885 -342.992 925 -342.992 905 -382.992 M 905 -312.126 885 -272.126 925 -272.126 905 -312.126 M 860 -382.992 840 -342.992 880 -342.992 860 -382.992 M 860 -312.126 840 -272.126 880 -272.126 860 -312.126 M 555.236 -20 535.236 20 575.236 20 555.236 -20 M 594.606 -20 574.606 20 614.606 20 594.606 -20 M 980.814 -45.59 960.814 -5.59 1000.814 -5.59 980.814 -45.59 M 1010.223 -25.59 990.223 14.41 1030.223 14.41 1010.223 -25.59 M 910 5.59 890 45.59 930 45.59 910 5.59 M 356.614 -81.614 336.614 -41.614 376.614 -41.614 356.614 -81.614 M 356.596 41.596 336.596 81.596 376.596 81.596 356.596 41.596 M 237.677 7.559 217.677 47.559 257.677 47.559 237.677 7.559 M 237.677 -47.559 217.677 -7.559 257.677 -7.559 237.677 -47.559 M 902.481 188.165 882.481 228.165 922.481 228.165 902.481 188.165 M 354.685 5.59 334.685 45.59 374.685 45.59 354.685 5.59 M 354.685 -45.591 334.685 -5.591 374.685 -5.591 354.685 -45.591 M 869.843 235 849.843 275 889.843 275 869.843 235 M 665.118 -255 645.118 -215 685.118 -215 665.118 -255 M 336.394 92.472 316.394 132.472 356.394 132.472 336.394 92.472 M 383.606 92.472 363.606 132.472 403.606 132.472 383.606 92.472 M 800 -179.567 780 -139.567 820 -139.567 800 -179.567 M 273.976 -20 253.976 20 293.976 20 273.976 -20 M 800 -250.433 780 -210.433 820 -210.433 800 -250.433 M 61.26 -59.37 41.26 -19.37 81.26 -19.37 61.26 -59.37 M 61.26 19.37 41.26 59.37 81.26 59.37 61.26 19.37 M 902.481 153.165 882.481 193.165 922.481 193.165 902.481 153.165 M 1000 -190 980 -150 1020 -150 1000 -190 M 952.481 -257.481 932.481 -217.481 972.481 -217.481 952.481 -257.481 M 624.567 240 604.567 280 644.567 280 624.567 240 M 695.433 240 675.433 280 715.433 280 695.433 240 M 1189.41 80.433 1169.41 120.433 1209.41 120.433 1189.41 80.433 M 1189.41 9.567 1169.41 49.567 1209.41 49.567 1189.41 9.567 M 1034.567 -280 1014.567 -240 1054.567 -240 1034.567 -280 M 1105.433 -280 1085.433 -240 1125.433 -240 1105.433 -280 M 496.245 -280.369 476.245 -240.369 516.245 -240.369 496.245 -280.369 M 435 -255 415 -215 455 -215 435 -255 M 348.386 -341.614 328.386 -301.614 368.386 -301.614 348.386 -341.614 M 435 -425.512 415 -385.512 455 -385.512 435 -425.512 M 521.614 -341.614 501.614 -301.614 541.614 -301.614 521.614 -341.614 M 373.755 -280.369 353.755 -240.369 393.755 -240.369 373.755 -280.369 M 373.755 -402.86 353.755 -362.86 393.755 -362.86 373.755 -402.86 M 496.245 -402.86 476.245 -362.86 516.245 -362.86 496.245 -402.86 M 496.245 237.14 476.245 277.14 516.245 277.14 496.245 237.14 M 373.755 237.14 353.755 277.14 393.755 277.14 373.755 237.14 M 373.755 359.631 353.755 399.631 393.755 399.631 373.755 359.631 M 521.614 298.386 501.614 338.386 541.614 338.386 521.614 298.386 M 435 211.772 415 251.772 455 251.772 435 211.772 M 348.386 298.386 328.386 338.386 368.386 338.386 348.386 298.386 M 435 385 415 425 455 425 435 385 M 496.245 359.631 476.245 399.631 516.245 399.631 496.245 359.631 M 965 130 945 170 985 170 965 130" fill="none" stroke-width="5"/><path d="M 161.732 153.543 A 20 20 0 0 1 121.732 153.543 20 20 0 0 1 161.732 153.543 M 307.402 212.599 A 20 20 0 0 1 267.402 212.599 20 20 0 0 1 307.402 212.599 M 161.732 271.654 A 20 20 0 0 1 121.732 271.654 20 20 0 0 1 161.732 271.654 M 307.402 330.709 A 20 20 0 0 1 267.402 330.709 20 20 0 0 1 307.402 330.709 M 161.732 -330.709 A 20 20 0 0 1 121.732 -330.709 20 20 0 0 1 161.732 -330.709 M 307.402 -271.654 A 20 20 0 0 1 267.402 -271.654 20 20 0 0 1 307.402 -271.654 M 161.732 -212.598 A 20 20 0 0 1 121.732 -212.598 20 20 0 0 1 161.732 -212.598 M 307.402 -153.543 A 20 20 0 0 1 267.402 -153.543 20 20 0 0 1 307.402 -153.543" fill="none" stroke-width="6.667"/></g></svg>