<svg version="1.1" xmlns="http://www.w3.org/2000/svg" xmlns:xlink="http://www.w3.org/1999/xlink" stroke-linecap="round" stroke-linejoin="round" stroke-width="0" fill-rule="evenodd" width="1.1438979999999999in" height="0.82626in" viewBox="53.386 -413.386 1143.898 826.26" id="k-MBOnzLvQvDgqqEID0W"><defs><circle cx="0" cy="0" r="13.7795" id="k-MBOnzLvQvDgqqEID0W_pad-50"/><circle cx="0" cy="0" r="7.874" id="k-MBOnzLvQvDgqqEID0W_pad-51"/></defs><g transform="translate(0,-0.5120000000000573) scale(1,-1)" fill="currentColor" stroke="currentColor"><use xlink:href="#k-MBOnzLvQvDgqqEID0W_pad-50" x="141.732" y="153.543"/><use xlink:href="#k-MBOnzLvQvDgqqEID0W_pad-50" x="287.402" y="212.599"/><use xlink:href="#k-MBOnzLvQvDgqqEID0W_pad-50" x="141.732" y="271.654"/><use xlink:href="#k-MBOnzLvQvDgqqEID0W_pad-50" x="287.402" y="330.709"/><use xlink:href="#k-MBOnzLvQvDgqqEID0W_pad-50" x="141.732" y="-330.709"/><use xlink:href="#k-MBOnzLvQvDgqqEID0W_pad-50" x="287.402" y="-271.654"/><use xlink:href="#k-MBOnzLvQvDgqqEID0W_pad-50" x="141.732" y="-212.598"/><use xlink:href="#k-MBOnzLvQvDgqqEID0W_pad-50" x="287.402" y="-153.543"/><use xlink:href="#k-MBOnzLvQvDgqqEID0W_pad-51" x="968.307" y="195"/><use xlink:href="#k-MBOnzLvQvDgqqEID0W_pad-51" x="465" y="-110"/><use xlink:href="#k-MBOnzLvQvDgqqEID0W_pad-51" x="560" y="-140"/><use xlink:href="#k-MBOnzLvQvDgqqEID0W_pad-51" x="831.084" y="0"/><use xlink:href="#k-MBOnzLvQvDgqqEID0W_pad-51" x="798.916" y="0"/><use xlink:href="#k-MBOnzLvQvDgqqEID0W_pad-51" x="1065" y="-161.314"/><use xlink:href="#k-MBOnzLvQvDgqqEID0W_pad-51" x="300" y="70"/><use xlink:href="#k-MBOnzLvQvDgqqEID0W_pad-51" x="195" y="185"/><use xlink:href="#k-MBOnzLvQvDgqqEID0W_pad-51" x="240" y="330"/><use xlink:href="#k-MBOnzLvQvDgqqEID0W_pad-51" x="610" y="130"/><use xlink:href="#k-MBOnzLvQvDgqqEID0W_pad-51" x="890" y="55"/><use xlink:href="#k-MBOnzLvQvDgqqEID0W_pad-51" x="861.885" y="-87.25"/><use xlink:href="#k-MBOnzLvQvDgqqEID0W_pad-51" x="861.885" y="-125"/><use xlink:href="#k-MBOnzLvQvDgqqEID0W_pad-51" x="905" y="-55"/><use xlink:href="#k-MBOnzLvQvDgqqEID0W_pad-51" x="720" y="125"/><use xlink:href="#k-MBOnzLvQvDgqqEID0W_pad-51" x="745" y="-265"/><use xlink:href="#k-MBOnzLvQvDgqqEID0W_pad-51" x="720" y="-110.472"/><use xlink:href="#k-MBOnzLvQvDgqqEID0W_pad-51" x="621.919" y="-150"/><use xlink:href="#k-MBOnzLvQvDgqqEID0W_pad-51" x="425" y="135"/><use xlink:href="#k-MBOnzLvQvDgqqEID0W_pad-51" x="385" y="-90"/><use xlink:href="#k-MBOnzLvQvDgqqEID0W_pad-51" x="464.528" y="-47.244"/><use xlink:href="#k-MBOnzLvQvDgqqEID0W_pad-51" x="425" y="0"/><use xlink:href="#k-MBOnzLvQvDgqqEID0W_pad-51" x="185" y="-330"/><use xlink:href="#k-MBOnzLvQvDgqqEID0W_pad-51" x="987.481" y="-252.481"/><use xlink:href="#k-MBOnzLvQvDgqqEID0W_pad-51" x="1035" y="-185"/><use xlink:href="#k-MBOnzLvQvDgqqEID0W_pad-51" x="505" y="-165"/><use xlink:href="#k-MBOnzLvQvDgqqEID0W_pad-51" x="450" y="-165"/><use xlink:href="#k-MBOnzLvQvDgqqEID0W_pad-51" x="395" y="-165"/><use xlink:href="#k-MBOnzLvQvDgqqEID0W_pad-51" x="340" y="-165"/><use xlink:href="#k-MBOnzLvQvDgqqEID0W_pad-51" x="768.115" y="61"/><use xlink:href="#k-MBOnzLvQvDgqqEID0W_pad-51" x="768.115" y="113.5"/><use xlink:href="#k-MBOnzLvQvDgqqEID0W_pad-51" x="500.54" y="-48.729"/><use xlink:href="#k-MBOnzLvQvDgqqEID0W_pad-51" x="755" y="-230.433"/><use xlink:href="#k-MBOnzLvQvDgqqEID0W_pad-51" x="755" y="-159.567"/><use xlink:href="#k-MBOnzLvQvDgqqEID0W_pad-51" x="905" y="-362.992"/><use xlink:href="#k-MBOnzLvQvDgqqEID0W_pad-51" x="905" y="-292.126"/><use xlink:href="#k-MBOnzLvQvDgqqEID0W_pad-51" x="860" y="-362.992"/><use xlink:href="#k-MBOnzLvQvDgqqEID0W_pad-51" x="860" y="-292.126"/><use xlink:href="#k-MBOnzLvQvDgqqEID0W_pad-51" x="555.236" y="0"/><use xlink:href="#k-MBOnzLvQvDgqqEID0W_pad-51" x="594.606" y="0"/><use xlink:href="#k-MBOnzLvQvDgqqEID0W_pad-51" x="980.814" y="-25.59"/><use xlink:href="#k-MBOnzLvQvDgqqEID0W_pad-51" x="1010.223" y="-5.59"/><use xlink:href="#k-MBOnzLvQvDgqqEID0W_pad-51" x="910" y="25.59"/><use xlink:href="#k-MBOnzLvQvDgqqEID0W_pad-51" x="356.614" y="-61.614"/><use xlink:href="#k-MBOnzLvQvDgqqEID0W_pad-51" x="356.596" y="61.596"/><use xlink:href="#k-MBOnzLvQvDgqqEID0W_pad-51" x="237.677" y="27.559"/><use xlink:href="#k-MBOnzLvQvDgqqEID0W_pad-51" x="237.677" y="-27.559"/><use xlink:href="#k-MBOnzLvQvDgqqEID0W_pad-51" x="902.481" y="208.165"/><use xlink:href="#k-MBOnzLvQvDgqqEID0W_pad-51" x="354.685" y="25.59"/><use xlink:href="#k-MBOnzLvQvDgqqEID0W_pad-51" x="354.685" y="-25.591"/><use xlink:href="#k-MBOnzLvQvDgqqEID0W_pad-51" x="869.843" y="255"/><use xlink:href="#k-MBOnzLvQvDgqqEID0W_pad-51" x="665.118" y="-235"/><use xlink:href="#k-MBOnzLvQvDgqqEID0W_pad-51" x="336.394" y="112.472"/><use xlink:href="#k-MBOnzLvQvDgqqEID0W_pad-51" x="383.606" y="112.472"/><use xlink:href="#k-MBOnzLvQvDgqqEID0W_pad-51" x="800" y="-159.567"/><use xlink:href="#k-MBOnzLvQvDgqqEID0W_pad-51" x="273.976" y="0"/><use xlink:href="#k-MBOnzLvQvDgqqEID0W_pad-51" x="800" y="-230.433"/><use xlink:href="#k-MBOnzLvQvDgqqEID0W_pad-51" x="61.26" y="-39.37"/><use xlink:href="#k-MBOnzLvQvDgqqEID0W_pad-51" x="61.26" y="39.37"/><use xlink:href="#k-MBOnzLvQvDgqqEID0W_pad-51" x="902.481" y="173.165"/><use xlink:href="#k-MBOnzLvQvDgqqEID0W_pad-51" x="1000" y="-170"/><use xlink:href="#k-MBOnzLvQvDgqqEID0W_pad-51" x="952.481" y="-237.481"/><use xlink:href="#k-MBOnzLvQvDgqqEID0W_pad-51" x="624.567" y="260"/><use xlink:href="#k-MBOnzLvQvDgqqEID0W_pad-51" x="695.433" y="260"/><use xlink:href="#k-MBOnzLvQvDgqqEID0W_pad-51" x="1189.41" y="100.433"/><use xlink:href="#k-MBOnzLvQvDgqqEID0W_pad-51" x="1189.41" y="29.567"/><use xlink:href="#k-MBOnzLvQvDgqqEID0W_pad-51" x="1034.567" y="-260"/><use xlink:href="#k-MBOnzLvQvDgqqEID0W_pad-51" x="1105.433" y="-260"/><use xlink:href="#k-MBOnzLvQvDgqqEID0W_pad-51" x="496.245" y="-260.369"/><use xlink:href="#k-MBOnzLvQvDgqqEID0W_pad-51" x="435" y="-235"/><use xlink:href="#k-MBOnzLvQvDgqqEID0W_pad-51" x="348.386" y="-321.614"/><use xlink:href="#k-MBOnzLvQvDgqqEID0W_pad-51" x="435" y="-405.512"/><use xlink:href="#k-MBOnzLvQvDgqqEID0W_pad-51" x="521.614" y="-321.614"/><use xlink:href="#k-MBOnzLvQvDgqqEID0W_pad-51" x="373.755" y="-260.369"/><use xlink:href="#k-MBOnzLvQvDgqqEID0W_pad-51" x="373.755" y="-382.86"/><use xlink:href="#k-MBOnzLvQvDgqqEID0W_pad-51" x="496.245" y="-382.86"/><use xlink:href="#k-MBOnzLvQvDgqqEID0W_pad-51" x="496.245" y="257.14"/><use xlink:href="#k-MBOnzLvQvDgqqEID0W_pad-51" x="373.755" y="257.14"/><use xlink:href="#k-MBOnzLvQvDgqqEID0W_pad-51" x="373.755" y="379.631"/><use xlink:href="#k-MBOnzLvQvDgqqEID0W_pad-51" x="521.614" y="318.386"/><use xlink:href="#k-MBOnzLvQvDgqqEID0W_pad-51" x="435" y="231.772"/><use xlink:href="#k-MBOnzLvQvDgqqEID0W_pad-51" x="348.386" y="318.386"/><use xlink:href="#k-MBOnzLvQvDgqqEID0W_pad-51" x="435" y="405"/><use xlink:href="#k-MBOnzLvQvDgqqEID0W_pad-51" x="496.245" y="379.631"/><use xlink:href="#k-MBOnzLvQvDgqqEID0W_pad-51" x="965" y="150"/></g></svg>