<svg version="1.1" xmlns="http://www.w3.org/2000/svg" xmlns:xlink="http://www.w3.org/1999/xlink" stroke-linecap="round" stroke-linejoin="round" stroke-width="0" fill-rule="evenodd" width="1.1959849999999999in" height="0.8327709999999999in" viewBox="13.11 -416.3855 1195.985 832.771" id="Mmi-ZQR2q9-IKVsPaLrS"><defs><rect x="-19.685" y="-35.433" width="39.37" height="70.866" id="Mmi-ZQR2q9-IKVsPaLrS_pad-11"/><rect x="-18.701" y="-18.701" width="37.402" height="37.402" id="Mmi-ZQR2q9-IKVsPaLrS_pad-12"/><rect x="-17.7165" y="-13.7795" width="35.433" height="27.559" id="Mmi-ZQR2q9-IKVsPaLrS_pad-13"/><rect x="-8.5" y="-26.25" width="17" height="52.5" id="Mmi-ZQR2q9-IKVsPaLrS_pad-15"/><rect x="-43.307" y="-43.504" width="86.614" height="87.008" id="Mmi-ZQR2q9-IKVsPaLrS_pad-19"/><rect x="-23.6065" y="-12.8425" width="47.213" height="25.685" id="Mmi-ZQR2q9-IKVsPaLrS_pad-21"/><rect x="-35.433" y="-19.685" width="70.866" height="39.37" id="Mmi-ZQR2q9-IKVsPaLrS_pad-24"/><rect x="-17.7795" y="-21.7165" width="35.559" height="43.433" id="Mmi-ZQR2q9-IKVsPaLrS_pad-38"/><rect x="-21.7165" y="-17.7795" width="43.433" height="35.559" id="Mmi-ZQR2q9-IKVsPaLrS_pad-39"/><rect x="-21.7165" y="-17.7795" width="43.433" height="35.559" id="Mmi-ZQR2q9-IKVsPaLrS_pad-40"/><rect x="-21.7165" y="-23.685" width="43.433" height="47.37" id="Mmi-ZQR2q9-IKVsPaLrS_pad-41"/><g id="Mmi-ZQR2q9-IKVsPaLrS_pad-42"><polygon points="26.5945,-13.189 26.5945,13.189 -26.5945,13.189 -26.5945,-13.189"/><polygon points="32.874,-6.9095 32.874,6.9095 -32.874,6.9095 -32.874,-6.9095"/><circle cx="26.594" cy="6.91" r="6.2795"/><circle cx="26.594" cy="-6.91" r="6.2795"/><circle cx="-26.594" cy="-6.91" r="6.2795"/><circle cx="-26.594" cy="6.91" r="6.2795"/></g><rect x="-23.685" y="-21.7165" width="47.37" height="43.433" id="Mmi-ZQR2q9-IKVsPaLrS_pad-43"/><rect x="-19.748" y="-19.748" width="39.496" height="39.496" id="Mmi-ZQR2q9-IKVsPaLrS_pad-44"/><circle cx="0" cy="0" r="24.6535" id="Mmi-ZQR2q9-IKVsPaLrS_pad-45"/><circle cx="0" cy="0" r="23.6695" id="Mmi-ZQR2q9-IKVsPaLrS_pad-46"/><rect x="-23.6695" y="-23.6695" width="47.339" height="47.339" id="Mmi-ZQR2q9-IKVsPaLrS_pad-47"/></defs><g transform="translate(0,0) scale(1,-1)" fill="currentColor" stroke="currentColor"><path d="M 589.37 -115 550 -115 535 -95 550 -75 589.37 -75 589.37 -115"/><path d="M 524.685 -95 539.685 -115 489.685 -115 489.685 -75 539.685 -75 524.685 -95"/><path d="M 589.37 75 550 75 535 95 550 115 589.37 115 589.37 75"/><path d="M 524.685 95 539.685 75 489.685 75 489.685 115 539.685 115 524.685 95"/><use xlink:href="#Mmi-ZQR2q9-IKVsPaLrS_pad-11" x="860" y="-327.559"/><use xlink:href="#Mmi-ZQR2q9-IKVsPaLrS_pad-11" x="800" y="-195"/><use xlink:href="#Mmi-ZQR2q9-IKVsPaLrS_pad-11" x="1189.41" y="65"/><use xlink:href="#Mmi-ZQR2q9-IKVsPaLrS_pad-12" x="900.394" y="195"/><use xlink:href="#Mmi-ZQR2q9-IKVsPaLrS_pad-12" x="949.606" y="195"/><use xlink:href="#Mmi-ZQR2q9-IKVsPaLrS_pad-12" x="860.394" y="-160"/><use xlink:href="#Mmi-ZQR2q9-IKVsPaLrS_pad-12" x="909.606" y="-160"/><use xlink:href="#Mmi-ZQR2q9-IKVsPaLrS_pad-12" x="669.606" y="100"/><use xlink:href="#Mmi-ZQR2q9-IKVsPaLrS_pad-12" x="620.394" y="100"/><use xlink:href="#Mmi-ZQR2q9-IKVsPaLrS_pad-13" x="720" y="80.709"/><use xlink:href="#Mmi-ZQR2q9-IKVsPaLrS_pad-13" x="720" y="25.59"/><use xlink:href="#Mmi-ZQR2q9-IKVsPaLrS_pad-13" x="720" y="-80.709"/><use xlink:href="#Mmi-ZQR2q9-IKVsPaLrS_pad-13" x="720" y="-25.59"/><use xlink:href="#Mmi-ZQR2q9-IKVsPaLrS_pad-15" x="853.385" y="-87.25"/><use xlink:href="#Mmi-ZQR2q9-IKVsPaLrS_pad-15" x="827.795" y="-87.25"/><use xlink:href="#Mmi-ZQR2q9-IKVsPaLrS_pad-15" x="802.205" y="-87.25"/><use xlink:href="#Mmi-ZQR2q9-IKVsPaLrS_pad-15" x="776.615" y="-87.25"/><use xlink:href="#Mmi-ZQR2q9-IKVsPaLrS_pad-15" x="776.615" y="87.25"/><use xlink:href="#Mmi-ZQR2q9-IKVsPaLrS_pad-15" x="802.205" y="87.25"/><use xlink:href="#Mmi-ZQR2q9-IKVsPaLrS_pad-15" x="827.795" y="87.25"/><use xlink:href="#Mmi-ZQR2q9-IKVsPaLrS_pad-15" x="853.385" y="87.25"/><use xlink:href="#Mmi-ZQR2q9-IKVsPaLrS_pad-19" x="56.417" y="0"/><use xlink:href="#Mmi-ZQR2q9-IKVsPaLrS_pad-19" x="233.583" y="0"/><use xlink:href="#Mmi-ZQR2q9-IKVsPaLrS_pad-21" x="360" y="177.528"/><use xlink:href="#Mmi-ZQR2q9-IKVsPaLrS_pad-21" x="360" y="112.472"/><use xlink:href="#Mmi-ZQR2q9-IKVsPaLrS_pad-24" x="660" y="260"/><use xlink:href="#Mmi-ZQR2q9-IKVsPaLrS_pad-24" x="1070" y="-260"/><use xlink:href="#Mmi-ZQR2q9-IKVsPaLrS_pad-38" x="1164.334" y="-32.519"/><use xlink:href="#Mmi-ZQR2q9-IKVsPaLrS_pad-38" x="1109.216" y="-32.519"/><use xlink:href="#Mmi-ZQR2q9-IKVsPaLrS_pad-38" x="1164.334" y="-96.26"/><use xlink:href="#Mmi-ZQR2q9-IKVsPaLrS_pad-38" x="1109.216" y="-96.26"/><use xlink:href="#Mmi-ZQR2q9-IKVsPaLrS_pad-38" x="657.441" y="-150"/><use xlink:href="#Mmi-ZQR2q9-IKVsPaLrS_pad-38" x="712.559" y="-150"/><use xlink:href="#Mmi-ZQR2q9-IKVsPaLrS_pad-38" x="617.441" y="-100"/><use xlink:href="#Mmi-ZQR2q9-IKVsPaLrS_pad-38" x="672.559" y="-100"/><use xlink:href="#Mmi-ZQR2q9-IKVsPaLrS_pad-38" x="1164.334" y="-160"/><use xlink:href="#Mmi-ZQR2q9-IKVsPaLrS_pad-38" x="1109.216" y="-160"/><use xlink:href="#Mmi-ZQR2q9-IKVsPaLrS_pad-39" x="297.599" y="0"/><use xlink:href="#Mmi-ZQR2q9-IKVsPaLrS_pad-39" x="372.402" y="25.59"/><use xlink:href="#Mmi-ZQR2q9-IKVsPaLrS_pad-39" x="372.402" y="-25.591"/><use xlink:href="#Mmi-ZQR2q9-IKVsPaLrS_pad-39" x="572.598" y="-209.409"/><use xlink:href="#Mmi-ZQR2q9-IKVsPaLrS_pad-39" x="572.598" y="-260.591"/><use xlink:href="#Mmi-ZQR2q9-IKVsPaLrS_pad-39" x="647.402" y="-235"/><use xlink:href="#Mmi-ZQR2q9-IKVsPaLrS_pad-40" x="780" y="-272.441"/><use xlink:href="#Mmi-ZQR2q9-IKVsPaLrS_pad-40" x="780" y="-327.559"/><use xlink:href="#Mmi-ZQR2q9-IKVsPaLrS_pad-40" x="710" y="-257.559"/><use xlink:href="#Mmi-ZQR2q9-IKVsPaLrS_pad-40" x="710" y="-202.441"/><use xlink:href="#Mmi-ZQR2q9-IKVsPaLrS_pad-40" x="835" y="147.441"/><use xlink:href="#Mmi-ZQR2q9-IKVsPaLrS_pad-40" x="835" y="202.559"/><use xlink:href="#Mmi-ZQR2q9-IKVsPaLrS_pad-40" x="425" y="-35.591"/><use xlink:href="#Mmi-ZQR2q9-IKVsPaLrS_pad-40" x="425" y="-90.709"/><use xlink:href="#Mmi-ZQR2q9-IKVsPaLrS_pad-40" x="425" y="90.709"/><use xlink:href="#Mmi-ZQR2q9-IKVsPaLrS_pad-40" x="425" y="35.59"/><use xlink:href="#Mmi-ZQR2q9-IKVsPaLrS_pad-41" x="903.425" y="-100"/><use xlink:href="#Mmi-ZQR2q9-IKVsPaLrS_pad-41" x="956.575" y="-100"/><use xlink:href="#Mmi-ZQR2q9-IKVsPaLrS_pad-41" x="671.575" y="160"/><use xlink:href="#Mmi-ZQR2q9-IKVsPaLrS_pad-41" x="618.425" y="160"/><use xlink:href="#Mmi-ZQR2q9-IKVsPaLrS_pad-42" x="661.535" y="-38.386"/><use xlink:href="#Mmi-ZQR2q9-IKVsPaLrS_pad-42" x="661.535" y="-12.795"/><use xlink:href="#Mmi-ZQR2q9-IKVsPaLrS_pad-42" x="661.535" y="12.795"/><use xlink:href="#Mmi-ZQR2q9-IKVsPaLrS_pad-42" x="661.535" y="38.386"/><use xlink:href="#Mmi-ZQR2q9-IKVsPaLrS_pad-42" x="488.307" y="-38.386"/><use xlink:href="#Mmi-ZQR2q9-IKVsPaLrS_pad-42" x="488.307" y="-12.795"/><use xlink:href="#Mmi-ZQR2q9-IKVsPaLrS_pad-42" x="488.307" y="12.795"/><use xlink:href="#Mmi-ZQR2q9-IKVsPaLrS_pad-42" x="488.307" y="38.386"/><use xlink:href="#Mmi-ZQR2q9-IKVsPaLrS_pad-43" x="965" y="48.425"/><use xlink:href="#Mmi-ZQR2q9-IKVsPaLrS_pad-43" x="965" y="101.575"/><use xlink:href="#Mmi-ZQR2q9-IKVsPaLrS_pad-43" x="1072.481" y="137.051"/><use xlink:href="#Mmi-ZQR2q9-IKVsPaLrS_pad-43" x="1072.481" y="74.059"/><use xlink:href="#Mmi-ZQR2q9-IKVsPaLrS_pad-44" x="1053.504" y="200"/><use xlink:href="#Mmi-ZQR2q9-IKVsPaLrS_pad-44" x="1116.496" y="200"/><use xlink:href="#Mmi-ZQR2q9-IKVsPaLrS_pad-45" x="214.567" y="92.52"/><use xlink:href="#Mmi-ZQR2q9-IKVsPaLrS_pad-45" x="214.567" y="391.732"/><use xlink:href="#Mmi-ZQR2q9-IKVsPaLrS_pad-45" x="214.567" y="-391.732"/><use xlink:href="#Mmi-ZQR2q9-IKVsPaLrS_pad-45" x="214.567" y="-92.52"/><use xlink:href="#Mmi-ZQR2q9-IKVsPaLrS_pad-46" x="141.732" y="153.543"/><use xlink:href="#Mmi-ZQR2q9-IKVsPaLrS_pad-46" x="287.402" y="212.599"/><use xlink:href="#Mmi-ZQR2q9-IKVsPaLrS_pad-46" x="141.732" y="271.654"/><use xlink:href="#Mmi-ZQR2q9-IKVsPaLrS_pad-46" x="141.732" y="-330.709"/><use xlink:href="#Mmi-ZQR2q9-IKVsPaLrS_pad-46" x="287.402" y="-271.654"/><use xlink:href="#Mmi-ZQR2q9-IKVsPaLrS_pad-46" x="141.732" y="-212.598"/><use xlink:href="#Mmi-ZQR2q9-IKVsPaLrS_pad-47" x="287.402" y="330.709"/><use xlink:href="#Mmi-ZQR2q9-IKVsPaLrS_pad-47" x="287.402" y="-153.543"/></g></svg>