<svg version="1.1" xmlns="http://www.w3.org/2000/svg" xmlns:xlink="http://www.w3.org/1999/xlink" stroke-linecap="round" stroke-linejoin="round" stroke-width="0" fill-rule="evenodd" width="0.9444185in" height="0.8327709999999999in" viewBox="118.0625 -416.3855 944.4185 832.771" id="Ve8rjZyYBqYDdTTmBBh5"><defs><rect x="-10" y="-23.555" width="20" height="47.11" id="Ve8rjZyYBqYDdTTmBBh5_pad-31"/><circle cx="0" cy="0" r="24.6535" id="Ve8rjZyYBqYDdTTmBBh5_pad-45"/><circle cx="0" cy="0" r="23.6695" id="Ve8rjZyYBqYDdTTmBBh5_pad-46"/><rect x="-23.6695" y="-23.6695" width="47.339" height="47.339" id="Ve8rjZyYBqYDdTTmBBh5_pad-47"/></defs><g transform="translate(0,0) scale(1,-1)" fill="currentColor" stroke="currentColor"><use xlink:href="#Ve8rjZyYBqYDdTTmBBh5_pad-31" x="1002.481" y="-100.555"/><use xlink:href="#Ve8rjZyYBqYDdTTmBBh5_pad-31" x="952.481" y="-100.555"/><use xlink:href="#Ve8rjZyYBqYDdTTmBBh5_pad-31" x="902.481" y="-100.555"/><use xlink:href="#Ve8rjZyYBqYDdTTmBBh5_pad-31" x="1052.481" y="-100.555"/><use xlink:href="#Ve8rjZyYBqYDdTTmBBh5_pad-31" x="1052.481" y="100.555"/><use xlink:href="#Ve8rjZyYBqYDdTTmBBh5_pad-31" x="1002.481" y="100.555"/><use xlink:href="#Ve8rjZyYBqYDdTTmBBh5_pad-31" x="952.481" y="100.555"/><use xlink:href="#Ve8rjZyYBqYDdTTmBBh5_pad-31" x="902.481" y="100.555"/><use xlink:href="#Ve8rjZyYBqYDdTTmBBh5_pad-45" x="214.567" y="92.52"/><use xlink:href="#Ve8rjZyYBqYDdTTmBBh5_pad-45" x="214.567" y="391.732"/><use xlink:href="#Ve8rjZyYBqYDdTTmBBh5_pad-45" x="214.567" y="-391.732"/><use xlink:href="#Ve8rjZyYBqYDdTTmBBh5_pad-45" x="214.567" y="-92.52"/><use xlink:href="#Ve8rjZyYBqYDdTTmBBh5_pad-46" x="141.732" y="153.543"/><use xlink:href="#Ve8rjZyYBqYDdTTmBBh5_pad-46" x="287.402" y="212.599"/><use xlink:href="#Ve8rjZyYBqYDdTTmBBh5_pad-46" x="141.732" y="271.654"/><use xlink:href="#Ve8rjZyYBqYDdTTmBBh5_pad-46" x="141.732" y="-330.709"/><use xlink:href="#Ve8rjZyYBqYDdTTmBBh5_pad-46" x="287.402" y="-271.654"/><use xlink:href="#Ve8rjZyYBqYDdTTmBBh5_pad-46" x="141.732" y="-212.598"/><use xlink:href="#Ve8rjZyYBqYDdTTmBBh5_pad-47" x="287.402" y="330.709"/><use xlink:href="#Ve8rjZyYBqYDdTTmBBh5_pad-47" x="287.402" y="-153.543"/></g></svg>