<svg version="1.1" xmlns="http://www.w3.org/2000/svg" xmlns:xlink="http://www.w3.org/1999/xlink" stroke-linecap="round" stroke-linejoin="round" stroke-width="0" fill-rule="evenodd" width="1.38951in" height="0.8344239999999999in" viewBox="12.042 -417.323 1389.51 834.424" id="FnquHM8QHgO3mM1mSR4i"><defs><mask id="FnquHM8QHgO3mM1mSR4i_clear-1" fill="#000" stroke="#000"><g><rect x="12.042" y="-417.101" width="1389.51" height="834.202" fill="#fff"/><path d="M 1067.481 101.775 1042.796 101.775 1042.796 79.059 1067.481 79.059 1067.481 101.775"/><path d="M 1067.481 69.059 1042.796 69.059 1042.796 46.343 1067.481 46.343 1067.481 69.059"/><path d="M 1188.114 -68.543 1169.335 -68.543 1169.335 -91.26 1188.114 -91.26 1188.114 -68.543"/><path d="M 1159.335 -68.543 1140.555 -68.543 1140.555 -91.26 1159.335 -91.26 1159.335 -68.543"/><path d="M 1188.114 -101.26 1169.335 -101.26 1169.335 -123.976 1188.114 -123.976 1188.114 -101.26"/><path d="M 1159.335 -101.26 1140.555 -101.26 1140.555 -123.976 1159.335 -123.976 1159.335 -101.26"/><path d="M 1132.996 -132.284 1085.437 -132.284 1085.437 -145.743 1080.437 -145.905 1077.355 -142.823 1069.339 -139.503 1060.661 -139.503 1052.645 -142.823 1046.509 -148.959 1043.189 -156.975 1043.189 -165.652 1046.509 -173.669 1052.645 -179.804 1060.661 -183.125 1069.339 -183.125 1077.355 -179.804 1080.437 -176.722 1085.437 -176.885 1085.437 -187.716 1132.996 -187.716 1132.996 -132.284"/><path d="M 1188.114 -132.284 1169.335 -132.284 1169.335 -155 1188.114 -155 1188.114 -132.284"/><path d="M 1159.335 -132.284 1140.555 -132.284 1140.555 -155 1159.335 -155 1159.335 -132.284"/><path d="M 1188.114 -165 1169.335 -165 1169.335 -187.716 1188.114 -187.716 1188.114 -165"/><path d="M 1159.335 -165 1140.555 -165 1140.555 -187.716 1159.335 -187.716 1159.335 -165"/><path d="M 145.77 302.323 137.695 302.323 129.894 300.233 122.901 296.195 117.191 290.485 113.153 283.491 111.063 275.691 111.063 267.616 113.153 259.816 117.191 252.822 122.901 247.112 129.894 243.074 137.695 240.984 145.77 240.984 153.57 243.074 160.564 247.112 166.274 252.822 170.311 259.816 172.402 267.616 172.402 275.691 170.311 283.491 166.274 290.485 160.564 296.195 153.57 300.233 145.77 302.323"/><path d="M 145.77 184.213 137.695 184.213 129.894 182.123 122.901 178.085 117.191 172.375 113.153 165.381 111.063 157.581 111.063 149.506 113.153 141.705 117.191 134.712 122.901 129.002 129.894 124.964 137.695 122.874 145.77 122.874 153.57 124.964 160.564 129.002 166.274 134.712 170.311 141.705 172.402 149.506 172.402 157.581 170.311 165.381 166.274 172.375 160.564 178.085 153.57 182.123 145.77 184.213"/><path d="M 452.716 -66.929 397.284 -66.929 397.284 -66.98 393.126 -69.758 389.339 -68.189 380.661 -68.189 372.645 -71.51 366.51 -77.645 363.189 -85.662 363.189 -94.338 366.51 -102.355 372.645 -108.49 380.661 -111.811 389.339 -111.811 393.126 -110.242 397.284 -113.02 397.284 -114.488 452.716 -114.488 452.716 -67.716 452.716 -66.929"/></g></mask><rect x="-13.7795" y="-17.7165" width="27.559" height="35.433" id="FnquHM8QHgO3mM1mSR4i_pad-10"/><rect x="-19.685" y="-35.433" width="39.37" height="70.866" id="FnquHM8QHgO3mM1mSR4i_pad-11"/><rect x="-18.701" y="-18.701" width="37.402" height="37.402" id="FnquHM8QHgO3mM1mSR4i_pad-12"/><rect x="-17.7165" y="-13.7795" width="35.433" height="27.559" id="FnquHM8QHgO3mM1mSR4i_pad-13"/><rect x="-17.7165" y="-13.7795" width="35.433" height="27.559" id="FnquHM8QHgO3mM1mSR4i_pad-14"/><rect x="-8.5" y="-26.25" width="17" height="52.5" id="FnquHM8QHgO3mM1mSR4i_pad-15"/><rect x="-17.7165" y="-19.685" width="35.433" height="39.37" id="FnquHM8QHgO3mM1mSR4i_pad-16"/><polygon points="32.5,20 17.5,0 32.5,-20 -17.5,-20 -17.5,20" id="FnquHM8QHgO3mM1mSR4i_pad-17"/><polygon points="27.185,20 27.185,-20 -12.185,-20 -27.185,0 -12.185,20" id="FnquHM8QHgO3mM1mSR4i_pad-18"/><rect x="-43.307" y="-43.504" width="86.614" height="87.008" id="FnquHM8QHgO3mM1mSR4i_pad-19"/><g id="FnquHM8QHgO3mM1mSR4i_pad-20"><polygon points="26.5945,-8.858 26.5945,8.858 -26.5945,8.858 -26.5945,-8.858"/><polygon points="28.5435,-6.9095 28.5435,6.9095 -28.5435,6.9095 -28.5435,-6.9095"/><circle cx="26.594" cy="6.91" r="1.949"/><circle cx="26.594" cy="-6.91" r="1.949"/><circle cx="-26.594" cy="-6.91" r="1.949"/><circle cx="-26.594" cy="6.91" r="1.949"/></g><rect x="-23.6065" y="-12.8425" width="47.213" height="25.685" id="FnquHM8QHgO3mM1mSR4i_pad-21"/><rect x="-19.685" y="-17.7165" width="39.37" height="35.433" id="FnquHM8QHgO3mM1mSR4i_pad-22"/><rect x="-15.748" y="-15.748" width="31.496" height="31.496" id="FnquHM8QHgO3mM1mSR4i_pad-23"/><rect x="-35.433" y="-19.685" width="70.866" height="39.37" id="FnquHM8QHgO3mM1mSR4i_pad-24"/><circle cx="0" cy="0" r="21.6535" id="FnquHM8QHgO3mM1mSR4i_pad-27"/><circle cx="0" cy="0" r="20.6695" id="FnquHM8QHgO3mM1mSR4i_pad-28"/><rect x="-20.6695" y="-20.6695" width="41.339" height="41.339" id="FnquHM8QHgO3mM1mSR4i_pad-29"/><circle cx="0" cy="0" r="11.811" id="FnquHM8QHgO3mM1mSR4i_pad-30"/></defs><g transform="translate(0,-0.22199999999998) scale(1,-1)" fill="currentColor" stroke="currentColor"><g mask="url(#FnquHM8QHgO3mM1mSR4i_clear-1)"><path d="M 1038.771 413.942 1074.651 407.631 1109.846 398.216 1144.086 385.768 1177.111 370.382 1208.668 352.176 1238.518 331.288 1266.433 307.877 1292.201 282.122 1315.626 254.217 1336.528 224.378 1354.749 192.829 1370.15 159.813 1382.615 125.579 1392.047 90.388 1398.376 54.51 1401.552 18.217 1401.552 -18.216 1398.376 -54.51 1392.047 -90.389 1382.615 -125.579 1370.151 -159.812 1354.749 -192.83 1336.528 -224.379 1315.625 -254.218 1292.2 -282.123 1266.433 -307.877 1238.518 -331.288 1208.668 -352.176 1177.111 -370.382 1144.086 -385.768 1109.846 -398.216 1074.652 -407.631 1038.77 -413.942 1002.474 -417.101 984.258 -417.092 984.255 -417.093 984.252 -417.092 509.462 -417.092 507.855 -412.357 511.114 -409.857 522.062 -398.909 531.487 -386.625 539.229 -373.217 545.153 -358.913 549.161 -343.958 551.182 -328.608 551.182 -313.125 549.161 -297.775 546.632 -288.337 549.676 -284.37 578.686 -284.37 632.69 -338.373 637.651 -341.689 643.504 -342.853 752.284 -342.853 752.284 -351.339 807.716 -351.339 807.716 -342.853 830.315 -342.853 830.315 -372.992 840.534 -372.992 841.51 -375.347 847.645 -381.483 855.662 -384.803 864.338 -384.803 872.355 -381.483 878.49 -375.347 879.466 -372.992 889.685 -372.992 889.685 -342.853 907.483 -342.853 913.336 -341.689 918.298 -338.373 963.295 -293.376 966.61 -288.414 967.775 -282.562 967.775 -253.032 970.971 -249.836 974.292 -241.819 974.292 -233.142 970.971 -225.126 964.836 -218.99 956.819 -215.67 948.142 -215.67 940.126 -218.99 933.99 -225.126 930.67 -233.142 930.67 -241.819 933.99 -249.836 937.187 -253.032 937.187 -276.227 901.148 -312.265 889.685 -312.265 889.685 -282.126 879.466 -282.126 878.49 -279.771 872.355 -273.635 864.338 -270.315 855.662 -270.315 847.645 -273.635 841.51 -279.771 840.534 -282.126 830.315 -282.126 830.315 -312.265 807.716 -312.265 807.716 -303.78 752.284 -303.78 752.284 -312.265 649.839 -312.265 600.315 -262.741 600.315 -238.189 600.315 -236.811 600.315 -236.811 600.315 -233.189 600.315 -233.189 600.315 -216.123 682.284 -216.123 682.284 -226.22 737.716 -226.22 737.716 -216.123 770.315 -216.123 770.315 -240.433 779.84 -240.433 782.311 -244.267 780.272 -248.661 759.507 -248.661 757.355 -246.51 749.338 -243.189 740.662 -243.189 737.716 -241.221 737.716 -233.78 682.284 -233.78 682.284 -281.339 730.493 -281.339 732.645 -283.49 740.662 -286.811 749.338 -286.811 752.284 -288.779 752.284 -296.221 807.716 -296.221 807.716 -250.845 812.355 -248.923 818.49 -242.788 819.466 -240.433 829.685 -240.433 829.685 -210.294 975 -210.294 980.853 -209.13 985.814 -205.814 999.818 -191.811 1004.338 -191.811 1012.355 -188.49 1018.49 -182.355 1021.811 -174.339 1021.811 -165.661 1018.49 -157.645 1012.355 -151.51 1004.338 -148.189 995.662 -148.189 987.645 -151.51 981.51 -157.645 978.189 -165.661 978.189 -170.182 968.665 -179.706 894.188 -179.706 889.29 -178.701 889.29 -144.939 890.325 -143.39 890.768 -141.162 892.996 -140.719 896.304 -138.509 904.932 -129.881 921.142 -129.881 922.127 -129.685 931.142 -129.685 931.142 -120.671 931.338 -119.685 931.338 -80.315 931.142 -79.329 931.142 -70.315 936.133 -70.294 1063.114 -70.294 1068.966 -69.13 1073.928 -65.814 1079.213 -60.53 1098.351 -60.53 1101.092 -65.258 1099.535 -68.543 1085.437 -68.543 1085.437 -123.976 1132.996 -123.976 1132.996 -88.958 1133.29 -87.48 1133.29 -41.299 1132.996 -39.821 1132.996 -4.803 1085.437 -4.803 1085.437 -29.942 1072.878 -29.942 1067.025 -31.106 1062.063 -34.422 1056.779 -39.706 1003.987 -39.706 1000.646 -34.706 1002.625 -29.929 1002.625 -21.252 999.304 -13.236 993.168 -7.1 985.152 -3.779 976.475 -3.779 968.459 -7.1 965.262 -10.296 839.081 -10.296 833.229 -11.461 828.267 -14.776 818.211 -24.832 815 -25.593 811.789 -24.832 801.733 -14.776 796.771 -11.461 790.919 -10.296 747.716 -10.296 747.716 -1.811 747.717 -1.811 747.717 1.811 747.716 1.811 747.716 10.297 790.918 10.297 790.919 10.296 796.771 11.461 801.733 14.776 811.789 24.832 815 25.593 818.211 24.832 828.267 14.776 833.229 11.461 839.081 10.297 894.448 10.297 897.645 7.1 905.662 3.78 914.338 3.78 922.355 7.1 928.49 13.236 931.811 21.252 931.811 29.929 928.49 37.945 922.355 44.081 914.338 47.401 905.662 47.401 897.645 44.081 894.448 40.884 845.416 40.884 843.089 43.212 843.089 51 871.885 51 871.885 123.5 876.345 124.804 920 124.804 923.902 125.58 927.21 127.79 930.366 130.947 934.985 129.033 934.985 92.061 935.315 90.404 935.315 73.858 994.685 73.858 994.685 85.712 996.216 88.003 996.992 91.904 996.992 163.204 996.216 167.106 994.005 170.414 987.21 177.209 987.21 177.21 983.902 179.42 980 180.196 978.307 180.196 974.405 179.42 971.097 177.21 970.62 176.495 946.299 176.495 942.397 175.719 940.65 174.551 938.902 175.719 935 176.495 931.101 176.495 931.101 213.505 935 213.505 938.902 214.281 942.21 216.491 944.42 219.799 945.196 223.701 945.196 239.706 1083.665 239.706 1093.004 230.367 1091.09 225.748 1090.748 225.748 1090.748 174.252 1100.279 174.252 1100.279 164.768 1075.362 164.768 1075.362 174.252 1079.252 174.252 1079.252 225.748 1027.756 225.748 1027.756 174.252 1044.774 174.252 1044.774 164.768 1042.796 164.768 1042.796 109.335 1100.279 109.335 1100.279 101.775 1077.481 101.775 1077.481 74.059 1077.481 46.343 1102.166 46.343 1102.166 46.342 1106.743 45.322 1140.243 11.822 1140.243 -24.645 1140.555 -26.212 1140.555 -60.236 1188.114 -60.236 1188.114 -4.803 1172.678 -4.803 1172.678 8.921 1177.678 10.819 1185.072 7.756 1193.748 7.756 1201.765 11.076 1207.9 17.212 1208.876 19.567 1219.095 19.567 1219.095 110.433 1208.876 110.433 1207.9 112.788 1201.765 118.924 1193.748 122.244 1185.072 122.244 1177.055 118.924 1170.919 112.788 1169.944 110.433 1159.725 110.433 1159.725 44.742 1155.106 42.829 1132.713 65.221 1132.713 174.252 1142.244 174.252 1142.244 225.748 1131.79 225.748 1131.79 228.504 1130.626 234.357 1127.311 239.318 1100.814 265.815 1095.853 269.13 1090 270.294 945.196 270.294 945.196 285 944.42 288.902 942.21 292.21 897.21 337.21 893.902 339.42 890 340.196 550.998 340.196 549.161 343.957 548.939 344.786 545.153 358.913 539.229 373.217 531.487 386.625 522.062 398.909 511.114 409.857 507.855 412.357 509.462 417.092 984.253 417.092 984.255 417.093 984.258 417.092 1002.474 417.101 1038.771 413.942"/><path d="M 358.288 412.357 355.029 409.857 344.081 398.909 334.656 386.625 326.914 373.217 322.656 362.937 318.071 361.378 318.071 361.378 318.071 361.378 256.732 361.378 256.732 326.083 252.831 325.307 249.523 323.096 246.579 320.153 242.31 318.385 237.69 318.385 233.421 320.153 230.153 323.421 228.385 327.69 228.385 330 227.609 333.902 225.399 337.21 222.091 339.42 218.189 340.196 145 340.196 141.098 339.42 137.791 337.21 17.79 217.209 17.042 216.09 12.042 217.607 12.042 417.092 188.091 417.092 190.162 412.092 189.238 411.168 185.071 403.95 182.913 395.9 182.913 387.565 185.071 379.514 189.238 372.297 195.131 366.403 202.349 362.236 210.4 360.079 218.734 360.079 226.785 362.236 234.003 366.403 239.896 372.297 244.063 379.514 246.22 387.565 246.22 395.9 244.063 403.95 239.896 411.168 238.972 412.092 241.043 417.092 356.681 417.092 358.288 412.357"/><path d="M 935 285 935 223.701 920.905 223.701 920.905 166.299 935 166.299 935 165.255 934.985 165.181 934.985 149.985 920 135 869.203 135 868.368 139.199 864.852 144.46 862.716 146.596 862.716 171.22 807.284 171.22 807.284 123.662 828.252 123.662 828.091 123.5 793.009 123.5 793.009 127.187 793.009 127.187 793.009 127.187 792.233 131.089 790.023 134.397 782.21 142.209 782.21 142.21 778.902 144.42 775 145.196 755 145.196 751.098 144.42 747.79 142.21 740.35 134.769 738.139 131.461 737.363 127.559 737.363 104.488 737.521 103.697 737.521 73.542 736.342 72.364 736.342 53.386 732.327 49.37 692.284 49.37 692.284 43.895 690.079 43.895 690.079 31.5 688.13 31.888 634.941 31.888 632.992 31.5 632.992 45.295 645 57.303 645 71.299 649.095 71.299 649.095 128.701 645 128.701 645 130.315 646.142 130.315 646.142 189.685 633.858 189.685 633.543 190 595 190 594.685 189.685 590.709 189.685 590.709 185.709 530.196 125.196 489.685 125.196 485.783 124.42 482.475 122.21 480.265 118.902 479.489 115 479.489 76.929 407.283 76.929 393.606 90.606 393.606 93.007 395.961 93.982 402.097 100.118 405.417 108.134 405.417 116.811 402.097 124.827 395.961 130.963 393.606 131.938 393.606 135.315 339.685 135.315 333.294 141.705 290 185 216.811 185 216.811 189.339 213.49 197.355 207.355 203.49 199.339 206.811 190.661 206.811 182.645 203.49 176.51 197.355 173.189 189.339 173.189 180.661 176.51 172.645 180 169.155 180 166.299 180 165.381 180 165.381 180 165.255 180 165.181 180 165.181 180 157.581 180 150 180 150 180 134.712 180 131.938 180 131.938 180 130.315 180 129.002 180 129.002 180 53.386 180 49.37 180 49.37 180 -10 180 -240 170 -250 100 -250 90 -240 90 -115 25 -50 25 210 145 330 218.189 330 218.189 325.661 221.51 317.645 227.645 311.51 235.661 308.189 244.339 308.189 252.355 311.51 256.732 315.887 256.732 300.039 258.834 297.938 316.961 297.938 316.982 297.775 320.989 282.819 326.914 268.515 334.656 255.107 344.081 242.824 355.029 231.876 367.312 222.45 380.721 214.709 395.025 208.784 409.98 204.777 425.33 202.756 440.813 202.756 456.163 204.777 471.118 208.784 485.422 214.709 498.831 222.45 511.114 231.876 522.062 242.824 531.487 255.107 539.229 268.515 545.153 282.819 549.161 297.775 551.182 313.125 551.182 320.866 551.182 328.608 550.998 330 890 330 935 285"/><path d="M 986.796 163.204 986.796 91.904 979.66 84.769 952.474 84.769 945.181 92.061 945.181 165.181 946.299 166.299 978.307 166.299 978.307 170 980 170 986.796 163.204"/><path d="M 201.579 194.847 204.847 191.579 206.615 187.31 206.615 185 207.391 181.098 209.601 177.79 212.909 175.58 216.811 174.804 285.776 174.804 332.475 128.106 332.475 128.105 335.783 125.895 339.684 125.119 386.136 125.119 386.397 124.729 389.704 122.519 390.186 122.319 393.453 119.052 395.221 114.783 395.221 110.162 393.453 105.893 390.186 102.626 389.704 102.426 386.397 100.216 384.187 96.908 383.41 93.007 383.41 90.606 384.187 86.704 386.397 83.397 386.397 83.396 397.284 72.51 397.284 66.929 406.298 66.929 407.283 66.733 479.489 66.733 483.01 67.433 485.783 65.58 489.685 64.804 515.752 64.804 516.557 64 516.557 58.836 514.902 57.478 461.713 57.478 457.717 56.683 456.745 57.025 452.716 59.37 452.716 59.37 452.716 59.37 397.284 59.37 397.284 49.37 344.685 49.37 344.685 45.056 342.33 44.081 336.195 37.945 332.874 29.929 332.874 21.252 336.195 13.236 342.33 7.1 343.856 6.468 344.685 1.811 344.685 -1.811 343.856 -6.468 342.33 -7.1 336.195 -13.236 332.874 -21.252 332.874 -29.929 336.195 -37.946 342.33 -44.081 344.685 -45.057 344.685 -49.37 397.284 -49.37 397.284 -59.37 452.716 -59.37 452.716 -38.524 452.716 -37.964 453.223 -37.625 459.418 -31.431 459.744 -31.496 461.713 -31.887 514.902 -31.887 516.557 -31.558 516.557 -64 515.752 -64.804 489.685 -64.804 485.783 -65.58 482.475 -67.79 480.999 -70 480.265 -71.098 479.489 -75 479.489 -115 480.005 -117.593 477.831 -121.435 476.718 -122.593 303.058 -122.593 301.644 -122.874 256.732 -122.874 256.732 -184.213 256.732 -184.213 258.469 -188.406 146.611 -300.265 145.77 -300.039 137.695 -300.039 129.894 -302.13 122.901 -306.167 117.191 -311.877 113.153 -318.871 111.063 -326.671 111.063 -334.746 113.153 -342.547 117.191 -349.54 122.901 -355.25 129.894 -359.288 137.695 -361.378 145.77 -361.378 153.57 -359.288 160.564 -355.25 166.274 -349.54 170.311 -342.547 172.402 -334.746 172.402 -326.671 170.512 -319.62 279.839 -210.294 378.866 -210.294 379.707 -215.294 367.312 -222.45 355.029 -231.876 344.081 -242.824 334.656 -255.107 326.914 -268.515 320.989 -282.819 316.982 -297.775 314.961 -313.125 314.961 -328.608 316.982 -343.958 320.989 -358.913 326.914 -373.217 334.656 -386.625 344.081 -398.909 355.029 -409.857 358.288 -412.357 356.68 -417.092 241.043 -417.092 238.972 -412.092 239.896 -411.167 244.063 -403.95 246.22 -395.899 246.22 -387.564 244.063 -379.514 239.896 -372.296 234.003 -366.403 226.785 -362.235 218.734 -360.078 210.4 -360.078 202.349 -362.235 195.131 -366.403 189.238 -372.296 185.071 -379.514 182.913 -387.564 182.913 -395.899 185.071 -403.95 189.238 -411.167 190.162 -412.092 188.091 -417.092 12.042 -417.092 12.042 -57.607 17.042 -56.09 17.79 -57.21 79.804 -119.223 79.804 -240 80.58 -243.902 82.79 -247.21 92.79 -257.21 96.098 -259.42 100 -260.196 170 -260.196 173.902 -259.42 177.209 -257.21 187.21 -247.209 189.42 -243.902 190.196 -240 190.196 -119.446 194.815 -117.533 195.131 -117.849 202.349 -122.016 210.4 -124.173 218.734 -124.173 226.785 -122.016 234.003 -117.849 239.896 -111.955 244.063 -104.737 246.22 -96.687 246.22 -88.352 244.063 -80.302 239.896 -73.084 234.003 -67.191 226.785 -63.023 218.734 -60.866 210.4 -60.866 202.349 -63.023 195.131 -67.191 194.815 -67.507 190.196 -65.593 190.196 -10 190.196 49.37 190.196 65.594 194.815 67.507 195.131 67.191 202.349 63.024 210.4 60.867 218.734 60.867 226.785 63.024 234.003 67.191 239.896 73.085 244.063 80.302 246.22 88.353 246.22 96.688 244.063 104.738 239.896 111.956 234.003 117.849 226.785 122.017 218.734 124.174 210.4 124.174 202.349 122.017 195.131 117.849 194.815 117.534 190.196 119.447 190.196 169.155 189.42 173.056 187.21 176.364 185.153 178.421 183.385 182.69 183.385 187.31 185.153 191.579 188.421 194.847 192.69 196.615 197.31 196.615 201.579 194.847"/><path d="M 632.275 179.804 633.858 179.489 635.946 179.489 635.946 134.764 635.58 134.217 634.804 130.315 634.804 128.701 635.58 124.799 637.79 121.491 638.899 120.751 638.899 79.249 637.79 78.509 635.58 75.201 634.804 71.299 634.804 61.526 628.922 55.644 626.326 53.91 623.686 49.958 623.228 47.657 617.931 45.883 596.53 67.284 596.58 67.79 598.79 71.098 599.566 75 599.566 115 598.79 118.902 596.58 122.21 593.272 124.42 589.37 125.196 551.686 125.196 549.48 129.646 549.461 129.809 549.47 130.051 597.918 178.499 598.79 179.804 632.275 179.804"/><path d="M 782.813 127.187 782.813 126.183 782.813 123.5 783.589 119.598 783.705 119.425 783.705 51 786.911 51 786.911 43.212 784.584 40.884 747.716 40.884 747.716 49.37 747.717 49.37 747.717 49.37 746.996 52.13 747.559 55.88 747.559 56.929 747.716 56.929 747.716 56.929 747.716 104.488 747.559 104.488 747.559 104.488 747.559 126.555 747.559 127.559 755 135 775 135 782.813 127.187"/><path d="M 616.843 3.713 617.9 3.007 617.9 -3.007 616.843 -3.713 555.752 -64.804 550 -64.804 547.464 -61.267 547.144 -60.203 547.144 -24.456 545.98 -18.603 542.665 -13.642 532.736 -3.713 531.679 -3.007 531.679 3.007 532.736 3.713 542.665 13.642 545.98 18.603 547.144 24.456 547.144 60.203 547.464 61.267 550 64.804 555.752 64.804 616.843 3.713"/><path d="M 881.2 -80.315 921.142 -80.315 921.142 -119.685 900.709 -119.685 889.095 -131.299 880.905 -131.299 880.905 -139.488 879.095 -141.299 879.095 -178.701 841.693 -178.701 841.693 -123.5 846.295 -123.5 846.295 -61 861.885 -61 881.2 -80.315"/><path d="M 544.805 -123.773 545.492 -124.015 546.098 -124.42 547.352 -124.669 548.558 -125.093 549.285 -125.054 550 -125.196 589.37 -125.196 593.31 -129.51 593.31 -137.609 594.545 -143.815 598.06 -149.076 600.108 -151.123 600.108 -154.339 603.428 -162.355 609.564 -168.49 617.58 -171.811 626.257 -171.811 629.504 -170.466 633.662 -173.244 633.662 -177.716 677.675 -177.716 677.886 -177.76 680.225 -183.344 678.936 -185.535 587.164 -185.535 531.825 -130.196 533.896 -125.196 539.685 -125.196 540.939 -124.947 542.215 -124.877 542.872 -124.562 543.587 -124.42 544.65 -123.709 544.705 -123.683 544.805 -123.773"/><path d="M 544.882 -186.511 544.882 -208.649 540.263 -210.563 513.885 -184.186 508.924 -180.87 503.071 -179.706 318.071 -179.706 318.071 -153.18 511.552 -153.18 544.882 -186.511"/></g><use xlink:href="#FnquHM8QHgO3mM1mSR4i_pad-10" x="1164.334" y="-32.519"/><use xlink:href="#FnquHM8QHgO3mM1mSR4i_pad-10" x="1109.216" y="-32.519"/><use xlink:href="#FnquHM8QHgO3mM1mSR4i_pad-10" x="1164.334" y="-96.26"/><use xlink:href="#FnquHM8QHgO3mM1mSR4i_pad-10" x="1109.216" y="-96.26"/><use xlink:href="#FnquHM8QHgO3mM1mSR4i_pad-10" x="657.441" y="-150"/><use xlink:href="#FnquHM8QHgO3mM1mSR4i_pad-10" x="712.559" y="-150"/><use xlink:href="#FnquHM8QHgO3mM1mSR4i_pad-10" x="617.441" y="-100"/><use xlink:href="#FnquHM8QHgO3mM1mSR4i_pad-10" x="672.559" y="-100"/><use xlink:href="#FnquHM8QHgO3mM1mSR4i_pad-10" x="1164.334" y="-160"/><use xlink:href="#FnquHM8QHgO3mM1mSR4i_pad-10" x="1109.216" y="-160"/><use xlink:href="#FnquHM8QHgO3mM1mSR4i_pad-11" x="860" y="-327.559"/><use xlink:href="#FnquHM8QHgO3mM1mSR4i_pad-11" x="800" y="-195"/><use xlink:href="#FnquHM8QHgO3mM1mSR4i_pad-11" x="1189.41" y="65"/><use xlink:href="#FnquHM8QHgO3mM1mSR4i_pad-12" x="900.394" y="195"/><use xlink:href="#FnquHM8QHgO3mM1mSR4i_pad-12" x="949.606" y="195"/><use xlink:href="#FnquHM8QHgO3mM1mSR4i_pad-12" x="860.394" y="-160"/><use xlink:href="#FnquHM8QHgO3mM1mSR4i_pad-12" x="909.606" y="-160"/><use xlink:href="#FnquHM8QHgO3mM1mSR4i_pad-12" x="669.606" y="100"/><use xlink:href="#FnquHM8QHgO3mM1mSR4i_pad-12" x="620.394" y="100"/><use xlink:href="#FnquHM8QHgO3mM1mSR4i_pad-13" x="720" y="80.709"/><use xlink:href="#FnquHM8QHgO3mM1mSR4i_pad-13" x="720" y="25.59"/><use xlink:href="#FnquHM8QHgO3mM1mSR4i_pad-13" x="780" y="-272.441"/><use xlink:href="#FnquHM8QHgO3mM1mSR4i_pad-13" x="780" y="-327.559"/><use xlink:href="#FnquHM8QHgO3mM1mSR4i_pad-13" x="710" y="-257.559"/><use xlink:href="#FnquHM8QHgO3mM1mSR4i_pad-13" x="710" y="-202.441"/><use xlink:href="#FnquHM8QHgO3mM1mSR4i_pad-13" x="835" y="147.441"/><use xlink:href="#FnquHM8QHgO3mM1mSR4i_pad-13" x="835" y="202.559"/><use xlink:href="#FnquHM8QHgO3mM1mSR4i_pad-13" x="425" y="-35.591"/><use xlink:href="#FnquHM8QHgO3mM1mSR4i_pad-13" x="425" y="-90.709"/><use xlink:href="#FnquHM8QHgO3mM1mSR4i_pad-13" x="720" y="-80.709"/><use xlink:href="#FnquHM8QHgO3mM1mSR4i_pad-13" x="720" y="-25.59"/><use xlink:href="#FnquHM8QHgO3mM1mSR4i_pad-13" x="425" y="90.709"/><use xlink:href="#FnquHM8QHgO3mM1mSR4i_pad-13" x="425" y="35.59"/><use xlink:href="#FnquHM8QHgO3mM1mSR4i_pad-14" x="297.599" y="0"/><use xlink:href="#FnquHM8QHgO3mM1mSR4i_pad-14" x="372.402" y="25.59"/><use xlink:href="#FnquHM8QHgO3mM1mSR4i_pad-14" x="372.402" y="-25.591"/><use xlink:href="#FnquHM8QHgO3mM1mSR4i_pad-14" x="572.598" y="-209.409"/><use xlink:href="#FnquHM8QHgO3mM1mSR4i_pad-14" x="572.598" y="-260.591"/><use xlink:href="#FnquHM8QHgO3mM1mSR4i_pad-14" x="647.402" y="-235"/><use xlink:href="#FnquHM8QHgO3mM1mSR4i_pad-15" x="853.385" y="-87.25"/><use xlink:href="#FnquHM8QHgO3mM1mSR4i_pad-15" x="827.795" y="-87.25"/><use xlink:href="#FnquHM8QHgO3mM1mSR4i_pad-15" x="802.205" y="-87.25"/><use xlink:href="#FnquHM8QHgO3mM1mSR4i_pad-15" x="776.615" y="-87.25"/><use xlink:href="#FnquHM8QHgO3mM1mSR4i_pad-15" x="776.615" y="87.25"/><use xlink:href="#FnquHM8QHgO3mM1mSR4i_pad-15" x="802.205" y="87.25"/><use xlink:href="#FnquHM8QHgO3mM1mSR4i_pad-15" x="827.795" y="87.25"/><use xlink:href="#FnquHM8QHgO3mM1mSR4i_pad-15" x="853.385" y="87.25"/><use xlink:href="#FnquHM8QHgO3mM1mSR4i_pad-16" x="903.425" y="-100"/><use xlink:href="#FnquHM8QHgO3mM1mSR4i_pad-16" x="956.575" y="-100"/><use xlink:href="#FnquHM8QHgO3mM1mSR4i_pad-16" x="671.575" y="160"/><use xlink:href="#FnquHM8QHgO3mM1mSR4i_pad-16" x="618.425" y="160"/><use xlink:href="#FnquHM8QHgO3mM1mSR4i_pad-17" x="507.185" y="95"/><use xlink:href="#FnquHM8QHgO3mM1mSR4i_pad-17" x="507.185" y="-95"/><use xlink:href="#FnquHM8QHgO3mM1mSR4i_pad-18" x="562.185" y="95"/><use xlink:href="#FnquHM8QHgO3mM1mSR4i_pad-18" x="562.185" y="-95"/><use xlink:href="#FnquHM8QHgO3mM1mSR4i_pad-19" x="56.417" y="0"/><use xlink:href="#FnquHM8QHgO3mM1mSR4i_pad-19" x="233.583" y="0"/><use xlink:href="#FnquHM8QHgO3mM1mSR4i_pad-20" x="661.535" y="-38.386"/><use xlink:href="#FnquHM8QHgO3mM1mSR4i_pad-20" x="661.535" y="-12.795"/><use xlink:href="#FnquHM8QHgO3mM1mSR4i_pad-20" x="661.535" y="12.795"/><use xlink:href="#FnquHM8QHgO3mM1mSR4i_pad-20" x="661.535" y="38.386"/><use xlink:href="#FnquHM8QHgO3mM1mSR4i_pad-20" x="488.307" y="-38.386"/><use xlink:href="#FnquHM8QHgO3mM1mSR4i_pad-20" x="488.307" y="-12.795"/><use xlink:href="#FnquHM8QHgO3mM1mSR4i_pad-20" x="488.307" y="12.795"/><use xlink:href="#FnquHM8QHgO3mM1mSR4i_pad-20" x="488.307" y="38.386"/><use xlink:href="#FnquHM8QHgO3mM1mSR4i_pad-21" x="360" y="177.528"/><use xlink:href="#FnquHM8QHgO3mM1mSR4i_pad-21" x="360" y="112.472"/><use xlink:href="#FnquHM8QHgO3mM1mSR4i_pad-22" x="965" y="48.425"/><use xlink:href="#FnquHM8QHgO3mM1mSR4i_pad-22" x="965" y="101.575"/><use xlink:href="#FnquHM8QHgO3mM1mSR4i_pad-22" x="1072.481" y="137.051"/><use xlink:href="#FnquHM8QHgO3mM1mSR4i_pad-22" x="1072.481" y="74.059"/><use xlink:href="#FnquHM8QHgO3mM1mSR4i_pad-23" x="1053.504" y="200"/><use xlink:href="#FnquHM8QHgO3mM1mSR4i_pad-23" x="1116.496" y="200"/><use xlink:href="#FnquHM8QHgO3mM1mSR4i_pad-24" x="660" y="260"/><use xlink:href="#FnquHM8QHgO3mM1mSR4i_pad-24" x="1070" y="-260"/><path d="M 800 -195 975 -195 M 372.402 25.591 410.002 25.591 411.222 26.811 M 442.409 26.811 454.692 14.527 M 521.922 14.527 531.851 24.456 M 411.222 26.811 442.409 26.811 M 454.692 14.527 521.922 14.527 M 507.185 95 531.851 70.335 M 531.851 24.456 531.851 70.335 M 531.851 -70.335 531.851 -24.456 M 507.185 -95 531.851 -70.335 M 562.185 -80 627.657 -14.527 M 562.185 -95 562.185 -80 M 562.185 80 627.657 14.528 M 562.185 80 562.185 95 M 557.917 -140 560 -140 M 554.727 -136.811 557.917 -140 M 1109.216 -96.26 1117.996 -87.48 M 1065 -161.314 1107.902 -161.314 1109.216 -160 M 905 -55 1063.114 -55 M 1072.878 -45.236 1100.437 -45.236 M 1063.114 -55 1072.878 -45.236 M 1100.437 -45.236 1109.216 -36.456 M 1117.996 -87.48 1117.996 -41.299 M 1109.216 -32.519 1117.996 -41.299 M 1109.216 -36.456 1109.216 -32.519 M 454.692 -14.527 521.922 -14.527 M 411.222 -26.811 442.409 -26.811 M 521.922 -14.527 531.851 -24.456 M 442.409 -26.811 454.692 -14.527 M 410.002 -25.591 411.222 -26.811 M 372.402 -25.591 410.002 -25.591 M 568.661 -260.591 576.535 -260.591 M 643.504 -327.559 780 -327.559 M 860 -327.559 907.483 -327.559 M 780 -327.559 860 -327.559 M 576.535 -260.591 643.504 -327.559 M 303.058 -137.887 517.887 -137.887 M 287.402 -153.543 303.058 -137.887 M 517.887 -137.887 580.829 -200.829 710 -200.829 M 572.598 -200.829 580.829 -200.829 M 566.687 -200.829 572.598 -200.829 M 566.488 -200.63 566.687 -200.829 M 572.598 -209.409 572.598 -200.829 M 907.483 -327.559 952.481 -282.562 952.481 -237.481 M 710 -200.829 794.171 -200.829 M 273.504 -195 503.071 -195 M 141.732 -326.772 273.504 -195 M 839.081 -25.59 980.814 -25.59 M 827.795 -36.877 839.081 -25.59 M 827.795 36.877 827.795 87.25 M 827.795 -87.25 827.795 -36.877 M 827.795 36.877 839.081 25.59 910 25.59 M 720 25.59 790.919 25.59 M 716.063 25.59 720 25.59 M 790.919 25.59 802.205 36.877 M 716.063 -25.59 790.919 -25.59 802.205 -36.877 M 802.205 -87.25 802.205 -36.877 M 802.205 36.877 802.205 87.25 M 627.657 14.528 659.803 14.528 M 661.535 -12.795 683.268 -12.795 685 -14.527 705 -14.527 716.063 -25.59 M 705 14.528 716.063 25.59 M 685 14.528 705 14.528 M 683.268 12.795 685 14.528 M 661.535 12.795 683.268 12.795 M 659.803 -14.527 661.535 -12.795 M 627.657 -14.527 659.803 -14.527 M 659.803 14.528 661.535 12.795 M 289.291 330.709 290 330 M 287.402 330.709 289.291 330.709 M 794.171 -200.829 800 -195 M 975 -195 1000 -170 M 503.071 -195 568.661 -260.591 M 1090 255 1116.496 228.504 M 869.843 255 1090 255 M 1060.068 149.464 1072.481 137.051 M 1053.504 200 1060.068 193.436 M 1060.068 149.464 1060.068 193.436 M 1116.496 200 1116.496 228.504 M 609 161.394 610.394 160" fill="none" stroke-width="10"/><path d="M 1116.496 58.504 1116.496 200 M 1156.46 -24.645 1156.46 18.54 M 1116.496 58.504 1156.46 18.54 M 1156.46 -24.645 1164.334 -32.519 M 838.937 147.441 853.385 132.993 M 853.385 87.25 853.385 132.993 M 835 147.441 838.937 147.441 M 720 80.709 720 125 M 745 -265 772.559 -265 M 717.441 -265 745 -265 M 710 -257.559 717.441 -265 M 772.559 -265 780 -272.441 M 720 -110.472 720 -80.709 M 609.528 -137.609 609.528 -102.087 M 621.919 -150 651.535 -150 M 607.441 -100 609.528 -102.087 M 609.528 -137.609 621.919 -150 M 651.535 -150 651.535 -150 651.536 -150 657.441 -150 M 749.765 -131.85 774.02 -107.594 M 743.519 -131.85 749.765 -131.85 M 712.559 -147.815 720.433 -139.941 735.429 -139.941 M 774.02 -107.594 774.02 -89.844 M 735.429 -139.941 743.519 -131.85 M 712.559 -150 712.559 -147.815 M 774.02 -89.844 776.615 -87.25 M 660 -97.441 660 -39.921 661.535 -38.386 M 660 -97.441 662.559 -100 M 385.354 -90.354 424.646 -90.354 425 -90.709 M 385 -90 385.354 -90.354" fill="none" stroke-width="11.811"/><use xlink:href="#FnquHM8QHgO3mM1mSR4i_pad-27" x="214.567" y="92.52"/><use xlink:href="#FnquHM8QHgO3mM1mSR4i_pad-27" x="214.567" y="391.732"/><use xlink:href="#FnquHM8QHgO3mM1mSR4i_pad-27" x="214.567" y="-391.732"/><use xlink:href="#FnquHM8QHgO3mM1mSR4i_pad-27" x="214.567" y="-92.52"/><use xlink:href="#FnquHM8QHgO3mM1mSR4i_pad-28" x="141.732" y="153.543"/><use xlink:href="#FnquHM8QHgO3mM1mSR4i_pad-28" x="287.402" y="212.599"/><use xlink:href="#FnquHM8QHgO3mM1mSR4i_pad-28" x="141.732" y="271.654"/><use xlink:href="#FnquHM8QHgO3mM1mSR4i_pad-28" x="141.732" y="-330.709"/><use xlink:href="#FnquHM8QHgO3mM1mSR4i_pad-28" x="287.402" y="-271.654"/><use xlink:href="#FnquHM8QHgO3mM1mSR4i_pad-28" x="141.732" y="-212.598"/><use xlink:href="#FnquHM8QHgO3mM1mSR4i_pad-29" x="287.402" y="330.709"/><use xlink:href="#FnquHM8QHgO3mM1mSR4i_pad-29" x="287.402" y="-153.543"/><use xlink:href="#FnquHM8QHgO3mM1mSR4i_pad-30" x="968.307" y="195"/><use xlink:href="#FnquHM8QHgO3mM1mSR4i_pad-30" x="465" y="-110"/><use xlink:href="#FnquHM8QHgO3mM1mSR4i_pad-30" x="560" y="-140"/><use xlink:href="#FnquHM8QHgO3mM1mSR4i_pad-30" x="831.084" y="0"/><use xlink:href="#FnquHM8QHgO3mM1mSR4i_pad-30" x="798.916" y="0"/><use xlink:href="#FnquHM8QHgO3mM1mSR4i_pad-30" x="1065" y="-161.314"/><use xlink:href="#FnquHM8QHgO3mM1mSR4i_pad-30" x="300" y="70"/><use xlink:href="#FnquHM8QHgO3mM1mSR4i_pad-30" x="195" y="185"/><use xlink:href="#FnquHM8QHgO3mM1mSR4i_pad-30" x="240" y="330"/><use xlink:href="#FnquHM8QHgO3mM1mSR4i_pad-30" x="610" y="130"/><use xlink:href="#FnquHM8QHgO3mM1mSR4i_pad-30" x="890" y="55"/><use xlink:href="#FnquHM8QHgO3mM1mSR4i_pad-30" x="861.885" y="-87.25"/><use xlink:href="#FnquHM8QHgO3mM1mSR4i_pad-30" x="861.885" y="-125"/><use xlink:href="#FnquHM8QHgO3mM1mSR4i_pad-30" x="905" y="-55"/><use xlink:href="#FnquHM8QHgO3mM1mSR4i_pad-30" x="720" y="125"/><use xlink:href="#FnquHM8QHgO3mM1mSR4i_pad-30" x="745" y="-265"/><use xlink:href="#FnquHM8QHgO3mM1mSR4i_pad-30" x="720" y="-110.472"/><use xlink:href="#FnquHM8QHgO3mM1mSR4i_pad-30" x="621.919" y="-150"/><use xlink:href="#FnquHM8QHgO3mM1mSR4i_pad-30" x="425" y="135"/><use xlink:href="#FnquHM8QHgO3mM1mSR4i_pad-30" x="385" y="-90"/><use xlink:href="#FnquHM8QHgO3mM1mSR4i_pad-30" x="464.528" y="-47.244"/><use xlink:href="#FnquHM8QHgO3mM1mSR4i_pad-30" x="425" y="0"/><use xlink:href="#FnquHM8QHgO3mM1mSR4i_pad-30" x="185" y="-330"/><use xlink:href="#FnquHM8QHgO3mM1mSR4i_pad-30" x="987.481" y="-252.481"/><use xlink:href="#FnquHM8QHgO3mM1mSR4i_pad-30" x="1035" y="-185"/><use xlink:href="#FnquHM8QHgO3mM1mSR4i_pad-30" x="505" y="-165"/><use xlink:href="#FnquHM8QHgO3mM1mSR4i_pad-30" x="450" y="-165"/><use xlink:href="#FnquHM8QHgO3mM1mSR4i_pad-30" x="395" y="-165"/><use xlink:href="#FnquHM8QHgO3mM1mSR4i_pad-30" x="340" y="-165"/><use xlink:href="#FnquHM8QHgO3mM1mSR4i_pad-30" x="768.115" y="61"/><use xlink:href="#FnquHM8QHgO3mM1mSR4i_pad-30" x="768.115" y="113.5"/><use xlink:href="#FnquHM8QHgO3mM1mSR4i_pad-30" x="500.54" y="-48.729"/><use xlink:href="#FnquHM8QHgO3mM1mSR4i_pad-30" x="755" y="-230.433"/><use xlink:href="#FnquHM8QHgO3mM1mSR4i_pad-30" x="755" y="-159.567"/><use xlink:href="#FnquHM8QHgO3mM1mSR4i_pad-30" x="905" y="-362.992"/><use xlink:href="#FnquHM8QHgO3mM1mSR4i_pad-30" x="905" y="-292.126"/><use xlink:href="#FnquHM8QHgO3mM1mSR4i_pad-30" x="860" y="-362.992"/><use xlink:href="#FnquHM8QHgO3mM1mSR4i_pad-30" x="860" y="-292.126"/><use xlink:href="#FnquHM8QHgO3mM1mSR4i_pad-30" x="555.236" y="0"/><use xlink:href="#FnquHM8QHgO3mM1mSR4i_pad-30" x="594.606" y="0"/><use xlink:href="#FnquHM8QHgO3mM1mSR4i_pad-30" x="980.814" y="-25.59"/><use xlink:href="#FnquHM8QHgO3mM1mSR4i_pad-30" x="1010.223" y="-5.59"/><use xlink:href="#FnquHM8QHgO3mM1mSR4i_pad-30" x="910" y="25.59"/><use xlink:href="#FnquHM8QHgO3mM1mSR4i_pad-30" x="356.614" y="-61.614"/><use xlink:href="#FnquHM8QHgO3mM1mSR4i_pad-30" x="356.596" y="61.596"/><use xlink:href="#FnquHM8QHgO3mM1mSR4i_pad-30" x="237.677" y="27.559"/><use xlink:href="#FnquHM8QHgO3mM1mSR4i_pad-30" x="237.677" y="-27.559"/><use xlink:href="#FnquHM8QHgO3mM1mSR4i_pad-30" x="902.481" y="208.165"/><use xlink:href="#FnquHM8QHgO3mM1mSR4i_pad-30" x="354.685" y="25.59"/><use xlink:href="#FnquHM8QHgO3mM1mSR4i_pad-30" x="354.685" y="-25.591"/><use xlink:href="#FnquHM8QHgO3mM1mSR4i_pad-30" x="869.843" y="255"/><use xlink:href="#FnquHM8QHgO3mM1mSR4i_pad-30" x="665.118" y="-235"/><use xlink:href="#FnquHM8QHgO3mM1mSR4i_pad-30" x="336.394" y="112.472"/><use xlink:href="#FnquHM8QHgO3mM1mSR4i_pad-30" x="383.606" y="112.472"/><use xlink:href="#FnquHM8QHgO3mM1mSR4i_pad-30" x="800" y="-159.567"/><use xlink:href="#FnquHM8QHgO3mM1mSR4i_pad-30" x="273.976" y="0"/><use xlink:href="#FnquHM8QHgO3mM1mSR4i_pad-30" x="800" y="-230.433"/><use xlink:href="#FnquHM8QHgO3mM1mSR4i_pad-30" x="61.26" y="-39.37"/><use xlink:href="#FnquHM8QHgO3mM1mSR4i_pad-30" x="61.26" y="39.37"/><use xlink:href="#FnquHM8QHgO3mM1mSR4i_pad-30" x="902.481" y="173.165"/><use xlink:href="#FnquHM8QHgO3mM1mSR4i_pad-30" x="1000" y="-170"/><use xlink:href="#FnquHM8QHgO3mM1mSR4i_pad-30" x="952.481" y="-237.481"/><use xlink:href="#FnquHM8QHgO3mM1mSR4i_pad-30" x="624.567" y="260"/><use xlink:href="#FnquHM8QHgO3mM1mSR4i_pad-30" x="695.433" y="260"/><use xlink:href="#FnquHM8QHgO3mM1mSR4i_pad-30" x="1189.41" y="100.433"/><use xlink:href="#FnquHM8QHgO3mM1mSR4i_pad-30" x="1189.41" y="29.567"/><use xlink:href="#FnquHM8QHgO3mM1mSR4i_pad-30" x="1034.567" y="-260"/><use xlink:href="#FnquHM8QHgO3mM1mSR4i_pad-30" x="1105.433" y="-260"/><use xlink:href="#FnquHM8QHgO3mM1mSR4i_pad-30" x="496.245" y="-260.369"/><use xlink:href="#FnquHM8QHgO3mM1mSR4i_pad-30" x="435" y="-235"/><use xlink:href="#FnquHM8QHgO3mM1mSR4i_pad-30" x="348.386" y="-321.614"/><use xlink:href="#FnquHM8QHgO3mM1mSR4i_pad-30" x="435" y="-405.512"/><use xlink:href="#FnquHM8QHgO3mM1mSR4i_pad-30" x="521.614" y="-321.614"/><use xlink:href="#FnquHM8QHgO3mM1mSR4i_pad-30" x="373.755" y="-260.369"/><use xlink:href="#FnquHM8QHgO3mM1mSR4i_pad-30" x="373.755" y="-382.86"/><use xlink:href="#FnquHM8QHgO3mM1mSR4i_pad-30" x="496.245" y="-382.86"/><use xlink:href="#FnquHM8QHgO3mM1mSR4i_pad-30" x="496.245" y="257.14"/><use xlink:href="#FnquHM8QHgO3mM1mSR4i_pad-30" x="373.755" y="257.14"/><use xlink:href="#FnquHM8QHgO3mM1mSR4i_pad-30" x="373.755" y="379.631"/><use xlink:href="#FnquHM8QHgO3mM1mSR4i_pad-30" x="521.614" y="318.386"/><use xlink:href="#FnquHM8QHgO3mM1mSR4i_pad-30" x="435" y="231.772"/><use xlink:href="#FnquHM8QHgO3mM1mSR4i_pad-30" x="348.386" y="318.386"/><use xlink:href="#FnquHM8QHgO3mM1mSR4i_pad-30" x="435" y="405"/><use xlink:href="#FnquHM8QHgO3mM1mSR4i_pad-30" x="496.245" y="379.631"/><use xlink:href="#FnquHM8QHgO3mM1mSR4i_pad-30" x="965" y="150"/></g></svg>