<svg version="1.1" xmlns="http://www.w3.org/2000/svg" xmlns:xlink="http://www.w3.org/1999/xlink" stroke-linecap="round" stroke-linejoin="round" stroke-width="0" fill-rule="evenodd" width="1.1959849999999999in" height="0.642677in" viewBox="13.11 -362.992 1195.985 642.677" id="_LMTohFZDo3UkpT9yWOd"><defs><rect x="-13.7795" y="-17.7165" width="27.559" height="35.433" id="_LMTohFZDo3UkpT9yWOd_pad-10"/><rect x="-19.685" y="-35.433" width="39.37" height="70.866" id="_LMTohFZDo3UkpT9yWOd_pad-11"/><rect x="-18.701" y="-18.701" width="37.402" height="37.402" id="_LMTohFZDo3UkpT9yWOd_pad-12"/><rect x="-17.7165" y="-13.7795" width="35.433" height="27.559" id="_LMTohFZDo3UkpT9yWOd_pad-13"/><rect x="-17.7165" y="-13.7795" width="35.433" height="27.559" id="_LMTohFZDo3UkpT9yWOd_pad-14"/><rect x="-8.5" y="-26.25" width="17" height="52.5" id="_LMTohFZDo3UkpT9yWOd_pad-15"/><rect x="-17.7165" y="-19.685" width="35.433" height="39.37" id="_LMTohFZDo3UkpT9yWOd_pad-16"/><rect x="-43.307" y="-43.504" width="86.614" height="87.008" id="_LMTohFZDo3UkpT9yWOd_pad-19"/><g id="_LMTohFZDo3UkpT9yWOd_pad-20"><polygon points="26.5945,-8.858 26.5945,8.858 -26.5945,8.858 -26.5945,-8.858"/><polygon points="28.5435,-6.9095 28.5435,6.9095 -28.5435,6.9095 -28.5435,-6.9095"/><circle cx="26.594" cy="6.91" r="1.949"/><circle cx="26.594" cy="-6.91" r="1.949"/><circle cx="-26.594" cy="-6.91" r="1.949"/><circle cx="-26.594" cy="6.91" r="1.949"/></g><rect x="-23.6065" y="-12.8425" width="47.213" height="25.685" id="_LMTohFZDo3UkpT9yWOd_pad-21"/><rect x="-19.685" y="-17.7165" width="39.37" height="35.433" id="_LMTohFZDo3UkpT9yWOd_pad-22"/><rect x="-15.748" y="-15.748" width="31.496" height="31.496" id="_LMTohFZDo3UkpT9yWOd_pad-23"/><rect x="-35.433" y="-19.685" width="70.866" height="39.37" id="_LMTohFZDo3UkpT9yWOd_pad-24"/></defs><g transform="translate(0,-83.30700000000002) scale(1,-1)" fill="currentColor" stroke="currentColor"><path d="M 589.37 -115 550 -115 535 -95 550 -75 589.37 -75 589.37 -115"/><path d="M 524.685 -95 539.685 -115 489.685 -115 489.685 -75 539.685 -75 524.685 -95"/><path d="M 589.37 75 550 75 535 95 550 115 589.37 115 589.37 75"/><path d="M 524.685 95 539.685 75 489.685 75 489.685 115 539.685 115 524.685 95"/><use xlink:href="#_LMTohFZDo3UkpT9yWOd_pad-10" x="1164.334" y="-32.519"/><use xlink:href="#_LMTohFZDo3UkpT9yWOd_pad-10" x="1109.216" y="-32.519"/><use xlink:href="#_LMTohFZDo3UkpT9yWOd_pad-10" x="1164.334" y="-96.26"/><use xlink:href="#_LMTohFZDo3UkpT9yWOd_pad-10" x="1109.216" y="-96.26"/><use xlink:href="#_LMTohFZDo3UkpT9yWOd_pad-10" x="657.441" y="-150"/><use xlink:href="#_LMTohFZDo3UkpT9yWOd_pad-10" x="712.559" y="-150"/><use xlink:href="#_LMTohFZDo3UkpT9yWOd_pad-10" x="617.441" y="-100"/><use xlink:href="#_LMTohFZDo3UkpT9yWOd_pad-10" x="672.559" y="-100"/><use xlink:href="#_LMTohFZDo3UkpT9yWOd_pad-10" x="1164.334" y="-160"/><use xlink:href="#_LMTohFZDo3UkpT9yWOd_pad-10" x="1109.216" y="-160"/><use xlink:href="#_LMTohFZDo3UkpT9yWOd_pad-11" x="860" y="-327.559"/><use xlink:href="#_LMTohFZDo3UkpT9yWOd_pad-11" x="800" y="-195"/><use xlink:href="#_LMTohFZDo3UkpT9yWOd_pad-11" x="1189.41" y="65"/><use xlink:href="#_LMTohFZDo3UkpT9yWOd_pad-12" x="900.394" y="195"/><use xlink:href="#_LMTohFZDo3UkpT9yWOd_pad-12" x="949.606" y="195"/><use xlink:href="#_LMTohFZDo3UkpT9yWOd_pad-12" x="860.394" y="-160"/><use xlink:href="#_LMTohFZDo3UkpT9yWOd_pad-12" x="909.606" y="-160"/><use xlink:href="#_LMTohFZDo3UkpT9yWOd_pad-12" x="669.606" y="100"/><use xlink:href="#_LMTohFZDo3UkpT9yWOd_pad-12" x="620.394" y="100"/><use xlink:href="#_LMTohFZDo3UkpT9yWOd_pad-13" x="720" y="80.709"/><use xlink:href="#_LMTohFZDo3UkpT9yWOd_pad-13" x="720" y="25.59"/><use xlink:href="#_LMTohFZDo3UkpT9yWOd_pad-13" x="780" y="-272.441"/><use xlink:href="#_LMTohFZDo3UkpT9yWOd_pad-13" x="780" y="-327.559"/><use xlink:href="#_LMTohFZDo3UkpT9yWOd_pad-13" x="710" y="-257.559"/><use xlink:href="#_LMTohFZDo3UkpT9yWOd_pad-13" x="710" y="-202.441"/><use xlink:href="#_LMTohFZDo3UkpT9yWOd_pad-13" x="835" y="147.441"/><use xlink:href="#_LMTohFZDo3UkpT9yWOd_pad-13" x="835" y="202.559"/><use xlink:href="#_LMTohFZDo3UkpT9yWOd_pad-13" x="425" y="-35.591"/><use xlink:href="#_LMTohFZDo3UkpT9yWOd_pad-13" x="425" y="-90.709"/><use xlink:href="#_LMTohFZDo3UkpT9yWOd_pad-13" x="720" y="-80.709"/><use xlink:href="#_LMTohFZDo3UkpT9yWOd_pad-13" x="720" y="-25.59"/><use xlink:href="#_LMTohFZDo3UkpT9yWOd_pad-13" x="425" y="90.709"/><use xlink:href="#_LMTohFZDo3UkpT9yWOd_pad-13" x="425" y="35.59"/><use xlink:href="#_LMTohFZDo3UkpT9yWOd_pad-14" x="297.599" y="0"/><use xlink:href="#_LMTohFZDo3UkpT9yWOd_pad-14" x="372.402" y="25.59"/><use xlink:href="#_LMTohFZDo3UkpT9yWOd_pad-14" x="372.402" y="-25.591"/><use xlink:href="#_LMTohFZDo3UkpT9yWOd_pad-14" x="572.598" y="-209.409"/><use xlink:href="#_LMTohFZDo3UkpT9yWOd_pad-14" x="572.598" y="-260.591"/><use xlink:href="#_LMTohFZDo3UkpT9yWOd_pad-14" x="647.402" y="-235"/><use xlink:href="#_LMTohFZDo3UkpT9yWOd_pad-15" x="853.385" y="-87.25"/><use xlink:href="#_LMTohFZDo3UkpT9yWOd_pad-15" x="827.795" y="-87.25"/><use xlink:href="#_LMTohFZDo3UkpT9yWOd_pad-15" x="802.205" y="-87.25"/><use xlink:href="#_LMTohFZDo3UkpT9yWOd_pad-15" x="776.615" y="-87.25"/><use xlink:href="#_LMTohFZDo3UkpT9yWOd_pad-15" x="776.615" y="87.25"/><use xlink:href="#_LMTohFZDo3UkpT9yWOd_pad-15" x="802.205" y="87.25"/><use xlink:href="#_LMTohFZDo3UkpT9yWOd_pad-15" x="827.795" y="87.25"/><use xlink:href="#_LMTohFZDo3UkpT9yWOd_pad-15" x="853.385" y="87.25"/><use xlink:href="#_LMTohFZDo3UkpT9yWOd_pad-16" x="903.425" y="-100"/><use xlink:href="#_LMTohFZDo3UkpT9yWOd_pad-16" x="956.575" y="-100"/><use xlink:href="#_LMTohFZDo3UkpT9yWOd_pad-16" x="671.575" y="160"/><use xlink:href="#_LMTohFZDo3UkpT9yWOd_pad-16" x="618.425" y="160"/><use xlink:href="#_LMTohFZDo3UkpT9yWOd_pad-19" x="56.417" y="0"/><use xlink:href="#_LMTohFZDo3UkpT9yWOd_pad-19" x="233.583" y="0"/><use xlink:href="#_LMTohFZDo3UkpT9yWOd_pad-20" x="661.535" y="-38.386"/><use xlink:href="#_LMTohFZDo3UkpT9yWOd_pad-20" x="661.535" y="-12.795"/><use xlink:href="#_LMTohFZDo3UkpT9yWOd_pad-20" x="661.535" y="12.795"/><use xlink:href="#_LMTohFZDo3UkpT9yWOd_pad-20" x="661.535" y="38.386"/><use xlink:href="#_LMTohFZDo3UkpT9yWOd_pad-20" x="488.307" y="-38.386"/><use xlink:href="#_LMTohFZDo3UkpT9yWOd_pad-20" x="488.307" y="-12.795"/><use xlink:href="#_LMTohFZDo3UkpT9yWOd_pad-20" x="488.307" y="12.795"/><use xlink:href="#_LMTohFZDo3UkpT9yWOd_pad-20" x="488.307" y="38.386"/><use xlink:href="#_LMTohFZDo3UkpT9yWOd_pad-21" x="360" y="177.528"/><use xlink:href="#_LMTohFZDo3UkpT9yWOd_pad-21" x="360" y="112.472"/><use xlink:href="#_LMTohFZDo3UkpT9yWOd_pad-22" x="965" y="48.425"/><use xlink:href="#_LMTohFZDo3UkpT9yWOd_pad-22" x="965" y="101.575"/><use xlink:href="#_LMTohFZDo3UkpT9yWOd_pad-22" x="1072.481" y="137.051"/><use xlink:href="#_LMTohFZDo3UkpT9yWOd_pad-22" x="1072.481" y="74.059"/><use xlink:href="#_LMTohFZDo3UkpT9yWOd_pad-23" x="1053.504" y="200"/><use xlink:href="#_LMTohFZDo3UkpT9yWOd_pad-23" x="1116.496" y="200"/><use xlink:href="#_LMTohFZDo3UkpT9yWOd_pad-24" x="660" y="260"/><use xlink:href="#_LMTohFZDo3UkpT9yWOd_pad-24" x="1070" y="-260"/></g></svg>