<svg version="1.1" xmlns="http://www.w3.org/2000/svg" xmlns:xlink="http://www.w3.org/1999/xlink" stroke-linecap="round" stroke-linejoin="round" stroke-width="0" fill-rule="evenodd" width="1.4135940499000001in" height="0.8582680998in" viewBox="0 -429.1340499 1413.5940499 858.2680998" id="Gj0ZqHWE0cMk-cvG9ZLo"><g transform="translate(0,0) scale(1,-1)" fill="currentColor" stroke="currentColor"><path d="M 434.689 -364.139 430.346 -364.22 421.795 -362.685 413.708 -359.511 406.395 -354.82 400.138 -348.793 395.177 -341.661 391.703 -333.698 389.849 -325.211 389.768 -320.867 389.768 -320.867 389.768 -316.603 391.432 -308.238 394.696 -300.358 399.434 -293.267 405.465 -287.236 412.557 -282.497 420.436 -279.234 428.801 -277.57 433.066 -277.57 433.072 -277.561 437.338 -277.561 445.704 -279.225 453.585 -282.49 460.678 -287.229 466.71 -293.261 471.449 -300.354 474.714 -308.235 476.378 -316.601 476.377 -320.867 476.378 -320.866 476.456 -325.05 474.977 -333.288 471.919 -341.079 467.4 -348.124 461.593 -354.151 454.722 -358.93 447.05 -362.276 438.873 -364.061 434.689 -364.139 434.689 -364.139"/><path d="M 434.689 277.594 430.346 277.512 421.795 279.047 413.708 282.221 406.395 286.912 400.138 292.939 395.177 300.071 391.703 308.034 389.849 316.522 389.768 320.865 389.768 320.865 389.768 325.13 391.432 333.495 394.696 341.374 399.434 348.466 405.465 354.497 412.557 359.235 420.436 362.499 428.801 364.162 433.066 364.162 433.072 364.171 437.338 364.171 445.704 362.507 453.585 359.243 460.678 354.504 466.71 348.472 471.449 341.379 474.714 333.498 476.378 325.131 476.377 320.866 476.378 320.866 476.456 316.682 474.977 308.444 471.919 300.653 467.4 293.609 461.593 287.581 454.722 282.803 447.05 279.456 438.873 277.671 434.689 277.594 434.689 277.594"/><path d="M 984.253 429.134 0 429.134 0 -429.134 984.253 -429.134 A 429.1340499 429.1340499 0 1 1 984.253 429.134" fill="none" stroke-width="1"/></g></svg>