<svg version="1.1" xmlns="http://www.w3.org/2000/svg" xmlns:xlink="http://www.w3.org/1999/xlink" stroke-linecap="round" stroke-linejoin="round" stroke-width="0" fill-rule="evenodd" width="48.650150000000004mm" height="47.603199999999994mm" viewBox="647 1398.4 48650.15 47603.2" id="_wOlwtAWC8P20Pl5TnyP"><defs><rect x="-678.1" y="-527.32" width="1356.2" height="1054.64" id="_wOlwtAWC8P20Pl5TnyP_pad-10"/><rect x="-527.32" y="-678.1" width="1054.64" height="1356.2" id="_wOlwtAWC8P20Pl5TnyP_pad-12"/><rect x="-750" y="-500" width="1500" height="1000" id="_wOlwtAWC8P20Pl5TnyP_pad-17"/><rect x="-475" y="-475" width="950" height="950" id="_wOlwtAWC8P20Pl5TnyP_pad-18"/><rect x="-475" y="-475" width="950" height="950" id="_wOlwtAWC8P20Pl5TnyP_pad-19"/><rect x="-326.2" y="-599.6" width="652.4" height="1199.2" id="_wOlwtAWC8P20Pl5TnyP_pad-22"/><rect x="-1875" y="-1375" width="3750" height="2750" id="_wOlwtAWC8P20Pl5TnyP_pad-24"/><rect x="-121.235" y="-365.535" width="242.47" height="731.07" id="_wOlwtAWC8P20Pl5TnyP_pad-25"/><g id="_wOlwtAWC8P20Pl5TnyP_pad-26"><polygon points="0,365.535 0,-365.535 0,-365.535 0,365.535"/><polygon points="121.235,244.295 121.235,-244.295 -121.235,-244.295 -121.235,244.295"/><circle cx="0" cy="-244.3" r="121.235"/><circle cx="0" cy="244.3" r="121.235"/><circle cx="0" cy="244.3" r="121.235"/><circle cx="0" cy="-244.3" r="121.235"/></g><g id="_wOlwtAWC8P20Pl5TnyP_pad-27"><polygon points="244.295,121.235 244.295,-121.235 -244.295,-121.235 -244.295,121.235"/><polygon points="365.535,0 365.535,0 -365.535,0 -365.535,0"/><circle cx="-244.3" cy="0" r="121.235"/><circle cx="-244.3" cy="0" r="121.235"/><circle cx="244.3" cy="0" r="121.235"/><circle cx="244.3" cy="0" r="121.235"/></g><rect x="-456.065" y="-429.36" width="912.13" height="858.72" id="_wOlwtAWC8P20Pl5TnyP_pad-28"/><rect x="-500" y="-900" width="1000" height="1800" id="_wOlwtAWC8P20Pl5TnyP_pad-30"/><rect x="-1150" y="-1250" width="2300" height="2500" id="_wOlwtAWC8P20Pl5TnyP_pad-31"/><rect x="-925" y="-2050" width="1850" height="4100" id="_wOlwtAWC8P20Pl5TnyP_pad-32"/><rect x="-429.36" y="-456.065" width="858.72" height="912.13" id="_wOlwtAWC8P20Pl5TnyP_pad-33"/><g id="_wOlwtAWC8P20Pl5TnyP_pad-34"><polygon points="249,550 249,-550 -249,-550 -249,550"/><polygon points="300,499 300,-499 -300,-499 -300,499"/><circle cx="-249" cy="-499" r="51"/><circle cx="-249" cy="499" r="51"/><circle cx="249" cy="499" r="51"/><circle cx="249" cy="-499" r="51"/></g><rect x="-599.6" y="-326.2" width="1199.2" height="652.4" id="_wOlwtAWC8P20Pl5TnyP_pad-35"/><rect x="-1250" y="-850" width="2500" height="1700" id="_wOlwtAWC8P20Pl5TnyP_pad-38"/><circle cx="0" cy="0" r="698.5" id="_wOlwtAWC8P20Pl5TnyP_pad-43"/><rect x="-551.6" y="-451.6" width="1103.2" height="903.2" id="_wOlwtAWC8P20Pl5TnyP_pad-66"/><rect x="-451.6" y="-551.6" width="903.2" height="1103.2" id="_wOlwtAWC8P20Pl5TnyP_pad-67"/><rect x="-551.6" y="-451.6" width="1103.2" height="903.2" id="_wOlwtAWC8P20Pl5TnyP_pad-68"/><rect x="-551.6" y="-601.6" width="1103.2" height="1203.2" id="_wOlwtAWC8P20Pl5TnyP_pad-69"/><rect x="-401.6" y="-476.6" width="803.2" height="953.2" id="_wOlwtAWC8P20Pl5TnyP_pad-70"/><rect x="-501.6" y="-501.6" width="1003.2" height="1003.2" id="_wOlwtAWC8P20Pl5TnyP_pad-71"/><rect x="-601.6" y="-551.6" width="1203.2" height="1103.2" id="_wOlwtAWC8P20Pl5TnyP_pad-72"/><rect x="-501.6" y="-501.6" width="1003.2" height="1003.2" id="_wOlwtAWC8P20Pl5TnyP_pad-73"/><rect x="-901.6" y="-1851.6" width="1803.2" height="3703.2" id="_wOlwtAWC8P20Pl5TnyP_pad-74"/><rect x="-851.6" y="-1701.6" width="1703.2" height="3403.2" id="_wOlwtAWC8P20Pl5TnyP_pad-75"/><rect x="-676.6" y="-1451.6" width="1353.2" height="2903.2" id="_wOlwtAWC8P20Pl5TnyP_pad-76"/><circle cx="0" cy="0" r="3601.6" id="_wOlwtAWC8P20Pl5TnyP_pad-77"/><circle cx="0" cy="0" r="751.6" id="_wOlwtAWC8P20Pl5TnyP_pad-78"/><rect x="-751.6" y="-751.6" width="1503.2" height="1503.2" id="_wOlwtAWC8P20Pl5TnyP_pad-79"/><g id="_wOlwtAWC8P20Pl5TnyP_pad-80"><rect x="-901.6" y="-400" width="1803.2" height="800"/><rect x="-400" y="-901.6" width="800" height="1803.2"/><circle cx="400" cy="-400" r="501.6"/><circle cx="-400" cy="-400" r="501.6"/><circle cx="-400" cy="400" r="501.6"/><circle cx="400" cy="400" r="501.6"/></g><circle cx="0" cy="0" r="901.6" id="_wOlwtAWC8P20Pl5TnyP_pad-81"/><rect x="-601.2" y="-601.2" width="1202.4" height="1202.4" id="_wOlwtAWC8P20Pl5TnyP_pad-82"/><circle cx="0" cy="0" r="601.2" id="_wOlwtAWC8P20Pl5TnyP_pad-83"/><circle cx="0" cy="0" r="626.2" id="_wOlwtAWC8P20Pl5TnyP_pad-84"/></defs><g transform="translate(0,50400) scale(1,-1)" fill="currentColor" stroke="currentColor"><use xlink:href="#_wOlwtAWC8P20Pl5TnyP_pad-10" x="9621" y="46574.22"/><use xlink:href="#_wOlwtAWC8P20Pl5TnyP_pad-10" x="9621" y="48025.78"/><use xlink:href="#_wOlwtAWC8P20Pl5TnyP_pad-10" x="9821" y="3392.79"/><use xlink:href="#_wOlwtAWC8P20Pl5TnyP_pad-10" x="9821" y="1941.23"/><use xlink:href="#_wOlwtAWC8P20Pl5TnyP_pad-10" x="40179" y="46555"/><use xlink:href="#_wOlwtAWC8P20Pl5TnyP_pad-10" x="40179" y="48006.56"/><use xlink:href="#_wOlwtAWC8P20Pl5TnyP_pad-12" x="46606.35" y="9834.23"/><use xlink:href="#_wOlwtAWC8P20Pl5TnyP_pad-12" x="48057.91" y="9834.23"/><use xlink:href="#_wOlwtAWC8P20Pl5TnyP_pad-17" x="1397" y="30183.02"/><use xlink:href="#_wOlwtAWC8P20Pl5TnyP_pad-17" x="1397" y="27982.98"/><use xlink:href="#_wOlwtAWC8P20Pl5TnyP_pad-17" x="45085" y="27628.95"/><use xlink:href="#_wOlwtAWC8P20Pl5TnyP_pad-17" x="45085" y="29829"/><use xlink:href="#_wOlwtAWC8P20Pl5TnyP_pad-18" x="47370.55" y="30083"/><use xlink:href="#_wOlwtAWC8P20Pl5TnyP_pad-18" x="48620.55" y="30083"/><use xlink:href="#_wOlwtAWC8P20Pl5TnyP_pad-18" x="3374.99" y="30183.02"/><use xlink:href="#_wOlwtAWC8P20Pl5TnyP_pad-18" x="4624.99" y="30183.02"/><use xlink:href="#_wOlwtAWC8P20Pl5TnyP_pad-18" x="6732.94" y="15507.01"/><use xlink:href="#_wOlwtAWC8P20Pl5TnyP_pad-18" x="5482.94" y="15507.01"/><use xlink:href="#_wOlwtAWC8P20Pl5TnyP_pad-19" x="45085" y="26279"/><use xlink:href="#_wOlwtAWC8P20Pl5TnyP_pad-19" x="45085" y="25029"/><use xlink:href="#_wOlwtAWC8P20Pl5TnyP_pad-19" x="6400.03" y="27732.98"/><use xlink:href="#_wOlwtAWC8P20Pl5TnyP_pad-19" x="6400.03" y="28982.98"/><use xlink:href="#_wOlwtAWC8P20Pl5TnyP_pad-19" x="6713.46" y="17069.46"/><use xlink:href="#_wOlwtAWC8P20Pl5TnyP_pad-19" x="6713.46" y="18319.49"/><use xlink:href="#_wOlwtAWC8P20Pl5TnyP_pad-19" x="11638.33" y="16632.01"/><use xlink:href="#_wOlwtAWC8P20Pl5TnyP_pad-19" x="11638.33" y="17882"/><use xlink:href="#_wOlwtAWC8P20Pl5TnyP_pad-22" x="18850.46" y="41054.71"/><use xlink:href="#_wOlwtAWC8P20Pl5TnyP_pad-22" x="17198.06" y="41054.71"/><use xlink:href="#_wOlwtAWC8P20Pl5TnyP_pad-22" x="32431.1" y="31456.37"/><use xlink:href="#_wOlwtAWC8P20Pl5TnyP_pad-22" x="30778.72" y="31456.37"/><use xlink:href="#_wOlwtAWC8P20Pl5TnyP_pad-24" x="15966.12" y="36189.08"/><use xlink:href="#_wOlwtAWC8P20Pl5TnyP_pad-24" x="33663.03" y="36322"/><use xlink:href="#_wOlwtAWC8P20Pl5TnyP_pad-25" x="17216.12" y="38079.61"/><use xlink:href="#_wOlwtAWC8P20Pl5TnyP_pad-25" x="32412.99" y="34431.48"/><use xlink:href="#_wOlwtAWC8P20Pl5TnyP_pad-26" x="16716.12" y="38079.61"/><use xlink:href="#_wOlwtAWC8P20Pl5TnyP_pad-26" x="16216.12" y="38079.61"/><use xlink:href="#_wOlwtAWC8P20Pl5TnyP_pad-26" x="15716.12" y="38079.61"/><use xlink:href="#_wOlwtAWC8P20Pl5TnyP_pad-26" x="15216.12" y="38079.61"/><use xlink:href="#_wOlwtAWC8P20Pl5TnyP_pad-26" x="14716.12" y="38079.61"/><use xlink:href="#_wOlwtAWC8P20Pl5TnyP_pad-26" x="14716.12" y="34298.55"/><use xlink:href="#_wOlwtAWC8P20Pl5TnyP_pad-26" x="15216.12" y="34298.55"/><use xlink:href="#_wOlwtAWC8P20Pl5TnyP_pad-26" x="15716.12" y="34298.55"/><use xlink:href="#_wOlwtAWC8P20Pl5TnyP_pad-26" x="16216.12" y="34298.55"/><use xlink:href="#_wOlwtAWC8P20Pl5TnyP_pad-26" x="16716.12" y="34298.55"/><use xlink:href="#_wOlwtAWC8P20Pl5TnyP_pad-26" x="17216.12" y="34298.55"/><use xlink:href="#_wOlwtAWC8P20Pl5TnyP_pad-26" x="32412.99" y="38212.52"/><use xlink:href="#_wOlwtAWC8P20Pl5TnyP_pad-26" x="32913.02" y="38212.52"/><use xlink:href="#_wOlwtAWC8P20Pl5TnyP_pad-26" x="33412.99" y="38212.52"/><use xlink:href="#_wOlwtAWC8P20Pl5TnyP_pad-26" x="33913.01" y="38212.52"/><use xlink:href="#_wOlwtAWC8P20Pl5TnyP_pad-26" x="34412.99" y="38212.52"/><use xlink:href="#_wOlwtAWC8P20Pl5TnyP_pad-26" x="34913.01" y="38212.52"/><use xlink:href="#_wOlwtAWC8P20Pl5TnyP_pad-26" x="34913.01" y="34431.48"/><use xlink:href="#_wOlwtAWC8P20Pl5TnyP_pad-26" x="34412.99" y="34431.48"/><use xlink:href="#_wOlwtAWC8P20Pl5TnyP_pad-26" x="33913.01" y="34431.48"/><use xlink:href="#_wOlwtAWC8P20Pl5TnyP_pad-26" x="33412.99" y="34431.48"/><use xlink:href="#_wOlwtAWC8P20Pl5TnyP_pad-26" x="32913.02" y="34431.48"/><use xlink:href="#_wOlwtAWC8P20Pl5TnyP_pad-27" x="13575.59" y="36939.08"/><use xlink:href="#_wOlwtAWC8P20Pl5TnyP_pad-27" x="13575.59" y="36439.08"/><use xlink:href="#_wOlwtAWC8P20Pl5TnyP_pad-27" x="13575.59" y="35939.08"/><use xlink:href="#_wOlwtAWC8P20Pl5TnyP_pad-27" x="13575.59" y="35439.08"/><use xlink:href="#_wOlwtAWC8P20Pl5TnyP_pad-27" x="18356.66" y="35439.08"/><use xlink:href="#_wOlwtAWC8P20Pl5TnyP_pad-27" x="18356.66" y="35939.08"/><use xlink:href="#_wOlwtAWC8P20Pl5TnyP_pad-27" x="18356.66" y="36439.08"/><use xlink:href="#_wOlwtAWC8P20Pl5TnyP_pad-27" x="18356.66" y="36939.08"/><use xlink:href="#_wOlwtAWC8P20Pl5TnyP_pad-27" x="31272.48" y="35571.99"/><use xlink:href="#_wOlwtAWC8P20Pl5TnyP_pad-27" x="31272.48" y="36072.01"/><use xlink:href="#_wOlwtAWC8P20Pl5TnyP_pad-27" x="31272.48" y="36571.99"/><use xlink:href="#_wOlwtAWC8P20Pl5TnyP_pad-27" x="31272.48" y="37072.01"/><use xlink:href="#_wOlwtAWC8P20Pl5TnyP_pad-27" x="36053.52" y="37072.01"/><use xlink:href="#_wOlwtAWC8P20Pl5TnyP_pad-27" x="36053.52" y="36571.99"/><use xlink:href="#_wOlwtAWC8P20Pl5TnyP_pad-27" x="36053.52" y="36072.01"/><use xlink:href="#_wOlwtAWC8P20Pl5TnyP_pad-27" x="36053.52" y="35571.99"/><use xlink:href="#_wOlwtAWC8P20Pl5TnyP_pad-28" x="20769.73" y="33914.08"/><use xlink:href="#_wOlwtAWC8P20Pl5TnyP_pad-28" x="20769.73" y="32360.66"/><use xlink:href="#_wOlwtAWC8P20Pl5TnyP_pad-28" x="20769.74" y="40018.07"/><use xlink:href="#_wOlwtAWC8P20Pl5TnyP_pad-28" x="20769.74" y="38464.66"/><use xlink:href="#_wOlwtAWC8P20Pl5TnyP_pad-28" x="20769.74" y="35412.65"/><use xlink:href="#_wOlwtAWC8P20Pl5TnyP_pad-28" x="20769.74" y="36966.07"/><use xlink:href="#_wOlwtAWC8P20Pl5TnyP_pad-28" x="28859.41" y="37098.43"/><use xlink:href="#_wOlwtAWC8P20Pl5TnyP_pad-28" x="28859.41" y="35545.01"/><use xlink:href="#_wOlwtAWC8P20Pl5TnyP_pad-28" x="28859.41" y="40150.43"/><use xlink:href="#_wOlwtAWC8P20Pl5TnyP_pad-28" x="28859.41" y="38597.01"/><use xlink:href="#_wOlwtAWC8P20Pl5TnyP_pad-28" x="28859.41" y="34046.43"/><use xlink:href="#_wOlwtAWC8P20Pl5TnyP_pad-28" x="28859.41" y="32493.01"/><use xlink:href="#_wOlwtAWC8P20Pl5TnyP_pad-30" x="46228" y="15494"/><use xlink:href="#_wOlwtAWC8P20Pl5TnyP_pad-30" x="46228" y="20701"/><use xlink:href="#_wOlwtAWC8P20Pl5TnyP_pad-31" x="13335" y="21853"/><use xlink:href="#_wOlwtAWC8P20Pl5TnyP_pad-31" x="13335" y="26153"/><use xlink:href="#_wOlwtAWC8P20Pl5TnyP_pad-32" x="8678" y="21862.99"/><use xlink:href="#_wOlwtAWC8P20Pl5TnyP_pad-32" x="5028" y="21862.99"/><use xlink:href="#_wOlwtAWC8P20Pl5TnyP_pad-33" x="7490.17" y="13930.99"/><use xlink:href="#_wOlwtAWC8P20Pl5TnyP_pad-33" x="5936.75" y="13930.99"/><use xlink:href="#_wOlwtAWC8P20Pl5TnyP_pad-34" x="8189" y="15757.02"/><use xlink:href="#_wOlwtAWC8P20Pl5TnyP_pad-34" x="9139" y="15757.02"/><use xlink:href="#_wOlwtAWC8P20Pl5TnyP_pad-34" x="10089" y="15757.02"/><use xlink:href="#_wOlwtAWC8P20Pl5TnyP_pad-34" x="10089" y="18457"/><use xlink:href="#_wOlwtAWC8P20Pl5TnyP_pad-34" x="9139" y="18457"/><use xlink:href="#_wOlwtAWC8P20Pl5TnyP_pad-34" x="8189" y="18457"/><use xlink:href="#_wOlwtAWC8P20Pl5TnyP_pad-35" x="13209.78" y="18083.21"/><use xlink:href="#_wOlwtAWC8P20Pl5TnyP_pad-35" x="13209.78" y="16430.81"/><use xlink:href="#_wOlwtAWC8P20Pl5TnyP_pad-35" x="14813.33" y="18083.21"/><use xlink:href="#_wOlwtAWC8P20Pl5TnyP_pad-35" x="14813.33" y="16430.81"/><use xlink:href="#_wOlwtAWC8P20Pl5TnyP_pad-35" x="5065.88" y="18513.67"/><use xlink:href="#_wOlwtAWC8P20Pl5TnyP_pad-35" x="5065.88" y="16861.25"/><use xlink:href="#_wOlwtAWC8P20Pl5TnyP_pad-35" x="3435" y="18520.71"/><use xlink:href="#_wOlwtAWC8P20Pl5TnyP_pad-35" x="3435" y="16868.29"/><use xlink:href="#_wOlwtAWC8P20Pl5TnyP_pad-38" x="26448" y="20828"/><use xlink:href="#_wOlwtAWC8P20Pl5TnyP_pad-38" x="30448" y="20828"/><use xlink:href="#_wOlwtAWC8P20Pl5TnyP_pad-43" x="28194" y="14478"/><use xlink:href="#_wOlwtAWC8P20Pl5TnyP_pad-43" x="29464" y="17018"/><use xlink:href="#_wOlwtAWC8P20Pl5TnyP_pad-43" x="30734" y="14478"/><use xlink:href="#_wOlwtAWC8P20Pl5TnyP_pad-43" x="32004" y="17018"/><use xlink:href="#_wOlwtAWC8P20Pl5TnyP_pad-43" x="33274" y="14478"/><use xlink:href="#_wOlwtAWC8P20Pl5TnyP_pad-43" x="34544" y="17018"/><use xlink:href="#_wOlwtAWC8P20Pl5TnyP_pad-43" x="35814" y="14478"/><use xlink:href="#_wOlwtAWC8P20Pl5TnyP_pad-43" x="37084" y="17018"/><use xlink:href="#_wOlwtAWC8P20Pl5TnyP_pad-66" x="9621" y="44769"/><use xlink:href="#_wOlwtAWC8P20Pl5TnyP_pad-66" x="9621" y="43369"/><use xlink:href="#_wOlwtAWC8P20Pl5TnyP_pad-66" x="9821" y="5212.03"/><use xlink:href="#_wOlwtAWC8P20Pl5TnyP_pad-66" x="9821" y="6612.03"/><use xlink:href="#_wOlwtAWC8P20Pl5TnyP_pad-66" x="40379" y="44987.97"/><use xlink:href="#_wOlwtAWC8P20Pl5TnyP_pad-66" x="40379" y="43587.97"/><use xlink:href="#_wOlwtAWC8P20Pl5TnyP_pad-66" x="14539.14" y="40903.02"/><use xlink:href="#_wOlwtAWC8P20Pl5TnyP_pad-66" x="14539.14" y="39503.02"/><use xlink:href="#_wOlwtAWC8P20Pl5TnyP_pad-66" x="15972.47" y="39516.55"/><use xlink:href="#_wOlwtAWC8P20Pl5TnyP_pad-66" x="15972.47" y="40916.55"/><use xlink:href="#_wOlwtAWC8P20Pl5TnyP_pad-66" x="35090.01" y="33008.06"/><use xlink:href="#_wOlwtAWC8P20Pl5TnyP_pad-66" x="35090.01" y="31608.06"/><use xlink:href="#_wOlwtAWC8P20Pl5TnyP_pad-66" x="33656.68" y="32994.53"/><use xlink:href="#_wOlwtAWC8P20Pl5TnyP_pad-66" x="33656.68" y="31594.54"/><use xlink:href="#_wOlwtAWC8P20Pl5TnyP_pad-67" x="44632.34" y="10054.5"/><use xlink:href="#_wOlwtAWC8P20Pl5TnyP_pad-67" x="43232.34" y="10054.5"/><use xlink:href="#_wOlwtAWC8P20Pl5TnyP_pad-67" x="12607.62" y="31260.26"/><use xlink:href="#_wOlwtAWC8P20Pl5TnyP_pad-67" x="14007.62" y="31260.26"/><use xlink:href="#_wOlwtAWC8P20Pl5TnyP_pad-67" x="17954.81" y="31260.26"/><use xlink:href="#_wOlwtAWC8P20Pl5TnyP_pad-67" x="19354.81" y="31260.26"/><use xlink:href="#_wOlwtAWC8P20Pl5TnyP_pad-67" x="15292.54" y="31260.26"/><use xlink:href="#_wOlwtAWC8P20Pl5TnyP_pad-67" x="16692.54" y="31260.26"/><use xlink:href="#_wOlwtAWC8P20Pl5TnyP_pad-67" x="9909.74" y="31260.28"/><use xlink:href="#_wOlwtAWC8P20Pl5TnyP_pad-67" x="11309.74" y="31260.28"/><use xlink:href="#_wOlwtAWC8P20Pl5TnyP_pad-67" x="12607.6" y="32711.39"/><use xlink:href="#_wOlwtAWC8P20Pl5TnyP_pad-67" x="14007.6" y="32711.39"/><use xlink:href="#_wOlwtAWC8P20Pl5TnyP_pad-67" x="11309.74" y="32711.39"/><use xlink:href="#_wOlwtAWC8P20Pl5TnyP_pad-67" x="9909.74" y="32711.39"/><use xlink:href="#_wOlwtAWC8P20Pl5TnyP_pad-67" x="10987.74" y="34662.36"/><use xlink:href="#_wOlwtAWC8P20Pl5TnyP_pad-67" x="12387.73" y="34662.36"/><use xlink:href="#_wOlwtAWC8P20Pl5TnyP_pad-67" x="16692.54" y="32711.37"/><use xlink:href="#_wOlwtAWC8P20Pl5TnyP_pad-67" x="15292.54" y="32711.37"/><use xlink:href="#_wOlwtAWC8P20Pl5TnyP_pad-67" x="19354.81" y="32711.39"/><use xlink:href="#_wOlwtAWC8P20Pl5TnyP_pad-67" x="17954.81" y="32711.39"/><use xlink:href="#_wOlwtAWC8P20Pl5TnyP_pad-67" x="20648.78" y="30879.23"/><use xlink:href="#_wOlwtAWC8P20Pl5TnyP_pad-67" x="22048.78" y="30879.23"/><use xlink:href="#_wOlwtAWC8P20Pl5TnyP_pad-67" x="37176.41" y="37848.72"/><use xlink:href="#_wOlwtAWC8P20Pl5TnyP_pad-67" x="38576.41" y="37848.72"/><use xlink:href="#_wOlwtAWC8P20Pl5TnyP_pad-67" x="39719.43" y="41250.82"/><use xlink:href="#_wOlwtAWC8P20Pl5TnyP_pad-67" x="38319.43" y="41250.82"/><use xlink:href="#_wOlwtAWC8P20Pl5TnyP_pad-67" x="30285.01" y="39799.69"/><use xlink:href="#_wOlwtAWC8P20Pl5TnyP_pad-67" x="31685.01" y="39799.69"/><use xlink:href="#_wOlwtAWC8P20Pl5TnyP_pad-67" x="34336.63" y="39799.69"/><use xlink:href="#_wOlwtAWC8P20Pl5TnyP_pad-67" x="32936.63" y="39799.69"/><use xlink:href="#_wOlwtAWC8P20Pl5TnyP_pad-67" x="37021.55" y="39799.69"/><use xlink:href="#_wOlwtAWC8P20Pl5TnyP_pad-67" x="35621.55" y="39799.69"/><use xlink:href="#_wOlwtAWC8P20Pl5TnyP_pad-67" x="38319.41" y="39799.69"/><use xlink:href="#_wOlwtAWC8P20Pl5TnyP_pad-67" x="39719.41" y="39799.69"/><use xlink:href="#_wOlwtAWC8P20Pl5TnyP_pad-67" x="31685.01" y="41250.82"/><use xlink:href="#_wOlwtAWC8P20Pl5TnyP_pad-67" x="30285.01" y="41250.82"/><use xlink:href="#_wOlwtAWC8P20Pl5TnyP_pad-67" x="27580.32" y="41631.85"/><use xlink:href="#_wOlwtAWC8P20Pl5TnyP_pad-67" x="28980.37" y="41631.85"/><use xlink:href="#_wOlwtAWC8P20Pl5TnyP_pad-67" x="34336.61" y="41250.82"/><use xlink:href="#_wOlwtAWC8P20Pl5TnyP_pad-67" x="32936.61" y="41250.82"/><use xlink:href="#_wOlwtAWC8P20Pl5TnyP_pad-67" x="37021.53" y="41250.82"/><use xlink:href="#_wOlwtAWC8P20Pl5TnyP_pad-67" x="35621.53" y="41250.82"/><use xlink:href="#_wOlwtAWC8P20Pl5TnyP_pad-67" x="10938.33" y="13930.99"/><use xlink:href="#_wOlwtAWC8P20Pl5TnyP_pad-67" x="12338.33" y="13930.99"/><use xlink:href="#_wOlwtAWC8P20Pl5TnyP_pad-67" x="11110.98" y="11938"/><use xlink:href="#_wOlwtAWC8P20Pl5TnyP_pad-67" x="12511.02" y="11938"/><use xlink:href="#_wOlwtAWC8P20Pl5TnyP_pad-68" x="38269.4" y="35854.04"/><use xlink:href="#_wOlwtAWC8P20Pl5TnyP_pad-68" x="38269.4" y="34554.04"/><use xlink:href="#_wOlwtAWC8P20Pl5TnyP_pad-68" x="40169.4" y="35204.03"/><use xlink:href="#_wOlwtAWC8P20Pl5TnyP_pad-68" x="11337.74" y="36504.97"/><use xlink:href="#_wOlwtAWC8P20Pl5TnyP_pad-68" x="11337.74" y="37804.97"/><use xlink:href="#_wOlwtAWC8P20Pl5TnyP_pad-68" x="9437.74" y="37154.97"/><use xlink:href="#_wOlwtAWC8P20Pl5TnyP_pad-69" x="14810.09" y="42468.68"/><use xlink:href="#_wOlwtAWC8P20Pl5TnyP_pad-69" x="13210.09" y="42468.68"/><use xlink:href="#_wOlwtAWC8P20Pl5TnyP_pad-69" x="34819.06" y="30042.41"/><use xlink:href="#_wOlwtAWC8P20Pl5TnyP_pad-69" x="36419.06" y="30042.41"/><use xlink:href="#_wOlwtAWC8P20Pl5TnyP_pad-69" x="9690" y="29007.98"/><use xlink:href="#_wOlwtAWC8P20Pl5TnyP_pad-69" x="8090" y="29007.98"/><use xlink:href="#_wOlwtAWC8P20Pl5TnyP_pad-69" x="18773.06" y="39550.1"/><use xlink:href="#_wOlwtAWC8P20Pl5TnyP_pad-69" x="17423.06" y="39550.1"/><use xlink:href="#_wOlwtAWC8P20Pl5TnyP_pad-69" x="32206.04" y="32960.98"/><use xlink:href="#_wOlwtAWC8P20Pl5TnyP_pad-69" x="30856.09" y="32960.98"/><use xlink:href="#_wOlwtAWC8P20Pl5TnyP_pad-69" x="18683.97" y="2412.99"/><use xlink:href="#_wOlwtAWC8P20Pl5TnyP_pad-69" x="20283.97" y="2412.99"/><use xlink:href="#_wOlwtAWC8P20Pl5TnyP_pad-70" x="48895.55" y="28877.94"/><use xlink:href="#_wOlwtAWC8P20Pl5TnyP_pad-70" x="47095.55" y="28877.94"/><use xlink:href="#_wOlwtAWC8P20Pl5TnyP_pad-70" x="47995.55" y="26727.94"/><use xlink:href="#_wOlwtAWC8P20Pl5TnyP_pad-70" x="3999.99" y="26782.98"/><use xlink:href="#_wOlwtAWC8P20Pl5TnyP_pad-70" x="3099.99" y="28932.98"/><use xlink:href="#_wOlwtAWC8P20Pl5TnyP_pad-70" x="4899.99" y="28932.98"/><use xlink:href="#_wOlwtAWC8P20Pl5TnyP_pad-71" x="41574.25" y="30083"/><use xlink:href="#_wOlwtAWC8P20Pl5TnyP_pad-71" x="43174.25" y="30083"/><use xlink:href="#_wOlwtAWC8P20Pl5TnyP_pad-71" x="7641.56" y="30359.83"/><use xlink:href="#_wOlwtAWC8P20Pl5TnyP_pad-71" x="6041.56" y="30359.83"/><use xlink:href="#_wOlwtAWC8P20Pl5TnyP_pad-72" x="39719.41" y="30879.14"/><use xlink:href="#_wOlwtAWC8P20Pl5TnyP_pad-72" x="39719.41" y="29279.14"/><use xlink:href="#_wOlwtAWC8P20Pl5TnyP_pad-73" x="13159.92" y="39504.44"/><use xlink:href="#_wOlwtAWC8P20Pl5TnyP_pad-73" x="13159.92" y="41104.44"/><use xlink:href="#_wOlwtAWC8P20Pl5TnyP_pad-73" x="36469.23" y="33006.64"/><use xlink:href="#_wOlwtAWC8P20Pl5TnyP_pad-73" x="36469.23" y="31406.64"/><use xlink:href="#_wOlwtAWC8P20Pl5TnyP_pad-73" x="11810.99" y="6312.03"/><use xlink:href="#_wOlwtAWC8P20Pl5TnyP_pad-73" x="11810.99" y="7912.03"/><use xlink:href="#_wOlwtAWC8P20Pl5TnyP_pad-73" x="14812.15" y="6312.01"/><use xlink:href="#_wOlwtAWC8P20Pl5TnyP_pad-73" x="14812.15" y="7912.05"/><use xlink:href="#_wOlwtAWC8P20Pl5TnyP_pad-74" x="19177" y="10789"/><use xlink:href="#_wOlwtAWC8P20Pl5TnyP_pad-74" x="19177" y="16389"/><use xlink:href="#_wOlwtAWC8P20Pl5TnyP_pad-75" x="23312.31" y="20828"/><use xlink:href="#_wOlwtAWC8P20Pl5TnyP_pad-75" x="19112.27" y="20828"/><use xlink:href="#_wOlwtAWC8P20Pl5TnyP_pad-76" x="20858.99" y="6430.87"/><use xlink:href="#_wOlwtAWC8P20Pl5TnyP_pad-76" x="18108.98" y="6430.87"/><use xlink:href="#_wOlwtAWC8P20Pl5TnyP_pad-77" x="5000" y="5000"/><use xlink:href="#_wOlwtAWC8P20Pl5TnyP_pad-77" x="5000" y="45000"/><use xlink:href="#_wOlwtAWC8P20Pl5TnyP_pad-77" x="45000" y="5000"/><use xlink:href="#_wOlwtAWC8P20Pl5TnyP_pad-77" x="45000" y="45000"/><use xlink:href="#_wOlwtAWC8P20Pl5TnyP_pad-78" x="7921" y="10795"/><use xlink:href="#_wOlwtAWC8P20Pl5TnyP_pad-78" x="5421" y="10795"/><use xlink:href="#_wOlwtAWC8P20Pl5TnyP_pad-79" x="2921" y="10795"/><use xlink:href="#_wOlwtAWC8P20Pl5TnyP_pad-80" x="32460" y="48100"/><use xlink:href="#_wOlwtAWC8P20Pl5TnyP_pad-80" x="17540" y="48100"/><use xlink:href="#_wOlwtAWC8P20Pl5TnyP_pad-81" x="35000" y="48100"/><use xlink:href="#_wOlwtAWC8P20Pl5TnyP_pad-81" x="37540" y="48100"/><use xlink:href="#_wOlwtAWC8P20Pl5TnyP_pad-81" x="15000" y="48100"/><use xlink:href="#_wOlwtAWC8P20Pl5TnyP_pad-81" x="12460" y="48100"/><use xlink:href="#_wOlwtAWC8P20Pl5TnyP_pad-82" x="42299.99" y="33551.98"/><use xlink:href="#_wOlwtAWC8P20Pl5TnyP_pad-82" x="7700.01" y="38000.03"/><use xlink:href="#_wOlwtAWC8P20Pl5TnyP_pad-83" x="46000.01" y="35052"/><use xlink:href="#_wOlwtAWC8P20Pl5TnyP_pad-83" x="42299.99" y="36552.02"/><use xlink:href="#_wOlwtAWC8P20Pl5TnyP_pad-83" x="46000.01" y="38051.99"/><use xlink:href="#_wOlwtAWC8P20Pl5TnyP_pad-83" x="3999.99" y="33500.01"/><use xlink:href="#_wOlwtAWC8P20Pl5TnyP_pad-83" x="7700.01" y="34999.98"/><use xlink:href="#_wOlwtAWC8P20Pl5TnyP_pad-83" x="3999.99" y="36500"/><use xlink:href="#_wOlwtAWC8P20Pl5TnyP_pad-84" x="44149.98" y="32002.02"/><use xlink:href="#_wOlwtAWC8P20Pl5TnyP_pad-84" x="44149.98" y="39602"/><use xlink:href="#_wOlwtAWC8P20Pl5TnyP_pad-84" x="5850.03" y="31950"/><use xlink:href="#_wOlwtAWC8P20Pl5TnyP_pad-84" x="5850.03" y="39549.98"/></g></svg>