<svg version="1.1" xmlns="http://www.w3.org/2000/svg" xmlns:xlink="http://www.w3.org/1999/xlink" stroke-linecap="round" stroke-linejoin="round" stroke-width="0" fill-rule="evenodd" width="50mm" height="50mm" viewBox="0 0 50000 50000" id="B0e3edJq6yI2uUBNKX2U"><g transform="translate(0,50000) scale(1,-1)" fill="currentColor" stroke="currentColor"><path d="M 2000 0 A 2000 2000 0 0 0 0 2000 L 0 48000 A 2000 2000 0 0 0 2000 50000 L 48000.01 50000 A 2000 2000 0 0 0 50000 48000 L 50000 2000 A 2000 2000 0 0 0 48000 0 L 40271.7 0 40271.7 2781.3 39928.8 3124.2 37515.8 3124.2 37147.5 3492.5 37147.5 6159.5 37490.4 6502.4 38354 6502.4 A 1625.6 1625.6 0 0 1 38354 9753.6 L 37490.4 9753.6 37147.5 10096.5 37147.5 12636.5 36855.4 12928.6 28422.6 12928.6 28130.5 12636.5 28130.5 10096.5 27787.6 9753.6 26924 9753.6 A 1625.6 1625.6 0 0 1 26924 6502.4 L 27914.6 6502.4 28130.5 6286.5 28130.5 3492.5 27762.2 3124.2 25222.2 3124.2 25006.3 2908.3 25006.3 0 2000 0" fill="none" stroke-width="25.4"/></g></svg>