<svg version="1.1" xmlns="http://www.w3.org/2000/svg" xmlns:xlink="http://www.w3.org/1999/xlink" stroke-linecap="round" stroke-linejoin="round" stroke-width="0" fill-rule="evenodd" width="49.39369mm" height="49.38827mm" viewBox="305.86 305.86 49393.69 49388.27" id="RjZN9g6Mqcb9GVTtGq0C"><defs><mask id="RjZN9g6Mqcb9GVTtGq0C_clear-1" fill="#000" stroke="#000"><g><rect x="305.86" y="305.86" width="49388.27" height="49388.27" fill="#fff"/><path d="M 23791.33 42885.82 23570.94 42885.82 23367.32 42801.48 23211.48 42645.63 23127.13 42442.02 23127.13 42221.62 23211.48 42018.01 23367.32 41862.16 23570.94 41777.82 23791.33 41777.82 23994.95 41862.16 24150.79 42018.01 24235.13 42221.62 24235.13 42442.02 24150.79 42645.63 23994.95 42801.48 23791.33 42885.82"/><path d="M 45000 48758.98 42222.57 48758.98 42123.47 48739.26 42039.45 48683.12 40927.97 47571.64 40871.83 47487.63 40868 47468.35 40848.72 47464.51 40764.7 47408.37 40749.83 47393.5 39500.9 47393.5 39401.79 47373.79 39345.71 47336.32 39246.9 47336.32 39246.9 47159.54 39241.92 47134.53 39241.92 44666.07 39261.64 44566.96 39317.78 44482.95 39695.88 44104.84 39779.9 44048.71 39879 44028.99 40771.73 44028.99 40791.88 44008.84 40856.62 43965.59 40899.88 43900.85 41170.02 43630.7 41170.02 42737.97 41189.73 42638.87 41245.87 42554.85 42483.85 41316.87 42567.87 41260.74 42666.97 41241.02 45000 41241.02 45025.02 41246 45295.44 41246 45879.06 41338.43 46441.03 41521.03 46967.52 41789.29 47445.57 42136.61 47863.39 42554.43 48210.71 43032.47 48478.97 43558.96 48661.56 44120.94 48754 44704.55 48754 45295.44 48661.56 45879.06 48478.97 46441.03 48210.71 46967.52 47863.39 47445.57 47445.57 47863.39 46967.52 48210.71 46441.03 48478.97 45879.06 48661.56 45295.44 48754 45025.02 48754 45000 48758.98"/><path d="M 7777.42 48758.98 5000 48758.98 4974.98 48754 4704.55 48754 4120.94 48661.56 3558.96 48478.97 3032.48 48210.71 2554.43 47863.39 2136.61 47445.57 1789.29 46967.52 1521.03 46441.03 1338.44 45879.06 1246 45295.44 1246 44704.55 1338.44 44120.94 1521.03 43558.96 1789.29 43032.47 2136.61 42554.43 2554.43 42136.61 3032.48 41789.29 3558.96 41521.03 4120.94 41338.43 4704.55 41246 4974.98 41246 5000 41241.02 7333.03 41241.02 7432.13 41260.74 7516.15 41316.87 8754.13 42554.85 8810.26 42638.87 8829.98 42737.97 8829.98 43630.7 9228.27 44028.99 10121 44028.99 10220.1 44048.71 10304.12 44104.84 10682.22 44482.95 10738.36 44566.96 10758.08 44666.07 10758.08 47134.53 10738.36 47233.63 10682.22 47317.65 10598.21 47373.79 10499.1 47393.5 9250.17 47393.5 9216.08 47427.59 9132.06 47483.73 9032.96 47503.44 8947.87 47503.44 8947.87 47588.53 8928.16 47687.63 8872.02 47771.65 7960.55 48683.12 7876.53 48739.26 7777.42 48758.98"/><path d="M 21479.8 40701.42 20896.75 40701.42 20896.75 40145.07 21479.8 40145.07 21479.8 40701.42"/><path d="M 20642.75 40701.42 20059.67 40701.42 20059.67 40145.07 20642.75 40145.07 20642.75 40701.42"/><path d="M 44255.82 40406 44044.13 40406 43839.64 40351.21 43656.31 40245.36 43506.62 40095.67 43400.77 39912.34 43345.98 39707.85 43345.98 39496.15 43400.77 39291.67 43506.62 39108.34 43656.31 38958.64 43839.64 38852.8 44044.13 38798 44255.82 38798 44460.31 38852.8 44643.64 38958.64 44793.33 39108.34 44899.18 39291.67 44953.97 39496.15 44953.97 39707.85 44899.18 39912.34 44793.33 40095.67 44643.64 40245.36 44460.31 40351.21 44255.82 40406"/><path d="M 5955.88 40353.98 5744.18 40353.98 5539.69 40299.19 5356.36 40193.34 5206.67 40043.65 5100.82 39860.32 5046.03 39655.83 5046.03 39444.13 5100.82 39239.65 5206.67 39056.32 5356.36 38906.63 5539.69 38800.78 5744.18 38745.99 5955.88 38745.99 6160.36 38800.78 6343.69 38906.63 6493.39 39056.32 6599.23 39239.65 6654.03 39444.13 6654.03 39655.83 6599.23 39860.32 6493.39 40043.65 6343.69 40193.34 6160.36 40299.19 5955.88 40353.98"/><path d="M 46102.57 38830.99 45897.45 38830.99 45699.33 38777.91 45521.69 38675.35 45376.66 38530.31 45274.1 38352.68 45221.01 38154.55 45221.01 37949.44 45274.1 37751.31 45376.66 37573.68 45521.69 37428.64 45699.33 37326.08 45897.45 37272.99 46102.57 37272.99 46300.69 37326.08 46478.33 37428.64 46623.36 37573.68 46725.92 37751.31 46779.01 37949.44 46779.01 38154.55 46725.92 38352.68 46623.36 38530.31 46478.33 38675.35 46300.69 38777.91 46102.57 38830.99"/><path d="M 40873.4 35077.03 40296.4 35077.03 40296.4 34600.03 40873.4 34600.03 40873.4 35077.03"/><path d="M 40042.4 35077.03 39465.4 35077.03 39465.4 34600.03 40042.4 34600.03 40042.4 35077.03"/><path d="M 40473.41 31583.14 38965.41 31583.14 38965.41 30183.14 38965.41 30175.14 38965.41 30175.14 38965.41 29983.13 38965.41 29983.13 38965.41 29406.14 39719.42 29406.14 40473.41 29406.14 40473.41 29544.48 40565.55 29620.1 40565.56 29620.1 40920.25 29620.1 40920.25 29429 42228.25 29429 42228.25 30737 40920.25 30737 40920.25 30635.31 40720.25 30582.93 40473.41 30829.77 40473.41 31583.14"/><path d="M 46982 16648 46355 16648 46355 15621 46982 15621 46982 16648"/><path d="M 46101 16648 45474 16648 45474 15621 46101 15621 46101 16648"/><path d="M 46982 15367 46355 15367 46355 14340 46982 14340 46982 15367"/><path d="M 46101 15367 45474 15367 45474 14340 46101 14340 46101 15367"/><path d="M 8822.86 10668 8048 10668 8048 9893.14 8269.93 9952.61 8476.07 10071.62 8644.38 10239.93 8763.39 10446.07 8822.86 10668"/><path d="M 7794 10668 7019.14 10668 7078.61 10446.07 7197.62 10239.93 7365.93 10071.62 7572.07 9952.61 7794 9893.14 7794 10668"/><path d="M 25367.34 12471.4 25026.26 12471.4 24696.79 12383.12 24401.41 12212.58 24160.22 11971.39 23989.68 11676.01 23901.4 11346.54 23901.4 11005.46 23989.68 10675.99 24160.22 10380.61 24401.41 10139.42 24696.79 9968.88 25026.26 9880.6 25367.34 9880.6 25696.81 9968.88 25992.19 10139.42 26233.38 10380.61 26403.92 10675.99 26492.2 11005.46 26492.2 11346.54 26403.92 11676.01 26233.38 11971.39 25992.19 12212.58 25696.81 12383.12 25367.34 12471.4"/><path d="M 40251.74 12471.4 39910.66 12471.4 39581.19 12383.12 39285.81 12212.58 39044.62 11971.39 38874.08 11676.01 38785.8 11346.54 38785.8 11005.46 38874.08 10675.99 39044.62 10380.61 39285.81 10139.42 39581.19 9968.88 39910.66 9880.6 40251.74 9880.6 40581.21 9968.88 40876.59 10139.42 41117.78 10380.61 41280.32 10662.13 43447.99 10662.13 44028.34 10081.77 44028.34 9350.5 44028.34 9350.5 44028.34 9350.5 44028.34 9350.5 43973.81 9173.09 43630.7 8829.98 42737.97 8829.98 42638.87 8810.26 42554.85 8754.13 41316.87 7516.15 41260.74 7432.13 41241.02 7333.03 41241.02 5000 41246 4974.98 41246 4704.55 41338.43 4120.94 41521.03 3558.96 41789.29 3032.48 42136.61 2554.43 42554.43 2136.61 43032.47 1789.29 43558.96 1521.03 44120.94 1338.44 44704.55 1246 45295.44 1246 45879.06 1338.44 46441.03 1521.03 46967.52 1789.29 47445.57 2136.61 47863.39 2554.43 48210.71 3032.48 48478.97 3558.96 48661.56 4120.94 48754 4704.55 48754 4974.98 48758.98 5000 48758.98 7777.42 48739.26 7876.53 48683.12 7960.55 47558.42 9085.25 47499.25 9124.79 47459.72 9183.95 47393.5 9250.17 47393.5 10499.1 47387.66 10528.44 47387.66 10766.33 45825.03 10766.33 45825.03 10758.08 45236.34 10758.08 45236.34 10758.5 44805.07 10758.5 44024.2 11539.36 43857.49 11650.76 43660.84 11689.87 41280.32 11689.87 41117.78 11971.39 40876.59 12212.58 40581.21 12383.12 40251.74 12471.4"/><path d="M 18937.98 8034.87 17279.98 8034.87 17279.98 6738.47 15466.15 6738.47 15466.15 6966.01 14158.15 6966.01 14158.15 5658.01 15466.15 5658.01 15466.15 5961.53 17279.98 5961.53 17279.98 4826.87 18937.98 4826.87 18937.98 8034.87"/><path d="M 21687.99 8034.87 20985.99 8034.87 20985.99 6557.87 21687.99 6557.87 21687.99 8034.87"/><path d="M 20731.99 8034.87 20029.99 8034.87 20029.99 6557.87 20731.99 6557.87 20731.99 8034.87"/><path d="M 21687.99 6303.87 20985.99 6303.87 20985.99 4826.87 21687.99 4826.87 21687.99 6303.87"/><path d="M 20731.99 6303.87 20029.99 6303.87 20029.99 4826.87 20731.99 4826.87 20731.99 6303.87"/><path d="M 20410.97 3166.99 20410.97 2539.99 20987.97 2539.99 20987.97 3166.99 20410.97 3166.99"/><path d="M 20987.97 2285.99 20410.97 2285.99 20410.97 1658.99 20987.97 1658.99 20987.97 2285.99"/><path d="M 12464.99 6966.03 11156.99 6966.03 11156.99 5658.03 11422.52 5658.03 11422.52 2667.01 11452.1 2518.35 11536.3 2392.32 11790.32 2138.3 11916.35 2054.1 12065.01 2024.52 17979.97 2024.52 17979.97 1658.99 19379.97 1658.99 19387.97 1658.99 19579.97 1658.99 19587.97 1658.99 20156.97 1658.99 20156.97 2412.99 20156.97 3166.99 19587.97 3166.99 19579.97 3166.99 19387.97 3166.99 19379.97 3166.99 17979.97 3166.99 17979.97 2801.45 12225.92 2801.45 12199.45 2827.92 12199.45 5658.03 12464.99 5658.03 12464.99 6966.03"/></g></mask><mask id="RjZN9g6Mqcb9GVTtGq0C_clear-2" fill="#000" stroke="#000"><g><rect x="305.86" y="305.86" width="49388.27" height="49388.27" fill="#fff"/><path d="M 30729.08 33714.98 30152.09 33714.98 30152.09 33087.98 30729.08 33087.98 30729.08 33714.98"/><path d="M 29569.48 32366.01 28986.41 32366.01 28986.41 31809.66 29569.48 31809.66 29569.48 32366.01"/><path d="M 28732.41 32366.01 28149.35 32366.01 28149.35 31809.66 28732.41 31809.66 28732.41 32366.01"/><path d="M 31358.92 31329.37 30905.72 31329.37 30905.72 30602.77 31358.92 30602.77 31358.92 31329.37"/><path d="M 30651.72 31329.37 30198.52 31329.37 30198.52 30602.77 30651.72 30602.77 30651.72 31329.37"/><path d="M 12465.33 14634.99 12465.33 14058 12942.33 14058 12942.33 14634.99 12465.33 14634.99"/><path d="M 12942.33 13804 12465.33 13804 12465.33 13226.99 12942.33 13226.99 12942.33 13804"/></g></mask><rect x="-678.1" y="-527.32" width="1356.2" height="1054.64" id="RjZN9g6Mqcb9GVTtGq0C_pad-10"/><rect x="-450" y="-350" width="900" height="700" id="RjZN9g6Mqcb9GVTtGq0C_pad-11"/><rect x="-527.32" y="-678.1" width="1054.64" height="1356.2" id="RjZN9g6Mqcb9GVTtGq0C_pad-12"/><rect x="-350" y="-450" width="700" height="900" id="RjZN9g6Mqcb9GVTtGq0C_pad-13"/><rect x="-450" y="-350" width="900" height="700" id="RjZN9g6Mqcb9GVTtGq0C_pad-14"/><rect x="-450" y="-500" width="900" height="1000" id="RjZN9g6Mqcb9GVTtGq0C_pad-15"/><rect x="-300" y="-375" width="600" height="750" id="RjZN9g6Mqcb9GVTtGq0C_pad-16"/><rect x="-750" y="-500" width="1500" height="1000" id="RjZN9g6Mqcb9GVTtGq0C_pad-17"/><rect x="-475" y="-475" width="950" height="950" id="RjZN9g6Mqcb9GVTtGq0C_pad-18"/><rect x="-475" y="-475" width="950" height="950" id="RjZN9g6Mqcb9GVTtGq0C_pad-19"/><rect x="-400" y="-400" width="800" height="800" id="RjZN9g6Mqcb9GVTtGq0C_pad-20"/><rect x="-500" y="-450" width="1000" height="900" id="RjZN9g6Mqcb9GVTtGq0C_pad-21"/><rect x="-326.2" y="-599.6" width="652.4" height="1199.2" id="RjZN9g6Mqcb9GVTtGq0C_pad-22"/><rect x="-400" y="-400" width="800" height="800" id="RjZN9g6Mqcb9GVTtGq0C_pad-23"/><rect x="-1875" y="-1375" width="3750" height="2750" id="RjZN9g6Mqcb9GVTtGq0C_pad-24"/><rect x="-121.235" y="-365.535" width="242.47" height="731.07" id="RjZN9g6Mqcb9GVTtGq0C_pad-25"/><g id="RjZN9g6Mqcb9GVTtGq0C_pad-26"><polygon points="0,365.535 0,-365.535 0,-365.535 0,365.535"/><polygon points="121.235,244.295 121.235,-244.295 -121.235,-244.295 -121.235,244.295"/><circle cx="0" cy="-244.3" r="121.235"/><circle cx="0" cy="244.3" r="121.235"/><circle cx="0" cy="244.3" r="121.235"/><circle cx="0" cy="-244.3" r="121.235"/></g><g id="RjZN9g6Mqcb9GVTtGq0C_pad-27"><polygon points="244.295,121.235 244.295,-121.235 -244.295,-121.235 -244.295,121.235"/><polygon points="365.535,0 365.535,0 -365.535,0 -365.535,0"/><circle cx="-244.3" cy="0" r="121.235"/><circle cx="-244.3" cy="0" r="121.235"/><circle cx="244.3" cy="0" r="121.235"/><circle cx="244.3" cy="0" r="121.235"/></g><rect x="-456.065" y="-429.36" width="912.13" height="858.72" id="RjZN9g6Mqcb9GVTtGq0C_pad-28"/><rect x="-800" y="-1750" width="1600" height="3500" id="RjZN9g6Mqcb9GVTtGq0C_pad-29"/><rect x="-500" y="-900" width="1000" height="1800" id="RjZN9g6Mqcb9GVTtGq0C_pad-30"/><rect x="-1150" y="-1250" width="2300" height="2500" id="RjZN9g6Mqcb9GVTtGq0C_pad-31"/><rect x="-925" y="-2050" width="1850" height="4100" id="RjZN9g6Mqcb9GVTtGq0C_pad-32"/><rect x="-429.36" y="-456.065" width="858.72" height="912.13" id="RjZN9g6Mqcb9GVTtGq0C_pad-33"/><g id="RjZN9g6Mqcb9GVTtGq0C_pad-34"><polygon points="249,550 249,-550 -249,-550 -249,550"/><polygon points="300,499 300,-499 -300,-499 -300,499"/><circle cx="-249" cy="-499" r="51"/><circle cx="-249" cy="499" r="51"/><circle cx="249" cy="499" r="51"/><circle cx="249" cy="-499" r="51"/></g><rect x="-599.6" y="-326.2" width="1199.2" height="652.4" id="RjZN9g6Mqcb9GVTtGq0C_pad-35"/><rect x="-750" y="-1600" width="1500" height="3200" id="RjZN9g6Mqcb9GVTtGq0C_pad-36"/><rect x="-575" y="-1350" width="1150" height="2700" id="RjZN9g6Mqcb9GVTtGq0C_pad-37"/><rect x="-1250" y="-850" width="2500" height="1700" id="RjZN9g6Mqcb9GVTtGq0C_pad-38"/><circle cx="0" cy="0" r="698.5" id="RjZN9g6Mqcb9GVTtGq0C_pad-43"/><circle cx="0" cy="0" r="1041.4" id="RjZN9g6Mqcb9GVTtGq0C_pad-44"/><circle cx="0" cy="0" r="3500" id="RjZN9g6Mqcb9GVTtGq0C_pad-45"/><circle cx="0" cy="0" r="650" id="RjZN9g6Mqcb9GVTtGq0C_pad-46"/><rect x="-650" y="-650" width="1300" height="1300" id="RjZN9g6Mqcb9GVTtGq0C_pad-47"/><g id="RjZN9g6Mqcb9GVTtGq0C_pad-48"><rect x="-800" y="-400" width="1600" height="800"/><rect x="-400" y="-800" width="800" height="1600"/><circle cx="400" cy="-400" r="400"/><circle cx="-400" cy="-400" r="400"/><circle cx="-400" cy="400" r="400"/><circle cx="400" cy="400" r="400"/></g><circle cx="0" cy="0" r="800" id="RjZN9g6Mqcb9GVTtGq0C_pad-49"/><rect x="-525" y="-525" width="1050" height="1050" id="RjZN9g6Mqcb9GVTtGq0C_pad-50"/><circle cx="0" cy="0" r="525" id="RjZN9g6Mqcb9GVTtGq0C_pad-51"/><circle cx="0" cy="0" r="550" id="RjZN9g6Mqcb9GVTtGq0C_pad-52"/><circle cx="0" cy="0" r="300" id="RjZN9g6Mqcb9GVTtGq0C_pad-53"/></defs><g transform="translate(0,49999.99) scale(1,-1)" fill="currentColor" stroke="currentColor"><g mask="url(#RjZN9g6Mqcb9GVTtGq0C_clear-2)"><g mask="url(#RjZN9g6Mqcb9GVTtGq0C_clear-1)"><path d="M 17780.85 38171.77 17427.17 37818.08 16612.86 37818.08 16598.71 37835.32 16598.71 38323.91 16572.93 38453.53 16572.93 38912.55 16676.47 38912.55 16676.47 39020.09 16740.04 39083.66 16740.04 40568.57 16729.83 40578.79 16729.83 42672 17780.82 42672 17780.85 38171.77"/><path d="M 30900.6 40544.93 31081.01 40346.82 31081.01 39095.69 31578.96 39095.69 31584.1 39069.85 31662.34 38952.75 31950.68 38664.42 32057.5 38593.04 32030.4 38456.82 32030.4 38339.52 32412.99 38339.52 32412.99 38085.52 32030.4 38085.52 32030.4 37968.23 32016.26 37951 31534.03 37951 31534.03 37468.76 31516.77 37454.6 31028.19 37454.6 30919.33 37432.95 30730.35 37432.95 30490.35 37672.95 30490.35 37784.38 30604.67 37898.71 30689.01 38102.32 30689.01 38322.72 30604.67 38526.34 30448.83 38682.18 30245.21 38766.52 30024.81 38766.52 29821.2 38682.18 29769.48 38630.46 29569.48 38713.3 29569.48 39280.37 29569.48 39280.37 29569.48 39467.08 29569.48 39467.08 29569.48 40393.03 29681.02 40546.83 30881.01 40546.83 30900.6 40544.93"/><path d="M 12506.09 42769.77 12506.09 41758.44 12505.92 41758.44 12505.92 40450.44 13692.12 40450.44 13744.27 40390.29 13762.36 40329.87 13622.76 40158.44 12505.92 40158.44 12505.92 38850.45 13303.48 38850.45 13557.73 38596.19 13674.83 38517.95 13812.95 38490.48 14162.75 38490.48 14333.53 38323.91 14333.53 37835.32 14319.39 37818.08 13837.12 37818.08 13837.12 37335.82 13819.88 37321.67 13605.14 37321.67 13575.59 37327.55 13109.16 37327.55 12357.05 38079.65 12231.03 38163.86 12082.37 38193.43 12041.74 38193.43 12041.74 38408.97 11726.2 38408.97 11726.2 38506.32 11696.63 38654.98 11612.42 38781 11425.3 38968.13 11299.27 39052.33 11150.62 39081.91 11044.12 39081.91 11026.2 39099.83 11026.2 41551.19 12321.31 42846.3 12506.09 42769.77"/><path d="M 40730.53 38224.6 40730.53 36432.95 38973.4 36432.95 38973.4 36458.03 37565.4 36458.03 37565.4 36432.95 36794.51 36432.95 36680.4 36571.99 36651.28 36718.39 36763.05 36824.92 36831.63 36893.5 36831.63 36893.5 37082.85 37144.72 37780.41 37144.72 37780.41 37144.72 37972.42 37144.72 37972.42 37144.72 39180.41 37144.72 39180.41 37783.26 39845.44 37783.26 39994.1 37812.83 40120.13 37897.04 40530.53 38307.44 40730.53 38224.6"/><path d="M 10249.27 41319.52 10249.27 39099.83 10168.07 39018.63 10083.73 38815.02 10083.73 38594.62 10168.07 38391 10323.92 38235.16 10527.54 38150.82 10633.74 38150.82 10633.74 37200.97 10633.73 37200.97 10633.73 37108.96 10633.74 37108.96 10633.74 36706.31 8688.06 36706.31 8358.12 37036.25 8434.66 37221.03 8479.01 37221.03 8479.01 38779.03 8088.48 38779.03 8088.48 39420.04 10064.49 41396.06 10249.27 41319.52"/><path d="M 48000 49694.13 48166.86 49694.13 48494.16 49629.03 48802.47 49501.32 49079.94 49315.92 49315.92 49079.95 49501.32 48802.47 49629.03 48494.15 49694.13 48166.86 49694.13 48000 49694.13 34531.64 49508.7 34412.87 49494.14 34414.77 49447.12 34485.12 47718.42 36213.83 47718.26 36213.94 47718.14 36214.1 47676.12 36242.09 47634.4 36269.97 47634.21 36270 47634.04 36270.12 47584.21 36279.95 47535.29 36289.68 47535.1 36289.64 47534.91 36289.68 45551.82 36286.7 45501.69 36276.65 45452.92 36266.91 45452.85 36266.85 45452.74 36266.83 45408.81 36237.38 45368.95 36210.7 45368.82 36210.58 45368.81 36210.57 45368.81 36210.56 44901.74 35742.79 44874.1 35701.36 44845.73 35658.91 44845.71 35658.81 44845.66 35658.73 44835.98 35609.89 44826.02 35559.8 44826.02 32745.84 44698.98 32675.86 44626.02 32655.55 44460.31 32751.22 44255.82 32806.02 44044.13 32806.02 43839.64 32751.22 43656.31 32645.38 43506.62 32495.69 43400.77 32312.35 43345.98 32107.87 43345.98 31896.17 43400.77 31691.69 43506.62 31508.35 43656.31 31358.66 43839.64 31252.81 44044.13 31198.02 44255.82 31198.02 44294.56 31208.4 44398.34 31029.15 44151.43 30781.02 44123.85 30739.53 44095.73 30697.45 44095.67 30697.13 44095.49 30696.87 44085.82 30647.63 44076.02 30598.35 44076.02 30545.89 43828.25 30545.89 43828.25 30737 42520.25 30737 42520.25 29429 43828.25 29429 43828.25 29620.1 44076.02 29620.1 44076.02 29583 44081 29557.97 44081 29075 44476.75 29075 44752.02 28799.73 44675.48 28614.95 40473.41 28614.95 40473.41 29152.14 39719.42 29152.14 38965.41 29152.14 38965.41 28614.95 35536.99 28614.95 35437.88 28595.24 35353.86 28539.1 35064.9 28250.14 35008.76 28166.12 34989.05 28067.02 34989.05 25902.47 35008.76 25803.37 35064.9 25719.35 35313.37 25470.88 35397.39 25414.74 35496.49 25395.02 44356 25395.02 44455.1 25414.74 44539.12 25470.88 44557.93 25499.02 45612.07 25499.02 45630.87 25470.88 45714.89 25414.74 45814 25395.02 46700.01 25395.02 46776.55 25210.25 45900.68 24334.38 45800.34 24184.21 45765.1 24007.07 45765.11 24007.05 45765.11 21910.58 45758.34 21903.81 45738.12 21855 45474 21855 45474 19547 45733.56 19547 45758.34 19487.18 45914.19 19331.34 46117.8 19247 46338.2 19247 46541.81 19331.34 46697.66 19487.18 46722.44 19547 46982 19547 46982 21855 46717.88 21855 46697.66 21903.81 46690.89 21910.58 46690.89 23815.33 47825.78 24950.21 47973.46 24802.53 48057.48 24746.39 48156.59 24726.68 48935.68 24726.68 49034.78 24746.39 49118.8 24802.53 49174.94 24886.55 49194.65 24985.65 49194.65 28232.88 49174.94 28331.98 49118.8 28416 49102.74 28432.06 49018.72 28488.2 48919.61 28507.92 48545.51 28507.92 48524.67 28539.1 48440.65 28595.24 48341.55 28614.95 48104.52 28614.95 48104.52 29719.1 48130.81 29758.44 48150.52 29857.55 48150.52 30553.02 48846 30553.02 48945.1 30572.74 49029.12 30628.87 49447.12 31046.88 49494.14 31117.23 49508.7 31119.13 49694.13 31000.36 49694.13 2000 49694.13 1833.14 49629.03 1505.84 49501.32 1197.52 49315.92 920.05 49079.95 684.08 48802.47 498.67 48494.16 370.97 48166.86 305.86 48000.01 305.86 40577.56 305.86 40577.56 2781.28 40577.57 2781.29 40554.28 2898.35 40487.98 2997.58 40145.09 3340.47 40145.08 3340.48 40045.85 3406.78 39928.79 3430.07 39928.78 3430.06 37642.5 3430.06 37453.36 3619.19 37453.36 6032.8 37617.1 6196.54 38354 6196.54 38361.47 6198.02 38369.01 6196.9 38528.34 6204.73 38550.33 6210.24 38573.01 6210.24 38885.56 6272.41 38913.39 6283.94 38942.94 6289.82 39237.35 6411.77 39262.39 6428.5 39290.23 6440.03 39555.2 6617.08 39576.5 6638.38 39601.55 6655.11 39826.88 6880.45 39843.62 6905.5 39864.92 6926.8 40041.96 7191.76 40053.49 7219.6 40070.23 7244.65 40192.18 7539.06 40198.06 7568.61 40209.59 7596.44 40271.76 7908.99 40271.76 7939.12 40277.64 7968.66 40277.64 8287.33 40271.76 8316.88 40271.76 8347.01 40209.59 8659.56 40198.06 8687.39 40192.18 8716.94 40070.23 9011.35 40053.5 9036.39 40041.97 9064.23 39864.92 9329.2 39843.62 9350.5 39826.88 9375.55 39601.55 9600.88 39576.5 9617.62 39555.2 9638.92 39290.23 9815.96 39262.4 9827.49 39237.35 9844.23 38942.94 9966.18 38913.39 9972.06 38885.56 9983.59 38573.01 10045.76 38550.33 10045.76 38528.34 10051.27 38369.01 10059.1 38361.47 10057.98 38354 10059.46 37617.1 10059.46 37453.36 10223.2 37453.36 12636.48 37453.37 12636.49 37430.08 12753.55 37363.78 12852.78 37071.69 13144.87 37071.68 13144.88 36972.45 13211.18 36855.39 13234.46 29722.98 13234.46 29722.98 13924.15 29922.98 13977.73 29971.81 13893.15 30149.15 13715.81 30366.35 13590.41 30608.6 13525.5 30859.4 13525.5 31101.65 13590.41 31318.85 13715.81 31496.19 13893.15 31621.59 14110.35 31686.5 14352.6 31686.5 14603.4 31621.59 14845.65 31496.19 15062.85 31318.85 15240.19 31101.65 15365.59 30859.4 15430.5 30608.6 15430.5 30366.35 15365.59 30149.15 15240.19 29971.81 15062.85 29922.98 14978.27 29722.98 15031.85 29722.98 16065.5 29703.26 16164.61 29647.12 16248.62 29563.11 16304.76 29464 16324.48 29372.7 16324.48 29196.3 16371.74 29038.17 16463.04 28909.04 16592.17 28817.74 16750.3 28770.48 16926.7 28770.48 17081.5 28750.76 17180.61 28694.62 17264.62 27956.98 18002.27 27956.98 22388.02 27937.27 22487.12 27881.13 22571.14 27409.15 23043.12 27325.13 23099.26 27226.02 23118.98 22860 23118.98 22760.89 23099.26 22676.88 23043.12 22379.18 22745.43 22336.8 22682 22308.31 22682 22308.31 22587.34 22303.33 22562.31 22303.33 17038.97 22323.04 16939.86 22379.18 16855.85 26781.65 12453.38 26865.67 12397.24 26964.78 12377.52 27824.64 12377.52 27824.64 10223.2 27660.9 10059.46 26924 10059.46 26916.53 10057.98 26908.99 10059.1 26749.65 10051.27 26727.66 10045.76 26704.99 10045.76 26392.44 9983.59 26364.61 9972.06 26335.06 9966.18 26040.65 9844.23 26015.6 9827.5 25987.77 9815.97 25722.8 9638.92 25701.5 9617.62 25676.45 9600.88 25451.11 9375.55 25434.38 9350.5 25413.08 9329.2 25236.03 9064.23 25224.5 9036.4 25207.77 9011.35 25085.82 8716.94 25079.94 8687.39 25068.41 8659.56 25006.24 8347.01 25006.24 8316.88 25000.36 8287.33 25000.36 7968.66 25006.24 7939.12 25006.24 7908.99 25068.41 7596.44 25079.94 7568.61 25085.82 7539.06 25207.77 7244.65 25224.5 7219.6 25236.03 7191.77 25413.08 6926.8 25434.38 6905.5 25451.11 6880.45 25676.45 6655.11 25701.5 6638.38 25722.8 6617.08 25987.76 6440.03 26015.6 6428.5 26040.65 6411.77 26335.06 6289.82 26364.61 6283.94 26392.44 6272.41 26704.99 6210.24 26727.67 6210.24 26749.66 6204.73 26909 6196.9 26916.53 6198.02 26924 6196.54 27787.9 6196.54 27824.64 6159.81 27824.64 3619.2 27635.51 3430.06 25222.22 3430.06 25222.21 3430.07 25105.15 3406.78 25005.92 3340.48 24790.02 3124.58 24723.72 3025.35 24700.43 2908.29 24700.44 2908.28 24700.44 305.86 2000 305.87 1833.14 305.87 1505.84 370.97 1197.52 498.68 920.05 684.08 684.08 920.05 498.68 1197.53 370.97 1505.84 305.87 1833.14 305.86 2000 305.87 26385.11 340.48 26410.66 505.87 26459.76 3844.02 23121.61 3844.02 20221.78 2723.15 19100.91 2581.4 19100.91 2581.4 18909.18 2313.8 18909.18 2165.14 18879.61 2039.11 18795.4 1890.32 18646.61 1806.11 18520.58 1776.54 18371.92 1776.54 15639.99 1806.11 15491.33 1890.32 15365.3 3324.63 13930.99 1539.31 12145.68 1455.11 12019.65 1425.53 11870.99 1425.53 9955.71 1455.11 9807.05 1539.31 9681.02 2224.02 8996.31 2350.05 8912.11 2498.7 8882.53 4237.6 8882.53 4253.34 8682.54 4120.94 8661.57 3558.96 8478.97 3032.48 8210.71 2554.43 7863.39 2136.61 7445.57 1789.29 6967.52 1521.03 6441.04 1338.44 5879.06 1246 5295.45 1246 4704.55 1338.44 4120.94 1521.03 3558.96 1789.29 3032.48 2136.61 2554.43 2554.43 2136.61 3032.48 1789.29 3558.96 1521.03 4120.94 1338.44 4704.55 1246 4974.98 1246 5000 1241.02 7777.42 1241.02 7876.53 1260.74 7960.55 1316.88 9072.02 2428.35 9116.51 2494.93 9183.09 2539.42 9250.17 2606.5 10499.1 2606.5 10524.13 2611.48 10753.1 2611.48 10753.1 2840.44 10758.08 2865.47 10758.08 5333.93 10738.36 5433.03 10682.22 5517.05 10525 5674.28 10525 5816.03 10383.25 5816.03 10304.12 5895.15 10220.1 5951.29 10121 5971.01 9228.27 5971.01 8829.98 6369.3 8829.98 7262.03 8810.26 7361.13 8754.13 7445.15 7516.74 8682.54 7516.75 8685.07 7577.7 8882.53 11144.78 8882.53 11253.42 8746.69 11174.87 8566.03 11156.99 8566.03 11156.99 7258.03 12464.99 7258.03 12464.99 8566.03 12199.45 8566.03 12199.45 8793.99 12169.88 8942.65 12085.68 9068.68 11608.67 9545.69 11482.64 9629.89 11333.98 9659.47 2809.96 9659.47 2788.89 9691 2895.79 9891 3825 9891 3825 11149.63 4224.91 11549.53 4614.24 11549.53 4697.62 11350.07 4578.61 11143.93 4517 10914.01 4517 10675.99 4578.61 10446.07 4697.62 10239.93 4865.93 10071.62 5072.07 9952.61 5301.99 9891 5540.01 9891 5769.93 9952.61 5976.07 10071.62 6144.38 10239.93 6263.39 10446.07 6325 10675.99 6325 10914.01 6263.39 11143.93 6144.38 11350.07 6227.76 11549.53 7114.24 11549.53 7197.62 11350.07 7078.61 11143.93 7019.14 10922 8822.86 10922 8763.39 11143.93 8644.38 11350.07 8727.76 11549.53 10506.98 11549.53 10506.98 11234 11707.02 11234 11714.98 11234 11907.02 11234 11914.98 11234 12122.56 11234 12122.56 10213.18 12152.13 10064.52 12236.34 9938.5 14158.15 8016.68 14158.15 7258.06 15466.15 7258.06 15466.15 8566.05 14707.52 8566.05 12899.49 10374.09 12899.49 11234 13115.02 11234 13115.02 11992.63 14664.92 13542.53 18469 13542.53 18617.66 13572.1 18743.69 13656.31 19172.37 14084.99 19287.2 14084.99 19490.81 14169.33 19646.66 14325.18 19669.37 14380.02 19977 14380.02 20002.07 14385 20231 14385 20231 14526.74 20345.41 14641.15 20401.55 14725.17 20421.26 14824.28 20421.26 22098 20401.54 22197.11 20345.41 22281.12 20116.26 22510.27 20116.26 22682 19944.53 22682 19895.42 22731.11 19811.41 22787.25 19712.3 22806.96 18766.78 22806.96 18676.08 22897.66 18472.46 22982 18252.07 22982 18048.45 22897.66 17957.75 22806.96 17929.86 22806.96 17830.75 22787.25 17746.73 22731.11 17690.59 22647.09 17670.88 22547.99 17670.88 20037.13 16999.74 19365.99 9873.88 19365.99 9857 19559 9857 19559 9857 19787.97 9861.97 19812.99 9861.97 23912.99 9857 23938.01 9857 24166.99 10020.95 24254.02 21528.49 24254.02 21627.6 24273.73 21711.62 24329.87 23158.12 25776.37 23214.26 25860.39 23233.97 25959.5 23233.98 28079 23214.26 28178.1 23158.12 28262.12 22881.15 28539.1 22797.13 28595.24 22698.02 28614.95 21111.66 28614.95 21111.66 30033.68 21252.78 30175.23 21444.78 30175.23 21444.78 30175.23 21452.78 30175.24 22652.78 30175.24 22652.78 31379.01 22852.78 31461.85 32885.53 21429.1 32885.53 17766.35 32685.54 17683.5 32588.85 17780.19 32371.65 17905.59 32129.4 17970.5 31878.6 17970.5 31636.35 17905.59 31419.15 17780.19 31241.81 17602.85 31116.41 17385.65 31051.5 17143.4 31051.5 16892.6 31116.41 16650.35 31241.81 16433.15 31419.15 16255.81 31636.35 16130.41 31878.6 16065.5 32129.4 16065.5 32371.65 16130.41 32588.85 16255.81 32685.54 16352.5 32885.53 16269.65 32885.53 15353.57 32689.15 15240.19 32511.81 15062.85 32386.41 14845.65 32321.5 14603.4 32321.5 14352.6 32386.41 14110.35 32511.81 13893.15 32689.15 13715.81 32906.35 13590.41 33148.6 13525.5 33399.4 13525.5 33641.65 13590.41 33858.85 13715.81 34036.19 13893.15 34161.59 14110.35 34226.5 14352.6 34226.5 14603.4 34161.59 14845.65 34036.19 15062.85 33858.85 15240.19 33662.47 15353.57 33662.47 16269.65 33862.46 16352.5 33959.15 16255.81 34176.35 16130.41 34418.6 16065.5 34669.4 16065.5 34911.65 16130.41 35128.85 16255.81 35225.54 16352.5 35425.53 16269.65 35425.53 15353.57 35229.15 15240.19 35051.81 15062.85 34926.41 14845.65 34861.5 14603.4 34861.5 14352.6 34926.41 14110.35 35051.81 13893.15 35229.15 13715.81 35446.35 13590.41 35688.6 13525.5 35939.4 13525.5 36181.65 13590.41 36398.85 13715.81 36576.19 13893.15 36701.59 14110.35 36766.5 14352.6 36766.5 14603.4 36701.59 14845.65 36576.19 15062.85 36398.85 15240.19 36202.47 15353.57 36202.47 16269.65 36402.46 16352.5 36499.15 16255.81 36716.35 16130.41 36958.6 16065.5 37209.4 16065.5 37451.65 16130.41 37668.85 16255.81 37846.19 16433.15 37971.59 16650.35 38036.5 16892.6 38036.5 17143.4 37971.59 17385.65 37846.19 17602.85 37668.85 17780.19 37472.47 17893.57 37472.47 21561.33 37442.89 21709.99 37358.69 21836.02 32206.46 26988.25 32282.99 27173.02 32731.93 27173.02 32831.04 27192.74 32915.05 27248.88 32915.06 27248.88 33082.42 27416.24 33082.42 27416.24 33138.56 27500.26 33158.28 27599.36 33158.29 30990.54 34100.89 30990.54 34115.06 30796.4 34115.06 30796.4 34115.06 29288.41 35515.06 29288.41 35523.06 29288.4 35715.06 29288.4 35723.06 29288.41 37123.06 29288.41 37123.06 30752.64 37123.23 30752.64 37123.23 32060.64 35929.99 32060.64 35799.9 32214.5 35800.32 32218.32 35935.78 32352.64 37123.23 32352.64 37123.23 33660.64 36325.67 33660.64 36071.42 33914.89 35954.32 33993.13 35816.2 34020.6 35466.38 34020.6 35295.6 34187.19 35295.6 34675.77 35309.74 34693 35792.03 34693 35792.03 35175.28 35809.23 35189.4 36297.82 35189.4 36406.67 35211.05 36595.01 35211.05 37257.25 34548.82 37374.35 34470.58 37512.47 34443.1 37565.4 34443.1 37565.4 33950.04 38462.96 33950.04 38946.2 33466.79 39063.3 33388.55 39201.42 33361.08 40296.87 33361.08 40405.59 33252.35 40609.21 33168.01 40829.61 33168.01 41033.22 33252.35 41189.07 33408.2 41273.41 33611.81 41273.41 33832.21 41189.07 34035.83 41033.22 34191.67 40829.61 34276.01 40609.21 34276.01 40405.59 34191.67 40296.87 34082.95 39350.92 34082.95 38973.4 34460.47 38973.4 35050.04 38973.4 35158.03 38973.4 35158.03 38973.4 35250.04 38973.4 35250.04 38973.4 35711.08 39465.4 35711.08 39465.4 35331.03 40169.4 35331.03 40169.4 35204.03 40169.4 35204.03 40169.4 35331.03 40873.4 35331.03 40873.4 35379.11 41058.17 35455.64 41939.07 34574.75 41939.07 34330.98 41520.99 34330.98 41520.99 32772.98 43078.99 32772.98 43078.99 34330.98 42660.93 34330.98 42660.93 34724.26 42633.46 34862.38 42555.22 34979.48 41464.55 36070.14 41477.89 36090.11 41507.46 36238.77 41507.46 41349.43 41477.89 41498.09 41393.68 41624.12 37928.47 45089.34 37928.47 47112.91 37946.83 47117.83 38187.17 47256.59 38383.41 47452.83 38522.17 47693.17 38594 47961.24 38594 48238.76 38522.17 48506.83 38383.41 48747.17 38187.17 48943.41 37946.83 49082.17 37678.76 49154 37401.24 49154 37133.17 49082.17 36892.83 48943.41 36696.59 48747.17 36557.83 48506.83 36486 48238.76 36486 47961.24 36557.83 47693.17 36696.59 47452.83 36892.83 47256.59 37133.17 47117.83 37151.54 47112.91 37151.54 44928.43 37181.11 44779.77 37265.32 44653.75 37194.67 44441.55 37189.28 44440.47 35388.47 46241.29 35388.47 47112.91 35406.83 47117.83 35647.17 47256.59 35843.41 47452.83 35982.17 47693.17 36054 47961.24 36054 48238.76 35982.17 48506.83 35843.41 48747.17 35647.17 48943.41 35406.83 49082.17 35138.76 49154 34861.24 49154 34593.17 49082.17 34352.83 48943.41 34156.59 48747.17 34017.83 48506.83 33946 48238.76 33946 47961.24 34017.83 47693.17 34156.59 47452.83 34352.83 47256.59 34593.17 47117.83 34611.54 47112.91 34611.54 46080.38 34641.11 45931.72 34725.32 45805.69 36788.41 43742.6 36788.41 43627.77 36872.75 43424.16 37028.59 43268.31 37232.21 43183.97 37452.61 43183.97 37656.22 43268.31 37812.07 43424.16 37896.41 43627.77 37896.41 43739.81 38096.41 43822.65 39312.86 42606.2 39261.98 42469.01 39219.93 42416.29 35972.92 42416.29 35824.26 42386.72 35698.24 42302.51 35621.53 42225.8 35544.82 42302.51 35418.79 42386.72 35270.13 42416.29 33288 42416.29 33139.34 42386.72 33013.32 42302.51 32935.69 42224.88 32858.06 42302.51 32732.03 42386.72 32583.37 42416.29 30873.16 42416.29 30724.5 42386.72 30598.47 42302.51 30250.78 41954.82 29681.02 41954.82 29584.37 42114.79 29584.37 42335.85 29160.92 42335.85 29130.33 42341.93 29130.32 42341.93 29024.92 42341.93 28114.79 43252.06 27964.62 43352.4 27787.47 43387.64 27787.46 43387.64 27020.99 43387.64 27014.23 43394.4 26810.61 43478.74 26590.21 43478.74 26386.6 43394.4 26230.75 43238.56 26146.41 43034.94 26146.41 42814.54 26230.75 42610.93 26386.6 42455.08 26590.21 42370.74 26790.77 42370.74 26815.91 42366.02 26976.32 42222.91 26976.32 41944.67 26909.35 41931.35 26792.26 41853.11 26743.97 41804.82 26590.21 41804.82 26386.6 41720.48 26230.75 41564.64 26146.41 41361.02 26146.41 41140.63 26230.75 40937.01 26386.6 40781.17 26590.21 40696.82 26810.61 40696.82 27014.23 40781.17 27160.91 40927.85 27988.31 40927.85 28149.34 40833.78 28149.35 40742.33 28149.35 39467.08 28149.34 39467.08 28149.34 39280.37 28149.35 39280.37 28149.35 37913.66 28149.34 37913.66 28149.34 37781.78 28149.35 37781.78 28149.35 37486.89 26821.2 37486.89 26672.55 37457.32 26546.52 37373.11 26141.31 36967.91 26057.11 36841.88 26027.53 36693.22 26027.53 31368.49 26057.11 31219.83 26141.31 31093.8 35425.53 21809.58 35425.53 17766.35 35225.54 17683.5 35128.85 17780.19 34932.47 17893.57 34932.47 21261.92 34902.89 21410.58 34818.69 21536.61 23756.47 32598.83 23756.47 35622.02 23726.89 35770.68 23642.69 35896.7 22298.64 37240.75 22172.61 37324.96 22023.95 37354.53 21479.8 37354.53 21479.8 37649.42 21479.81 37649.42 21479.81 37781.3 21479.8 37781.3 21479.8 39134.71 21479.8 39148.01 21479.8 39334.71 21479.8 39348.01 21479.8 39891.07 20769.75 39891.07 20059.67 39891.07 20059.67 39348.01 20059.67 39334.71 20059.67 39148.01 20059.67 39134.71 20059.67 37781.3 20059.67 37781.3 20059.67 37649.42 20059.67 37649.42 20059.67 36800 19097.68 36800 18983.54 36939.09 18954.41 37085.49 18871.48 37209.61 18747.36 37292.55 18600.95 37321.67 18112.36 37321.67 18095.12 37335.82 18095.12 37818.08 18041.3 37818.08 17983.65 38018.08 18020.12 38072.66 18039.83 38171.77 18039.83 38708.86 18127.07 38796.1 18127.06 38796.1 18127.06 40304.1 18039.81 40304.1 18039.8 42672 18020.09 42771.11 17963.95 42855.12 17879.93 42911.26 17780.82 42930.98 16729.83 42930.98 16630.72 42911.26 16546.71 42855.12 16490.57 42771.11 16470.85 42672 16470.85 41520.54 15528.26 41520.54 15514.09 41714.68 15514.09 41714.68 15514.09 43222.67 14106.1 43222.67 14106.1 43222.68 13914.08 43222.68 13914.08 43222.67 12959 43222.67 12882.46 43407.45 15274.69 45799.68 15358.89 45925.7 15388.47 46074.36 15388.47 47112.91 15406.83 47117.83 15647.17 47256.59 15843.41 47452.83 15982.17 47693.17 16054 47961.24 16054 48238.76 15982.17 48506.83 15843.41 48747.17 15647.17 48943.41 15406.83 49082.17 15138.76 49154 14861.24 49154 14593.17 49082.17 14352.83 48943.41 14156.59 48747.17 14017.83 48506.83 13946 48238.76 13946 47961.24 14017.83 47693.17 14156.59 47452.83 14352.83 47256.59 14593.17 47117.83 14611.54 47112.91 14611.54 46235.27 13033.24 44656.98 12848.47 44733.51 12848.47 47112.91 12866.83 47117.83 13107.17 47256.59 13303.41 47452.83 13442.17 47693.17 13514 47961.24 13514 48238.76 13442.17 48506.83 13303.41 48747.17 13107.17 48943.41 12866.83 49082.17 12598.76 49154 12321.24 49154 12053.17 49082.17 11812.83 48943.41 11616.59 48747.17 11477.83 48506.83 11406 48238.76 11406 47961.24 11477.83 47693.17 11616.59 47452.83 11812.83 47256.59 12053.17 47117.83 12071.54 47112.91 12071.54 44501.84 7425.32 39855.63 7341.12 39729.61 7311.54 39580.95 7311.54 38779.03 6921.01 38779.03 6921.01 37221.03 7311.54 37221.03 7311.54 37144.99 7341.12 36996.33 7425.32 36870.3 8252.47 36043.16 8378.5 35958.95 8527.16 35929.38 10633.74 35929.38 10633.74 35900.97 12041.74 35900.97 12041.74 36056.38 12778.75 36056.38 12829.26 35972.28 12738.43 35780.28 12699.51 35772.54 12582.41 35694.3 12513.83 35625.72 12513.83 35625.71 12381.24 35493.12 12303 35376.03 12301.07 35366.36 11783.74 35366.36 11783.74 35366.37 11591.73 35366.37 11591.73 35366.36 10383.74 35366.36 10383.74 34727.82 9783.71 34727.82 9635.05 34698.25 9509.02 34614.05 8958.05 34063.08 8873.85 33937.05 8844.27 33788.39 8844.27 31711.68 8873.85 31563.02 8958.05 31436.99 9106.84 31288.2 9232.87 31203.99 9305.74 31189.5 9305.74 30556.28 9795.43 30556.28 9858.06 30462.55 10112.03 30208.57 10238.06 30124.36 10386.72 30094.79 13656.23 30094.79 13804.88 30124.36 13930.91 30208.57 14007.62 30285.28 14084.33 30208.57 14210.36 30124.36 14359.02 30094.79 16341.15 30094.79 16489.8 30124.36 16615.83 30208.57 16693.46 30286.2 16771.09 30208.57 16897.12 30124.36 17045.78 30094.79 18743.51 30094.79 18892.17 30124.36 19018.19 30208.57 19365.88 30556.26 19958.8 30556.26 20044.78 30391.87 20044.78 30175.24 20185.87 30175.24 20185.87 28614.95 10394 28614.95 10394 29761.98 9496.44 29761.98 8643.37 30615.05 8526.27 30693.29 8388.15 30720.76 8295.56 30720.76 8295.56 31013.83 6987.56 31013.83 6987.56 29705.83 7386 29705.83 7386 29134.98 8090 29134.98 8090 28880.98 7386 28880.98 7386 28614.95 7129.03 28614.95 7029.92 28595.24 6945.9 28539.1 6928.43 28512.95 5871.62 28512.95 5854.15 28539.1 5770.13 28595.24 5671.03 28614.95 5453.99 28614.95 5354.89 28595.24 5306.57 28562.95 4493.42 28562.95 4445.1 28595.24 4345.99 28614.95 4084.53 28614.95 4007.99 28799.73 4033.12 28824.85 4089.26 28908.87 4108.97 29007.98 4108.97 30518.51 4111.46 30531.02 4111.46 30532.56 4175.46 30596.56 5255.46 30596.56 5387.56 30464.46 5387.56 29705.83 6695.56 29705.83 6695.56 31013.83 6306.51 31013.83 6286.67 31042.78 6343.7 31306.64 6493.39 31456.33 6599.23 31639.67 6654.03 31844.15 6654.03 32055.85 6599.23 32260.33 6493.39 32443.67 6343.69 32593.36 6160.36 32699.21 5955.88 32754 5744.18 32754 5539.69 32699.21 5356.36 32593.36 5206.67 32443.67 5100.82 32260.33 5046.03 32055.85 5046.03 31844.15 5100.82 31639.67 5139.03 31573.49 5023.56 31373.49 4014.55 31373.49 3865.89 31343.92 3739.86 31259.71 3677.21 31197.06 3361.97 31512.29 3361.97 32753.51 3429.57 32805.63 3561.97 32853.39 3699.31 32774.1 3897.43 32721.01 4102.55 32721.01 4300.67 32774.1 4478.31 32876.66 4623.35 33021.69 4725.9 33199.33 4778.99 33397.45 4778.99 33602.57 4743.91 33733.49 6242.21 35231.79 6395.97 35231.79 6599.58 35316.13 6755.43 35471.97 6839.77 35675.59 6839.77 35895.98 6755.43 36099.6 6599.58 36255.44 6395.97 36339.79 6175.57 36339.79 5971.95 36255.44 5816.11 36099.6 5731.77 35895.98 5731.77 35742.22 4233.47 34243.93 4102.55 34279.01 3928.11 34279.01 3873.28 34353.72 3835.81 34469.55 5098.12 35731.86 5154.26 35815.88 5173.97 35914.99 5173.98 37353.23 5154.26 37452.34 5098.13 37536.35 4972.65 37661.83 4888.63 37717.97 4789.53 37737.68 2464.71 37737.68 2419.31 37728.65 2373.57 37721.12 2369.87 37718.82 2365.6 37717.97 2327.1 37692.24 2287.74 37667.79 505.87 36000.14 372.01 36034.84 305.87 36080.87 305.87 48000 305.87 48166.86 370.97 48494.15 498.68 48802.48 684.08 49079.94 920.05 49315.92 1197.53 49501.32 1505.84 49629.03 1833.14 49694.13 2000 49694.13 48000 49694.13"/><path d="M 22979.53 35461.11 22979.53 34294.59 22794.76 34218.06 21654.83 35357.98 21528.81 35442.19 21479.8 35451.94 21479.8 36082.71 21479.8 36096.01 21479.81 36096.01 21479.81 36282.72 21479.8 36282.72 21479.8 36577.6 21863.04 36577.6 22979.53 35461.11"/><path d="M 30645.6 35571.99 30674.72 35425.58 30757.66 35301.46 30881.77 35218.52 31028.19 35189.4 31516.77 35189.4 31534.03 35175.24 31534.03 34693 31587.85 34693 31645.5 34493 31609.03 34438.42 31589.32 34339.31 31589.32 33856.4 31447.9 33714.98 30983.08 33714.98 30983.08 32960.98 30856.08 32960.98 30856.08 32833.98 30152.09 32833.98 30152.09 32206.98 30198.52 32206.98 30198.52 31583.37 31358.92 31583.37 31358.92 32206.98 31589.33 32206.98 31589.35 27866.66 31404.58 27790.12 27566.47 31628.24 27566.47 34954.75 27749.43 35137.71 28149.35 35137.71 28149.35 34861.66 28149.34 34861.66 28149.34 34729.78 28149.35 34729.78 28149.35 33376.37 28149.34 33363.07 28149.34 33176.37 28149.35 33163.07 28149.35 32620.01 28859.41 32620.01 29569.48 32620.01 29569.48 33163.07 29569.48 33176.37 29569.48 33363.07 29569.48 33376.37 29569.48 34729.78 29569.48 34729.78 29569.48 34861.66 29569.48 34861.66 29569.48 35711.08 30531.45 35711.08 30645.6 35571.99"/><path d="M 19138.8 34838.13 19138.8 34726.7 19024.48 34612.37 18940.14 34408.76 18940.14 34188.36 19024.48 33984.75 19180.32 33828.9 19383.94 33744.56 19604.33 33744.56 19807.95 33828.9 19859.67 33880.62 20059.67 33797.78 20059.67 33230.73 20059.67 33230.73 20059.67 33044.02 20059.67 33044.02 20059.67 32122.48 19958.8 31964.26 18750.81 31964.26 18750.81 31964.26 18740.94 31964.26 18558.81 32164.26 18558.81 33415.39 17723.22 33415.39 17551.86 33586.76 17486.65 33783.73 17569.59 33907.84 17598.71 34054.25 17598.71 34171.55 17216.11 34171.55 17216.11 34425.55 17598.71 34425.55 17598.71 34542.84 17612.86 34560.08 18095.12 34560.08 18095.12 35042.35 18112.36 35056.49 18600.95 35056.49 18709.76 35078.14 18898.8 35078.14 19138.8 34838.13"/><path d="M 4915 37353.23 4915 35914.99 3103 34102.98 3103 32709 3103 31405.02 3849.99 30658.02 3849.99 29007.98 3399.99 28557.98 2799.99 28557.98 1674.95 29683.02 647 29683.02 647 35777.52 2464.71 37478.71 4789.53 37478.71 4915 37353.23"/><path d="M 49264 34302 49264 31230 48846 30812 47891.55 30812 47891.55 29857.55 47845.55 29811.55 47845.55 28502.94 45415.05 28502.94 44335 29583 44335 30598.35 45085 31352.03 45085 35559.8 45552.21 36027.72 47535.29 36030.7 49264 34302"/><path d="M 22975 28079 22975 25959.5 21528.49 24512.99 7162.18 24512.99 5953 23303.81 5953 20029.96 7188.46 18794.49 7188.46 17844.49 3185.42 17844.49 2835.4 18194.51 2835.4 18846.91 4103 20114.51 4103 23229 4102.88 23229 647 26684.88 647 28355.98 2545.99 28355.98 2545.99 28303.98 2774.98 28303.98 2799.99 28299 3399.99 28299 3425.01 28303.98 3653.99 28303.98 3653.99 28355.98 4345.99 28355.98 4345.99 28303.98 5453.99 28303.98 5453.99 28355.98 5671.03 28355.98 5671.03 28253.98 7129.03 28253.98 7129.03 28355.98 7386 28355.98 7386 28253.98 8794 28253.98 8794 28355.98 8986 28355.98 8986 28253.98 10394 28253.98 10394 28355.98 22698.02 28355.98 22975 28079"/><path d="M 48341.55 28248.94 48919.61 28248.94 48935.68 28232.88 48935.68 24985.65 48156.59 24985.65 47488.24 25654 45814 25654 45814 25758 44356 25758 44356 25654 35496.49 25654 35248.02 25902.47 35248.02 28067.02 35536.99 28355.98 45195.77 28355.98 45231.93 28319.82 45315.95 28263.68 45415.05 28243.96 47845.55 28243.96 47944.65 28263.68 48028.67 28319.82 48052.83 28355.98 48341.55 28355.98 48341.55 28248.94"/><path d="M 33030.4 34675.77 33030.4 34187.18 33056.22 34057.37 33056.22 33598.53 32952.68 33598.53 32952.68 33490.99 32889.11 33427.42 32889.11 31942.51 32899.32 31932.3 32899.3 27599.37 32731.93 27432 32004 27432 31848.33 27587.67 31848.3 34339.31 32201.98 34693 33016.26 34693 33030.4 34675.77"/><path d="M 9603 19812.99 9439 19648.99 9439 17907 8839 17907 8839 18837.25 8748.97 18927.28 8748.97 18956 8725.3 19075 8657.89 19175.89 8557 19243.3 8438 19266.97 8409.28 19266.97 7863.26 19812.99 7753 19812.99 7753 23912.99 9603 23912.99 9603 19812.99"/><path d="M 36695.53 21400.42 36695.53 17893.57 36499.15 17780.19 36402.46 17683.5 36202.47 17766.35 36202.47 21632.18 36387.24 21708.72 36695.53 21400.42"/><path d="M 34155.53 21101.02 34155.53 17893.57 33959.15 17780.19 33862.46 17683.5 33662.47 17766.35 33662.47 21311.24 33862.46 21394.09 34155.53 21101.02"/><path d="M 7499 24166.99 7499 23938.01 7494.02 23912.99 7494.02 19812.99 7499 19787.97 7499 19558.99 7727.97 19558.99 7753 19554.01 7755.99 19554.01 8226.15 19083.85 8310.17 19027.71 8409.28 19008 8412.49 19008 8455.95 18999.35 8471.18 18989.18 8481.35 18973.96 8490 18930.49 8490 18927.28 8509.71 18828.17 8565.85 18744.16 8579.03 18730.98 8579.03 17958 8580.02 17952.98 8580.02 17907 8599.74 17807.89 8655.88 17723.88 8739.89 17667.74 8839 17648.02 8884.99 17648.02 8890 17647.03 9388 17647.03 9393 17648.02 9439 17648.02 9538.1 17667.74 9622.12 17723.88 9628.08 17732.79 9721 17670.7 9840 17647.03 10338 17647.03 10343 17648.02 10431.08 17648.02 10901.21 17177.89 10909.33 17172.47 10909.33 17153 10938.46 17153 10985.23 17121.75 11084.33 17102.04 12165.39 17102.04 12184.2 17073.88 12268.22 17017.74 12367.33 16998.03 15204.57 16998.03 15237.26 16965.34 15258.47 16951.17 15276.5 16933.13 15300.07 16923.37 15321.28 16909.2 15346.3 16904.23 15369.86 16894.46 15387.42 16890.97 15412.93 16890.97 15412.93 16865.46 15416.42 16847.91 15426.18 16824.34 15431.16 16799.32 15445.33 16778.11 15455.08 16754.56 15473.12 16736.52 15487.3 16715.3 17683.14 14519.46 17600.3 14319.46 14504.02 14319.46 14355.36 14289.89 14229.33 14205.68 12665.65 12642 11914.98 12642 11907.02 12642 11714.98 12642 11707.02 12642 10506.98 12642 10506.98 12326.47 4064 12326.47 3915.34 12296.89 3789.31 12212.69 3275.63 11699 2474.22 11699 2391.38 11899 4034.91 13542.53 5253.4 13542.53 5253.4 13220.93 6606.81 13220.93 6620.11 13220.93 6806.81 13220.93 6820.11 13220.93 8173.52 13220.93 8173.52 13542.53 10334.33 13542.53 10334.33 13226.99 11534.33 13226.99 11542.33 13226.99 11734.33 13226.99 11742.33 13226.99 12211.33 13226.99 12211.33 13931 12211.33 14634.99 11742.33 14634.99 11734.33 14634.99 11542.33 14634.99 11534.33 14634.99 10783.7 14634.99 10595.79 14822.91 10557.89 15038.13 10625.3 15139.01 10648.97 15258.02 10648.97 16001.97 10648.97 16256.02 10625.3 16375.02 10557.89 16475.91 10457 16543.32 10338 16566.99 9840 16566.99 9721 16543.32 9721 16543.32 9717.26 16540.82 9614 16479.54 9510.74 16540.82 9507 16543.32 9388 16566.99 8890 16566.99 8771 16543.32 8771 16543.32 8767.26 16540.82 8664 16479.54 8560.74 16540.82 8557 16543.32 8438 16566.99 7940 16566.99 7821 16543.32 7720.11 16475.91 7652.7 16375.02 7629.02 16256.02 7629.02 16001.97 7461.94 16001.97 7461.94 16236.02 4753.94 16236.02 4753.94 16001.97 4617.42 16001.97 4553.93 16028.27 4553.93 16028.27 4474.88 16061.01 4254.48 16061.01 4050.87 15976.67 3895.02 15820.83 3810.68 15617.21 3810.68 15396.82 3895.02 15193.2 4050.87 15037.36 4254.48 14953.02 4474.88 14953.02 4553.93 14985.76 4753.94 14852.12 4753.94 14778.01 5110.13 14778.01 5253.4 14641.06 5253.4 14578.01 5253.4 14319.46 4034.91 14319.46 2553.47 15800.9 2553.47 17752.08 2571.11 17871.1 2753.47 17910.2 3002.3 17661.37 3086.31 17605.23 3185.42 17585.52 7188.46 17585.52 7213.48 17590.49 7442.46 17590.49 7442.46 17819.48 7447.44 17844.49 7447.44 18794.49 7442.46 18819.51 7442.46 19048.49 7300.71 19048.49 6211.97 20137.23 6211.97 23196.54 7269.45 24254.02 7335.05 24254.02 7499 24166.99"/><path d="M 19712.3 22547.98 20162.28 22098 20162.28 14824.28 19977 14638.99 17929.86 14638.99 15670.42 16898.43 15666.93 16915.99 15666.93 17011 15638.21 17011 15596.05 17074.1 15512.03 17130.23 15420.38 17148.46 15311.84 17257.01 12367.33 17257.01 12367.33 17361.01 11084.33 17361.01 10538.35 17907 9912 17907 9703 18116 9703 19107.01 17107.01 19107.01 17929.86 19929.86 17929.86 22547.99 19712.3 22547.98"/><path d="M 27698 22388.02 27698 17895 28511.5 17081.5 28511.5 16892.6 28576.41 16650.35 28701.81 16433.15 28879.15 16255.81 29096.35 16130.41 29338.6 16065.5 29464 16065.5 29464 13234.46 28422.62 13234.46 28422.61 13234.47 28305.55 13211.18 28206.32 13144.88 27914.23 12852.79 27914.22 12852.78 27847.92 12753.55 27824.64 12636.5 26964.78 12636.5 22562.31 17038.97 22562.31 22562.31 22860 22860 27226.02 22860 27698 22388.02"/><path d="M 8571 7262.03 8571 6262.03 9121 5712.03 10121 5712.03 10499.1 5333.93 10499.1 2865.47 9142.9 2865.47 8999.97 2722.54 8888.9 2722.54 8888.9 2611.48 7777.42 1500 5000 1500 5000 8500 7333.03 8500 8571 7262.03"/></g><path d="M 45000 41500 42666.97 41500 41429 42737.97 41429 43737.97 41083 44083.97 41083 44191.97 40975 44191.97 40879 44287.97 39879 44287.97 39500.9 44666.07 39500.9 47134.53 40857.1 47134.53 40947.82 47225.25 41111.1 47225.25 41111.1 47388.52 42222.57 48500 45000 48500 45000 41500"/><path d="M 8688.9 47588.53 8688.9 47244.46 9032.96 47244.46 9142.9 47134.53 10499.1 47134.53 10499.1 44666.07 10121 44287.97 9121 44287.97 8571 43737.97 8571 42737.97 7333.03 41500 5000 41500 5000 48500 7777.42 48500 8688.9 47588.53"/><path d="M 47134.53 9142.9 47276.6 9000.83 47276.6 8902.13 47375.29 8902.13 48500 7777.42 48500 5000 41500 5000 41500 7333.03 42737.97 8571 43737.97 8571 44287.97 9121 44287.97 10121 44666.07 10499.1 47134.53 10499.1 47134.53 9142.9"/></g><use xlink:href="#RjZN9g6Mqcb9GVTtGq0C_pad-10" x="9621" y="46574.22"/><use xlink:href="#RjZN9g6Mqcb9GVTtGq0C_pad-10" x="9621" y="48025.78"/><use xlink:href="#RjZN9g6Mqcb9GVTtGq0C_pad-10" x="9821" y="3392.79"/><use xlink:href="#RjZN9g6Mqcb9GVTtGq0C_pad-10" x="9821" y="1941.23"/><use xlink:href="#RjZN9g6Mqcb9GVTtGq0C_pad-10" x="40179" y="46555"/><use xlink:href="#RjZN9g6Mqcb9GVTtGq0C_pad-10" x="40179" y="48006.56"/><use xlink:href="#RjZN9g6Mqcb9GVTtGq0C_pad-11" x="9621" y="44769"/><use xlink:href="#RjZN9g6Mqcb9GVTtGq0C_pad-11" x="9621" y="43369"/><use xlink:href="#RjZN9g6Mqcb9GVTtGq0C_pad-11" x="9821" y="5212.03"/><use xlink:href="#RjZN9g6Mqcb9GVTtGq0C_pad-11" x="9821" y="6612.03"/><use xlink:href="#RjZN9g6Mqcb9GVTtGq0C_pad-11" x="40379" y="44987.97"/><use xlink:href="#RjZN9g6Mqcb9GVTtGq0C_pad-11" x="40379" y="43587.97"/><use xlink:href="#RjZN9g6Mqcb9GVTtGq0C_pad-11" x="14539.14" y="40903.02"/><use xlink:href="#RjZN9g6Mqcb9GVTtGq0C_pad-11" x="14539.14" y="39503.02"/><use xlink:href="#RjZN9g6Mqcb9GVTtGq0C_pad-11" x="15972.47" y="39516.55"/><use xlink:href="#RjZN9g6Mqcb9GVTtGq0C_pad-11" x="15972.47" y="40916.55"/><use xlink:href="#RjZN9g6Mqcb9GVTtGq0C_pad-11" x="35090.01" y="33008.06"/><use xlink:href="#RjZN9g6Mqcb9GVTtGq0C_pad-11" x="35090.01" y="31608.06"/><use xlink:href="#RjZN9g6Mqcb9GVTtGq0C_pad-11" x="33656.68" y="32994.53"/><use xlink:href="#RjZN9g6Mqcb9GVTtGq0C_pad-11" x="33656.68" y="31594.54"/><use xlink:href="#RjZN9g6Mqcb9GVTtGq0C_pad-12" x="46606.35" y="9834.23"/><use xlink:href="#RjZN9g6Mqcb9GVTtGq0C_pad-12" x="48057.91" y="9834.23"/><use xlink:href="#RjZN9g6Mqcb9GVTtGq0C_pad-13" x="44632.34" y="10054.5"/><use xlink:href="#RjZN9g6Mqcb9GVTtGq0C_pad-13" x="43232.34" y="10054.5"/><use xlink:href="#RjZN9g6Mqcb9GVTtGq0C_pad-13" x="12607.62" y="31260.26"/><use xlink:href="#RjZN9g6Mqcb9GVTtGq0C_pad-13" x="14007.62" y="31260.26"/><use xlink:href="#RjZN9g6Mqcb9GVTtGq0C_pad-13" x="17954.81" y="31260.26"/><use xlink:href="#RjZN9g6Mqcb9GVTtGq0C_pad-13" x="19354.81" y="31260.26"/><use xlink:href="#RjZN9g6Mqcb9GVTtGq0C_pad-13" x="15292.54" y="31260.26"/><use xlink:href="#RjZN9g6Mqcb9GVTtGq0C_pad-13" x="16692.54" y="31260.26"/><use xlink:href="#RjZN9g6Mqcb9GVTtGq0C_pad-13" x="9909.74" y="31260.28"/><use xlink:href="#RjZN9g6Mqcb9GVTtGq0C_pad-13" x="11309.74" y="31260.28"/><use xlink:href="#RjZN9g6Mqcb9GVTtGq0C_pad-13" x="12607.6" y="32711.39"/><use xlink:href="#RjZN9g6Mqcb9GVTtGq0C_pad-13" x="14007.6" y="32711.39"/><use xlink:href="#RjZN9g6Mqcb9GVTtGq0C_pad-13" x="11309.74" y="32711.39"/><use xlink:href="#RjZN9g6Mqcb9GVTtGq0C_pad-13" x="9909.74" y="32711.39"/><use xlink:href="#RjZN9g6Mqcb9GVTtGq0C_pad-13" x="10987.74" y="34662.36"/><use xlink:href="#RjZN9g6Mqcb9GVTtGq0C_pad-13" x="12387.73" y="34662.36"/><use xlink:href="#RjZN9g6Mqcb9GVTtGq0C_pad-13" x="16692.54" y="32711.37"/><use xlink:href="#RjZN9g6Mqcb9GVTtGq0C_pad-13" x="15292.54" y="32711.37"/><use xlink:href="#RjZN9g6Mqcb9GVTtGq0C_pad-13" x="19354.81" y="32711.39"/><use xlink:href="#RjZN9g6Mqcb9GVTtGq0C_pad-13" x="17954.81" y="32711.39"/><use xlink:href="#RjZN9g6Mqcb9GVTtGq0C_pad-13" x="20648.78" y="30879.23"/><use xlink:href="#RjZN9g6Mqcb9GVTtGq0C_pad-13" x="22048.78" y="30879.23"/><use xlink:href="#RjZN9g6Mqcb9GVTtGq0C_pad-13" x="37176.41" y="37848.72"/><use xlink:href="#RjZN9g6Mqcb9GVTtGq0C_pad-13" x="38576.41" y="37848.72"/><use xlink:href="#RjZN9g6Mqcb9GVTtGq0C_pad-13" x="39719.43" y="41250.82"/><use xlink:href="#RjZN9g6Mqcb9GVTtGq0C_pad-13" x="38319.43" y="41250.82"/><use xlink:href="#RjZN9g6Mqcb9GVTtGq0C_pad-13" x="30285.01" y="39799.69"/><use xlink:href="#RjZN9g6Mqcb9GVTtGq0C_pad-13" x="31685.01" y="39799.69"/><use xlink:href="#RjZN9g6Mqcb9GVTtGq0C_pad-13" x="34336.63" y="39799.69"/><use xlink:href="#RjZN9g6Mqcb9GVTtGq0C_pad-13" x="32936.63" y="39799.69"/><use xlink:href="#RjZN9g6Mqcb9GVTtGq0C_pad-13" x="37021.55" y="39799.69"/><use xlink:href="#RjZN9g6Mqcb9GVTtGq0C_pad-13" x="35621.55" y="39799.69"/><use xlink:href="#RjZN9g6Mqcb9GVTtGq0C_pad-13" x="38319.41" y="39799.69"/><use xlink:href="#RjZN9g6Mqcb9GVTtGq0C_pad-13" x="39719.41" y="39799.69"/><use xlink:href="#RjZN9g6Mqcb9GVTtGq0C_pad-13" x="31685.01" y="41250.82"/><use xlink:href="#RjZN9g6Mqcb9GVTtGq0C_pad-13" x="30285.01" y="41250.82"/><use xlink:href="#RjZN9g6Mqcb9GVTtGq0C_pad-13" x="27580.32" y="41631.85"/><use xlink:href="#RjZN9g6Mqcb9GVTtGq0C_pad-13" x="28980.37" y="41631.85"/><use xlink:href="#RjZN9g6Mqcb9GVTtGq0C_pad-13" x="34336.61" y="41250.82"/><use xlink:href="#RjZN9g6Mqcb9GVTtGq0C_pad-13" x="32936.61" y="41250.82"/><use xlink:href="#RjZN9g6Mqcb9GVTtGq0C_pad-13" x="37021.53" y="41250.82"/><use xlink:href="#RjZN9g6Mqcb9GVTtGq0C_pad-13" x="35621.53" y="41250.82"/><use xlink:href="#RjZN9g6Mqcb9GVTtGq0C_pad-13" x="10938.33" y="13930.99"/><use xlink:href="#RjZN9g6Mqcb9GVTtGq0C_pad-13" x="12338.33" y="13930.99"/><use xlink:href="#RjZN9g6Mqcb9GVTtGq0C_pad-13" x="11110.98" y="11938"/><use xlink:href="#RjZN9g6Mqcb9GVTtGq0C_pad-13" x="12511.02" y="11938"/><use xlink:href="#RjZN9g6Mqcb9GVTtGq0C_pad-14" x="38269.4" y="35854.04"/><use xlink:href="#RjZN9g6Mqcb9GVTtGq0C_pad-14" x="38269.4" y="34554.04"/><use xlink:href="#RjZN9g6Mqcb9GVTtGq0C_pad-14" x="40169.4" y="35204.03"/><use xlink:href="#RjZN9g6Mqcb9GVTtGq0C_pad-14" x="11337.74" y="36504.97"/><use xlink:href="#RjZN9g6Mqcb9GVTtGq0C_pad-14" x="11337.74" y="37804.97"/><use xlink:href="#RjZN9g6Mqcb9GVTtGq0C_pad-14" x="9437.74" y="37154.97"/><use xlink:href="#RjZN9g6Mqcb9GVTtGq0C_pad-15" x="14810.09" y="42468.68"/><use xlink:href="#RjZN9g6Mqcb9GVTtGq0C_pad-15" x="13210.09" y="42468.68"/><use xlink:href="#RjZN9g6Mqcb9GVTtGq0C_pad-15" x="34819.06" y="30042.41"/><use xlink:href="#RjZN9g6Mqcb9GVTtGq0C_pad-15" x="36419.06" y="30042.41"/><use xlink:href="#RjZN9g6Mqcb9GVTtGq0C_pad-15" x="9690" y="29007.98"/><use xlink:href="#RjZN9g6Mqcb9GVTtGq0C_pad-15" x="8090" y="29007.98"/><use xlink:href="#RjZN9g6Mqcb9GVTtGq0C_pad-15" x="18773.06" y="39550.1"/><use xlink:href="#RjZN9g6Mqcb9GVTtGq0C_pad-15" x="17423.06" y="39550.1"/><use xlink:href="#RjZN9g6Mqcb9GVTtGq0C_pad-15" x="32206.04" y="32960.98"/><use xlink:href="#RjZN9g6Mqcb9GVTtGq0C_pad-15" x="30856.09" y="32960.98"/><use xlink:href="#RjZN9g6Mqcb9GVTtGq0C_pad-15" x="18683.97" y="2412.99"/><use xlink:href="#RjZN9g6Mqcb9GVTtGq0C_pad-15" x="20283.97" y="2412.99"/><use xlink:href="#RjZN9g6Mqcb9GVTtGq0C_pad-16" x="48895.55" y="28877.94"/><use xlink:href="#RjZN9g6Mqcb9GVTtGq0C_pad-16" x="47095.55" y="28877.94"/><use xlink:href="#RjZN9g6Mqcb9GVTtGq0C_pad-16" x="47995.55" y="26727.94"/><use xlink:href="#RjZN9g6Mqcb9GVTtGq0C_pad-16" x="3999.99" y="26782.98"/><use xlink:href="#RjZN9g6Mqcb9GVTtGq0C_pad-16" x="3099.99" y="28932.98"/><use xlink:href="#RjZN9g6Mqcb9GVTtGq0C_pad-16" x="4899.99" y="28932.98"/><use xlink:href="#RjZN9g6Mqcb9GVTtGq0C_pad-17" x="1397" y="30183.02"/><use xlink:href="#RjZN9g6Mqcb9GVTtGq0C_pad-17" x="1397" y="27982.98"/><use xlink:href="#RjZN9g6Mqcb9GVTtGq0C_pad-17" x="45085" y="27628.95"/><use xlink:href="#RjZN9g6Mqcb9GVTtGq0C_pad-17" x="45085" y="29829"/><use xlink:href="#RjZN9g6Mqcb9GVTtGq0C_pad-18" x="47370.55" y="30083"/><use xlink:href="#RjZN9g6Mqcb9GVTtGq0C_pad-18" x="48620.55" y="30083"/><use xlink:href="#RjZN9g6Mqcb9GVTtGq0C_pad-18" x="3374.99" y="30183.02"/><use xlink:href="#RjZN9g6Mqcb9GVTtGq0C_pad-18" x="4624.99" y="30183.02"/><use xlink:href="#RjZN9g6Mqcb9GVTtGq0C_pad-18" x="6732.94" y="15507.01"/><use xlink:href="#RjZN9g6Mqcb9GVTtGq0C_pad-18" x="5482.94" y="15507.01"/><use xlink:href="#RjZN9g6Mqcb9GVTtGq0C_pad-19" x="45085" y="26279"/><use xlink:href="#RjZN9g6Mqcb9GVTtGq0C_pad-19" x="45085" y="25029"/><use xlink:href="#RjZN9g6Mqcb9GVTtGq0C_pad-19" x="6400.03" y="27732.98"/><use xlink:href="#RjZN9g6Mqcb9GVTtGq0C_pad-19" x="6400.03" y="28982.98"/><use xlink:href="#RjZN9g6Mqcb9GVTtGq0C_pad-19" x="6713.46" y="17069.46"/><use xlink:href="#RjZN9g6Mqcb9GVTtGq0C_pad-19" x="6713.46" y="18319.49"/><use xlink:href="#RjZN9g6Mqcb9GVTtGq0C_pad-19" x="11638.33" y="16632.01"/><use xlink:href="#RjZN9g6Mqcb9GVTtGq0C_pad-19" x="11638.33" y="17882"/><use xlink:href="#RjZN9g6Mqcb9GVTtGq0C_pad-20" x="41574.25" y="30083"/><use xlink:href="#RjZN9g6Mqcb9GVTtGq0C_pad-20" x="43174.25" y="30083"/><use xlink:href="#RjZN9g6Mqcb9GVTtGq0C_pad-20" x="7641.56" y="30359.83"/><use xlink:href="#RjZN9g6Mqcb9GVTtGq0C_pad-20" x="6041.56" y="30359.83"/><use xlink:href="#RjZN9g6Mqcb9GVTtGq0C_pad-21" x="39719.41" y="30879.14"/><use xlink:href="#RjZN9g6Mqcb9GVTtGq0C_pad-21" x="39719.41" y="29279.14"/><use xlink:href="#RjZN9g6Mqcb9GVTtGq0C_pad-22" x="18850.46" y="41054.71"/><use xlink:href="#RjZN9g6Mqcb9GVTtGq0C_pad-22" x="17198.06" y="41054.71"/><use xlink:href="#RjZN9g6Mqcb9GVTtGq0C_pad-22" x="32431.1" y="31456.37"/><use xlink:href="#RjZN9g6Mqcb9GVTtGq0C_pad-22" x="30778.72" y="31456.37"/><use xlink:href="#RjZN9g6Mqcb9GVTtGq0C_pad-23" x="13159.92" y="39504.44"/><use xlink:href="#RjZN9g6Mqcb9GVTtGq0C_pad-23" x="13159.92" y="41104.44"/><use xlink:href="#RjZN9g6Mqcb9GVTtGq0C_pad-23" x="36469.23" y="33006.64"/><use xlink:href="#RjZN9g6Mqcb9GVTtGq0C_pad-23" x="36469.23" y="31406.64"/><use xlink:href="#RjZN9g6Mqcb9GVTtGq0C_pad-23" x="11810.99" y="6312.03"/><use xlink:href="#RjZN9g6Mqcb9GVTtGq0C_pad-23" x="11810.99" y="7912.03"/><use xlink:href="#RjZN9g6Mqcb9GVTtGq0C_pad-23" x="14812.15" y="6312.01"/><use xlink:href="#RjZN9g6Mqcb9GVTtGq0C_pad-23" x="14812.15" y="7912.05"/><use xlink:href="#RjZN9g6Mqcb9GVTtGq0C_pad-24" x="15966.12" y="36189.08"/><use xlink:href="#RjZN9g6Mqcb9GVTtGq0C_pad-24" x="33663.03" y="36322"/><use xlink:href="#RjZN9g6Mqcb9GVTtGq0C_pad-25" x="17216.12" y="38079.61"/><use xlink:href="#RjZN9g6Mqcb9GVTtGq0C_pad-25" x="32412.99" y="34431.48"/><use xlink:href="#RjZN9g6Mqcb9GVTtGq0C_pad-26" x="16716.12" y="38079.61"/><use xlink:href="#RjZN9g6Mqcb9GVTtGq0C_pad-26" x="16216.12" y="38079.61"/><use xlink:href="#RjZN9g6Mqcb9GVTtGq0C_pad-26" x="15716.12" y="38079.61"/><use xlink:href="#RjZN9g6Mqcb9GVTtGq0C_pad-26" x="15216.12" y="38079.61"/><use xlink:href="#RjZN9g6Mqcb9GVTtGq0C_pad-26" x="14716.12" y="38079.61"/><use xlink:href="#RjZN9g6Mqcb9GVTtGq0C_pad-26" x="14716.12" y="34298.55"/><use xlink:href="#RjZN9g6Mqcb9GVTtGq0C_pad-26" x="15216.12" y="34298.55"/><use xlink:href="#RjZN9g6Mqcb9GVTtGq0C_pad-26" x="15716.12" y="34298.55"/><use xlink:href="#RjZN9g6Mqcb9GVTtGq0C_pad-26" x="16216.12" y="34298.55"/><use xlink:href="#RjZN9g6Mqcb9GVTtGq0C_pad-26" x="16716.12" y="34298.55"/><use xlink:href="#RjZN9g6Mqcb9GVTtGq0C_pad-26" x="17216.12" y="34298.55"/><use xlink:href="#RjZN9g6Mqcb9GVTtGq0C_pad-26" x="32412.99" y="38212.52"/><use xlink:href="#RjZN9g6Mqcb9GVTtGq0C_pad-26" x="32913.02" y="38212.52"/><use xlink:href="#RjZN9g6Mqcb9GVTtGq0C_pad-26" x="33412.99" y="38212.52"/><use xlink:href="#RjZN9g6Mqcb9GVTtGq0C_pad-26" x="33913.01" y="38212.52"/><use xlink:href="#RjZN9g6Mqcb9GVTtGq0C_pad-26" x="34412.99" y="38212.52"/><use xlink:href="#RjZN9g6Mqcb9GVTtGq0C_pad-26" x="34913.01" y="38212.52"/><use xlink:href="#RjZN9g6Mqcb9GVTtGq0C_pad-26" x="34913.01" y="34431.48"/><use xlink:href="#RjZN9g6Mqcb9GVTtGq0C_pad-26" x="34412.99" y="34431.48"/><use xlink:href="#RjZN9g6Mqcb9GVTtGq0C_pad-26" x="33913.01" y="34431.48"/><use xlink:href="#RjZN9g6Mqcb9GVTtGq0C_pad-26" x="33412.99" y="34431.48"/><use xlink:href="#RjZN9g6Mqcb9GVTtGq0C_pad-26" x="32913.02" y="34431.48"/><use xlink:href="#RjZN9g6Mqcb9GVTtGq0C_pad-27" x="13575.59" y="36939.08"/><use xlink:href="#RjZN9g6Mqcb9GVTtGq0C_pad-27" x="13575.59" y="36439.08"/><use xlink:href="#RjZN9g6Mqcb9GVTtGq0C_pad-27" x="13575.59" y="35939.08"/><use xlink:href="#RjZN9g6Mqcb9GVTtGq0C_pad-27" x="13575.59" y="35439.08"/><use xlink:href="#RjZN9g6Mqcb9GVTtGq0C_pad-27" x="18356.66" y="35439.08"/><use xlink:href="#RjZN9g6Mqcb9GVTtGq0C_pad-27" x="18356.66" y="35939.08"/><use xlink:href="#RjZN9g6Mqcb9GVTtGq0C_pad-27" x="18356.66" y="36439.08"/><use xlink:href="#RjZN9g6Mqcb9GVTtGq0C_pad-27" x="18356.66" y="36939.08"/><use xlink:href="#RjZN9g6Mqcb9GVTtGq0C_pad-27" x="31272.48" y="35571.99"/><use xlink:href="#RjZN9g6Mqcb9GVTtGq0C_pad-27" x="31272.48" y="36072.01"/><use xlink:href="#RjZN9g6Mqcb9GVTtGq0C_pad-27" x="31272.48" y="36571.99"/><use xlink:href="#RjZN9g6Mqcb9GVTtGq0C_pad-27" x="31272.48" y="37072.01"/><use xlink:href="#RjZN9g6Mqcb9GVTtGq0C_pad-27" x="36053.52" y="37072.01"/><use xlink:href="#RjZN9g6Mqcb9GVTtGq0C_pad-27" x="36053.52" y="36571.99"/><use xlink:href="#RjZN9g6Mqcb9GVTtGq0C_pad-27" x="36053.52" y="36072.01"/><use xlink:href="#RjZN9g6Mqcb9GVTtGq0C_pad-27" x="36053.52" y="35571.99"/><use xlink:href="#RjZN9g6Mqcb9GVTtGq0C_pad-28" x="20769.73" y="33914.08"/><use xlink:href="#RjZN9g6Mqcb9GVTtGq0C_pad-28" x="20769.73" y="32360.66"/><use xlink:href="#RjZN9g6Mqcb9GVTtGq0C_pad-28" x="20769.74" y="40018.07"/><use xlink:href="#RjZN9g6Mqcb9GVTtGq0C_pad-28" x="20769.74" y="38464.66"/><use xlink:href="#RjZN9g6Mqcb9GVTtGq0C_pad-28" x="20769.74" y="35412.65"/><use xlink:href="#RjZN9g6Mqcb9GVTtGq0C_pad-28" x="20769.74" y="36966.07"/><use xlink:href="#RjZN9g6Mqcb9GVTtGq0C_pad-28" x="28859.41" y="37098.43"/><use xlink:href="#RjZN9g6Mqcb9GVTtGq0C_pad-28" x="28859.41" y="35545.01"/><use xlink:href="#RjZN9g6Mqcb9GVTtGq0C_pad-28" x="28859.41" y="40150.43"/><use xlink:href="#RjZN9g6Mqcb9GVTtGq0C_pad-28" x="28859.41" y="38597.01"/><use xlink:href="#RjZN9g6Mqcb9GVTtGq0C_pad-28" x="28859.41" y="34046.43"/><use xlink:href="#RjZN9g6Mqcb9GVTtGq0C_pad-28" x="28859.41" y="32493.01"/><use xlink:href="#RjZN9g6Mqcb9GVTtGq0C_pad-29" x="19177" y="10789"/><use xlink:href="#RjZN9g6Mqcb9GVTtGq0C_pad-29" x="19177" y="16389"/><use xlink:href="#RjZN9g6Mqcb9GVTtGq0C_pad-30" x="46228" y="15494"/><use xlink:href="#RjZN9g6Mqcb9GVTtGq0C_pad-30" x="46228" y="20701"/><use xlink:href="#RjZN9g6Mqcb9GVTtGq0C_pad-31" x="13335" y="21853"/><use xlink:href="#RjZN9g6Mqcb9GVTtGq0C_pad-31" x="13335" y="26153"/><use xlink:href="#RjZN9g6Mqcb9GVTtGq0C_pad-32" x="8678" y="21862.99"/><use xlink:href="#RjZN9g6Mqcb9GVTtGq0C_pad-32" x="5028" y="21862.99"/><use xlink:href="#RjZN9g6Mqcb9GVTtGq0C_pad-33" x="7490.17" y="13930.99"/><use xlink:href="#RjZN9g6Mqcb9GVTtGq0C_pad-33" x="5936.75" y="13930.99"/><use xlink:href="#RjZN9g6Mqcb9GVTtGq0C_pad-34" x="8189" y="15757.02"/><use xlink:href="#RjZN9g6Mqcb9GVTtGq0C_pad-34" x="9139" y="15757.02"/><use xlink:href="#RjZN9g6Mqcb9GVTtGq0C_pad-34" x="10089" y="15757.02"/><use xlink:href="#RjZN9g6Mqcb9GVTtGq0C_pad-34" x="10089" y="18457"/><use xlink:href="#RjZN9g6Mqcb9GVTtGq0C_pad-34" x="9139" y="18457"/><use xlink:href="#RjZN9g6Mqcb9GVTtGq0C_pad-34" x="8189" y="18457"/><use xlink:href="#RjZN9g6Mqcb9GVTtGq0C_pad-35" x="13209.78" y="18083.21"/><use xlink:href="#RjZN9g6Mqcb9GVTtGq0C_pad-35" x="13209.78" y="16430.81"/><use xlink:href="#RjZN9g6Mqcb9GVTtGq0C_pad-35" x="14813.33" y="18083.21"/><use xlink:href="#RjZN9g6Mqcb9GVTtGq0C_pad-35" x="14813.33" y="16430.81"/><use xlink:href="#RjZN9g6Mqcb9GVTtGq0C_pad-35" x="5065.88" y="18513.67"/><use xlink:href="#RjZN9g6Mqcb9GVTtGq0C_pad-35" x="5065.88" y="16861.25"/><use xlink:href="#RjZN9g6Mqcb9GVTtGq0C_pad-35" x="3435" y="18520.71"/><use xlink:href="#RjZN9g6Mqcb9GVTtGq0C_pad-35" x="3435" y="16868.29"/><use xlink:href="#RjZN9g6Mqcb9GVTtGq0C_pad-36" x="23312.31" y="20828"/><use xlink:href="#RjZN9g6Mqcb9GVTtGq0C_pad-36" x="19112.27" y="20828"/><use xlink:href="#RjZN9g6Mqcb9GVTtGq0C_pad-37" x="20858.99" y="6430.87"/><use xlink:href="#RjZN9g6Mqcb9GVTtGq0C_pad-37" x="18108.98" y="6430.87"/><use xlink:href="#RjZN9g6Mqcb9GVTtGq0C_pad-38" x="26448" y="20828"/><use xlink:href="#RjZN9g6Mqcb9GVTtGq0C_pad-38" x="30448" y="20828"/><path d="M 9959.76 31110.26 10132.74 30937.28 M 10132.74 30737.23 10386.72 30483.26 M 10132.74 30737.23 10132.74 30937.28 M 9759.72 31110.26 9959.76 31110.26 M 10386.72 30483.26 13656.23 30483.26 M 19245.68 31051.13 19481.52 31051.13 M 19131.81 30937.26 19245.68 31051.13 M 17045.78 30483.26 18743.51 30483.26 M 19131.81 30871.55 19131.81 30937.26 M 18743.51 30483.26 19131.81 30871.55 M 39669.43 41400.82 39869.43 41400.82 M 39922.04 40968.59 39922.04 41453.43 M 30285.01 41439.68 30373.87 41439.68 M 34842.35 30042.41 34842.35 31385.06 M 32396.04 31458.05 34915.34 31458.05 M 17198.06 41053.03 17233.11 41053.03 M 14713.81 41053.03 17198.06 41053.03 M 14786.8 41126.02 14786.8 42468.68 M 11052.74 34562.36 11052.74 34662.36 M 9707.11 31057.65 9707.11 31542.49 M 39496.43 41573.83 39496.43 41773.83 M 35972.92 42027.83 39242.43 42027.83 M 39496.43 41573.83 39669.43 41400.82 M 39242.43 42027.83 39496.43 41773.83 M 39719.43 41250.82 39869.43 41400.82 M 30873.16 42027.83 32583.37 42027.83 M 30373.87 41439.68 30508.02 41573.83 M 30508.02 41662.69 30873.16 42027.83 M 30508.02 41573.83 30508.02 41662.69 M 12834.03 12261 14504.02 13930.99 18469 13930.99 19177 14638.99 M 7700.01 37144.99 7700.01 38000.03 7700.01 39580.95 M 12460 44340.94 12460 48100 M 7700.01 39580.95 12460 44340.94 M 10637.73 38704.82 10637.73 41712.1 M 15000 46074.36 15000 48100 M 10637.73 41712.1 15000 46074.36 M 35000 46080.38 37342.41 43737.97 M 35000 46080.38 35000 48100 M 37540 44928.43 37540 48100 M 37540 44928.43 41119 41349.43 M 41119 36238.77 41119 41349.43 M 13331.29 36439.08 13575.59 36439.08 M 11337.74 37804.97 12082.37 37804.97 M 11150.62 38693.44 11337.74 38506.32 M 11337.74 37804.97 11337.74 38506.32 M 10642.09 38693.44 11150.62 38693.44 M 10637.73 38689.08 10642.09 38693.44 M 10637.73 38689.08 10637.73 38704.82 M 7700.01 37144.99 8527.16 36317.84 11150.62 36317.84 M 12082.37 37804.97 12948.25 36939.08 13575.59 36939.08 M 11150.62 36317.84 11337.74 36504.97 M 11397.86 36444.84 13569.83 36444.84 M 11337.74 36504.97 11397.86 36444.84 M 13569.83 36444.84 13575.59 36439.08 M 40952.24 36072.01 41119 36238.77 M 4014.55 30985.02 5416.36 30985.02 M 3722.99 30531.02 3722.99 30693.47 M 5416.36 30985.02 6041.56 30359.83 M 3722.99 30693.47 4014.55 30985.02 M 3374.99 30183.02 3722.99 30531.02 M 37084 17018 37084 21561.33 M 27178 31467.33 27178 35115.65 M 27178 31467.33 37084 21561.33 M 35814 14478 35814 21970.49 M 26416 31368.49 26416 36693.22 M 26416 31368.49 35814 21970.49 M 23368 32437.92 34544 21261.92 M 34544 17018 34544 21261.92 M 23368 32437.92 23368 35622.02 M 22023.95 36966.07 23368 35622.02 M 22760 32104 33274 21590 M 22760 32104 22760 33703.44 M 21380.15 35083.3 22760 33703.44 M 21099.1 35083.3 21380.15 35083.3 M 20769.74 35412.65 21099.1 35083.3 M 20769.74 36966.07 22023.95 36966.07 M 28859.41 37098.43 28859.41 38597.01 M 26821.2 37098.43 28859.41 37098.43 M 26416 36693.22 26821.2 37098.43 M 28859.41 34046.43 28859.41 35526.18 M 28867.28 35526.18 28886.12 35545.01 M 28859.41 35526.18 28867.28 35526.18 M 27588.52 35526.18 28859.41 35526.18 M 27178 35115.65 27588.52 35526.18 M 36432.5 30079.14 36432.5 31369.91 M 11810.99 7912.03 11810.99 8793.99 M 2498.7 9271 11333.98 9271 11810.99 8793.99 M 1814 9955.71 2498.7 9271 M 1814 11870.99 3874 13930.99 M 1814 9955.71 1814 11870.99 M 14812.15 7958.87 14859 7912.03 M 14765.33 7958.87 14812.15 7958.87 M 12511.02 10213.18 14765.33 7958.87 M 12511.02 10213.18 12511.02 11938 M 12734.03 12261 12834.03 12261 M 12511.02 11938 12511.02 12038 12734.03 12261 M 2921 10795 4064 11938 11110.98 11938 M 10938.33 13930.99 10938.33 14030.99 M 10615.33 14253.99 10715.33 14253.99 M 10089 14780.32 10089 15757.02 M 10715.33 14253.99 10938.33 14030.99 M 10089 14780.32 10615.33 14253.99 M 7490.17 13930.99 10938.33 13930.99 M 9139 14637.06 9139 15757.02 M 39869.43 41400.82 39922.04 41453.43 M 9707.13 31057.67 9759.72 31110.26 M 3874 13930.99 5936.75 13930.99 M 6732.94 15507.01 8016 15507.01 8189 15680.01 8189 15757.02 M 2165 15639.99 3874 13930.99 M 39942.43 40948.19 40247.62 40948.19 M 40396.41 38722.69 40396.41 40799.4 M 39845.44 38171.72 40396.41 38722.69 M 40247.62 40948.19 40396.41 40799.4 M 39922.04 40968.59 39942.43 40948.19 M 14007.62 31260.26 14210.23 31057.65 M 14210.23 30632.05 14210.23 31057.65 M 13805.02 31057.65 14007.62 31260.26 M 13805.02 30632.05 13805.02 31057.65 M 13656.23 30483.26 13805.02 30632.05 M 14713.81 41053.03 14786.8 41126.02 M 14539.14 40903.02 14689.15 41053.03 M 14539.14 40903.02 14563.79 40903.02 M 14359.02 30483.26 16341.15 30483.26 16489.94 30632.05 M 16896.07 30632.97 17045.78 30483.26 M 16896.07 30632.97 16896.07 31056.73 M 16692.54 31260.26 16896.07 31056.73 M 16489.94 31057.65 16692.54 31260.26 M 16489.94 30632.05 16489.94 31057.65 M 14210.23 30632.05 14359.02 30483.26 M 14563.79 40903.02 14713.81 41053.03 M 14689.15 41053.03 14713.81 41053.03 M 9783.71 34339.36 10829.73 34339.36 M 9232.74 31711.68 9232.74 33788.39 M 9381.53 31562.89 9686.71 31562.89 M 9232.74 33788.39 9783.71 34339.36 M 9232.74 31711.68 9381.53 31562.89 M 9686.71 31562.89 9707.11 31542.49 M 10829.73 34339.36 11052.74 34562.36 M 16716.12 34298.55 16721.89 34292.79 M 16721.89 33758.02 16842.54 33637.37 M 16721.89 33758.02 16721.89 34292.79 M 18356.67 35939.1 20216.59 35939.1 M 20769.74 36966.07 20769.74 38464.66 M 20769.74 33914.07 20769.74 35412.65 M 20216.59 35939.1 20743.03 35412.65 M 38576.41 37848.72 38576.41 37948.72 38799.41 38171.72 39845.44 38171.72 M 35418.92 41453.43 35418.92 41879.03 M 35824.13 41879.03 35972.92 42027.83 M 35270.13 42027.83 35418.92 41879.03 M 35824.13 41453.43 35824.13 41879.03 M 35418.92 41453.43 35621.53 41250.82 35824.13 41453.43 M 34842.35 31385.06 34915.34 31458.05 34940 31458.05 35090.01 31608.06 M 34915.34 31458.05 35065.36 31608.06 35090.01 31608.06 M 33288 42027.83 35270.13 42027.83 M 32583.37 42027.83 32733.08 41878.12 M 33139.21 41453.43 33139.21 41879.03 M 32733.08 41454.35 32733.08 41878.12 M 33139.21 41879.03 33288 42027.83 M 32733.08 41454.35 32936.61 41250.82 33139.21 41453.43 M 14859 6311.98 14897.02 6350 18028.11 6350 M 11810.99 2667.01 12065.01 2412.99 18683.97 2412.99 M 11810.99 2667.01 11810.99 6312.02 M 2313.8 18520.71 3435 18520.71 M 2165 18371.92 2313.8 18520.71 M 4364.68 15507.01 5482.94 15507.01 M 2165 15639.99 2165 18371.92 M 18028.11 6350 18108.98 6430.87 M 33274 14478 33274 21590" fill="none" stroke-width="254"/><path d="M 19396.45 31136.2 19481.52 31051.13 M 19354.81 31177.84 19396.45 31136.2 M 28833.18 41879.03 29130.33 41879.03 M 28980.37 41631.85 28980.37 41729.07 M 28980.37 41589.69 28980.37 41631.85 M 19481.52 31051.13 19504.81 31027.84 M 20648.77 30879.25 20648.78 30879.23 M 20500.18 31027.84 20648.77 30879.25 M 19354.81 31177.84 19354.81 31260.26 M 19504.81 31027.84 20500.18 31027.84 M 29130.37 41439.68 30135.01 41439.68 M 30285.01 41250.82 30285.01 41289.68 M 28980.37 41589.69 29130.37 41439.68 M 30135.01 41439.68 30285.01 41289.68 M 20648.77 28004.39 20786.04 27867.12 M 20648.77 28004.39 20648.77 30879.25 M 20786.04 27813 20786.04 27867.12 M 46228 21590 46228 24007.07 M 47995.55 25774.61 47995.55 26727.94 M 46228 24007.07 47995.55 25774.61 M 46228 20701 46228 21590 M 40565.55 30083 41574.25 30083 M 39769.41 30879.14 40565.55 30083 M 39719.41 30879.14 39769.41 30879.14 M 43174.25 30083 45085 30083 M 36432.5 31369.91 36469.23 31406.64 M 36395.77 30042.41 36432.5 30079.14 M 26700.41 42924.74 27787.47 42924.74 28833.18 41879.03 M 28980.37 41729.07 29130.33 41879.03 M 28919.89 41571.37 28980.37 41631.85 M 20709.26 32300.18 20769.74 32360.65 M 20709.26 30939.71 20709.26 32300.18 M 28919.89 40210.91 28919.89 41571.37 M 28859.41 40150.43 28919.89 40210.91" fill="none" stroke-width="400"/><path d="M 43660.84 11176 44782.34 10054.5 M 40081.2 11176 43660.84 11176 M 44632.34 10054.5 44782.34 10054.5 M 49449.55 24304 49449.55 28445.73 M 49017.34 28877.94 49449.55 28445.73 M 48895.55 28877.94 49017.34 28877.94" fill="none" stroke-width="500"/><path d="M 38369.4 34554.04 39201.42 33722.01 40719.41 33722.01 M 42300 33552 42300 34724.26 M 36053.52 36072.01 40952.24 36072.01 42300 34724.26 M 38269.4 34554.04 38369.4 34554.04 M 37512.47 34804.04 38019.4 34804.04 38269.4 34554.04 M 36744.52 35571.99 37512.47 34804.04 M 8388.15 30359.83 9690 29057.98 M 9690 29007.98 9690 29057.98 M 7641.56 30359.83 8388.15 30359.83 M 21798.79 31879.22 22048.78 31629.24 M 22048.78 30879.23 22048.78 31629.24 M 21798.79 31879.22 21798.79 31960.26 M 12338.33 13930.99 13162.33 13930.99 M 36053.52 35571.99 36744.52 35571.99 M 42299.99 33551.99 42300 33552 M 42299.99 33551.98 42299.99 33551.99 M 13159.92 41104.44 13233.38 41177.9 13233.38 42468.68 M 11309.74 32711.39 11309.74 32811.39 12286.74 33788.39 M 12607.6 32711.39 12607.6 32811.39 M 12607.6 32711.39 12607.62 32711.37 M 12607.6 32811.39 13257.6 33461.39 M 13159.92 39504.44 13812.95 38851.41 14901.76 38851.41 M 15011.73 39253.02 15710.37 38554.38 M 15972.47 38929.01 16208.03 38693.44 M 15972.47 38929.01 15972.47 39516.55 M 15292.54 31260.26 15292.54 32711.37 M 11309.72 31260.26 11309.74 31260.28 11309.74 32711.39 M 12607.62 31260.26 12607.62 32711.37 M 14789.14 39253.02 15011.73 39253.02 M 15208.04 38087.73 15216.16 38079.6 M 15208.04 38087.73 15208.04 38545.13 M 14539.14 39503.02 14639.14 39503.02 M 14539.14 39503.02 14789.14 39253.02 M 14901.76 38851.41 15208.04 38545.13 M 13257.6 33461.39 14844.52 33461.39 M 16208.03 38087.73 16216.16 38079.6 M 12837.63 35439.08 13575.59 35439.08 M 12636.45 34911.08 12636.45 35237.91 M 12769.04 35370.5 12769.05 35370.5 M 12636.45 35237.91 12769.04 35370.5 M 12387.73 34662.36 12636.45 34911.08 M 12769.05 35370.5 12837.63 35439.08 M 16208.03 33903.31 16208.03 34290.43 M 16842.54 33637.37 17018.54 33461.37 17166.81 33461.37 M 16208.03 34290.43 16216.16 34298.56 M 17216.16 34298.56 17224.28 34306.69 M 14708.01 34290.43 14716.14 34298.56 M 15216.16 33833.03 15216.16 34298.56 M 14844.52 33461.39 15216.16 33833.03 M 14708.01 33905.55 14708.01 34290.43 M 14590.85 33788.39 14708.01 33905.55 M 15542.52 33237.8 16208.03 33903.31 M 15292.52 32711.39 15542.52 32961.39 15542.52 33237.8 M 15292.52 32711.39 15292.54 32711.37 M 17954.81 31260.26 17954.81 32673.36 M 17166.81 33461.37 17954.81 32673.36 M 16208.03 38087.73 16208.03 38693.44 M 12286.74 33788.39 14590.85 33788.39 M 15966.12 36189.08 17224.28 34930.92 M 17224.28 34306.69 17224.28 34930.92 M 15710.37 38085.37 15710.37 38554.38 M 15710.37 38085.37 15716.14 38079.6 M 18356.67 36439.07 20216.03 36439.07 M 18356.67 35439.07 19048.31 35439.07 M 19499.74 34304.16 19499.74 34987.64 M 19494.14 34298.56 19499.74 34304.16 M 19048.31 35439.07 19499.74 34987.64 M 20216.03 36439.07 20743.03 36966.07 M 37176.41 37748.72 37176.41 37848.72 M 35816.2 33659.67 36469.23 33006.64 M 34412.99 34431.48 34421.11 34423.35 M 33421.11 33817.64 33421.11 34423.35 M 33918.78 33956.7 34617.42 33258.06 M 34727.39 33659.67 35816.2 33659.67 M 33421.11 33817.64 33656.68 33582.08 M 34421.11 33965.95 34727.39 33659.67 M 33918.78 33956.7 33918.78 34425.71 M 34421.11 33965.95 34421.11 34423.35 M 34617.42 33258.06 34840.01 33258.06 M 33913.01 34431.48 33918.78 34425.71 M 34840.01 33258.06 35090.01 33008.06 M 35038.29 38722.69 37342.41 38722.69 M 34921.14 38220.65 34921.14 38605.53 35038.29 38722.69 M 38319.41 39799.69 38319.41 41250.8 M 38319.41 39699.69 38319.41 39799.69 M 38319.41 41250.8 38319.43 41250.82 M 34913.01 38212.52 34921.14 38220.65 M 36053.52 37072.01 36061.65 37080.14 M 36576.41 37148.72 36576.41 37148.72 37176.41 37748.72 M 36507.83 37080.14 36576.41 37148.72 M 37021.53 39799.71 37021.53 41250.82 M 36371.55 39049.69 37021.55 39699.69 M 37021.53 39799.71 37021.55 39799.69 M 37021.55 39699.69 37021.55 39799.69 M 33412.99 34431.48 33421.11 34423.35 M 33656.68 32994.53 33656.68 33582.08 M 36061.65 37080.14 36507.83 37080.14 M 37342.41 38722.69 38319.41 39699.69 M 34784.62 39049.69 36371.55 39049.69 M 34412.99 38678.05 34784.62 39049.69 M 28886.12 37098.43 29412.56 36571.99 M 28886.12 35545.01 29413.12 36072.01 M 27047.48 41597.89 27546.36 41597.89 27580.32 41631.85 M 26700.41 41250.82 27047.48 41597.89 M 31685.01 41250.82 31685.01 41250.82 M 31917.56 39207.97 32205.9 38919.64 M 31685.01 39799.69 31685.01 41250.82 M 31685.01 39799.69 31917.56 39567.14 M 31917.56 39207.97 31917.56 39567.14 M 34336.61 39799.71 34336.63 39799.69 M 34412.99 38212.52 34412.99 38678.05 M 34336.61 39799.71 34336.61 41250.82 M 34086.63 39549.69 34336.63 39799.69 M 34086.63 39273.28 34086.63 39549.69 M 33421.11 38220.65 33421.11 38607.77 34086.63 39273.28 M 33412.99 38212.52 33421.11 38220.65 M 32404.87 37580.16 32404.87 38204.4 32412.99 38212.52 M 32660.37 38919.64 32904.89 38675.12 M 32904.89 38220.65 32913.02 38212.52 M 32205.9 38919.64 32660.37 38919.64 M 32904.89 38220.65 32904.89 38675.12 M 32404.87 37580.16 33663.03 36322 M 30580.84 37072.01 31272.48 37072.01 M 29412.56 36571.99 31272.48 36571.99 M 30129.41 37523.44 30580.84 37072.01 M 30129.41 37523.44 30129.41 38206.92 30135.01 38212.52 M 29413.12 36072.01 31272.48 36072.01 M 3999.99 33500.01 6285.77 35785.79" fill="none" stroke-width="200"/><use xlink:href="#RjZN9g6Mqcb9GVTtGq0C_pad-43" x="28194" y="14478"/><use xlink:href="#RjZN9g6Mqcb9GVTtGq0C_pad-43" x="29464" y="17018"/><use xlink:href="#RjZN9g6Mqcb9GVTtGq0C_pad-43" x="30734" y="14478"/><use xlink:href="#RjZN9g6Mqcb9GVTtGq0C_pad-43" x="32004" y="17018"/><use xlink:href="#RjZN9g6Mqcb9GVTtGq0C_pad-43" x="33274" y="14478"/><use xlink:href="#RjZN9g6Mqcb9GVTtGq0C_pad-43" x="34544" y="17018"/><use xlink:href="#RjZN9g6Mqcb9GVTtGq0C_pad-43" x="35814" y="14478"/><use xlink:href="#RjZN9g6Mqcb9GVTtGq0C_pad-43" x="37084" y="17018"/><use xlink:href="#RjZN9g6Mqcb9GVTtGq0C_pad-44" x="25196.8" y="11176"/><use xlink:href="#RjZN9g6Mqcb9GVTtGq0C_pad-44" x="40081.2" y="11176"/><use xlink:href="#RjZN9g6Mqcb9GVTtGq0C_pad-45" x="5000" y="5000"/><use xlink:href="#RjZN9g6Mqcb9GVTtGq0C_pad-45" x="5000" y="45000"/><use xlink:href="#RjZN9g6Mqcb9GVTtGq0C_pad-45" x="45000" y="5000"/><use xlink:href="#RjZN9g6Mqcb9GVTtGq0C_pad-45" x="45000" y="45000"/><use xlink:href="#RjZN9g6Mqcb9GVTtGq0C_pad-46" x="7921" y="10795"/><use xlink:href="#RjZN9g6Mqcb9GVTtGq0C_pad-46" x="5421" y="10795"/><use xlink:href="#RjZN9g6Mqcb9GVTtGq0C_pad-47" x="2921" y="10795"/><use xlink:href="#RjZN9g6Mqcb9GVTtGq0C_pad-48" x="32460" y="48100"/><use xlink:href="#RjZN9g6Mqcb9GVTtGq0C_pad-48" x="17540" y="48100"/><use xlink:href="#RjZN9g6Mqcb9GVTtGq0C_pad-49" x="35000" y="48100"/><use xlink:href="#RjZN9g6Mqcb9GVTtGq0C_pad-49" x="37540" y="48100"/><use xlink:href="#RjZN9g6Mqcb9GVTtGq0C_pad-49" x="15000" y="48100"/><use xlink:href="#RjZN9g6Mqcb9GVTtGq0C_pad-49" x="12460" y="48100"/><use xlink:href="#RjZN9g6Mqcb9GVTtGq0C_pad-50" x="42299.99" y="33551.98"/><use xlink:href="#RjZN9g6Mqcb9GVTtGq0C_pad-50" x="7700.01" y="38000.03"/><use xlink:href="#RjZN9g6Mqcb9GVTtGq0C_pad-51" x="46000.01" y="35052"/><use xlink:href="#RjZN9g6Mqcb9GVTtGq0C_pad-51" x="42299.99" y="36552.02"/><use xlink:href="#RjZN9g6Mqcb9GVTtGq0C_pad-51" x="46000.01" y="38051.99"/><use xlink:href="#RjZN9g6Mqcb9GVTtGq0C_pad-51" x="3999.99" y="33500.01"/><use xlink:href="#RjZN9g6Mqcb9GVTtGq0C_pad-51" x="7700.01" y="34999.98"/><use xlink:href="#RjZN9g6Mqcb9GVTtGq0C_pad-51" x="3999.99" y="36500"/><use xlink:href="#RjZN9g6Mqcb9GVTtGq0C_pad-52" x="44149.98" y="32002.02"/><use xlink:href="#RjZN9g6Mqcb9GVTtGq0C_pad-52" x="44149.98" y="39602"/><use xlink:href="#RjZN9g6Mqcb9GVTtGq0C_pad-52" x="5850.03" y="31950"/><use xlink:href="#RjZN9g6Mqcb9GVTtGq0C_pad-52" x="5850.03" y="39549.98"/><use xlink:href="#RjZN9g6Mqcb9GVTtGq0C_pad-53" x="38291.64" y="29347.41"/><use xlink:href="#RjZN9g6Mqcb9GVTtGq0C_pad-53" x="7509.42" y="29014.72"/><use xlink:href="#RjZN9g6Mqcb9GVTtGq0C_pad-53" x="49322.55" y="24304"/><use xlink:href="#RjZN9g6Mqcb9GVTtGq0C_pad-53" x="37342.41" y="43737.97"/><use xlink:href="#RjZN9g6Mqcb9GVTtGq0C_pad-53" x="18362.26" y="19228"/><use xlink:href="#RjZN9g6Mqcb9GVTtGq0C_pad-53" x="18362.26" y="22428"/><use xlink:href="#RjZN9g6Mqcb9GVTtGq0C_pad-53" x="10086.72" y="37154.97"/><use xlink:href="#RjZN9g6Mqcb9GVTtGq0C_pad-53" x="10637.73" y="38704.82"/><use xlink:href="#RjZN9g6Mqcb9GVTtGq0C_pad-53" x="10243.9" y="17107.01"/><use xlink:href="#RjZN9g6Mqcb9GVTtGq0C_pad-53" x="6285.77" y="35785.79"/><use xlink:href="#RjZN9g6Mqcb9GVTtGq0C_pad-53" x="40615.96" y="35200.59"/><use xlink:href="#RjZN9g6Mqcb9GVTtGq0C_pad-53" x="25019" y="32922.37"/><use xlink:href="#RjZN9g6Mqcb9GVTtGq0C_pad-53" x="25019" y="35526.18"/><use xlink:href="#RjZN9g6Mqcb9GVTtGq0C_pad-53" x="32367.96" y="27813"/><use xlink:href="#RjZN9g6Mqcb9GVTtGq0C_pad-53" x="49095.55" y="29608"/><use xlink:href="#RjZN9g6Mqcb9GVTtGq0C_pad-53" x="24062.31" y="19228"/><use xlink:href="#RjZN9g6Mqcb9GVTtGq0C_pad-53" x="25198" y="21678"/><use xlink:href="#RjZN9g6Mqcb9GVTtGq0C_pad-53" x="23681.13" y="42331.82"/><use xlink:href="#RjZN9g6Mqcb9GVTtGq0C_pad-53" x="21798.79" y="31960.26"/><use xlink:href="#RjZN9g6Mqcb9GVTtGq0C_pad-53" x="26700.41" y="42924.74"/><use xlink:href="#RjZN9g6Mqcb9GVTtGq0C_pad-53" x="17198.06" y="42291"/><use xlink:href="#RjZN9g6Mqcb9GVTtGq0C_pad-53" x="13162.33" y="13930.99"/><use xlink:href="#RjZN9g6Mqcb9GVTtGq0C_pad-53" x="9139" y="14637.06"/><use xlink:href="#RjZN9g6Mqcb9GVTtGq0C_pad-53" x="40719.41" y="33722.01"/><use xlink:href="#RjZN9g6Mqcb9GVTtGq0C_pad-53" x="19668.13" y="39873.01"/><use xlink:href="#RjZN9g6Mqcb9GVTtGq0C_pad-53" x="10086.72" y="33161.38"/><use xlink:href="#RjZN9g6Mqcb9GVTtGq0C_pad-53" x="17219.19" y="36188.62"/><use xlink:href="#RjZN9g6Mqcb9GVTtGq0C_pad-53" x="14716.14" y="36189.08"/><use xlink:href="#RjZN9g6Mqcb9GVTtGq0C_pad-53" x="19494.14" y="34298.56"/><use xlink:href="#RjZN9g6Mqcb9GVTtGq0C_pad-53" x="19048.31" y="33161.39"/><use xlink:href="#RjZN9g6Mqcb9GVTtGq0C_pad-53" x="16336.26" y="33100.42"/><use xlink:href="#RjZN9g6Mqcb9GVTtGq0C_pad-53" x="13567.5" y="32711.39"/><use xlink:href="#RjZN9g6Mqcb9GVTtGq0C_pad-53" x="32409.96" y="36322.46"/><use xlink:href="#RjZN9g6Mqcb9GVTtGq0C_pad-53" x="33292.89" y="39410.66"/><use xlink:href="#RjZN9g6Mqcb9GVTtGq0C_pad-53" x="34913.01" y="36322"/><use xlink:href="#RjZN9g6Mqcb9GVTtGq0C_pad-53" x="36061.65" y="39799.69"/><use xlink:href="#RjZN9g6Mqcb9GVTtGq0C_pad-53" x="39542.43" y="39349.71"/><use xlink:href="#RjZN9g6Mqcb9GVTtGq0C_pad-53" x="29870.73" y="32270.62"/><use xlink:href="#RjZN9g6Mqcb9GVTtGq0C_pad-53" x="26700.41" y="41250.82"/><use xlink:href="#RjZN9g6Mqcb9GVTtGq0C_pad-53" x="30135.01" y="38212.52"/><use xlink:href="#RjZN9g6Mqcb9GVTtGq0C_pad-53" x="30580.84" y="39349.69"/><use xlink:href="#RjZN9g6Mqcb9GVTtGq0C_pad-53" x="46228" y="16394"/><use xlink:href="#RjZN9g6Mqcb9GVTtGq0C_pad-53" x="46228" y="14594"/><use xlink:href="#RjZN9g6Mqcb9GVTtGq0C_pad-53" x="46228" y="21590"/><use xlink:href="#RjZN9g6Mqcb9GVTtGq0C_pad-53" x="46228" y="19801"/><use xlink:href="#RjZN9g6Mqcb9GVTtGq0C_pad-53" x="8034.1" y="17107.01"/><use xlink:href="#RjZN9g6Mqcb9GVTtGq0C_pad-53" x="8896" y="20084.99"/><use xlink:href="#RjZN9g6Mqcb9GVTtGq0C_pad-53" x="4364.68" y="15507.01"/><use xlink:href="#RjZN9g6Mqcb9GVTtGq0C_pad-53" x="37592" y="26289"/><use xlink:href="#RjZN9g6Mqcb9GVTtGq0C_pad-53" x="36068" y="26289"/><use xlink:href="#RjZN9g6Mqcb9GVTtGq0C_pad-53" x="37592" y="27813"/><use xlink:href="#RjZN9g6Mqcb9GVTtGq0C_pad-53" x="36060.02" y="27813"/><use xlink:href="#RjZN9g6Mqcb9GVTtGq0C_pad-53" x="20786.04" y="27813"/><use xlink:href="#RjZN9g6Mqcb9GVTtGq0C_pad-53" x="22318.02" y="27813"/><use xlink:href="#RjZN9g6Mqcb9GVTtGq0C_pad-53" x="20794.02" y="26289"/><use xlink:href="#RjZN9g6Mqcb9GVTtGq0C_pad-53" x="22318.02" y="26289"/><use xlink:href="#RjZN9g6Mqcb9GVTtGq0C_pad-53" x="25250.32" y="19992.79"/><use xlink:href="#RjZN9g6Mqcb9GVTtGq0C_pad-53" x="24062.31" y="22428"/><use xlink:href="#RjZN9g6Mqcb9GVTtGq0C_pad-53" x="31698" y="19978"/><use xlink:href="#RjZN9g6Mqcb9GVTtGq0C_pad-53" x="31698" y="21678"/><use xlink:href="#RjZN9g6Mqcb9GVTtGq0C_pad-53" x="19177" y="9039"/><use xlink:href="#RjZN9g6Mqcb9GVTtGq0C_pad-53" x="19177" y="12539.01"/><use xlink:href="#RjZN9g6Mqcb9GVTtGq0C_pad-53" x="19177" y="18139"/><use xlink:href="#RjZN9g6Mqcb9GVTtGq0C_pad-53" x="19177" y="14638.99"/></g></svg>