<svg version="1.1" xmlns="http://www.w3.org/2000/svg" xmlns:xlink="http://www.w3.org/1999/xlink" stroke-linecap="round" stroke-linejoin="round" stroke-width="0" fill-rule="evenodd" width="47.203199999999995mm" height="47.603199999999994mm" viewBox="1398.4 1398.4 47203.2 47603.2" id="cXGEPqnMuAjKFX4IqYsK"><defs><circle cx="0" cy="0" r="698.5" id="cXGEPqnMuAjKFX4IqYsK_pad-43"/><circle cx="0" cy="0" r="3601.6" id="cXGEPqnMuAjKFX4IqYsK_pad-77"/><circle cx="0" cy="0" r="751.6" id="cXGEPqnMuAjKFX4IqYsK_pad-78"/><rect x="-751.6" y="-751.6" width="1503.2" height="1503.2" id="cXGEPqnMuAjKFX4IqYsK_pad-79"/><g id="cXGEPqnMuAjKFX4IqYsK_pad-80"><rect x="-901.6" y="-400" width="1803.2" height="800"/><rect x="-400" y="-901.6" width="800" height="1803.2"/><circle cx="400" cy="-400" r="501.6"/><circle cx="-400" cy="-400" r="501.6"/><circle cx="-400" cy="400" r="501.6"/><circle cx="400" cy="400" r="501.6"/></g><circle cx="0" cy="0" r="901.6" id="cXGEPqnMuAjKFX4IqYsK_pad-81"/><rect x="-601.2" y="-601.2" width="1202.4" height="1202.4" id="cXGEPqnMuAjKFX4IqYsK_pad-82"/><circle cx="0" cy="0" r="601.2" id="cXGEPqnMuAjKFX4IqYsK_pad-83"/><circle cx="0" cy="0" r="626.2" id="cXGEPqnMuAjKFX4IqYsK_pad-84"/></defs><g transform="translate(0,50400) scale(1,-1)" fill="currentColor" stroke="currentColor"><use xlink:href="#cXGEPqnMuAjKFX4IqYsK_pad-43" x="28194" y="14478"/><use xlink:href="#cXGEPqnMuAjKFX4IqYsK_pad-43" x="29464" y="17018"/><use xlink:href="#cXGEPqnMuAjKFX4IqYsK_pad-43" x="30734" y="14478"/><use xlink:href="#cXGEPqnMuAjKFX4IqYsK_pad-43" x="32004" y="17018"/><use xlink:href="#cXGEPqnMuAjKFX4IqYsK_pad-43" x="33274" y="14478"/><use xlink:href="#cXGEPqnMuAjKFX4IqYsK_pad-43" x="34544" y="17018"/><use xlink:href="#cXGEPqnMuAjKFX4IqYsK_pad-43" x="35814" y="14478"/><use xlink:href="#cXGEPqnMuAjKFX4IqYsK_pad-43" x="37084" y="17018"/><use xlink:href="#cXGEPqnMuAjKFX4IqYsK_pad-77" x="5000" y="5000"/><use xlink:href="#cXGEPqnMuAjKFX4IqYsK_pad-77" x="5000" y="45000"/><use xlink:href="#cXGEPqnMuAjKFX4IqYsK_pad-77" x="45000" y="5000"/><use xlink:href="#cXGEPqnMuAjKFX4IqYsK_pad-77" x="45000" y="45000"/><use xlink:href="#cXGEPqnMuAjKFX4IqYsK_pad-78" x="7921" y="10795"/><use xlink:href="#cXGEPqnMuAjKFX4IqYsK_pad-78" x="5421" y="10795"/><use xlink:href="#cXGEPqnMuAjKFX4IqYsK_pad-79" x="2921" y="10795"/><use xlink:href="#cXGEPqnMuAjKFX4IqYsK_pad-80" x="32460" y="48100"/><use xlink:href="#cXGEPqnMuAjKFX4IqYsK_pad-80" x="17540" y="48100"/><use xlink:href="#cXGEPqnMuAjKFX4IqYsK_pad-81" x="35000" y="48100"/><use xlink:href="#cXGEPqnMuAjKFX4IqYsK_pad-81" x="37540" y="48100"/><use xlink:href="#cXGEPqnMuAjKFX4IqYsK_pad-81" x="15000" y="48100"/><use xlink:href="#cXGEPqnMuAjKFX4IqYsK_pad-81" x="12460" y="48100"/><use xlink:href="#cXGEPqnMuAjKFX4IqYsK_pad-82" x="42299.99" y="33551.98"/><use xlink:href="#cXGEPqnMuAjKFX4IqYsK_pad-82" x="7700.01" y="38000.03"/><use xlink:href="#cXGEPqnMuAjKFX4IqYsK_pad-83" x="46000.01" y="35052"/><use xlink:href="#cXGEPqnMuAjKFX4IqYsK_pad-83" x="42299.99" y="36552.02"/><use xlink:href="#cXGEPqnMuAjKFX4IqYsK_pad-83" x="46000.01" y="38051.99"/><use xlink:href="#cXGEPqnMuAjKFX4IqYsK_pad-83" x="3999.99" y="33500.01"/><use xlink:href="#cXGEPqnMuAjKFX4IqYsK_pad-83" x="7700.01" y="34999.98"/><use xlink:href="#cXGEPqnMuAjKFX4IqYsK_pad-83" x="3999.99" y="36500"/><use xlink:href="#cXGEPqnMuAjKFX4IqYsK_pad-84" x="44149.98" y="32002.02"/><use xlink:href="#cXGEPqnMuAjKFX4IqYsK_pad-84" x="44149.98" y="39602"/><use xlink:href="#cXGEPqnMuAjKFX4IqYsK_pad-84" x="5850.03" y="31950"/><use xlink:href="#cXGEPqnMuAjKFX4IqYsK_pad-84" x="5850.03" y="39549.98"/></g></svg>