<svg version="1.1" xmlns="http://www.w3.org/2000/svg" xmlns:xlink="http://www.w3.org/1999/xlink" stroke-linecap="round" stroke-linejoin="round" stroke-width="0" fill-rule="evenodd" width="49.38827mm" height="49.38827mm" viewBox="305.86 305.86 49388.27 49388.27" id="t5OWG1L0XB5w8-FFJTmJ"><defs><mask id="t5OWG1L0XB5w8-FFJTmJ_clear-1" fill="#000" stroke="#000"><g><rect x="305.86" y="305.86" width="49388.27" height="49388.27" fill="#fff"/><path d="M 26810.61 43478.74 26590.21 43478.74 26386.6 43394.4 26379.83 43387.64 24274.07 43387.64 24274.06 43387.64 24096.91 43352.4 23946.74 43252.06 23946.73 43252.05 23916.38 43221.7 23864.26 43273.82 23780.24 43329.96 23681.13 43349.67 17037.81 43349.67 16938.7 43329.96 16854.69 43273.82 16544.07 42963.2 16487.94 42879.19 16468.22 42780.08 16468.22 41546.09 16487.94 41446.98 16544.07 41362.96 16871.18 41035.86 16955.19 40979.72 17054.3 40960.01 21844.48 40960.01 22343.39 40461.1 22343.39 32093.14 22268.45 32274.07 22112.6 32429.91 21908.99 32514.26 21772.05 32514.26 20048.14 34238.17 20048.14 34408.76 19963.8 34612.37 19807.95 34768.22 19604.33 34852.56 19383.94 34852.56 19180.32 34768.22 19024.48 34612.37 18940.14 34408.76 18940.14 34188.36 19024.48 33984.75 19180.32 33828.9 19383.94 33744.56 19520.87 33744.56 21244.79 32020.64 21244.79 31850.06 21329.13 31646.44 21484.98 31490.6 21688.59 31406.26 21908.99 31406.26 22112.6 31490.6 22268.45 31646.44 22343.39 31827.38 22343.39 29012.86 21945.48 28614.95 20066 28614.95 19966.89 28595.24 19882.88 28539.1 19826.74 28455.08 19807.02 28355.98 19807.02 26035 19826.74 25935.89 19882.88 25851.88 19882.88 25851.87 20263.88 25470.87 20347.89 25414.73 20447 25395.02 37719 25395.02 37818.1 25414.73 37902.12 25470.87 38283.12 25851.88 38339.26 25935.89 38358.98 26035 38358.98 28067 38339.26 28166.11 38283.12 28250.12 37994.15 28539.1 37910.13 28595.24 37811.02 28614.95 24964.29 28614.95 24645.16 28934.09 24645.16 42385.64 24630 42461.85 26379.83 42461.85 26386.6 42455.08 26590.21 42370.74 26810.61 42370.74 27014.23 42455.08 27170.07 42610.93 27254.41 42814.54 27254.41 43034.94 27170.07 43238.56 27014.23 43394.4 26810.61 43478.74"/><path d="M 44255.82 40406 44044.13 40406 43839.64 40351.21 43656.31 40245.36 43506.62 40095.67 43400.77 39912.34 43345.98 39707.85 43345.98 39496.15 43400.77 39291.67 43506.62 39108.34 43656.31 38958.64 43839.64 38852.8 44044.13 38798 44255.82 38798 44460.31 38852.8 44643.64 38958.64 44793.33 39108.34 44899.18 39291.67 44953.97 39496.15 44953.97 39707.85 44899.18 39912.34 44793.33 40095.67 44643.64 40245.36 44460.31 40351.21 44255.82 40406"/><path d="M 26810.61 41804.82 26590.21 41804.82 26386.6 41720.48 26230.75 41564.64 26146.41 41361.02 26146.41 41140.63 26230.75 40937.01 26339.48 40828.29 26339.48 40430.34 26366.95 40292.22 26445.19 40175.12 27775.84 38844.47 27892.94 38766.23 28031.06 38738.76 29598.6 38738.76 29738.19 38599.17 29665.35 38526.34 29581.01 38322.72 29581.01 38102.32 29665.35 37898.71 29821.2 37742.86 30024.81 37658.52 30245.21 37658.52 30448.83 37742.86 30604.67 37898.71 30689.01 38102.32 30689.01 38322.72 30604.67 38526.34 30495.95 38635.06 30495.95 38712.78 30468.47 38850.91 30390.23 38968 30003.32 39354.91 29886.23 39433.15 29748.1 39460.62 28180.56 39460.62 27061.35 40579.84 27061.35 40828.29 27170.07 40937.01 27254.41 41140.63 27254.41 41361.02 27170.07 41564.64 27014.23 41720.48 26810.61 41804.82"/><path d="M 8479.01 38779.03 6921.01 38779.03 6921.01 37221.03 8479.01 37221.03 8479.01 38779.03"/><path d="M 10747.93 39258.82 10527.54 39258.82 10323.92 39174.48 10168.07 39018.63 10083.73 38815.02 10083.73 38700.19 8272.01 36888.47 6999.99 36888.47 6851.33 36858.9 6725.3 36774.69 6290.4 36339.79 6175.57 36339.79 5971.95 36255.44 5816.11 36099.6 5731.77 35895.98 5731.77 35675.59 5816.11 35471.97 5971.95 35316.13 6175.57 35231.79 6395.97 35231.79 6599.58 35316.13 6755.43 35471.97 6839.77 35675.59 6839.77 35790.41 7160.89 36111.54 8432.92 36111.54 8581.58 36141.11 8707.61 36225.32 10633.11 38150.82 10747.93 38150.82 10951.55 38235.16 11107.39 38391 11191.73 38594.62 11191.73 38815.02 11107.39 39018.63 10951.55 39174.48 10747.93 39258.82"/><path d="M 24172.51 22982 23952.11 22982 23748.49 22897.66 23592.65 22741.82 23508.31 22538.2 23508.31 22317.8 23592.65 22114.19 23748.49 21958.34 23952.11 21874 24172.51 21874 24376.12 21958.34 24531.97 22114.19 24616.31 22317.8 24616.31 22538.2 24531.97 22741.82 24376.12 22897.66 24172.51 22982"/><path d="M 18472.46 22982 18252.07 22982 18048.45 22897.66 17892.61 22741.82 17808.27 22538.2 17808.27 22317.8 17892.61 22114.19 18048.45 21958.34 18252.07 21874 18472.46 21874 18676.08 21958.34 18831.92 22114.19 18916.26 22317.8 18916.26 22538.2 18831.92 22741.82 18676.08 22897.66 18472.46 22982"/><path d="M 25308.2 22232 25087.81 22232 24884.19 22147.66 24728.35 21991.82 24644 21788.2 24644 21567.8 24728.35 21364.19 24884.19 21208.34 25087.81 21124 25308.2 21124 25511.82 21208.34 25667.66 21364.19 25752 21567.8 25752 21788.2 25667.66 21991.82 25511.82 22147.66 25308.2 22232"/><path d="M 25360.52 20546.79 25140.12 20546.79 24936.51 20462.45 24780.66 20306.6 24696.32 20102.98 24696.32 19882.59 24780.66 19678.97 24936.51 19523.13 25140.12 19438.79 25360.52 19438.79 25564.14 19523.13 25719.98 19678.97 25804.32 19882.59 25804.32 20102.98 25719.98 20306.6 25564.14 20462.45 25360.52 20546.79"/><path d="M 24172.51 19782 23952.11 19782 23748.49 19697.66 23592.65 19541.81 23508.31 19338.2 23508.31 19117.8 23592.65 18914.18 23748.49 18758.34 23952.11 18674 24172.51 18674 24376.12 18758.34 24531.97 18914.18 24616.31 19117.8 24616.31 19338.2 24531.97 19541.81 24376.12 19697.66 24172.51 19782"/><path d="M 18472.46 19782 18252.07 19782 18048.45 19697.66 17892.61 19541.81 17808.27 19338.2 17808.27 19117.8 17892.61 18914.18 18048.45 18758.34 18252.07 18674 18472.46 18674 18676.08 18758.34 18831.92 18914.18 18916.26 19117.8 18916.26 19338.2 18831.92 19541.81 18676.08 19697.66 18472.46 19782"/><path d="M 19287.2 18693 19066.8 18693 18863.19 18608.65 18707.34 18452.81 18623 18249.19 18623 18028.8 18707.34 17825.18 18863.19 17669.34 19066.8 17585 19287.2 17585 19490.81 17669.34 19646.66 17825.18 19731 18028.8 19731 18249.19 19646.66 18452.81 19490.81 18608.65 19287.2 18693"/><path d="M 37209.4 17970.5 36958.6 17970.5 36716.35 17905.59 36499.15 17780.19 36321.81 17602.85 36196.41 17385.65 36131.5 17143.4 36131.5 16892.6 36196.41 16650.35 36321.81 16433.15 36499.15 16255.81 36716.35 16130.41 36958.6 16065.5 37209.4 16065.5 37451.65 16130.41 37668.85 16255.81 37846.19 16433.15 37971.59 16650.35 38036.5 16892.6 38036.5 17143.4 37971.59 17385.65 37846.19 17602.85 37668.85 17780.19 37451.65 17905.59 37209.4 17970.5"/><path d="M 34669.4 17970.5 34418.6 17970.5 34176.35 17905.59 33959.15 17780.19 33781.81 17602.85 33656.41 17385.65 33591.5 17143.4 33591.5 16892.6 33656.41 16650.35 33781.81 16433.15 33959.15 16255.81 34176.35 16130.41 34418.6 16065.5 34669.4 16065.5 34911.65 16130.41 35128.85 16255.81 35306.19 16433.15 35431.59 16650.35 35496.5 16892.6 35496.5 17143.4 35431.59 17385.65 35306.19 17602.85 35128.85 17780.19 34911.65 17905.59 34669.4 17970.5"/><path d="M 32129.4 17970.5 31878.6 17970.5 31636.35 17905.59 31419.15 17780.19 31241.81 17602.85 31116.41 17385.65 31051.5 17143.4 31051.5 16892.6 31116.41 16650.35 31241.81 16433.15 31419.15 16255.81 31636.35 16130.41 31878.6 16065.5 32129.4 16065.5 32371.65 16130.41 32588.85 16255.81 32766.19 16433.15 32891.59 16650.35 32956.5 16892.6 32956.5 17143.4 32891.59 17385.65 32766.19 17602.85 32588.85 17780.19 32371.65 17905.59 32129.4 17970.5"/><path d="M 19287.2 15192.99 19066.8 15192.99 18863.19 15108.65 18707.34 14952.81 18623 14749.19 18623 14528.79 18707.34 14325.18 18863.19 14169.33 19066.8 14084.99 19287.2 14084.99 19490.81 14169.33 19646.66 14325.18 19731 14528.79 19731 14749.19 19646.66 14952.81 19490.81 15108.65 19287.2 15192.99"/><path d="M 35939.4 15430.5 35688.6 15430.5 35446.35 15365.59 35229.15 15240.19 35051.81 15062.85 34926.41 14845.65 34861.5 14603.4 34861.5 14352.6 34926.41 14110.35 35051.81 13893.15 35229.15 13715.81 35446.35 13590.41 35688.6 13525.5 35939.4 13525.5 36181.65 13590.41 36398.85 13715.81 36576.19 13893.15 36701.59 14110.35 36766.5 14352.6 36766.5 14603.4 36701.59 14845.65 36576.19 15062.85 36398.85 15240.19 36181.65 15365.59 35939.4 15430.5"/><path d="M 33399.4 15430.5 33148.6 15430.5 32906.35 15365.59 32689.15 15240.19 32511.81 15062.85 32386.41 14845.65 32321.5 14603.4 32321.5 14352.6 32386.41 14110.35 32511.81 13893.15 32689.15 13715.81 32906.35 13590.41 33148.6 13525.5 33399.4 13525.5 33641.65 13590.41 33858.85 13715.81 34036.19 13893.15 34161.59 14110.35 34226.5 14352.6 34226.5 14603.4 34161.59 14845.65 34036.19 15062.85 33858.85 15240.19 33641.65 15365.59 33399.4 15430.5"/><path d="M 30859.4 15430.5 30608.6 15430.5 30366.35 15365.59 30149.15 15240.19 29971.81 15062.85 29846.41 14845.65 29781.5 14603.4 29781.5 14352.6 29846.41 14110.35 29971.81 13893.15 30149.15 13715.81 30366.35 13590.41 30608.6 13525.5 30859.4 13525.5 31101.65 13590.41 31318.85 13715.81 31496.19 13893.15 31621.59 14110.35 31686.5 14352.6 31686.5 14603.4 31621.59 14845.65 31496.19 15062.85 31318.85 15240.19 31101.65 15365.59 30859.4 15430.5"/><path d="M 28319.4 15430.5 28068.6 15430.5 27826.35 15365.59 27609.15 15240.19 27431.81 15062.85 27306.41 14845.65 27241.5 14603.4 27241.5 14352.6 27306.41 14110.35 27431.81 13893.15 27609.15 13715.81 27826.35 13590.41 28068.6 13525.5 28319.4 13525.5 28561.65 13590.41 28778.85 13715.81 28956.19 13893.15 29081.59 14110.35 29146.5 14352.6 29146.5 14603.4 29081.59 14845.65 28956.19 15062.85 28778.85 15240.19 28561.65 15365.59 28319.4 15430.5"/><path d="M 8048 11696.86 8048 10922 8822.86 10922 8763.39 11143.93 8644.38 11350.07 8476.07 11518.38 8269.93 11637.39 8048 11696.86"/><path d="M 7794 11696.86 7572.07 11637.39 7365.93 11518.38 7197.62 11350.07 7078.61 11143.93 7019.14 10922 7794 10922 7794 11696.86"/><path d="M 8822.86 10668 8048 10668 8048 9893.14 8269.93 9952.61 8476.07 10071.62 8644.38 10239.93 8763.39 10446.07 8822.86 10668"/><path d="M 7794 10668 7019.14 10668 7078.61 10446.07 7197.62 10239.93 7365.93 10071.62 7572.07 9952.61 7794 9893.14 7794 10668"/><path d="M 40251.74 12471.4 39910.66 12471.4 39581.19 12383.12 39285.81 12212.58 39044.62 11971.39 38874.08 11676.01 38785.8 11346.54 38785.8 11005.46 38874.08 10675.99 39044.62 10380.61 39285.81 10139.42 39581.19 9968.88 39910.66 9880.6 40251.74 9880.6 40581.21 9968.88 40876.59 10139.42 41117.78 10380.61 41288.32 10675.99 41376.6 11005.46 41376.6 11346.54 41288.32 11676.01 41117.78 11971.39 40876.59 12212.58 40581.21 12383.12 40251.74 12471.4"/></g></mask><mask id="t5OWG1L0XB5w8-FFJTmJ_clear-2" fill="#000" stroke="#000"><g><rect x="305.86" y="305.86" width="49388.27" height="49388.27" fill="#fff"/><path d="M 37678.76 49154 37401.24 49154 37133.17 49082.17 36892.83 48943.41 36696.59 48747.17 36557.83 48506.83 36486 48238.76 36486 47961.24 36557.83 47693.17 36696.59 47452.83 36892.83 47256.59 37133.17 47117.83 37401.24 47046 37678.76 47046 37946.83 47117.83 38187.17 47256.59 38383.41 47452.83 38522.17 47693.17 38594 47961.24 38594 48238.76 38522.17 48506.83 38383.41 48747.17 38187.17 48943.41 37946.83 49082.17 37678.76 49154"/><path d="M 35138.76 49154 34861.24 49154 34593.17 49082.17 34352.83 48943.41 34156.59 48747.17 34017.83 48506.83 33946 48238.76 33946 47961.24 34017.83 47693.17 34156.59 47452.83 34352.83 47256.59 34593.17 47117.83 34861.24 47046 35138.76 47046 35406.83 47117.83 35647.17 47256.59 35843.41 47452.83 35982.17 47693.17 36054 47961.24 36054 48238.76 35982.17 48506.83 35843.41 48747.17 35647.17 48943.41 35406.83 49082.17 35138.76 49154"/><path d="M 15138.76 49154 14861.24 49154 14593.17 49082.17 14352.83 48943.41 14156.59 48747.17 14017.83 48506.83 13946 48238.76 13946 47961.24 14017.83 47693.17 14156.59 47452.83 14352.83 47256.59 14593.17 47117.83 14861.24 47046 15138.76 47046 15406.83 47117.83 15647.17 47256.59 15843.41 47452.83 15982.17 47693.17 16054 47961.24 16054 48238.76 15982.17 48506.83 15843.41 48747.17 15647.17 48943.41 15406.83 49082.17 15138.76 49154"/><path d="M 12598.76 49154 12321.24 49154 12053.17 49082.17 11812.83 48943.41 11616.59 48747.17 11477.83 48506.83 11406 48238.76 11406 47961.24 11477.83 47693.17 11616.59 47452.83 11812.83 47256.59 12053.17 47117.83 12321.24 47046 12598.76 47046 12866.83 47117.83 13107.17 47256.59 13303.41 47452.83 13442.17 47693.17 13514 47961.24 13514 48238.76 13442.17 48506.83 13303.41 48747.17 13107.17 48943.41 12866.83 49082.17 12598.76 49154"/><path d="M 32860 49159.64 32060 49159.64 31889.27 49137.17 31730.18 49071.27 31593.56 48966.44 31488.73 48829.82 31422.84 48670.73 31400.36 48500 31400.36 47700 31422.84 47529.27 31488.73 47370.18 31593.56 47233.56 31730.18 47128.73 31889.27 47062.83 32060 47040.36 32860 47040.36 33030.73 47062.83 33189.82 47128.73 33326.44 47233.56 33431.27 47370.18 33497.17 47529.27 33519.64 47700 33519.64 48500 33497.17 48670.73 33431.27 48829.82 33326.44 48966.44 33189.82 49071.27 33030.73 49137.17 32860 49159.64"/><path d="M 17940 49159.64 17140 49159.64 16969.27 49137.17 16810.18 49071.27 16673.56 48966.44 16568.73 48829.82 16502.83 48670.73 16480.36 48500 16480.36 47700 16502.83 47529.27 16568.73 47370.18 16673.56 47233.56 16810.18 47128.73 16969.27 47062.83 17140 47040.36 17940 47040.36 18110.73 47062.83 18269.82 47128.73 18406.44 47233.56 18511.27 47370.18 18577.17 47529.27 18599.64 47700 18599.64 48500 18577.17 48670.73 18511.27 48829.82 18406.44 48966.44 18269.82 49071.27 18110.73 49137.17 17940 49159.64"/><path d="M 4102.55 37279 3897.43 37279 3699.31 37225.91 3521.67 37123.36 3376.64 36978.32 3274.08 36800.69 3220.99 36602.56 3220.99 36397.45 3274.08 36199.32 3376.64 36021.69 3521.67 35876.65 3699.31 35774.09 3897.43 35721 4102.55 35721 4300.67 35774.09 4478.31 35876.65 4623.35 36021.69 4725.9 36199.32 4778.99 36397.45 4778.99 36602.56 4725.9 36800.69 4623.35 36978.32 4478.31 37123.36 4300.67 37225.91 4102.55 37279"/><path d="M 46102.57 35831 45897.45 35831 45699.33 35777.91 45521.69 35675.35 45376.66 35530.32 45274.1 35352.68 45221.01 35154.56 45221.01 34949.44 45274.1 34751.32 45376.66 34573.68 45521.69 34428.65 45699.33 34326.09 45897.45 34273 46102.57 34273 46300.69 34326.09 46478.33 34428.65 46623.36 34573.68 46725.92 34751.32 46779.01 34949.44 46779.01 35154.56 46725.92 35352.68 46623.36 35530.32 46478.33 35675.35 46300.69 35777.91 46102.57 35831"/><path d="M 4102.55 34279.01 3897.43 34279.01 3699.31 34225.92 3521.67 34123.36 3376.64 33978.33 3274.08 33800.69 3220.99 33602.57 3220.99 33397.45 3274.08 33199.33 3376.64 33021.69 3521.67 32876.66 3699.31 32774.1 3897.43 32721.01 4102.55 32721.01 4300.67 32774.1 4478.31 32876.66 4623.35 33021.69 4725.9 33199.33 4778.99 33397.45 4778.99 33602.57 4725.9 33800.69 4623.35 33978.33 4478.31 34123.36 4300.67 34225.92 4102.55 34279.01"/><path d="M 46338.2 22144 46117.8 22144 45914.19 22059.66 45758.34 21903.81 45674 21700.2 45674 21479.8 45758.34 21276.19 45914.19 21120.34 46117.8 21036 46338.2 21036 46541.81 21120.34 46697.66 21276.19 46782 21479.8 46782 21700.2 46697.66 21903.81 46541.81 22059.66 46338.2 22144"/><path d="M 46338.2 20355 46117.8 20355 45914.19 20270.66 45758.34 20114.81 45674 19911.2 45674 19690.8 45758.34 19487.18 45914.19 19331.34 46117.8 19247 46338.2 19247 46541.81 19331.34 46697.66 19487.18 46782 19690.8 46782 19911.2 46697.66 20114.81 46541.81 20270.66 46338.2 20355"/><path d="M 46338.2 16948 46117.8 16948 45914.19 16863.66 45758.34 16707.82 45674 16504.2 45674 16283.8 45758.34 16080.19 45914.19 15924.34 46117.8 15840 46338.2 15840 46541.81 15924.34 46697.66 16080.19 46782 16283.8 46782 16504.2 46697.66 16707.82 46541.81 16863.66 46338.2 16948"/><path d="M 46338.2 15148 46117.8 15148 45914.19 15063.66 45758.34 14907.81 45674 14704.2 45674 14483.8 45758.34 14280.18 45914.19 14124.34 46117.8 14040 46338.2 14040 46541.81 14124.34 46697.66 14280.18 46782 14483.8 46782 14704.2 46697.66 14907.81 46541.81 15063.66 46338.2 15148"/><path d="M 3825 11699 2017 11699 2017 9891 3825 9891 3825 11699"/></g></mask><circle cx="0" cy="0" r="698.5" id="t5OWG1L0XB5w8-FFJTmJ_pad-43"/><circle cx="0" cy="0" r="1041.4" id="t5OWG1L0XB5w8-FFJTmJ_pad-44"/><circle cx="0" cy="0" r="3500" id="t5OWG1L0XB5w8-FFJTmJ_pad-45"/><circle cx="0" cy="0" r="650" id="t5OWG1L0XB5w8-FFJTmJ_pad-46"/><rect x="-650" y="-650" width="1300" height="1300" id="t5OWG1L0XB5w8-FFJTmJ_pad-47"/><g id="t5OWG1L0XB5w8-FFJTmJ_pad-48"><rect x="-800" y="-400" width="1600" height="800"/><rect x="-400" y="-800" width="800" height="1600"/><circle cx="400" cy="-400" r="400"/><circle cx="-400" cy="-400" r="400"/><circle cx="-400" cy="400" r="400"/><circle cx="400" cy="400" r="400"/></g><circle cx="0" cy="0" r="800" id="t5OWG1L0XB5w8-FFJTmJ_pad-49"/><rect x="-525" y="-525" width="1050" height="1050" id="t5OWG1L0XB5w8-FFJTmJ_pad-50"/><circle cx="0" cy="0" r="525" id="t5OWG1L0XB5w8-FFJTmJ_pad-51"/><circle cx="0" cy="0" r="550" id="t5OWG1L0XB5w8-FFJTmJ_pad-52"/><circle cx="0" cy="0" r="300" id="t5OWG1L0XB5w8-FFJTmJ_pad-53"/></defs><g transform="translate(0,49999.99) scale(1,-1)" fill="currentColor" stroke="currentColor"><g mask="url(#t5OWG1L0XB5w8-FFJTmJ_clear-2)"><g mask="url(#t5OWG1L0XB5w8-FFJTmJ_clear-1)"><path d="M 41246 44704.55 41338.43 44120.94 41521.03 43558.96 41789.29 43032.47 42136.61 42554.43 42554.43 42136.61 43032.47 41789.29 43558.96 41521.03 44120.94 41338.43 44704.55 41246 44741.02 41246 44741.02 41186.48 44726.91 41189.29 40440.47 41189.29 37896.41 43733.34 37896.41 43848.17 37812.07 44051.79 37656.22 44207.63 37452.61 44291.97 37232.21 44291.97 37028.59 44207.63 36872.75 44051.79 36788.41 43848.17 36788.41 43627.77 36872.75 43424.16 37028.59 43268.31 37232.21 43183.97 37347.04 43183.97 40004.87 40526.14 40130.9 40441.93 40279.56 40412.36 44566.01 40412.36 45611.54 39366.82 45611.54 38727.23 45521.69 38675.35 45376.66 38530.31 45274.1 38352.68 45221.01 38154.55 45221.01 37949.44 45247.86 37849.22 43384.13 35985.49 42594.42 35985.49 42445.76 35955.92 42319.73 35871.71 40724.04 34276.01 40609.21 34276.01 40405.59 34191.67 40249.75 34035.83 40165.41 33832.21 40165.41 33611.81 40249.75 33408.2 40405.59 33252.35 40609.21 33168.01 40829.61 33168.01 41033.22 33252.35 41189.07 33408.2 41273.41 33611.81 41273.41 33726.64 41520.99 33974.22 41520.99 32772.98 43078.99 32772.98 43078.99 34330.98 41877.74 34330.98 42755.33 35208.56 43545.04 35208.56 43693.7 35238.13 43819.72 35322.34 44741.02 36243.63 44741.02 32548 44643.64 32645.38 44460.31 32751.22 44255.82 32806.02 44044.13 32806.02 43839.64 32751.22 43656.31 32645.38 43506.62 32495.69 43400.77 32312.35 43345.98 32107.87 43345.98 31896.17 43400.77 31691.69 43506.62 31508.35 43656.31 31358.66 43839.64 31252.81 44044.13 31198.02 44255.82 31198.02 44460.31 31252.81 44643.64 31358.66 44741.02 31456.04 44741.02 8754 44704.55 8754 44120.94 8661.57 43558.96 8478.97 43032.47 8210.71 42554.43 7863.39 42136.61 7445.57 41789.29 6967.52 41521.03 6441.04 41338.43 5879.06 41246 5295.45 41246 4704.55 41338.43 4120.94 41521.03 3558.96 41789.29 3032.48 42136.61 2554.43 42554.43 2136.61 43032.47 1789.29 43558.96 1521.03 44120.94 1338.44 44704.55 1246 44741.02 1246 44741.02 305.86 40577.56 305.86 40577.56 2781.28 40577.57 2781.29 40554.28 2898.35 40487.98 2997.58 40145.09 3340.47 40145.08 3340.48 40045.85 3406.78 39928.79 3430.07 39928.78 3430.06 37642.5 3430.06 37453.36 3619.19 37453.36 6032.8 37617.1 6196.54 38354 6196.54 38361.47 6198.02 38369.01 6196.9 38528.34 6204.73 38550.33 6210.24 38573.01 6210.24 38885.56 6272.41 38913.39 6283.94 38942.94 6289.82 39237.35 6411.77 39262.39 6428.5 39290.23 6440.03 39555.2 6617.08 39576.5 6638.38 39601.55 6655.11 39826.88 6880.45 39843.62 6905.5 39864.92 6926.8 40041.96 7191.76 40053.49 7219.6 40070.23 7244.65 40192.18 7539.06 40198.06 7568.61 40209.59 7596.44 40271.76 7908.99 40271.76 7939.12 40277.64 7968.66 40277.64 8287.33 40271.76 8316.88 40271.76 8347.01 40209.59 8659.56 40198.06 8687.39 40192.18 8716.94 40070.23 9011.35 40053.5 9036.39 40041.97 9064.23 39864.92 9329.2 39843.62 9350.5 39826.88 9375.55 39601.55 9600.88 39576.5 9617.62 39555.2 9638.92 39290.23 9815.96 39262.4 9827.49 39237.35 9844.23 38942.94 9966.18 38913.39 9972.06 38885.56 9983.59 38573.01 10045.76 38550.33 10045.76 38528.34 10051.27 38369.01 10059.1 38361.47 10057.98 38354 10059.46 37617.1 10059.46 37453.36 10223.2 37453.36 12636.48 37453.37 12636.49 37430.08 12753.55 37363.78 12852.78 37071.69 13144.87 37071.68 13144.88 36972.45 13211.18 36855.39 13234.46 28422.62 13234.46 28422.61 13234.47 28305.55 13211.18 28206.32 13144.88 27914.23 12852.79 27914.22 12852.78 27847.92 12753.55 27824.64 12636.49 27824.64 10223.2 27660.9 10059.46 26924 10059.46 26916.53 10057.98 26908.99 10059.1 26749.65 10051.27 26727.66 10045.76 26704.99 10045.76 26392.44 9983.59 26364.61 9972.06 26335.06 9966.18 26040.65 9844.23 26015.6 9827.5 25987.77 9815.97 25722.8 9638.92 25701.5 9617.62 25676.45 9600.88 25451.11 9375.55 25434.38 9350.5 25413.08 9329.2 25236.03 9064.23 25224.5 9036.4 25207.77 9011.35 25085.82 8716.94 25079.94 8687.39 25068.41 8659.56 25006.24 8347.01 25006.24 8316.88 25000.36 8287.33 25000.36 7968.66 25006.24 7939.12 25006.24 7908.99 25068.41 7596.44 25079.94 7568.61 25085.82 7539.06 25207.77 7244.65 25224.5 7219.6 25236.03 7191.77 25413.08 6926.8 25434.38 6905.5 25451.11 6880.45 25676.45 6655.11 25701.5 6638.38 25722.8 6617.08 25987.76 6440.03 26015.6 6428.5 26040.65 6411.77 26335.06 6289.82 26364.61 6283.94 26392.44 6272.41 26704.99 6210.24 26727.67 6210.24 26749.66 6204.73 26909 6196.9 26916.53 6198.02 26924 6196.54 27787.9 6196.54 27824.64 6159.81 27824.64 3619.2 27635.51 3430.06 25222.22 3430.06 25222.21 3430.07 25105.15 3406.78 25005.92 3340.48 24790.02 3124.58 24723.72 3025.35 24700.43 2908.29 24700.44 2908.28 24700.44 305.86 5258.98 305.87 5258.98 305.87 5258.98 1246 5295.45 1246 5879.06 1338.44 6441.04 1521.03 6967.52 1789.29 7266.66 2006.62 8209.96 1063.32 8376.67 951.93 8573.32 912.81 23608.5 912.81 23805.16 951.93 23971.87 1063.32 24264.76 1356.22 24376.16 1522.93 24415.27 1719.58 24415.27 9667.75 24712.26 9964.73 25026.26 9880.6 25367.34 9880.6 25696.81 9968.88 25992.19 10139.42 26233.38 10380.61 26403.92 10675.99 26492.2 11005.46 26492.2 11346.54 26403.92 11676.01 26233.38 11971.39 25992.19 12212.58 25696.81 12383.12 25367.34 12471.4 25026.26 12471.4 24696.79 12383.12 24401.41 12212.58 24160.22 11971.39 23989.68 11676.01 23901.4 11346.54 23901.4 11005.46 23985.53 10691.46 23538.04 10243.96 23426.64 10077.25 23387.53 9880.6 23387.53 1940.55 8786.17 1940.55 7993.38 2733.34 8210.71 3032.48 8478.97 3558.96 8661.57 4120.94 8754 4704.55 8754 5295.45 8661.57 5879.06 8478.97 6441.04 8210.71 6967.52 7863.39 7445.57 7445.57 7863.39 6967.52 8210.71 6441.04 8478.97 5879.06 8661.57 5295.45 8754 5258.98 8754 5258.98 9902.53 5301.99 9891 5540.01 9891 5769.93 9952.61 5976.07 10071.62 6144.38 10239.93 6263.39 10446.07 6325 10675.99 6325 10914.01 6275.21 11099.84 7105.91 11930.53 8148.01 11930.53 8296.67 11960.11 8422.7 12044.31 9413.68 13035.3 9497.89 13161.33 9527.46 13309.99 9527.46 14242.05 9608.66 14323.25 9693 14526.86 9693 14747.26 9608.66 14950.87 9452.81 15106.72 9249.2 15191.06 9028.8 15191.06 8825.18 15106.72 8669.34 14950.87 8585 14747.26 8585 14526.86 8669.34 14323.25 8750.53 14242.05 8750.53 13470.89 7987.11 12707.47 6945 12707.47 6796.34 12677.89 6670.31 12593.69 5725.84 11649.21 5540.01 11699 5301.99 11699 5258.98 11687.47 5258.98 15261.27 5254 15286.27 5254 15311.79 5244.24 15335.36 5239.26 15360.37 5225.1 15381.57 5215.33 15405.15 5197.29 15423.18 5183.12 15444.39 5161.92 15458.56 5143.88 15476.6 5120.32 15486.36 5099.11 15500.53 5074.09 15505.51 5050.53 15515.27 4923.53 15540.53 4918.68 15540.53 4918.68 15558.3 8891.37 19530.99 9006.2 19530.99 9209.82 19615.33 9365.66 19771.18 9450 19974.79 9450 20195.19 9365.66 20398.81 9209.82 20554.65 9006.2 20638.99 8785.8 20638.99 8582.19 20554.65 8426.34 20398.81 8342 20195.19 8342 20080.36 5258.98 16997.34 5258.98 31404.02 5356.36 31306.64 5539.69 31200.79 5744.18 31146 5955.88 31146 6160.36 31200.79 6343.69 31306.64 6493.39 31456.33 6599.23 31639.67 6654.03 31844.15 6654.03 32055.85 6599.23 32260.33 6493.39 32443.67 6343.69 32593.36 6160.36 32699.21 5955.88 32754 5744.18 32754 5539.69 32699.21 5356.36 32593.36 5258.98 32495.98 5258.98 39004.01 5356.36 38906.63 5539.69 38800.78 5744.18 38745.99 5955.88 38745.99 6160.36 38800.78 6343.69 38906.63 6493.39 39056.32 6599.23 39239.65 6654.03 39444.13 6654.03 39655.83 6599.23 39860.32 6493.39 40043.65 6343.69 40193.34 6160.36 40299.19 5955.88 40353.98 5744.18 40353.98 5539.69 40299.19 5356.36 40193.34 5258.98 40095.96 5258.98 41246 5295.45 41246 5879.06 41338.43 6441.04 41521.03 6967.52 41789.29 7445.57 42136.61 7863.39 42554.43 8210.71 43032.47 8478.97 43558.96 8661.57 44120.94 8754 44704.55 8754 44741.02 41246 44741.02 41246 44704.55"/><path d="M 48000 49694.13 48166.86 49694.13 48494.16 49629.03 48802.47 49501.32 49079.94 49315.92 49315.92 49079.95 49501.32 48802.47 49629.03 48494.15 49694.13 48166.86 49694.13 48000 49694.13 29942.42 49567.13 29917.16 49565.21 29921.81 49409.36 30077.66 49205.75 30162 48985.35 30162 48781.73 30077.66 48625.89 29921.81 48541.55 29718.2 48541.55 29497.8 48625.89 29294.18 48781.73 29138.34 48985.35 29054 49205.75 29054 49409.36 29138.34 49565.21 29294.18 49567.13 29298.84 49694.13 29273.57 49694.13 24881.82 49567.13 24802.34 49432.75 24858 49212.35 24858 49008.73 24773.66 48852.89 24617.81 48768.55 24414.2 48768.55 24193.8 48852.89 23990.19 49008.73 23834.34 49212.35 23750 49432.75 23750 49567.13 23805.66 49694.13 23726.18 49694.13 2000 49694.13 1833.14 49629.03 1505.84 49501.32 1197.52 49315.92 920.05 49079.95 684.08 48802.47 498.67 48494.16 370.97 48166.86 305.86 48000.01 305.86 45000 305.86 45000 5000 45000 36502.61 45797.23 37299.85 45897.45 37272.99 46102.57 37272.99 46300.69 37326.08 46478.33 37428.64 46623.36 37573.68 46725.92 37751.31 46779.01 37949.44 46779.01 38154.55 46725.92 38352.68 46623.36 38530.31 46478.33 38675.35 46388.47 38727.23 46388.47 39527.73 46358.9 39676.38 46274.7 39802.41 45001.6 41075.51 45000 41076.58 45000 45000 5000 45000 5000 16738.36 4322.65 16061.01 4254.48 16061.01 4050.87 15976.67 3895.02 15820.83 3810.68 15617.21 3810.68 15396.82 3895.02 15193.2 4050.87 15037.36 4254.48 14953.02 4474.88 14953.02 4678.5 15037.36 4834.34 15193.2 4873 15286.53 5000 15261.27 5000 11595.78 4865.93 11518.38 4697.62 11350.07 4578.61 11143.93 4517 10914.01 4517 10675.99 4578.61 10446.07 4697.62 10239.93 4865.93 10071.62 5000 9994.22 5000 5513.87 4803.35 5474.76 4636.64 5363.36 4525.24 5196.65 4486.13 5000 4525.24 4803.35 4636.64 4636.64 5000 4273.28 5000 305.87 2000 305.87 1833.14 305.87 1505.84 370.97 1197.52 498.68 920.05 684.08 684.08 920.05 498.68 1197.53 370.97 1505.84 305.87 1833.14 305.86 2000 305.87 48000 305.87 48166.86 370.97 48494.15 498.68 48802.48 684.08 49079.94 920.05 49315.92 1197.53 49501.32 1505.84 49629.03 1833.14 49694.13 2000 49694.13 48000 49694.13"/><path d="M 49262.66 29858.11 49378.53 29742.24 49384.02 29734.02 49405.23 29719.86 49423.26 29701.83 49446.83 29692.06 49468.05 29677.89 49493.06 29672.91 49516.61 29663.16 49542.13 29663.16 49567.16 29658.18 49592.16 29663.16 49617.66 29663.16 49694.13 29678.37 49694.13 29537.62 49617.66 29552.84 49592.16 29552.84 49567.16 29557.81 49542.13 29552.84 49516.61 29552.84 49493.06 29543.08 49468.05 29538.11 49446.83 29523.93 49423.26 29514.17 49405.23 29496.14 49384.02 29481.97 49378.53 29473.76 49262.66 29357.89 49154.23 29312.97 49036.86 29312.97 48928.43 29357.89 48845.44 29440.88 48800.52 29549.31 48800.52 29666.68 48845.44 29775.11 48928.43 29858.11 49036.86 29903.02 49154.23 29903.02 49262.66 29858.11"/><path d="M 49468.03 24563.07 49489.28 24558.85 49509.06 24549.95 49538.38 24549.08 49567.13 24543.36 49588.39 24547.59 49610.06 24546.94 49637.48 24557.35 49666.24 24563.07 49684.26 24575.11 49694.13 24578.86 49694.13 24029.13 49684.26 24032.88 49666.24 24044.93 49637.48 24050.65 49610.06 24061.06 49588.39 24060.41 49567.13 24064.64 49538.37 24058.92 49509.06 24058.04 49489.29 24049.16 49468.03 24044.93 49381.23 24008.98 49263.86 24008.98 49155.43 24053.89 49072.44 24136.88 49027.52 24245.32 49027.52 24362.68 49072.44 24471.12 49155.43 24554.11 49263.86 24599.02 49381.23 24599.02 49468.03 24563.07"/></g><path d="M 24386.18 42385.64 24386.18 28826.82 24857.02 28355.98 37811.02 28355.98 38100 28067 38100 26035 37719 25654 20447 25654 20066 26035 20066 28355.98 22052.75 28355.98 22602.37 28905.59 22602.37 40568.37 21951.75 41218.99 17054.3 41218.98 16727.2 41546.09 16727.2 42780.08 17037.81 43090.69 23681.13 43090.69 24386.18 42385.64"/></g><path d="M 32963.12 48884.86 33059.22 48845.05 33141.73 48781.73 33205.05 48699.22 33244.86 48603.12 33260.67 48483.02 33260.67 47716.98 33244.86 47596.88 33205.05 47500.78 33141.73 47418.27 33059.22 47354.95 32963.12 47315.15 32843.02 47299.33 32076.98 47299.33 31956.88 47315.15 31860.78 47354.95 31778.27 47418.27 31714.95 47500.78 31675.15 47596.88 31659.33 47716.98 31659.33 48483.02 31675.15 48603.12 31714.95 48699.22 31778.27 48781.73 31860.78 48845.05 31956.88 48884.86 32076.98 48900.67 32843.02 48900.67 32963.12 48884.86"/><path d="M 18043.12 48884.86 18139.22 48845.05 18221.73 48781.73 18285.05 48699.22 18324.86 48603.12 18340.67 48483.02 18340.67 47716.98 18324.86 47596.88 18285.05 47500.78 18221.73 47418.27 18139.22 47354.95 18043.12 47315.15 17923.02 47299.33 17156.98 47299.33 17036.88 47315.15 16940.78 47354.95 16858.27 47418.27 16794.95 47500.78 16755.15 47596.88 16739.33 47716.98 16739.33 48483.02 16755.15 48603.12 16794.95 48699.22 16858.27 48781.73 16940.78 48845.05 17036.88 48884.86 17156.98 48900.67 17923.02 48900.67 18043.12 48884.86"/><path d="M 46395.12 16644.11 46478.11 16561.12 46523.02 16452.68 46523.02 16335.32 46478.11 16226.88 46395.12 16143.89 46286.68 16098.98 46169.32 16098.98 46060.88 16143.89 45977.89 16226.88 45932.98 16335.32 45932.98 16452.68 45977.89 16561.12 46060.88 16644.11 46169.32 16689.02 46286.68 16689.02 46395.12 16644.11"/><path d="M 46395.12 14844.11 46478.11 14761.12 46523.02 14652.68 46523.02 14535.32 46478.11 14426.88 46395.12 14343.89 46286.68 14298.98 46169.32 14298.98 46060.88 14343.89 45977.89 14426.88 45932.98 14535.32 45932.98 14652.68 45977.89 14761.12 46060.88 14844.11 46169.32 14889.02 46286.68 14889.02 46395.12 14844.11"/><path d="M 37342.41 43737.97 40279.56 40800.82 M 44726.91 40800.82 46000.01 39527.73 M 40279.56 40800.82 44726.91 40800.82 M 8432.92 36500 10637.73 38704.82 M 6999.99 36500 8432.92 36500 M 6285.77 35785.79 6999.99 36500 M 5421 10795 6945 12319 M 8148.01 12319 9139 13309.99 M 6945 12319 8148.01 12319 M 9139 13309.99 9139 14637.06 M 46000.01 38051.99 46000.01 39527.73 M 43545.04 35597.02 46000.01 38051.99 M 42594.42 35597.02 43545.04 35597.02 M 40719.41 33722.01 42594.42 35597.02 M 4365.61 15554.6 8896 20084.99 M 4364.68 15507.01 4365.61 15507.94" fill="none" stroke-width="254"/><path d="M 24274.06 42924.74 26700.41 42924.74 M 23681.13 42331.82 24274.06 42924.74" fill="none" stroke-width="400"/><path d="M 5000 5000 8573.32 1426.68 M 23608.5 1426.68 23901.4 1719.58 23901.4 9880.6 M 8573.32 1426.68 23608.5 1426.68 M 23901.4 9880.6 25196.8 11176 25224.5 11176" fill="none" stroke-width="500"/><path d="M 21798.79 31960.26 21798.79 31977.08 M 19494.14 34281.73 19494.14 34298.56 M 19494.14 34281.73 21798.79 31977.08 M 37540 47879 37719 47700 M 37540 47879 37540 48100 M 26700.41 40430.34 28031.06 39099.69 M 29748.1 39099.69 30135.01 38712.78 M 28031.06 39099.69 29748.1 39099.69 M 30135.01 38212.52 30135.01 38712.78 M 26700.41 40430.34 26700.41 41250.82" fill="none" stroke-width="200"/><use xlink:href="#t5OWG1L0XB5w8-FFJTmJ_pad-43" x="28194" y="14478"/><use xlink:href="#t5OWG1L0XB5w8-FFJTmJ_pad-43" x="29464" y="17018"/><use xlink:href="#t5OWG1L0XB5w8-FFJTmJ_pad-43" x="30734" y="14478"/><use xlink:href="#t5OWG1L0XB5w8-FFJTmJ_pad-43" x="32004" y="17018"/><use xlink:href="#t5OWG1L0XB5w8-FFJTmJ_pad-43" x="33274" y="14478"/><use xlink:href="#t5OWG1L0XB5w8-FFJTmJ_pad-43" x="34544" y="17018"/><use xlink:href="#t5OWG1L0XB5w8-FFJTmJ_pad-43" x="35814" y="14478"/><use xlink:href="#t5OWG1L0XB5w8-FFJTmJ_pad-43" x="37084" y="17018"/><use xlink:href="#t5OWG1L0XB5w8-FFJTmJ_pad-44" x="25196.8" y="11176"/><use xlink:href="#t5OWG1L0XB5w8-FFJTmJ_pad-44" x="40081.2" y="11176"/><use xlink:href="#t5OWG1L0XB5w8-FFJTmJ_pad-45" x="5000" y="5000"/><use xlink:href="#t5OWG1L0XB5w8-FFJTmJ_pad-45" x="5000" y="45000"/><use xlink:href="#t5OWG1L0XB5w8-FFJTmJ_pad-45" x="45000" y="5000"/><use xlink:href="#t5OWG1L0XB5w8-FFJTmJ_pad-45" x="45000" y="45000"/><use xlink:href="#t5OWG1L0XB5w8-FFJTmJ_pad-46" x="7921" y="10795"/><use xlink:href="#t5OWG1L0XB5w8-FFJTmJ_pad-46" x="5421" y="10795"/><use xlink:href="#t5OWG1L0XB5w8-FFJTmJ_pad-47" x="2921" y="10795"/><use xlink:href="#t5OWG1L0XB5w8-FFJTmJ_pad-48" x="32460" y="48100"/><use xlink:href="#t5OWG1L0XB5w8-FFJTmJ_pad-48" x="17540" y="48100"/><use xlink:href="#t5OWG1L0XB5w8-FFJTmJ_pad-49" x="35000" y="48100"/><use xlink:href="#t5OWG1L0XB5w8-FFJTmJ_pad-49" x="37540" y="48100"/><use xlink:href="#t5OWG1L0XB5w8-FFJTmJ_pad-49" x="15000" y="48100"/><use xlink:href="#t5OWG1L0XB5w8-FFJTmJ_pad-49" x="12460" y="48100"/><use xlink:href="#t5OWG1L0XB5w8-FFJTmJ_pad-50" x="42299.99" y="33551.98"/><use xlink:href="#t5OWG1L0XB5w8-FFJTmJ_pad-50" x="7700.01" y="38000.03"/><use xlink:href="#t5OWG1L0XB5w8-FFJTmJ_pad-51" x="46000.01" y="35052"/><use xlink:href="#t5OWG1L0XB5w8-FFJTmJ_pad-51" x="42299.99" y="36552.02"/><use xlink:href="#t5OWG1L0XB5w8-FFJTmJ_pad-51" x="46000.01" y="38051.99"/><use xlink:href="#t5OWG1L0XB5w8-FFJTmJ_pad-51" x="3999.99" y="33500.01"/><use xlink:href="#t5OWG1L0XB5w8-FFJTmJ_pad-51" x="7700.01" y="34999.98"/><use xlink:href="#t5OWG1L0XB5w8-FFJTmJ_pad-51" x="3999.99" y="36500"/><use xlink:href="#t5OWG1L0XB5w8-FFJTmJ_pad-52" x="44149.98" y="32002.02"/><use xlink:href="#t5OWG1L0XB5w8-FFJTmJ_pad-52" x="44149.98" y="39602"/><use xlink:href="#t5OWG1L0XB5w8-FFJTmJ_pad-52" x="5850.03" y="31950"/><use xlink:href="#t5OWG1L0XB5w8-FFJTmJ_pad-52" x="5850.03" y="39549.98"/><use xlink:href="#t5OWG1L0XB5w8-FFJTmJ_pad-53" x="38291.64" y="29347.41"/><use xlink:href="#t5OWG1L0XB5w8-FFJTmJ_pad-53" x="7509.42" y="29014.72"/><use xlink:href="#t5OWG1L0XB5w8-FFJTmJ_pad-53" x="49322.55" y="24304"/><use xlink:href="#t5OWG1L0XB5w8-FFJTmJ_pad-53" x="37342.41" y="43737.97"/><use xlink:href="#t5OWG1L0XB5w8-FFJTmJ_pad-53" x="18362.26" y="19228"/><use xlink:href="#t5OWG1L0XB5w8-FFJTmJ_pad-53" x="18362.26" y="22428"/><use xlink:href="#t5OWG1L0XB5w8-FFJTmJ_pad-53" x="10086.72" y="37154.97"/><use xlink:href="#t5OWG1L0XB5w8-FFJTmJ_pad-53" x="10637.73" y="38704.82"/><use xlink:href="#t5OWG1L0XB5w8-FFJTmJ_pad-53" x="10243.9" y="17107.01"/><use xlink:href="#t5OWG1L0XB5w8-FFJTmJ_pad-53" x="6285.77" y="35785.79"/><use xlink:href="#t5OWG1L0XB5w8-FFJTmJ_pad-53" x="40615.96" y="35200.59"/><use xlink:href="#t5OWG1L0XB5w8-FFJTmJ_pad-53" x="25019" y="32922.37"/><use xlink:href="#t5OWG1L0XB5w8-FFJTmJ_pad-53" x="25019" y="35526.18"/><use xlink:href="#t5OWG1L0XB5w8-FFJTmJ_pad-53" x="32367.96" y="27813"/><use xlink:href="#t5OWG1L0XB5w8-FFJTmJ_pad-53" x="49095.55" y="29608"/><use xlink:href="#t5OWG1L0XB5w8-FFJTmJ_pad-53" x="24062.31" y="19228"/><use xlink:href="#t5OWG1L0XB5w8-FFJTmJ_pad-53" x="25198" y="21678"/><use xlink:href="#t5OWG1L0XB5w8-FFJTmJ_pad-53" x="23681.13" y="42331.82"/><use xlink:href="#t5OWG1L0XB5w8-FFJTmJ_pad-53" x="21798.79" y="31960.26"/><use xlink:href="#t5OWG1L0XB5w8-FFJTmJ_pad-53" x="26700.41" y="42924.74"/><use xlink:href="#t5OWG1L0XB5w8-FFJTmJ_pad-53" x="17198.06" y="42291"/><use xlink:href="#t5OWG1L0XB5w8-FFJTmJ_pad-53" x="13162.33" y="13930.99"/><use xlink:href="#t5OWG1L0XB5w8-FFJTmJ_pad-53" x="9139" y="14637.06"/><use xlink:href="#t5OWG1L0XB5w8-FFJTmJ_pad-53" x="40719.41" y="33722.01"/><use xlink:href="#t5OWG1L0XB5w8-FFJTmJ_pad-53" x="19668.13" y="39873.01"/><use xlink:href="#t5OWG1L0XB5w8-FFJTmJ_pad-53" x="10086.72" y="33161.38"/><use xlink:href="#t5OWG1L0XB5w8-FFJTmJ_pad-53" x="17219.19" y="36188.62"/><use xlink:href="#t5OWG1L0XB5w8-FFJTmJ_pad-53" x="14716.14" y="36189.08"/><use xlink:href="#t5OWG1L0XB5w8-FFJTmJ_pad-53" x="19494.14" y="34298.56"/><use xlink:href="#t5OWG1L0XB5w8-FFJTmJ_pad-53" x="19048.31" y="33161.39"/><use xlink:href="#t5OWG1L0XB5w8-FFJTmJ_pad-53" x="16336.26" y="33100.42"/><use xlink:href="#t5OWG1L0XB5w8-FFJTmJ_pad-53" x="13567.5" y="32711.39"/><use xlink:href="#t5OWG1L0XB5w8-FFJTmJ_pad-53" x="32409.96" y="36322.46"/><use xlink:href="#t5OWG1L0XB5w8-FFJTmJ_pad-53" x="33292.89" y="39410.66"/><use xlink:href="#t5OWG1L0XB5w8-FFJTmJ_pad-53" x="34913.01" y="36322"/><use xlink:href="#t5OWG1L0XB5w8-FFJTmJ_pad-53" x="36061.65" y="39799.69"/><use xlink:href="#t5OWG1L0XB5w8-FFJTmJ_pad-53" x="39542.43" y="39349.71"/><use xlink:href="#t5OWG1L0XB5w8-FFJTmJ_pad-53" x="29870.73" y="32270.62"/><use xlink:href="#t5OWG1L0XB5w8-FFJTmJ_pad-53" x="26700.41" y="41250.82"/><use xlink:href="#t5OWG1L0XB5w8-FFJTmJ_pad-53" x="30135.01" y="38212.52"/><use xlink:href="#t5OWG1L0XB5w8-FFJTmJ_pad-53" x="30580.84" y="39349.69"/><use xlink:href="#t5OWG1L0XB5w8-FFJTmJ_pad-53" x="46228" y="16394"/><use xlink:href="#t5OWG1L0XB5w8-FFJTmJ_pad-53" x="46228" y="14594"/><use xlink:href="#t5OWG1L0XB5w8-FFJTmJ_pad-53" x="46228" y="21590"/><use xlink:href="#t5OWG1L0XB5w8-FFJTmJ_pad-53" x="46228" y="19801"/><use xlink:href="#t5OWG1L0XB5w8-FFJTmJ_pad-53" x="8034.1" y="17107.01"/><use xlink:href="#t5OWG1L0XB5w8-FFJTmJ_pad-53" x="8896" y="20084.99"/><use xlink:href="#t5OWG1L0XB5w8-FFJTmJ_pad-53" x="4364.68" y="15507.01"/><use xlink:href="#t5OWG1L0XB5w8-FFJTmJ_pad-53" x="37592" y="26289"/><use xlink:href="#t5OWG1L0XB5w8-FFJTmJ_pad-53" x="36068" y="26289"/><use xlink:href="#t5OWG1L0XB5w8-FFJTmJ_pad-53" x="37592" y="27813"/><use xlink:href="#t5OWG1L0XB5w8-FFJTmJ_pad-53" x="36060.02" y="27813"/><use xlink:href="#t5OWG1L0XB5w8-FFJTmJ_pad-53" x="20786.04" y="27813"/><use xlink:href="#t5OWG1L0XB5w8-FFJTmJ_pad-53" x="22318.02" y="27813"/><use xlink:href="#t5OWG1L0XB5w8-FFJTmJ_pad-53" x="20794.02" y="26289"/><use xlink:href="#t5OWG1L0XB5w8-FFJTmJ_pad-53" x="22318.02" y="26289"/><use xlink:href="#t5OWG1L0XB5w8-FFJTmJ_pad-53" x="25250.32" y="19992.79"/><use xlink:href="#t5OWG1L0XB5w8-FFJTmJ_pad-53" x="24062.31" y="22428"/><use xlink:href="#t5OWG1L0XB5w8-FFJTmJ_pad-53" x="31698" y="19978"/><use xlink:href="#t5OWG1L0XB5w8-FFJTmJ_pad-53" x="31698" y="21678"/><use xlink:href="#t5OWG1L0XB5w8-FFJTmJ_pad-53" x="19177" y="9039"/><use xlink:href="#t5OWG1L0XB5w8-FFJTmJ_pad-53" x="19177" y="12539.01"/><use xlink:href="#t5OWG1L0XB5w8-FFJTmJ_pad-53" x="19177" y="18139"/><use xlink:href="#t5OWG1L0XB5w8-FFJTmJ_pad-53" x="19177" y="14638.99"/></g></svg>