<svg version="1.1" xmlns="http://www.w3.org/2000/svg" xmlns:xlink="http://www.w3.org/1999/xlink" stroke-linecap="round" stroke-linejoin="round" stroke-width="0" fill-rule="evenodd" width="47.54455mm" height="44.264165mm" viewBox="2349.5 4407.335 47544.55 44264.165" id="h7tMjHDIh00E00jFbsdx"><g transform="translate(0,53078.835) scale(1,-1)" fill="currentColor" stroke="currentColor"><path d="M 28194 13970 27686 14986 28702 14986 28194 13970 M 29464 16510 28956 17526 29972 17526 29464 16510 M 30734 13970 30226 14986 31242 14986 30734 13970 M 32004 16510 31496 17526 32512 17526 32004 16510 M 33274 13970 32766 14986 33782 14986 33274 13970 M 34544 16510 34036 17526 35052 17526 34544 16510 M 35814 13970 35306 14986 36322 14986 35814 13970 M 37084 16510 36576 17526 37592 17526 37084 16510 M 7413 10287 7413 11303 8429 11303 8429 10287 7413 10287 M 7616.2 10490.2 7616.2 11099.8 8225.8 11099.8 8225.8 10490.2 7616.2 10490.2 M 4913 10287 4913 11303 5929 11303 5929 10287 4913 10287 M 5116.2 10490.2 5116.2 11099.8 5725.8 11099.8 5725.8 10490.2 5116.2 10490.2 M 2413 10287 2413 11303 3429 11303 3429 10287 2413 10287 M 2616.2 10490.2 2616.2 11099.8 3225.8 11099.8 3225.8 10490.2 2616.2 10490.2 M 32206 47846 32206 47592 32714 47592 32714 47846 32968 47846 32968 48354 32714 48354 32714 48608 32206 48608 32206 48354 31952 48354 31952 47846 32206 47846 M 34746 47846 34746 47592 35254 47592 35254 47846 35508 47846 35508 48354 35254 48354 35254 48608 34746 48608 34746 48354 34492 48354 34492 47846 34746 47846 M 37286 47846 37286 47592 37794 47592 37794 47846 38048 47846 38048 48354 37794 48354 37794 48608 37286 48608 37286 48354 37032 48354 37032 47846 37286 47846 M 17286 47846 17286 47592 17794 47592 17794 47846 18048 47846 18048 48354 17794 48354 17794 48608 17286 48608 17286 48354 17032 48354 17032 47846 17286 47846 M 14746 47846 14746 47592 15254 47592 15254 47846 15508 47846 15508 48354 15254 48354 15254 48608 14746 48608 14746 48354 14492 48354 14492 47846 14746 47846 M 12206 47846 12206 47592 12714 47592 12714 47846 12968 47846 12968 48354 12714 48354 12714 48608 12206 48608 12206 48354 11952 48354 11952 47846 12206 47846 M 41791.99 33043.98 42045.99 33551.98 41791.99 34059.98 42299.99 33805.98 42807.99 34059.98 42553.99 33551.98 42807.99 33043.98 42299.99 33297.98 41791.99 33043.98 M 45492.01 34544 45746.01 35052 45492.01 35560 46000.01 35306 46508.01 35560 46254.01 35052 46508.01 34544 46000.01 34798 45492.01 34544 M 41791.99 36044.02 42045.99 36552.02 41791.99 37060.02 42299.99 36806.02 42807.99 37060.02 42553.99 36552.02 42807.99 36044.02 42299.99 36298.02 41791.99 36044.02 M 45492.01 37543.99 45746.01 38051.99 45492.01 38559.99 46000.01 38305.99 46508.01 38559.99 46254.01 38051.99 46508.01 37543.99 46000.01 37797.99 45492.01 37543.99 M 44149.98 31494.02 44403.98 31748.02 44657.98 31748.02 44403.98 32002.02 44657.98 32256.02 44403.98 32256.02 44149.98 32510.02 43895.98 32256.02 43641.98 32256.02 43895.98 32002.02 43641.98 31748.02 43895.98 31748.02 44149.98 31494.02 M 44149.98 39094 44403.98 39348 44657.98 39348 44403.98 39602 44657.98 39856 44403.98 39856 44149.98 40110 43895.98 39856 43641.98 39856 43895.98 39602 43641.98 39348 43895.98 39348 44149.98 39094 M 5850.03 31442 6104.03 31696 6358.03 31696 6104.03 31950 6358.03 32204 6104.03 32204 5850.03 32458 5596.03 32204 5342.03 32204 5596.03 31950 5342.03 31696 5596.03 31696 5850.03 31442 M 5850.03 39041.98 6104.03 39295.98 6358.03 39295.98 6104.03 39549.98 6358.03 39803.98 6104.03 39803.98 5850.03 40057.98 5596.03 39803.98 5342.03 39803.98 5596.03 39549.98 5342.03 39295.98 5596.03 39295.98 5850.03 39041.98 M 3491.99 32992.01 3745.99 33500.01 3491.99 34008.01 3999.99 33754.01 4507.99 34008.01 4253.99 33500.01 4507.99 32992.01 3999.99 33246.01 3491.99 32992.01 M 7192.01 34491.98 7446.01 34999.98 7192.01 35507.98 7700.01 35253.98 8208.01 35507.98 7954.01 34999.98 8208.01 34491.98 7700.01 34745.98 7192.01 34491.98 M 3491.99 35992 3745.99 36500 3491.99 37008 3999.99 36754 4507.99 37008 4253.99 36500 4507.99 35992 3999.99 36246 3491.99 35992 M 7192.01 37492.03 7446.01 38000.03 7192.01 38508.03 7700.01 38254.03 8208.01 38508.03 7954.01 38000.03 8208.01 37492.03 7700.01 37746.03 7192.01 37492.03 M 37783.64 28839.41 38037.64 28839.41 38291.64 29093.41 38545.64 28839.41 38799.64 28839.41 38799.64 29093.41 38545.64 29347.41 38799.64 29601.41 38799.64 29855.41 38545.64 29855.41 38291.64 29601.41 38037.64 29855.41 37783.64 29855.41 37783.64 29601.41 38037.64 29347.41 37783.64 29093.41 37783.64 28839.41 M 7001.42 28506.72 7255.42 28506.72 7509.42 28760.72 7763.42 28506.72 8017.42 28506.72 8017.42 28760.72 7763.42 29014.72 8017.42 29268.72 8017.42 29522.72 7763.42 29522.72 7509.42 29268.72 7255.42 29522.72 7001.42 29522.72 7001.42 29268.72 7255.42 29014.72 7001.42 28760.72 7001.42 28506.72 M 48814.55 23796 49068.55 23796 49322.55 24050 49576.55 23796 49830.55 23796 49830.55 24050 49576.55 24304 49830.55 24558 49830.55 24812 49576.55 24812 49322.55 24558 49068.55 24812 48814.55 24812 48814.55 24558 49068.55 24304 48814.55 24050 48814.55 23796 M 36834.41 43229.97 37088.41 43229.97 37342.41 43483.97 37596.41 43229.97 37850.41 43229.97 37850.41 43483.97 37596.41 43737.97 37850.41 43991.97 37850.41 44245.97 37596.41 44245.97 37342.41 43991.97 37088.41 44245.97 36834.41 44245.97 36834.41 43991.97 37088.41 43737.97 36834.41 43483.97 36834.41 43229.97 M 17854.26 18720 18108.26 18720 18362.26 18974 18616.26 18720 18870.26 18720 18870.26 18974 18616.26 19228 18870.26 19482 18870.26 19736 18616.26 19736 18362.26 19482 18108.26 19736 17854.26 19736 17854.26 19482 18108.26 19228 17854.26 18974 17854.26 18720 M 17854.26 21920 18108.26 21920 18362.26 22174 18616.26 21920 18870.26 21920 18870.26 22174 18616.26 22428 18870.26 22682 18870.26 22936 18616.26 22936 18362.26 22682 18108.26 22936 17854.26 22936 17854.26 22682 18108.26 22428 17854.26 22174 17854.26 21920 M 9578.72 36646.97 9832.72 36646.97 10086.72 36900.97 10340.72 36646.97 10594.72 36646.97 10594.72 36900.97 10340.72 37154.97 10594.72 37408.97 10594.72 37662.97 10340.72 37662.97 10086.72 37408.97 9832.72 37662.97 9578.72 37662.97 9578.72 37408.97 9832.72 37154.97 9578.72 36900.97 9578.72 36646.97 M 10129.73 38196.82 10383.73 38196.82 10637.73 38450.82 10891.73 38196.82 11145.73 38196.82 11145.73 38450.82 10891.73 38704.82 11145.73 38958.82 11145.73 39212.82 10891.73 39212.82 10637.73 38958.82 10383.73 39212.82 10129.73 39212.82 10129.73 38958.82 10383.73 38704.82 10129.73 38450.82 10129.73 38196.82 M 9735.9 16599.01 9989.9 16599.01 10243.9 16853.01 10497.9 16599.01 10751.9 16599.01 10751.9 16853.01 10497.9 17107.01 10751.9 17361.01 10751.9 17615.01 10497.9 17615.01 10243.9 17361.01 9989.9 17615.01 9735.9 17615.01 9735.9 17361.01 9989.9 17107.01 9735.9 16853.01 9735.9 16599.01 M 5777.77 35277.79 6031.77 35277.79 6285.77 35531.79 6539.77 35277.79 6793.77 35277.79 6793.77 35531.79 6539.77 35785.79 6793.77 36039.79 6793.77 36293.79 6539.77 36293.79 6285.77 36039.79 6031.77 36293.79 5777.77 36293.79 5777.77 36039.79 6031.77 35785.79 5777.77 35531.79 5777.77 35277.79 M 40107.96 34692.59 40361.96 34692.59 40615.96 34946.59 40869.96 34692.59 41123.96 34692.59 41123.96 34946.59 40869.96 35200.59 41123.96 35454.59 41123.96 35708.59 40869.96 35708.59 40615.96 35454.59 40361.96 35708.59 40107.96 35708.59 40107.96 35454.59 40361.96 35200.59 40107.96 34946.59 40107.96 34692.59 M 24511 32414.37 24765 32414.37 25019 32668.37 25273 32414.37 25527 32414.37 25527 32668.37 25273 32922.37 25527 33176.37 25527 33430.37 25273 33430.37 25019 33176.37 24765 33430.37 24511 33430.37 24511 33176.37 24765 32922.37 24511 32668.37 24511 32414.37 M 24511 35018.18 24765 35018.18 25019 35272.18 25273 35018.18 25527 35018.18 25527 35272.18 25273 35526.18 25527 35780.18 25527 36034.18 25273 36034.18 25019 35780.18 24765 36034.18 24511 36034.18 24511 35780.18 24765 35526.18 24511 35272.18 24511 35018.18 M 31859.96 27305 32113.96 27305 32367.96 27559 32621.96 27305 32875.96 27305 32875.96 27559 32621.96 27813 32875.96 28067 32875.96 28321 32621.96 28321 32367.96 28067 32113.96 28321 31859.96 28321 31859.96 28067 32113.96 27813 31859.96 27559 31859.96 27305 M 48587.55 29100 48841.55 29100 49095.55 29354 49349.55 29100 49603.55 29100 49603.55 29354 49349.55 29608 49603.55 29862 49603.55 30116 49349.55 30116 49095.55 29862 48841.55 30116 48587.55 30116 48587.55 29862 48841.55 29608 48587.55 29354 48587.55 29100 M 23554.31 18720 23808.31 18720 24062.31 18974 24316.31 18720 24570.31 18720 24570.31 18974 24316.31 19228 24570.31 19482 24570.31 19736 24316.31 19736 24062.31 19482 23808.31 19736 23554.31 19736 23554.31 19482 23808.31 19228 23554.31 18974 23554.31 18720 M 24690 21170 24944 21170 25198 21424 25452 21170 25706 21170 25706 21424 25452 21678 25706 21932 25706 22186 25452 22186 25198 21932 24944 22186 24690 22186 24690 21932 24944 21678 24690 21424 24690 21170 M 23173.13 41823.82 23427.13 41823.82 23681.13 42077.82 23935.13 41823.82 24189.13 41823.82 24189.13 42077.82 23935.13 42331.82 24189.13 42585.82 24189.13 42839.82 23935.13 42839.82 23681.13 42585.82 23427.13 42839.82 23173.13 42839.82 23173.13 42585.82 23427.13 42331.82 23173.13 42077.82 23173.13 41823.82 M 21290.79 31452.26 21544.79 31452.26 21798.79 31706.26 22052.79 31452.26 22306.79 31452.26 22306.79 31706.26 22052.79 31960.26 22306.79 32214.26 22306.79 32468.26 22052.79 32468.26 21798.79 32214.26 21544.79 32468.26 21290.79 32468.26 21290.79 32214.26 21544.79 31960.26 21290.79 31706.26 21290.79 31452.26 M 26192.41 42416.74 26446.41 42416.74 26700.41 42670.74 26954.41 42416.74 27208.41 42416.74 27208.41 42670.74 26954.41 42924.74 27208.41 43178.74 27208.41 43432.74 26954.41 43432.74 26700.41 43178.74 26446.41 43432.74 26192.41 43432.74 26192.41 43178.74 26446.41 42924.74 26192.41 42670.74 26192.41 42416.74 M 16690.06 41783 16944.06 41783 17198.06 42037 17452.06 41783 17706.06 41783 17706.06 42037 17452.06 42291 17706.06 42545 17706.06 42799 17452.06 42799 17198.06 42545 16944.06 42799 16690.06 42799 16690.06 42545 16944.06 42291 16690.06 42037 16690.06 41783 M 12654.33 13422.99 12908.33 13422.99 13162.33 13676.99 13416.33 13422.99 13670.33 13422.99 13670.33 13676.99 13416.33 13930.99 13670.33 14184.99 13670.33 14438.99 13416.33 14438.99 13162.33 14184.99 12908.33 14438.99 12654.33 14438.99 12654.33 14184.99 12908.33 13930.99 12654.33 13676.99 12654.33 13422.99 M 8631 14129.06 8885 14129.06 9139 14383.06 9393 14129.06 9647 14129.06 9647 14383.06 9393 14637.06 9647 14891.06 9647 15145.06 9393 15145.06 9139 14891.06 8885 15145.06 8631 15145.06 8631 14891.06 8885 14637.06 8631 14383.06 8631 14129.06 M 40211.41 33214.01 40465.41 33214.01 40719.41 33468.01 40973.41 33214.01 41227.41 33214.01 41227.41 33468.01 40973.41 33722.01 41227.41 33976.01 41227.41 34230.01 40973.41 34230.01 40719.41 33976.01 40465.41 34230.01 40211.41 34230.01 40211.41 33976.01 40465.41 33722.01 40211.41 33468.01 40211.41 33214.01 M 19160.13 39365.01 19414.13 39365.01 19668.13 39619.01 19922.13 39365.01 20176.13 39365.01 20176.13 39619.01 19922.13 39873.01 20176.13 40127.01 20176.13 40381.01 19922.13 40381.01 19668.13 40127.01 19414.13 40381.01 19160.13 40381.01 19160.13 40127.01 19414.13 39873.01 19160.13 39619.01 19160.13 39365.01 M 9578.72 32653.38 9832.72 32653.38 10086.72 32907.38 10340.72 32653.38 10594.72 32653.38 10594.72 32907.38 10340.72 33161.38 10594.72 33415.38 10594.72 33669.38 10340.72 33669.38 10086.72 33415.38 9832.72 33669.38 9578.72 33669.38 9578.72 33415.38 9832.72 33161.38 9578.72 32907.38 9578.72 32653.38 M 16711.19 35680.62 16965.19 35680.62 17219.19 35934.62 17473.19 35680.62 17727.19 35680.62 17727.19 35934.62 17473.19 36188.62 17727.19 36442.62 17727.19 36696.62 17473.19 36696.62 17219.19 36442.62 16965.19 36696.62 16711.19 36696.62 16711.19 36442.62 16965.19 36188.62 16711.19 35934.62 16711.19 35680.62 M 14208.14 35681.08 14462.14 35681.08 14716.14 35935.08 14970.14 35681.08 15224.14 35681.08 15224.14 35935.08 14970.14 36189.08 15224.14 36443.08 15224.14 36697.08 14970.14 36697.08 14716.14 36443.08 14462.14 36697.08 14208.14 36697.08 14208.14 36443.08 14462.14 36189.08 14208.14 35935.08 14208.14 35681.08 M 18986.14 33790.56 19240.14 33790.56 19494.14 34044.56 19748.14 33790.56 20002.14 33790.56 20002.14 34044.56 19748.14 34298.56 20002.14 34552.56 20002.14 34806.56 19748.14 34806.56 19494.14 34552.56 19240.14 34806.56 18986.14 34806.56 18986.14 34552.56 19240.14 34298.56 18986.14 34044.56 18986.14 33790.56 M 18540.31 32653.39 18794.31 32653.39 19048.31 32907.39 19302.31 32653.39 19556.31 32653.39 19556.31 32907.39 19302.31 33161.39 19556.31 33415.39 19556.31 33669.39 19302.31 33669.39 19048.31 33415.39 18794.31 33669.39 18540.31 33669.39 18540.31 33415.39 18794.31 33161.39 18540.31 32907.39 18540.31 32653.39 M 15828.26 32592.42 16082.26 32592.42 16336.26 32846.42 16590.26 32592.42 16844.26 32592.42 16844.26 32846.42 16590.26 33100.42 16844.26 33354.42 16844.26 33608.42 16590.26 33608.42 16336.26 33354.42 16082.26 33608.42 15828.26 33608.42 15828.26 33354.42 16082.26 33100.42 15828.26 32846.42 15828.26 32592.42 M 13059.5 32203.39 13313.5 32203.39 13567.5 32457.39 13821.5 32203.39 14075.5 32203.39 14075.5 32457.39 13821.5 32711.39 14075.5 32965.39 14075.5 33219.39 13821.5 33219.39 13567.5 32965.39 13313.5 33219.39 13059.5 33219.39 13059.5 32965.39 13313.5 32711.39 13059.5 32457.39 13059.5 32203.39 M 31901.96 35814.46 32155.96 35814.46 32409.96 36068.46 32663.96 35814.46 32917.96 35814.46 32917.96 36068.46 32663.96 36322.46 32917.96 36576.46 32917.96 36830.46 32663.96 36830.46 32409.96 36576.46 32155.96 36830.46 31901.96 36830.46 31901.96 36576.46 32155.96 36322.46 31901.96 36068.46 31901.96 35814.46 M 32784.89 38902.66 33038.89 38902.66 33292.89 39156.66 33546.89 38902.66 33800.89 38902.66 33800.89 39156.66 33546.89 39410.66 33800.89 39664.66 33800.89 39918.66 33546.89 39918.66 33292.89 39664.66 33038.89 39918.66 32784.89 39918.66 32784.89 39664.66 33038.89 39410.66 32784.89 39156.66 32784.89 38902.66 M 34405.01 35814 34659.01 35814 34913.01 36068 35167.01 35814 35421.01 35814 35421.01 36068 35167.01 36322 35421.01 36576 35421.01 36830 35167.01 36830 34913.01 36576 34659.01 36830 34405.01 36830 34405.01 36576 34659.01 36322 34405.01 36068 34405.01 35814 M 35553.65 39291.69 35807.65 39291.69 36061.65 39545.69 36315.65 39291.69 36569.65 39291.69 36569.65 39545.69 36315.65 39799.69 36569.65 40053.69 36569.65 40307.69 36315.65 40307.69 36061.65 40053.69 35807.65 40307.69 35553.65 40307.69 35553.65 40053.69 35807.65 39799.69 35553.65 39545.69 35553.65 39291.69 M 39034.43 38841.71 39288.43 38841.71 39542.43 39095.71 39796.43 38841.71 40050.43 38841.71 40050.43 39095.71 39796.43 39349.71 40050.43 39603.71 40050.43 39857.71 39796.43 39857.71 39542.43 39603.71 39288.43 39857.71 39034.43 39857.71 39034.43 39603.71 39288.43 39349.71 39034.43 39095.71 39034.43 38841.71 M 29362.73 31762.62 29616.73 31762.62 29870.73 32016.62 30124.73 31762.62 30378.73 31762.62 30378.73 32016.62 30124.73 32270.62 30378.73 32524.62 30378.73 32778.62 30124.73 32778.62 29870.73 32524.62 29616.73 32778.62 29362.73 32778.62 29362.73 32524.62 29616.73 32270.62 29362.73 32016.62 29362.73 31762.62 M 26192.41 40742.82 26446.41 40742.82 26700.41 40996.82 26954.41 40742.82 27208.41 40742.82 27208.41 40996.82 26954.41 41250.82 27208.41 41504.82 27208.41 41758.82 26954.41 41758.82 26700.41 41504.82 26446.41 41758.82 26192.41 41758.82 26192.41 41504.82 26446.41 41250.82 26192.41 40996.82 26192.41 40742.82 M 29627.01 37704.52 29881.01 37704.52 30135.01 37958.52 30389.01 37704.52 30643.01 37704.52 30643.01 37958.52 30389.01 38212.52 30643.01 38466.52 30643.01 38720.52 30389.01 38720.52 30135.01 38466.52 29881.01 38720.52 29627.01 38720.52 29627.01 38466.52 29881.01 38212.52 29627.01 37958.52 29627.01 37704.52 M 30072.84 38841.69 30326.84 38841.69 30580.84 39095.69 30834.84 38841.69 31088.84 38841.69 31088.84 39095.69 30834.84 39349.69 31088.84 39603.69 31088.84 39857.69 30834.84 39857.69 30580.84 39603.69 30326.84 39857.69 30072.84 39857.69 30072.84 39603.69 30326.84 39349.69 30072.84 39095.69 30072.84 38841.69 M 45720 15886 45974 15886 46228 16140 46482 15886 46736 15886 46736 16140 46482 16394 46736 16648 46736 16902 46482 16902 46228 16648 45974 16902 45720 16902 45720 16648 45974 16394 45720 16140 45720 15886 M 45720 14086 45974 14086 46228 14340 46482 14086 46736 14086 46736 14340 46482 14594 46736 14848 46736 15102 46482 15102 46228 14848 45974 15102 45720 15102 45720 14848 45974 14594 45720 14340 45720 14086 M 45720 21082 45974 21082 46228 21336 46482 21082 46736 21082 46736 21336 46482 21590 46736 21844 46736 22098 46482 22098 46228 21844 45974 22098 45720 22098 45720 21844 45974 21590 45720 21336 45720 21082 M 45720 19293 45974 19293 46228 19547 46482 19293 46736 19293 46736 19547 46482 19801 46736 20055 46736 20309 46482 20309 46228 20055 45974 20309 45720 20309 45720 20055 45974 19801 45720 19547 45720 19293 M 7526.1 16599.01 7780.1 16599.01 8034.1 16853.01 8288.1 16599.01 8542.1 16599.01 8542.1 16853.01 8288.1 17107.01 8542.1 17361.01 8542.1 17615.01 8288.1 17615.01 8034.1 17361.01 7780.1 17615.01 7526.1 17615.01 7526.1 17361.01 7780.1 17107.01 7526.1 16853.01 7526.1 16599.01 M 8388 19576.99 8642 19576.99 8896 19830.99 9150 19576.99 9404 19576.99 9404 19830.99 9150 20084.99 9404 20338.99 9404 20592.99 9150 20592.99 8896 20338.99 8642 20592.99 8388 20592.99 8388 20338.99 8642 20084.99 8388 19830.99 8388 19576.99 M 3856.68 14999.01 4110.68 14999.01 4364.68 15253.01 4618.68 14999.01 4872.68 14999.01 4872.68 15253.01 4618.68 15507.01 4872.68 15761.01 4872.68 16015.01 4618.68 16015.01 4364.68 15761.01 4110.68 16015.01 3856.68 16015.01 3856.68 15761.01 4110.68 15507.01 3856.68 15253.01 3856.68 14999.01 M 37084 25781 37338 25781 37592 26035 37846 25781 38100 25781 38100 26035 37846 26289 38100 26543 38100 26797 37846 26797 37592 26543 37338 26797 37084 26797 37084 26543 37338 26289 37084 26035 37084 25781 M 35560 25781 35814 25781 36068 26035 36322 25781 36576 25781 36576 26035 36322 26289 36576 26543 36576 26797 36322 26797 36068 26543 35814 26797 35560 26797 35560 26543 35814 26289 35560 26035 35560 25781 M 37084 27305 37338 27305 37592 27559 37846 27305 38100 27305 38100 27559 37846 27813 38100 28067 38100 28321 37846 28321 37592 28067 37338 28321 37084 28321 37084 28067 37338 27813 37084 27559 37084 27305 M 35552.02 27305 35806.02 27305 36060.02 27559 36314.02 27305 36568.02 27305 36568.02 27559 36314.02 27813 36568.02 28067 36568.02 28321 36314.02 28321 36060.02 28067 35806.02 28321 35552.02 28321 35552.02 28067 35806.02 27813 35552.02 27559 35552.02 27305 M 20278.04 27305 20532.04 27305 20786.04 27559 21040.04 27305 21294.04 27305 21294.04 27559 21040.04 27813 21294.04 28067 21294.04 28321 21040.04 28321 20786.04 28067 20532.04 28321 20278.04 28321 20278.04 28067 20532.04 27813 20278.04 27559 20278.04 27305 M 21810.02 27305 22064.02 27305 22318.02 27559 22572.02 27305 22826.02 27305 22826.02 27559 22572.02 27813 22826.02 28067 22826.02 28321 22572.02 28321 22318.02 28067 22064.02 28321 21810.02 28321 21810.02 28067 22064.02 27813 21810.02 27559 21810.02 27305 M 20286.02 25781 20540.02 25781 20794.02 26035 21048.02 25781 21302.02 25781 21302.02 26035 21048.02 26289 21302.02 26543 21302.02 26797 21048.02 26797 20794.02 26543 20540.02 26797 20286.02 26797 20286.02 26543 20540.02 26289 20286.02 26035 20286.02 25781 M 21810.02 25781 22064.02 25781 22318.02 26035 22572.02 25781 22826.02 25781 22826.02 26035 22572.02 26289 22826.02 26543 22826.02 26797 22572.02 26797 22318.02 26543 22064.02 26797 21810.02 26797 21810.02 26543 22064.02 26289 21810.02 26035 21810.02 25781 M 24742.32 19484.79 24996.32 19484.79 25250.32 19738.79 25504.32 19484.79 25758.32 19484.79 25758.32 19738.79 25504.32 19992.79 25758.32 20246.79 25758.32 20500.79 25504.32 20500.79 25250.32 20246.79 24996.32 20500.79 24742.32 20500.79 24742.32 20246.79 24996.32 19992.79 24742.32 19738.79 24742.32 19484.79 M 23554.31 21920 23808.31 21920 24062.31 22174 24316.31 21920 24570.31 21920 24570.31 22174 24316.31 22428 24570.31 22682 24570.31 22936 24316.31 22936 24062.31 22682 23808.31 22936 23554.31 22936 23554.31 22682 23808.31 22428 23554.31 22174 23554.31 21920 M 31190 19470 31444 19470 31698 19724 31952 19470 32206 19470 32206 19724 31952 19978 32206 20232 32206 20486 31952 20486 31698 20232 31444 20486 31190 20486 31190 20232 31444 19978 31190 19724 31190 19470 M 31190 21170 31444 21170 31698 21424 31952 21170 32206 21170 32206 21424 31952 21678 32206 21932 32206 22186 31952 22186 31698 21932 31444 22186 31190 22186 31190 21932 31444 21678 31190 21424 31190 21170 M 18669 8531 18923 8531 19177 8785 19431 8531 19685 8531 19685 8785 19431 9039 19685 9293 19685 9547 19431 9547 19177 9293 18923 9547 18669 9547 18669 9293 18923 9039 18669 8785 18669 8531 M 18669 12031.01 18923 12031.01 19177 12285.01 19431 12031.01 19685 12031.01 19685 12285.01 19431 12539.01 19685 12793.01 19685 13047.01 19431 13047.01 19177 12793.01 18923 13047.01 18669 13047.01 18669 12793.01 18923 12539.01 18669 12285.01 18669 12031.01 M 18669 17631 18923 17631 19177 17885 19431 17631 19685 17631 19685 17885 19431 18139 19685 18393 19685 18647 19431 18647 19177 18393 18923 18647 18669 18647 18669 18393 18923 18139 18669 17885 18669 17631 M 18669 14130.99 18923 14130.99 19177 14384.99 19431 14130.99 19685 14130.99 19685 14384.99 19431 14638.99 19685 14892.99 19685 15146.99 19431 15146.99 19177 14892.99 18923 15146.99 18669 15146.99 18669 14892.99 18923 14638.99 18669 14384.99 18669 14130.99" fill="none" stroke-width="127"/><path d="M 25704.8 11176 A 508 508 0 0 1 24688.8 11176 508 508 0 0 1 25704.8 11176 M 40589.2 11176 A 508 508 0 0 1 39573.2 11176 508 508 0 0 1 40589.2 11176 M 5508 5000 A 508 508 0 0 1 4492 5000 508 508 0 0 1 5508 5000 M 5508 45000 A 508 508 0 0 1 4492 45000 508 508 0 0 1 5508 45000 M 45508 5000 A 508 508 0 0 1 44492 5000 508 508 0 0 1 45508 5000 M 45508 45000 A 508 508 0 0 1 44492 45000 508 508 0 0 1 45508 45000" fill="none" stroke-width="169.33"/><path d="M 5304.8 5000 A 304.8 304.8 0 0 1 4695.2 5000 304.8 304.8 0 0 1 5304.8 5000 M 5304.8 45000 A 304.8 304.8 0 0 1 4695.2 45000 304.8 304.8 0 0 1 5304.8 45000 M 45304.8 5000 A 304.8 304.8 0 0 1 44695.2 5000 304.8 304.8 0 0 1 45304.8 5000 M 45304.8 45000 A 304.8 304.8 0 0 1 44695.2 45000 304.8 304.8 0 0 1 45304.8 45000" fill="none" stroke-width="101.6"/></g></svg>