<svg version="1.1" xmlns="http://www.w3.org/2000/svg" xmlns:xlink="http://www.w3.org/1999/xlink" stroke-linecap="round" stroke-linejoin="round" stroke-width="0" fill-rule="evenodd" width="46.951550000000005mm" height="45.3mm" viewBox="2521 3350 46951.55 45300" id="jtZOaYxJ4l31u4hBcZXH"><defs><circle cx="0" cy="0" r="444.5" id="jtZOaYxJ4l31u4hBcZXH_pad-89"/><circle cx="0" cy="0" r="787.4" id="jtZOaYxJ4l31u4hBcZXH_pad-90"/><circle cx="0" cy="0" r="1650" id="jtZOaYxJ4l31u4hBcZXH_pad-91"/><circle cx="0" cy="0" r="400" id="jtZOaYxJ4l31u4hBcZXH_pad-92"/><circle cx="0" cy="0" r="550" id="jtZOaYxJ4l31u4hBcZXH_pad-93"/><circle cx="0" cy="0" r="350" id="jtZOaYxJ4l31u4hBcZXH_pad-94"/><circle cx="0" cy="0" r="150" id="jtZOaYxJ4l31u4hBcZXH_pad-95"/></defs><g transform="translate(0,52000) scale(1,-1)" fill="currentColor" stroke="currentColor"><use xlink:href="#jtZOaYxJ4l31u4hBcZXH_pad-89" x="28194" y="14478"/><use xlink:href="#jtZOaYxJ4l31u4hBcZXH_pad-89" x="29464" y="17018"/><use xlink:href="#jtZOaYxJ4l31u4hBcZXH_pad-89" x="30734" y="14478"/><use xlink:href="#jtZOaYxJ4l31u4hBcZXH_pad-89" x="32004" y="17018"/><use xlink:href="#jtZOaYxJ4l31u4hBcZXH_pad-89" x="33274" y="14478"/><use xlink:href="#jtZOaYxJ4l31u4hBcZXH_pad-89" x="34544" y="17018"/><use xlink:href="#jtZOaYxJ4l31u4hBcZXH_pad-89" x="35814" y="14478"/><use xlink:href="#jtZOaYxJ4l31u4hBcZXH_pad-89" x="37084" y="17018"/><use xlink:href="#jtZOaYxJ4l31u4hBcZXH_pad-90" x="25196.8" y="11176"/><use xlink:href="#jtZOaYxJ4l31u4hBcZXH_pad-90" x="40081.2" y="11176"/><use xlink:href="#jtZOaYxJ4l31u4hBcZXH_pad-91" x="5000" y="5000"/><use xlink:href="#jtZOaYxJ4l31u4hBcZXH_pad-91" x="5000" y="45000"/><use xlink:href="#jtZOaYxJ4l31u4hBcZXH_pad-91" x="45000" y="5000"/><use xlink:href="#jtZOaYxJ4l31u4hBcZXH_pad-91" x="45000" y="45000"/><use xlink:href="#jtZOaYxJ4l31u4hBcZXH_pad-92" x="7921" y="10795"/><use xlink:href="#jtZOaYxJ4l31u4hBcZXH_pad-92" x="5421" y="10795"/><use xlink:href="#jtZOaYxJ4l31u4hBcZXH_pad-92" x="2921" y="10795"/><use xlink:href="#jtZOaYxJ4l31u4hBcZXH_pad-93" x="32460" y="48100"/><use xlink:href="#jtZOaYxJ4l31u4hBcZXH_pad-93" x="35000" y="48100"/><use xlink:href="#jtZOaYxJ4l31u4hBcZXH_pad-93" x="37540" y="48100"/><use xlink:href="#jtZOaYxJ4l31u4hBcZXH_pad-93" x="17540" y="48100"/><use xlink:href="#jtZOaYxJ4l31u4hBcZXH_pad-93" x="15000" y="48100"/><use xlink:href="#jtZOaYxJ4l31u4hBcZXH_pad-93" x="12460" y="48100"/><use xlink:href="#jtZOaYxJ4l31u4hBcZXH_pad-94" x="42299.99" y="33551.98"/><use xlink:href="#jtZOaYxJ4l31u4hBcZXH_pad-94" x="46000.01" y="35052"/><use xlink:href="#jtZOaYxJ4l31u4hBcZXH_pad-94" x="42299.99" y="36552.02"/><use xlink:href="#jtZOaYxJ4l31u4hBcZXH_pad-94" x="46000.01" y="38051.99"/><use xlink:href="#jtZOaYxJ4l31u4hBcZXH_pad-94" x="3999.99" y="33500.01"/><use xlink:href="#jtZOaYxJ4l31u4hBcZXH_pad-94" x="7700.01" y="34999.98"/><use xlink:href="#jtZOaYxJ4l31u4hBcZXH_pad-94" x="3999.99" y="36500"/><use xlink:href="#jtZOaYxJ4l31u4hBcZXH_pad-94" x="7700.01" y="38000.03"/><use xlink:href="#jtZOaYxJ4l31u4hBcZXH_pad-95" x="38291.64" y="29347.41"/><use xlink:href="#jtZOaYxJ4l31u4hBcZXH_pad-95" x="7509.42" y="29014.72"/><use xlink:href="#jtZOaYxJ4l31u4hBcZXH_pad-95" x="49322.55" y="24304"/><use xlink:href="#jtZOaYxJ4l31u4hBcZXH_pad-95" x="37342.41" y="43737.97"/><use xlink:href="#jtZOaYxJ4l31u4hBcZXH_pad-95" x="18362.26" y="19228"/><use xlink:href="#jtZOaYxJ4l31u4hBcZXH_pad-95" x="18362.26" y="22428"/><use xlink:href="#jtZOaYxJ4l31u4hBcZXH_pad-95" x="10086.72" y="37154.97"/><use xlink:href="#jtZOaYxJ4l31u4hBcZXH_pad-95" x="10637.73" y="38704.82"/><use xlink:href="#jtZOaYxJ4l31u4hBcZXH_pad-95" x="10243.9" y="17107.01"/><use xlink:href="#jtZOaYxJ4l31u4hBcZXH_pad-95" x="6285.77" y="35785.79"/><use xlink:href="#jtZOaYxJ4l31u4hBcZXH_pad-95" x="40615.96" y="35200.59"/><use xlink:href="#jtZOaYxJ4l31u4hBcZXH_pad-95" x="25019" y="32922.37"/><use xlink:href="#jtZOaYxJ4l31u4hBcZXH_pad-95" x="25019" y="35526.18"/><use xlink:href="#jtZOaYxJ4l31u4hBcZXH_pad-95" x="32367.96" y="27813"/><use xlink:href="#jtZOaYxJ4l31u4hBcZXH_pad-95" x="49095.55" y="29608"/><use xlink:href="#jtZOaYxJ4l31u4hBcZXH_pad-95" x="24062.31" y="19228"/><use xlink:href="#jtZOaYxJ4l31u4hBcZXH_pad-95" x="25198" y="21678"/><use xlink:href="#jtZOaYxJ4l31u4hBcZXH_pad-95" x="23681.13" y="42331.82"/><use xlink:href="#jtZOaYxJ4l31u4hBcZXH_pad-95" x="21798.79" y="31960.26"/><use xlink:href="#jtZOaYxJ4l31u4hBcZXH_pad-95" x="26700.41" y="42924.74"/><use xlink:href="#jtZOaYxJ4l31u4hBcZXH_pad-95" x="17198.06" y="42291"/><use xlink:href="#jtZOaYxJ4l31u4hBcZXH_pad-95" x="13162.33" y="13930.99"/><use xlink:href="#jtZOaYxJ4l31u4hBcZXH_pad-95" x="9139" y="14637.06"/><use xlink:href="#jtZOaYxJ4l31u4hBcZXH_pad-95" x="40719.41" y="33722.01"/><use xlink:href="#jtZOaYxJ4l31u4hBcZXH_pad-95" x="19668.13" y="39873.01"/><use xlink:href="#jtZOaYxJ4l31u4hBcZXH_pad-95" x="10086.72" y="33161.38"/><use xlink:href="#jtZOaYxJ4l31u4hBcZXH_pad-95" x="17219.19" y="36188.62"/><use xlink:href="#jtZOaYxJ4l31u4hBcZXH_pad-95" x="14716.14" y="36189.08"/><use xlink:href="#jtZOaYxJ4l31u4hBcZXH_pad-95" x="19494.14" y="34298.56"/><use xlink:href="#jtZOaYxJ4l31u4hBcZXH_pad-95" x="19048.31" y="33161.39"/><use xlink:href="#jtZOaYxJ4l31u4hBcZXH_pad-95" x="16336.26" y="33100.42"/><use xlink:href="#jtZOaYxJ4l31u4hBcZXH_pad-95" x="13567.5" y="32711.39"/><use xlink:href="#jtZOaYxJ4l31u4hBcZXH_pad-95" x="32409.96" y="36322.46"/><use xlink:href="#jtZOaYxJ4l31u4hBcZXH_pad-95" x="33292.89" y="39410.66"/><use xlink:href="#jtZOaYxJ4l31u4hBcZXH_pad-95" x="34913.01" y="36322"/><use xlink:href="#jtZOaYxJ4l31u4hBcZXH_pad-95" x="36061.65" y="39799.69"/><use xlink:href="#jtZOaYxJ4l31u4hBcZXH_pad-95" x="39542.43" y="39349.71"/><use xlink:href="#jtZOaYxJ4l31u4hBcZXH_pad-95" x="29870.73" y="32270.62"/><use xlink:href="#jtZOaYxJ4l31u4hBcZXH_pad-95" x="26700.41" y="41250.82"/><use xlink:href="#jtZOaYxJ4l31u4hBcZXH_pad-95" x="30135.01" y="38212.52"/><use xlink:href="#jtZOaYxJ4l31u4hBcZXH_pad-95" x="30580.84" y="39349.69"/><use xlink:href="#jtZOaYxJ4l31u4hBcZXH_pad-95" x="46228" y="16394"/><use xlink:href="#jtZOaYxJ4l31u4hBcZXH_pad-95" x="46228" y="14594"/><use xlink:href="#jtZOaYxJ4l31u4hBcZXH_pad-95" x="46228" y="21590"/><use xlink:href="#jtZOaYxJ4l31u4hBcZXH_pad-95" x="46228" y="19801"/><use xlink:href="#jtZOaYxJ4l31u4hBcZXH_pad-95" x="8034.1" y="17107.01"/><use xlink:href="#jtZOaYxJ4l31u4hBcZXH_pad-95" x="8896" y="20084.99"/><use xlink:href="#jtZOaYxJ4l31u4hBcZXH_pad-95" x="4364.68" y="15507.01"/><use xlink:href="#jtZOaYxJ4l31u4hBcZXH_pad-95" x="37592" y="26289"/><use xlink:href="#jtZOaYxJ4l31u4hBcZXH_pad-95" x="36068" y="26289"/><use xlink:href="#jtZOaYxJ4l31u4hBcZXH_pad-95" x="37592" y="27813"/><use xlink:href="#jtZOaYxJ4l31u4hBcZXH_pad-95" x="36060.02" y="27813"/><use xlink:href="#jtZOaYxJ4l31u4hBcZXH_pad-95" x="20786.04" y="27813"/><use xlink:href="#jtZOaYxJ4l31u4hBcZXH_pad-95" x="22318.02" y="27813"/><use xlink:href="#jtZOaYxJ4l31u4hBcZXH_pad-95" x="20794.02" y="26289"/><use xlink:href="#jtZOaYxJ4l31u4hBcZXH_pad-95" x="22318.02" y="26289"/><use xlink:href="#jtZOaYxJ4l31u4hBcZXH_pad-95" x="25250.32" y="19992.79"/><use xlink:href="#jtZOaYxJ4l31u4hBcZXH_pad-95" x="24062.31" y="22428"/><use xlink:href="#jtZOaYxJ4l31u4hBcZXH_pad-95" x="31698" y="19978"/><use xlink:href="#jtZOaYxJ4l31u4hBcZXH_pad-95" x="31698" y="21678"/><use xlink:href="#jtZOaYxJ4l31u4hBcZXH_pad-95" x="19177" y="9039"/><use xlink:href="#jtZOaYxJ4l31u4hBcZXH_pad-95" x="19177" y="12539.01"/><use xlink:href="#jtZOaYxJ4l31u4hBcZXH_pad-95" x="19177" y="18139"/><use xlink:href="#jtZOaYxJ4l31u4hBcZXH_pad-95" x="19177" y="14638.99"/></g></svg>